G04 (created by PCBNEW (2013-07-07 BZR 4022)-stable) date Saturday 09 November 2013 12:27:47 PM IST*
%MOIN*%
G04 Gerber Fmt 3.4, Leading zero omitted, Abs format*
%FSLAX34Y34*%
G01*
G70*
G90*
G04 APERTURE LIST*
%ADD10C,0.00590551*%
%ADD11R,0.0098X0.06*%
%ADD12O,0.0098X0.06*%
%ADD13O,0.06X0.0098*%
%ADD14C,0.06*%
%ADD15C,0.0629921*%
%ADD16R,0.06X0.06*%
%ADD17C,0.055*%
G04 APERTURE END LIST*
G54D10*
G54D11*
X35024Y-29311D03*
G54D12*
X35221Y-29311D03*
X35418Y-29311D03*
X35615Y-29311D03*
X35812Y-29311D03*
X36008Y-29311D03*
X36205Y-29311D03*
X36402Y-29311D03*
X36599Y-29311D03*
X36796Y-29311D03*
X36993Y-29311D03*
X37189Y-29311D03*
X37386Y-29311D03*
X37583Y-29311D03*
X37780Y-29311D03*
X37977Y-29311D03*
G54D13*
X38875Y-28476D03*
X38875Y-28279D03*
X38875Y-28082D03*
X38875Y-27885D03*
X38875Y-27688D03*
X38875Y-27492D03*
X38875Y-27295D03*
X38875Y-27098D03*
X38875Y-26901D03*
X38875Y-26704D03*
X38875Y-26507D03*
X38875Y-26311D03*
X38875Y-26114D03*
X38875Y-25917D03*
X38875Y-25720D03*
X38875Y-25523D03*
G54D12*
X37977Y-24625D03*
X37780Y-24625D03*
X37583Y-24625D03*
X37386Y-24625D03*
X37189Y-24625D03*
X36993Y-24625D03*
X36796Y-24625D03*
X36599Y-24625D03*
X36402Y-24625D03*
X36205Y-24625D03*
X36008Y-24625D03*
X35812Y-24625D03*
X35615Y-24625D03*
X35418Y-24625D03*
X35221Y-24625D03*
X35024Y-24625D03*
G54D13*
X34189Y-25523D03*
X34189Y-25720D03*
X34189Y-26114D03*
X34182Y-25917D03*
X34189Y-26311D03*
X34189Y-26507D03*
X34189Y-26704D03*
X34189Y-26901D03*
X34189Y-27098D03*
X34189Y-27295D03*
X34189Y-27489D03*
X34189Y-27686D03*
X34189Y-27883D03*
X34189Y-28080D03*
X34189Y-28276D03*
X34189Y-28473D03*
G54D14*
X34500Y-32500D03*
X38500Y-32500D03*
X38500Y-31000D03*
X34500Y-31000D03*
G54D15*
X31000Y-17000D03*
X32000Y-17000D03*
X33000Y-17000D03*
X34000Y-17000D03*
X35000Y-17000D03*
X36000Y-17000D03*
X37000Y-17000D03*
X38000Y-17000D03*
X39000Y-17000D03*
X40000Y-17000D03*
G54D16*
X43000Y-17500D03*
G54D14*
X44000Y-17500D03*
G54D16*
X46000Y-17500D03*
G54D14*
X47000Y-17500D03*
G54D16*
X43500Y-20500D03*
G54D14*
X44500Y-20500D03*
G54D16*
X43000Y-23500D03*
G54D14*
X44000Y-23500D03*
G54D16*
X46000Y-23500D03*
G54D14*
X47000Y-23500D03*
G54D16*
X46000Y-20500D03*
G54D14*
X47000Y-20500D03*
G54D17*
X25500Y-22000D03*
X26500Y-22000D03*
X25500Y-23500D03*
X26500Y-23500D03*
X28000Y-23500D03*
X29000Y-23500D03*
X28000Y-22000D03*
X29000Y-22000D03*
M02*
