G04 (created by PCBNEW (2013-07-07 BZR 4022)-stable) date Saturday 09 November 2013 12:27:47 PM IST*
%MOIN*%
G04 Gerber Fmt 3.4, Leading zero omitted, Abs format*
%FSLAX34Y34*%
G01*
G70*
G90*
G04 APERTURE LIST*
%ADD10C,0.00590551*%
%ADD11C,0.011811*%
%ADD12C,0.008*%
%ADD13C,0.012*%
%ADD14C,0.005*%
%ADD15C,0.006*%
%ADD16C,0.01125*%
G04 APERTURE END LIST*
G54D10*
G54D11*
X25782Y-17429D02*
X25979Y-17429D01*
X26064Y-17739D02*
X25782Y-17739D01*
X25782Y-17148D01*
X26064Y-17148D01*
X26654Y-17682D02*
X26626Y-17710D01*
X26542Y-17739D01*
X26485Y-17739D01*
X26401Y-17710D01*
X26345Y-17654D01*
X26317Y-17598D01*
X26289Y-17485D01*
X26289Y-17401D01*
X26317Y-17289D01*
X26345Y-17232D01*
X26401Y-17176D01*
X26485Y-17148D01*
X26542Y-17148D01*
X26626Y-17176D01*
X26654Y-17204D01*
X27217Y-17176D02*
X27160Y-17148D01*
X27076Y-17148D01*
X26992Y-17176D01*
X26935Y-17232D01*
X26907Y-17289D01*
X26879Y-17401D01*
X26879Y-17485D01*
X26907Y-17598D01*
X26935Y-17654D01*
X26992Y-17710D01*
X27076Y-17739D01*
X27132Y-17739D01*
X27217Y-17710D01*
X27245Y-17682D01*
X27245Y-17485D01*
X27132Y-17485D01*
G54D12*
X35082Y-28568D02*
G75*
G03X35082Y-28568I-150J0D01*
G74*
G01*
X38532Y-24968D02*
X34532Y-24968D01*
X34532Y-24968D02*
X34532Y-28718D01*
X34532Y-28718D02*
X34782Y-28968D01*
X34782Y-28968D02*
X38532Y-28968D01*
X38532Y-28968D02*
X38532Y-24968D01*
G54D13*
X34500Y-32500D02*
X34900Y-32500D01*
X34900Y-32500D02*
X34900Y-32100D01*
X34900Y-32100D02*
X38100Y-32100D01*
X38100Y-32100D02*
X38100Y-32900D01*
X38100Y-32900D02*
X34900Y-32900D01*
X34900Y-32900D02*
X34900Y-32500D01*
X34900Y-32300D02*
X35100Y-32100D01*
X38500Y-32500D02*
X38100Y-32500D01*
X38500Y-31000D02*
X38100Y-31000D01*
X38100Y-31000D02*
X38100Y-31400D01*
X38100Y-31400D02*
X34900Y-31400D01*
X34900Y-31400D02*
X34900Y-30600D01*
X34900Y-30600D02*
X38100Y-30600D01*
X38100Y-30600D02*
X38100Y-31000D01*
X38100Y-31200D02*
X37900Y-31400D01*
X34500Y-31000D02*
X34900Y-31000D01*
G54D10*
X30500Y-17500D02*
X30500Y-16500D01*
X30500Y-16500D02*
X40500Y-16500D01*
X40500Y-16500D02*
X40500Y-17500D01*
X40500Y-17500D02*
X30500Y-17500D01*
G54D14*
X44750Y-17500D02*
G75*
G03X44750Y-17500I-1250J0D01*
G74*
G01*
X47750Y-17500D02*
G75*
G03X47750Y-17500I-1250J0D01*
G74*
G01*
X45250Y-20500D02*
G75*
G03X45250Y-20500I-1250J0D01*
G74*
G01*
X44750Y-23500D02*
G75*
G03X44750Y-23500I-1250J0D01*
G74*
G01*
X47750Y-23500D02*
G75*
G03X47750Y-23500I-1250J0D01*
G74*
G01*
X47750Y-20500D02*
G75*
G03X47750Y-20500I-1250J0D01*
G74*
G01*
G54D13*
X25020Y-21500D02*
X27000Y-21500D01*
X27000Y-21500D02*
X27000Y-22500D01*
X27000Y-22500D02*
X25000Y-22500D01*
X25000Y-22500D02*
X25000Y-21500D01*
X25000Y-21750D02*
X25250Y-21500D01*
X25020Y-23000D02*
X27000Y-23000D01*
X27000Y-23000D02*
X27000Y-24000D01*
X27000Y-24000D02*
X25000Y-24000D01*
X25000Y-24000D02*
X25000Y-23000D01*
X25000Y-23250D02*
X25250Y-23000D01*
X27520Y-23000D02*
X29500Y-23000D01*
X29500Y-23000D02*
X29500Y-24000D01*
X29500Y-24000D02*
X27500Y-24000D01*
X27500Y-24000D02*
X27500Y-23000D01*
X27500Y-23250D02*
X27750Y-23000D01*
X27520Y-21500D02*
X29500Y-21500D01*
X29500Y-21500D02*
X29500Y-22500D01*
X29500Y-22500D02*
X27500Y-22500D01*
X27500Y-22500D02*
X27500Y-21500D01*
X27500Y-21750D02*
X27750Y-21500D01*
G54D14*
X36220Y-26142D02*
X36220Y-26492D01*
X36240Y-26534D01*
X36261Y-26554D01*
X36302Y-26575D01*
X36385Y-26575D01*
X36426Y-26554D01*
X36446Y-26534D01*
X36467Y-26492D01*
X36467Y-26142D01*
X36653Y-26183D02*
X36673Y-26162D01*
X36714Y-26142D01*
X36818Y-26142D01*
X36859Y-26162D01*
X36879Y-26183D01*
X36900Y-26224D01*
X36900Y-26265D01*
X36879Y-26327D01*
X36632Y-26575D01*
X36900Y-26575D01*
G54D15*
X35271Y-27696D02*
X35458Y-27696D01*
X35233Y-27809D02*
X35364Y-27415D01*
X35496Y-27809D01*
X35627Y-27809D02*
X35627Y-27415D01*
X35721Y-27415D01*
X35777Y-27434D01*
X35815Y-27471D01*
X35833Y-27509D01*
X35852Y-27584D01*
X35852Y-27640D01*
X35833Y-27715D01*
X35815Y-27753D01*
X35777Y-27790D01*
X35721Y-27809D01*
X35627Y-27809D01*
X36002Y-27790D02*
X36059Y-27809D01*
X36152Y-27809D01*
X36190Y-27790D01*
X36209Y-27771D01*
X36227Y-27734D01*
X36227Y-27696D01*
X36209Y-27659D01*
X36190Y-27640D01*
X36152Y-27621D01*
X36077Y-27603D01*
X36040Y-27584D01*
X36021Y-27565D01*
X36002Y-27528D01*
X36002Y-27490D01*
X36021Y-27453D01*
X36040Y-27434D01*
X36077Y-27415D01*
X36171Y-27415D01*
X36227Y-27434D01*
X36603Y-27809D02*
X36378Y-27809D01*
X36490Y-27809D02*
X36490Y-27415D01*
X36453Y-27471D01*
X36415Y-27509D01*
X36378Y-27528D01*
X36753Y-27453D02*
X36772Y-27434D01*
X36809Y-27415D01*
X36903Y-27415D01*
X36940Y-27434D01*
X36959Y-27453D01*
X36978Y-27490D01*
X36978Y-27528D01*
X36959Y-27584D01*
X36734Y-27809D01*
X36978Y-27809D01*
X37166Y-27809D02*
X37241Y-27809D01*
X37278Y-27790D01*
X37297Y-27771D01*
X37334Y-27715D01*
X37353Y-27640D01*
X37353Y-27490D01*
X37334Y-27453D01*
X37316Y-27434D01*
X37278Y-27415D01*
X37203Y-27415D01*
X37166Y-27434D01*
X37147Y-27453D01*
X37128Y-27490D01*
X37128Y-27584D01*
X37147Y-27621D01*
X37166Y-27640D01*
X37203Y-27659D01*
X37278Y-27659D01*
X37316Y-27640D01*
X37334Y-27621D01*
X37353Y-27584D01*
X37691Y-27546D02*
X37691Y-27809D01*
X37597Y-27396D02*
X37503Y-27678D01*
X37747Y-27678D01*
G54D12*
X36416Y-32722D02*
X36250Y-32460D01*
X36130Y-32722D02*
X36130Y-32172D01*
X36321Y-32172D01*
X36369Y-32198D01*
X36392Y-32225D01*
X36416Y-32277D01*
X36416Y-32355D01*
X36392Y-32408D01*
X36369Y-32434D01*
X36321Y-32460D01*
X36130Y-32460D01*
X36892Y-32722D02*
X36607Y-32722D01*
X36750Y-32722D02*
X36750Y-32172D01*
X36702Y-32251D01*
X36654Y-32303D01*
X36607Y-32329D01*
X36416Y-31222D02*
X36250Y-30960D01*
X36130Y-31222D02*
X36130Y-30672D01*
X36321Y-30672D01*
X36369Y-30698D01*
X36392Y-30725D01*
X36416Y-30777D01*
X36416Y-30855D01*
X36392Y-30908D01*
X36369Y-30934D01*
X36321Y-30960D01*
X36130Y-30960D01*
X36607Y-30725D02*
X36630Y-30698D01*
X36678Y-30672D01*
X36797Y-30672D01*
X36845Y-30698D01*
X36869Y-30725D01*
X36892Y-30777D01*
X36892Y-30829D01*
X36869Y-30908D01*
X36583Y-31222D01*
X36892Y-31222D01*
G54D10*
X29659Y-17290D02*
X29265Y-17290D01*
X29265Y-17140D01*
X29284Y-17103D01*
X29303Y-17084D01*
X29340Y-17065D01*
X29396Y-17065D01*
X29434Y-17084D01*
X29453Y-17103D01*
X29471Y-17140D01*
X29471Y-17290D01*
X29659Y-16690D02*
X29659Y-16915D01*
X29659Y-16803D02*
X29265Y-16803D01*
X29321Y-16840D01*
X29359Y-16878D01*
X29378Y-16915D01*
X30121Y-18021D02*
X30140Y-18040D01*
X30159Y-18096D01*
X30159Y-18134D01*
X30140Y-18190D01*
X30103Y-18227D01*
X30065Y-18246D01*
X29990Y-18265D01*
X29934Y-18265D01*
X29859Y-18246D01*
X29821Y-18227D01*
X29784Y-18190D01*
X29765Y-18134D01*
X29765Y-18096D01*
X29784Y-18040D01*
X29803Y-18021D01*
X29765Y-17778D02*
X29765Y-17703D01*
X29784Y-17665D01*
X29821Y-17628D01*
X29896Y-17609D01*
X30028Y-17609D01*
X30103Y-17628D01*
X30140Y-17665D01*
X30159Y-17703D01*
X30159Y-17778D01*
X30140Y-17815D01*
X30103Y-17853D01*
X30028Y-17871D01*
X29896Y-17871D01*
X29821Y-17853D01*
X29784Y-17815D01*
X29765Y-17778D01*
X30159Y-17440D02*
X29765Y-17440D01*
X30159Y-17215D01*
X29765Y-17215D01*
X30159Y-17028D02*
X29765Y-17028D01*
X30159Y-16803D01*
X29765Y-16803D01*
X30196Y-16709D02*
X30196Y-16409D01*
X30159Y-16109D02*
X30159Y-16334D01*
X30159Y-16221D02*
X29765Y-16221D01*
X29821Y-16259D01*
X29859Y-16296D01*
X29878Y-16334D01*
X29765Y-15865D02*
X29765Y-15828D01*
X29784Y-15790D01*
X29803Y-15772D01*
X29840Y-15753D01*
X29915Y-15734D01*
X30009Y-15734D01*
X30084Y-15753D01*
X30121Y-15772D01*
X30140Y-15790D01*
X30159Y-15828D01*
X30159Y-15865D01*
X30140Y-15903D01*
X30121Y-15922D01*
X30084Y-15940D01*
X30009Y-15959D01*
X29915Y-15959D01*
X29840Y-15940D01*
X29803Y-15922D01*
X29784Y-15903D01*
X29765Y-15865D01*
G54D12*
X43275Y-18239D02*
X43258Y-18260D01*
X43208Y-18282D01*
X43175Y-18282D01*
X43125Y-18260D01*
X43091Y-18217D01*
X43075Y-18175D01*
X43058Y-18089D01*
X43058Y-18025D01*
X43075Y-17939D01*
X43091Y-17896D01*
X43125Y-17853D01*
X43175Y-17832D01*
X43208Y-17832D01*
X43258Y-17853D01*
X43275Y-17875D01*
X43608Y-18282D02*
X43408Y-18282D01*
X43508Y-18282D02*
X43508Y-17832D01*
X43475Y-17896D01*
X43441Y-17939D01*
X43408Y-17960D01*
X43825Y-17832D02*
X43858Y-17832D01*
X43891Y-17853D01*
X43908Y-17875D01*
X43925Y-17917D01*
X43941Y-18003D01*
X43941Y-18110D01*
X43925Y-18196D01*
X43908Y-18239D01*
X43891Y-18260D01*
X43858Y-18282D01*
X43825Y-18282D01*
X43791Y-18260D01*
X43775Y-18239D01*
X43758Y-18196D01*
X43741Y-18110D01*
X43741Y-18003D01*
X43758Y-17917D01*
X43775Y-17875D01*
X43791Y-17853D01*
X43825Y-17832D01*
X43441Y-17082D02*
X43241Y-17082D01*
X43341Y-17082D02*
X43341Y-16632D01*
X43308Y-16696D01*
X43275Y-16739D01*
X43241Y-16760D01*
X43741Y-16782D02*
X43741Y-17082D01*
X43591Y-16782D02*
X43591Y-17017D01*
X43608Y-17060D01*
X43641Y-17082D01*
X43691Y-17082D01*
X43725Y-17060D01*
X43741Y-17039D01*
G54D16*
X42328Y-17510D02*
X42671Y-17510D01*
X42500Y-17682D02*
X42500Y-17339D01*
G54D13*
G54D12*
X46441Y-18239D02*
X46425Y-18260D01*
X46375Y-18282D01*
X46341Y-18282D01*
X46291Y-18260D01*
X46258Y-18217D01*
X46241Y-18175D01*
X46225Y-18089D01*
X46225Y-18025D01*
X46241Y-17939D01*
X46258Y-17896D01*
X46291Y-17853D01*
X46341Y-17832D01*
X46375Y-17832D01*
X46425Y-17853D01*
X46441Y-17875D01*
X46575Y-17875D02*
X46591Y-17853D01*
X46625Y-17832D01*
X46708Y-17832D01*
X46741Y-17853D01*
X46758Y-17875D01*
X46775Y-17917D01*
X46775Y-17960D01*
X46758Y-18025D01*
X46558Y-18282D01*
X46775Y-18282D01*
X46275Y-17082D02*
X46075Y-17082D01*
X46175Y-17082D02*
X46175Y-16632D01*
X46141Y-16696D01*
X46108Y-16739D01*
X46075Y-16760D01*
X46491Y-16632D02*
X46525Y-16632D01*
X46558Y-16653D01*
X46575Y-16675D01*
X46591Y-16717D01*
X46608Y-16803D01*
X46608Y-16910D01*
X46591Y-16996D01*
X46575Y-17039D01*
X46558Y-17060D01*
X46525Y-17082D01*
X46491Y-17082D01*
X46458Y-17060D01*
X46441Y-17039D01*
X46425Y-16996D01*
X46408Y-16910D01*
X46408Y-16803D01*
X46425Y-16717D01*
X46441Y-16675D01*
X46458Y-16653D01*
X46491Y-16632D01*
X46908Y-16782D02*
X46908Y-17082D01*
X46758Y-16782D02*
X46758Y-17017D01*
X46775Y-17060D01*
X46808Y-17082D01*
X46858Y-17082D01*
X46891Y-17060D01*
X46908Y-17039D01*
G54D16*
X45328Y-17510D02*
X45671Y-17510D01*
X45500Y-17682D02*
X45500Y-17339D01*
G54D13*
G54D12*
X43941Y-21239D02*
X43925Y-21260D01*
X43875Y-21282D01*
X43841Y-21282D01*
X43791Y-21260D01*
X43758Y-21217D01*
X43741Y-21175D01*
X43725Y-21089D01*
X43725Y-21025D01*
X43741Y-20939D01*
X43758Y-20896D01*
X43791Y-20853D01*
X43841Y-20832D01*
X43875Y-20832D01*
X43925Y-20853D01*
X43941Y-20875D01*
X44275Y-21282D02*
X44075Y-21282D01*
X44175Y-21282D02*
X44175Y-20832D01*
X44141Y-20896D01*
X44108Y-20939D01*
X44075Y-20960D01*
X43575Y-19675D02*
X43591Y-19653D01*
X43625Y-19632D01*
X43708Y-19632D01*
X43741Y-19653D01*
X43758Y-19675D01*
X43775Y-19717D01*
X43775Y-19760D01*
X43758Y-19825D01*
X43558Y-20082D01*
X43775Y-20082D01*
X43908Y-19675D02*
X43925Y-19653D01*
X43958Y-19632D01*
X44041Y-19632D01*
X44075Y-19653D01*
X44091Y-19675D01*
X44108Y-19717D01*
X44108Y-19760D01*
X44091Y-19825D01*
X43891Y-20082D01*
X44108Y-20082D01*
X44408Y-19782D02*
X44408Y-20082D01*
X44258Y-19782D02*
X44258Y-20017D01*
X44275Y-20060D01*
X44308Y-20082D01*
X44358Y-20082D01*
X44391Y-20060D01*
X44408Y-20039D01*
G54D16*
X42828Y-20510D02*
X43171Y-20510D01*
X43000Y-20682D02*
X43000Y-20339D01*
G54D13*
G54D12*
X43441Y-24239D02*
X43425Y-24260D01*
X43375Y-24282D01*
X43341Y-24282D01*
X43291Y-24260D01*
X43258Y-24217D01*
X43241Y-24175D01*
X43225Y-24089D01*
X43225Y-24025D01*
X43241Y-23939D01*
X43258Y-23896D01*
X43291Y-23853D01*
X43341Y-23832D01*
X43375Y-23832D01*
X43425Y-23853D01*
X43441Y-23875D01*
X43558Y-23832D02*
X43775Y-23832D01*
X43658Y-24003D01*
X43708Y-24003D01*
X43741Y-24025D01*
X43758Y-24046D01*
X43775Y-24089D01*
X43775Y-24196D01*
X43758Y-24239D01*
X43741Y-24260D01*
X43708Y-24282D01*
X43608Y-24282D01*
X43575Y-24260D01*
X43558Y-24239D01*
X43441Y-23082D02*
X43241Y-23082D01*
X43341Y-23082D02*
X43341Y-22632D01*
X43308Y-22696D01*
X43275Y-22739D01*
X43241Y-22760D01*
X43741Y-22782D02*
X43741Y-23082D01*
X43591Y-22782D02*
X43591Y-23017D01*
X43608Y-23060D01*
X43641Y-23082D01*
X43691Y-23082D01*
X43725Y-23060D01*
X43741Y-23039D01*
G54D16*
X42328Y-23510D02*
X42671Y-23510D01*
X42500Y-23682D02*
X42500Y-23339D01*
G54D13*
G54D12*
X46441Y-24239D02*
X46425Y-24260D01*
X46375Y-24282D01*
X46341Y-24282D01*
X46291Y-24260D01*
X46258Y-24217D01*
X46241Y-24175D01*
X46225Y-24089D01*
X46225Y-24025D01*
X46241Y-23939D01*
X46258Y-23896D01*
X46291Y-23853D01*
X46341Y-23832D01*
X46375Y-23832D01*
X46425Y-23853D01*
X46441Y-23875D01*
X46741Y-23832D02*
X46675Y-23832D01*
X46641Y-23853D01*
X46625Y-23875D01*
X46591Y-23939D01*
X46575Y-24025D01*
X46575Y-24196D01*
X46591Y-24239D01*
X46608Y-24260D01*
X46641Y-24282D01*
X46708Y-24282D01*
X46741Y-24260D01*
X46758Y-24239D01*
X46775Y-24196D01*
X46775Y-24089D01*
X46758Y-24046D01*
X46741Y-24025D01*
X46708Y-24003D01*
X46641Y-24003D01*
X46608Y-24025D01*
X46591Y-24046D01*
X46575Y-24089D01*
X46441Y-23082D02*
X46241Y-23082D01*
X46341Y-23082D02*
X46341Y-22632D01*
X46308Y-22696D01*
X46275Y-22739D01*
X46241Y-22760D01*
X46741Y-22782D02*
X46741Y-23082D01*
X46591Y-22782D02*
X46591Y-23017D01*
X46608Y-23060D01*
X46641Y-23082D01*
X46691Y-23082D01*
X46725Y-23060D01*
X46741Y-23039D01*
G54D16*
X45328Y-23510D02*
X45671Y-23510D01*
X45500Y-23682D02*
X45500Y-23339D01*
G54D13*
G54D12*
X46441Y-21239D02*
X46425Y-21260D01*
X46375Y-21282D01*
X46341Y-21282D01*
X46291Y-21260D01*
X46258Y-21217D01*
X46241Y-21175D01*
X46225Y-21089D01*
X46225Y-21025D01*
X46241Y-20939D01*
X46258Y-20896D01*
X46291Y-20853D01*
X46341Y-20832D01*
X46375Y-20832D01*
X46425Y-20853D01*
X46441Y-20875D01*
X46641Y-21025D02*
X46608Y-21003D01*
X46591Y-20982D01*
X46575Y-20939D01*
X46575Y-20917D01*
X46591Y-20875D01*
X46608Y-20853D01*
X46641Y-20832D01*
X46708Y-20832D01*
X46741Y-20853D01*
X46758Y-20875D01*
X46775Y-20917D01*
X46775Y-20939D01*
X46758Y-20982D01*
X46741Y-21003D01*
X46708Y-21025D01*
X46641Y-21025D01*
X46608Y-21046D01*
X46591Y-21067D01*
X46575Y-21110D01*
X46575Y-21196D01*
X46591Y-21239D01*
X46608Y-21260D01*
X46641Y-21282D01*
X46708Y-21282D01*
X46741Y-21260D01*
X46758Y-21239D01*
X46775Y-21196D01*
X46775Y-21110D01*
X46758Y-21067D01*
X46741Y-21046D01*
X46708Y-21025D01*
X46441Y-20082D02*
X46241Y-20082D01*
X46341Y-20082D02*
X46341Y-19632D01*
X46308Y-19696D01*
X46275Y-19739D01*
X46241Y-19760D01*
X46741Y-19782D02*
X46741Y-20082D01*
X46591Y-19782D02*
X46591Y-20017D01*
X46608Y-20060D01*
X46641Y-20082D01*
X46691Y-20082D01*
X46725Y-20060D01*
X46741Y-20039D01*
G54D16*
X45328Y-20510D02*
X45671Y-20510D01*
X45500Y-20682D02*
X45500Y-20339D01*
G54D13*
G54D12*
X26033Y-21223D02*
X26014Y-21242D01*
X25957Y-21261D01*
X25919Y-21261D01*
X25861Y-21242D01*
X25823Y-21204D01*
X25804Y-21166D01*
X25785Y-21090D01*
X25785Y-21033D01*
X25804Y-20957D01*
X25823Y-20919D01*
X25861Y-20880D01*
X25919Y-20861D01*
X25957Y-20861D01*
X26014Y-20880D01*
X26033Y-20900D01*
X26223Y-21261D02*
X26300Y-21261D01*
X26338Y-21242D01*
X26357Y-21223D01*
X26395Y-21166D01*
X26414Y-21090D01*
X26414Y-20938D01*
X26395Y-20900D01*
X26376Y-20880D01*
X26338Y-20861D01*
X26261Y-20861D01*
X26223Y-20880D01*
X26204Y-20900D01*
X26185Y-20938D01*
X26185Y-21033D01*
X26204Y-21071D01*
X26223Y-21090D01*
X26261Y-21109D01*
X26338Y-21109D01*
X26376Y-21090D01*
X26395Y-21071D01*
X26414Y-21033D01*
X26033Y-22723D02*
X26014Y-22742D01*
X25957Y-22761D01*
X25919Y-22761D01*
X25861Y-22742D01*
X25823Y-22704D01*
X25804Y-22666D01*
X25785Y-22590D01*
X25785Y-22533D01*
X25804Y-22457D01*
X25823Y-22419D01*
X25861Y-22380D01*
X25919Y-22361D01*
X25957Y-22361D01*
X26014Y-22380D01*
X26033Y-22400D01*
X26166Y-22361D02*
X26433Y-22361D01*
X26261Y-22761D01*
X28533Y-22723D02*
X28514Y-22742D01*
X28457Y-22761D01*
X28419Y-22761D01*
X28361Y-22742D01*
X28323Y-22704D01*
X28304Y-22666D01*
X28285Y-22590D01*
X28285Y-22533D01*
X28304Y-22457D01*
X28323Y-22419D01*
X28361Y-22380D01*
X28419Y-22361D01*
X28457Y-22361D01*
X28514Y-22380D01*
X28533Y-22400D01*
X28876Y-22495D02*
X28876Y-22761D01*
X28780Y-22342D02*
X28685Y-22628D01*
X28933Y-22628D01*
X28533Y-21223D02*
X28514Y-21242D01*
X28457Y-21261D01*
X28419Y-21261D01*
X28361Y-21242D01*
X28323Y-21204D01*
X28304Y-21166D01*
X28285Y-21090D01*
X28285Y-21033D01*
X28304Y-20957D01*
X28323Y-20919D01*
X28361Y-20880D01*
X28419Y-20861D01*
X28457Y-20861D01*
X28514Y-20880D01*
X28533Y-20900D01*
X28895Y-20861D02*
X28704Y-20861D01*
X28685Y-21052D01*
X28704Y-21033D01*
X28742Y-21014D01*
X28838Y-21014D01*
X28876Y-21033D01*
X28895Y-21052D01*
X28914Y-21090D01*
X28914Y-21185D01*
X28895Y-21223D01*
X28876Y-21242D01*
X28838Y-21261D01*
X28742Y-21261D01*
X28704Y-21242D01*
X28685Y-21223D01*
G54D10*
X36200Y-28765D02*
X36200Y-29084D01*
X36218Y-29121D01*
X36237Y-29140D01*
X36275Y-29159D01*
X36350Y-29159D01*
X36387Y-29140D01*
X36406Y-29121D01*
X36425Y-29084D01*
X36425Y-28765D01*
X36818Y-29159D02*
X36593Y-29159D01*
X36706Y-29159D02*
X36706Y-28765D01*
X36668Y-28821D01*
X36631Y-28859D01*
X36593Y-28878D01*
X36981Y-28953D02*
X37112Y-28953D01*
X37168Y-29159D02*
X36981Y-29159D01*
X36981Y-28765D01*
X37168Y-28765D01*
X37562Y-29121D02*
X37543Y-29140D01*
X37487Y-29159D01*
X37450Y-29159D01*
X37393Y-29140D01*
X37356Y-29103D01*
X37337Y-29065D01*
X37318Y-28990D01*
X37318Y-28934D01*
X37337Y-28859D01*
X37356Y-28821D01*
X37393Y-28784D01*
X37450Y-28765D01*
X37487Y-28765D01*
X37543Y-28784D01*
X37562Y-28803D01*
X37937Y-28784D02*
X37900Y-28765D01*
X37843Y-28765D01*
X37787Y-28784D01*
X37750Y-28821D01*
X37731Y-28859D01*
X37712Y-28934D01*
X37712Y-28990D01*
X37731Y-29065D01*
X37750Y-29103D01*
X37787Y-29140D01*
X37843Y-29159D01*
X37881Y-29159D01*
X37937Y-29140D01*
X37956Y-29121D01*
X37956Y-28990D01*
X37881Y-28990D01*
X38031Y-29196D02*
X38331Y-29196D01*
X38612Y-29159D02*
X38425Y-29159D01*
X38425Y-28765D01*
X38743Y-28953D02*
X38874Y-28953D01*
X38931Y-29159D02*
X38743Y-29159D01*
X38743Y-28765D01*
X38931Y-28765D01*
X39081Y-29046D02*
X39268Y-29046D01*
X39043Y-29159D02*
X39174Y-28765D01*
X39306Y-29159D01*
X39437Y-29159D02*
X39437Y-28765D01*
X39531Y-28765D01*
X39587Y-28784D01*
X39624Y-28821D01*
X39643Y-28859D01*
X39662Y-28934D01*
X39662Y-28990D01*
X39643Y-29065D01*
X39624Y-29103D01*
X39587Y-29140D01*
X39531Y-29159D01*
X39437Y-29159D01*
X39812Y-29140D02*
X39868Y-29159D01*
X39962Y-29159D01*
X39999Y-29140D01*
X40018Y-29121D01*
X40037Y-29084D01*
X40037Y-29046D01*
X40018Y-29009D01*
X39999Y-28990D01*
X39962Y-28971D01*
X39887Y-28953D01*
X39849Y-28934D01*
X39831Y-28915D01*
X39812Y-28878D01*
X39812Y-28840D01*
X39831Y-28803D01*
X39849Y-28784D01*
X39887Y-28765D01*
X39981Y-28765D01*
X40037Y-28784D01*
M02*
