G04 (created by PCBNEW (2013-07-07 BZR 4022)-stable) date Saturday 09 November 2013 12:27:47 PM IST*
%MOIN*%
G04 Gerber Fmt 3.4, Leading zero omitted, Abs format*
%FSLAX34Y34*%
G01*
G70*
G90*
G04 APERTURE LIST*
%ADD10C,0.00590551*%
%ADD11C,0.06*%
%ADD12C,0.0629921*%
%ADD13R,0.06X0.06*%
%ADD14C,0.055*%
%ADD15R,0.590551X0.787402*%
%ADD16R,1.1811X0.393701*%
%ADD17C,0.035*%
%ADD18C,0.006*%
G04 APERTURE END LIST*
G54D10*
G54D11*
X34500Y-32500D03*
X38500Y-32500D03*
X38500Y-31000D03*
X34500Y-31000D03*
G54D12*
X31000Y-17000D03*
X32000Y-17000D03*
X33000Y-17000D03*
X34000Y-17000D03*
X35000Y-17000D03*
X36000Y-17000D03*
X37000Y-17000D03*
X38000Y-17000D03*
X39000Y-17000D03*
X40000Y-17000D03*
G54D13*
X43000Y-17500D03*
G54D11*
X44000Y-17500D03*
G54D13*
X46000Y-17500D03*
G54D11*
X47000Y-17500D03*
G54D13*
X43500Y-20500D03*
G54D11*
X44500Y-20500D03*
G54D13*
X43000Y-23500D03*
G54D11*
X44000Y-23500D03*
G54D13*
X46000Y-23500D03*
G54D11*
X47000Y-23500D03*
G54D13*
X46000Y-20500D03*
G54D11*
X47000Y-20500D03*
G54D14*
X25500Y-22000D03*
X26500Y-22000D03*
X25500Y-23500D03*
X26500Y-23500D03*
X28000Y-23500D03*
X29000Y-23500D03*
X28000Y-22000D03*
X29000Y-22000D03*
G54D15*
X29500Y-29000D03*
X43500Y-29000D03*
G54D16*
X36000Y-20750D03*
G54D17*
X38218Y-26834D03*
G54D18*
X26500Y-23500D02*
X26500Y-22000D01*
X26870Y-21629D02*
X26500Y-22000D01*
X28662Y-21629D02*
X26870Y-21629D01*
X28662Y-21662D02*
X28662Y-21629D01*
X29000Y-22000D02*
X28662Y-21662D01*
X31720Y-17000D02*
X32000Y-17000D01*
X28662Y-20057D02*
X31720Y-17000D01*
X28662Y-21629D02*
X28662Y-20057D01*
X46500Y-23000D02*
X47000Y-23500D01*
X44500Y-23000D02*
X46500Y-23000D01*
X44000Y-23500D02*
X44500Y-23000D01*
X44500Y-23000D02*
X44500Y-20500D01*
X32542Y-30542D02*
X34500Y-32500D01*
X32542Y-29000D02*
X32542Y-30542D01*
X29500Y-29000D02*
X32542Y-29000D01*
X40457Y-29042D02*
X38500Y-31000D01*
X40457Y-29000D02*
X40457Y-29042D01*
X43500Y-29000D02*
X40457Y-29000D01*
X46000Y-23500D02*
X45609Y-23500D01*
X45219Y-23890D02*
X45609Y-23500D01*
X41581Y-23890D02*
X45219Y-23890D01*
X38358Y-27112D02*
X41581Y-23890D01*
X38101Y-27112D02*
X38358Y-27112D01*
X35420Y-24431D02*
X38101Y-27112D01*
X28398Y-24431D02*
X35420Y-24431D01*
X27634Y-23667D02*
X28398Y-24431D01*
X27634Y-22365D02*
X27634Y-23667D01*
X28000Y-22000D02*
X27634Y-22365D01*
X41694Y-16584D02*
X42609Y-17500D01*
X31415Y-16584D02*
X41694Y-16584D01*
X31000Y-17000D02*
X31415Y-16584D01*
X43000Y-17500D02*
X42609Y-17500D01*
X28039Y-23500D02*
X28000Y-23500D01*
X30004Y-21534D02*
X28039Y-23500D01*
X30004Y-20750D02*
X30004Y-21534D01*
X35761Y-20750D02*
X30004Y-20750D01*
X35761Y-20750D02*
X36000Y-20750D01*
X45245Y-17500D02*
X46000Y-17500D01*
X41995Y-20750D02*
X45245Y-17500D01*
X36000Y-20750D02*
X37933Y-20750D01*
X37933Y-20750D02*
X41995Y-20750D01*
X38218Y-21035D02*
X38218Y-26834D01*
X37933Y-20750D02*
X38218Y-21035D01*
M02*
