M48
;DRILL file {Pcbnew (2013-07-07 BZR 4022)-stable} date Saturday 09 November 2013 12:27:48 PM IST
;FORMAT={-:-/ absolute / inch / decimal}
FMAT,2
INCH,TZ
T1C0.025
T2C0.032
T3C0.041
%
G90
G05
M72
T1
X3.8219Y-2.6834
T2
X2.55Y-2.2
X2.55Y-2.35
X2.65Y-2.2
X2.65Y-2.35
X2.8Y-2.2
X2.8Y-2.35
X2.9Y-2.2
X2.9Y-2.35
X3.45Y-3.1
X3.45Y-3.25
X3.85Y-3.1
X3.85Y-3.25
X4.3Y-1.75
X4.3Y-2.35
X4.35Y-2.05
X4.4Y-1.75
X4.4Y-2.35
X4.45Y-2.05
X4.6Y-1.75
X4.6Y-2.05
X4.6Y-2.35
X4.7Y-1.75
X4.7Y-2.05
X4.7Y-2.35
T3
X3.1Y-1.7
X3.2Y-1.7
X3.3Y-1.7
X3.4Y-1.7
X3.5Y-1.7
X3.6Y-1.7
X3.7Y-1.7
X3.8Y-1.7
X3.9Y-1.7
X4.Y-1.7
T0
M30
