M48
;DRILL file {Pcbnew (2013-03-31 BZR 4008)-stable} date 8/2/2013 1:38:22 PM
;FORMAT={2:4/ absolute / inch / keep zeros}
FMAT,2
INCH,TZ
T1C0.016
T2C0.040
%
G90
G05
M72
T1
X015500Y-021500
T2
X012000Y-009000
X012000Y-010000
X012000Y-011000
X012000Y-012000
X012000Y-013000
X012000Y-014000
X012000Y-015000
X012000Y-016000
X012000Y-017000
X012000Y-018000
X012000Y-019000
X012000Y-020000
X012000Y-021000
X012000Y-022000
X012000Y-023000
X012000Y-024000
X012000Y-025000
X012000Y-026000
X012000Y-027000
X012000Y-028000
X012000Y-029000
X012000Y-030000
X012000Y-031000
X012000Y-032000
X012000Y-033000
X019000Y-009000
X019000Y-010000
X019000Y-011000
X019000Y-012000
X019000Y-013000
X019000Y-014000
X019000Y-015000
X019000Y-016000
X019000Y-017000
X019000Y-018000
X019000Y-019000
X019000Y-020000
X019000Y-021000
X019000Y-022000
X019000Y-023000
X019000Y-024000
X019000Y-025000
X019000Y-026000
X019000Y-027000
X019000Y-028000
X019000Y-029000
X019000Y-030000
X019000Y-031000
X019000Y-032000
X019000Y-033000
T0
M30
