G04 (created by PCBNEW (2013-05-31 BZR 4019)-stable) date 8/21/2013 10:35:06 AM*
%MOIN*%
G04 Gerber Fmt 3.4, Leading zero omitted, Abs format*
%FSLAX34Y34*%
G01*
G70*
G90*
G04 APERTURE LIST*
%ADD10C,0.00590551*%
%ADD11C,0.0629921*%
%ADD12R,0.06X0.06*%
%ADD13C,0.06*%
%ADD14C,0.15748*%
%ADD15C,0.035*%
%ADD16C,0.006*%
%ADD17C,0.01*%
G04 APERTURE END LIST*
G54D10*
G54D11*
X22500Y-18000D03*
X22500Y-19000D03*
X22500Y-17000D03*
X22500Y-13000D03*
X22500Y-14000D03*
X22500Y-12000D03*
X23500Y-30000D03*
X23500Y-29000D03*
X23500Y-28000D03*
X23500Y-27000D03*
X23500Y-31000D03*
X23500Y-32000D03*
X23500Y-33000D03*
X23500Y-34000D03*
X23500Y-42000D03*
X23500Y-41000D03*
X23500Y-40000D03*
X23500Y-39000D03*
X23500Y-35000D03*
X23500Y-36000D03*
X23500Y-37000D03*
X23500Y-38000D03*
X23500Y-22000D03*
X23500Y-21000D03*
X23500Y-20000D03*
X23500Y-19000D03*
X23500Y-23000D03*
X23500Y-24000D03*
X23500Y-25000D03*
X23500Y-26000D03*
X23500Y-18000D03*
X23500Y-17000D03*
X23500Y-16000D03*
X23500Y-15000D03*
X24500Y-11000D03*
X24500Y-12000D03*
X24500Y-13000D03*
X24500Y-14000D03*
X24500Y-15000D03*
X24500Y-16000D03*
X24500Y-17000D03*
X24500Y-18000D03*
X24500Y-19000D03*
X24500Y-20000D03*
X24500Y-21000D03*
X24500Y-22000D03*
X24500Y-23000D03*
X24500Y-24000D03*
X24500Y-25000D03*
X24500Y-26000D03*
X24500Y-27000D03*
X24500Y-28000D03*
X24500Y-29000D03*
X24500Y-30000D03*
X24500Y-31000D03*
X24500Y-32000D03*
X24500Y-33000D03*
X24500Y-34000D03*
X24500Y-35000D03*
X24500Y-36000D03*
X24500Y-37000D03*
X24500Y-38000D03*
X24500Y-39000D03*
X24500Y-40000D03*
X24500Y-41000D03*
X24500Y-42000D03*
X23500Y-11000D03*
X23500Y-12000D03*
X23500Y-13000D03*
X23500Y-14000D03*
X22500Y-11000D03*
X22500Y-15000D03*
X22500Y-16000D03*
X22500Y-20000D03*
X22500Y-21000D03*
X22500Y-22000D03*
X22500Y-23000D03*
X22500Y-24000D03*
X22500Y-25000D03*
X22500Y-26000D03*
X22500Y-27000D03*
X22500Y-28000D03*
X22500Y-29000D03*
X22500Y-30000D03*
X22500Y-31000D03*
X22500Y-32000D03*
X22500Y-33000D03*
X22500Y-34000D03*
X22500Y-35000D03*
X22500Y-36000D03*
X22500Y-37000D03*
X22500Y-38000D03*
X22500Y-39000D03*
X22500Y-40000D03*
X22500Y-41000D03*
X22500Y-42000D03*
X26000Y-18000D03*
X26000Y-19000D03*
X26000Y-17000D03*
X26000Y-13000D03*
X26000Y-14000D03*
X26000Y-12000D03*
X27000Y-30000D03*
X27000Y-29000D03*
X27000Y-28000D03*
X27000Y-27000D03*
X27000Y-31000D03*
X27000Y-32000D03*
X27000Y-33000D03*
X27000Y-34000D03*
X27000Y-42000D03*
X27000Y-41000D03*
X27000Y-40000D03*
X27000Y-39000D03*
X27000Y-35000D03*
X27000Y-36000D03*
X27000Y-37000D03*
X27000Y-38000D03*
X27000Y-22000D03*
X27000Y-21000D03*
X27000Y-20000D03*
X27000Y-19000D03*
X27000Y-23000D03*
X27000Y-24000D03*
X27000Y-25000D03*
X27000Y-26000D03*
X27000Y-18000D03*
X27000Y-17000D03*
X27000Y-16000D03*
X27000Y-15000D03*
X28000Y-11000D03*
X28000Y-12000D03*
X28000Y-13000D03*
X28000Y-14000D03*
X28000Y-15000D03*
X28000Y-16000D03*
X28000Y-17000D03*
X28000Y-18000D03*
X28000Y-19000D03*
X28000Y-20000D03*
X28000Y-21000D03*
X28000Y-22000D03*
X28000Y-23000D03*
X28000Y-24000D03*
X28000Y-25000D03*
X28000Y-26000D03*
X28000Y-27000D03*
X28000Y-28000D03*
X28000Y-29000D03*
X28000Y-30000D03*
X28000Y-31000D03*
X28000Y-32000D03*
X28000Y-33000D03*
X28000Y-34000D03*
X28000Y-35000D03*
X28000Y-36000D03*
X28000Y-37000D03*
X28000Y-38000D03*
X28000Y-39000D03*
X28000Y-40000D03*
X28000Y-41000D03*
X28000Y-42000D03*
X27000Y-11000D03*
X27000Y-12000D03*
X27000Y-13000D03*
X27000Y-14000D03*
X26000Y-11000D03*
X26000Y-15000D03*
X26000Y-16000D03*
X26000Y-20000D03*
X26000Y-21000D03*
X26000Y-22000D03*
X26000Y-23000D03*
X26000Y-24000D03*
X26000Y-25000D03*
X26000Y-26000D03*
X26000Y-27000D03*
X26000Y-28000D03*
X26000Y-29000D03*
X26000Y-30000D03*
X26000Y-31000D03*
X26000Y-32000D03*
X26000Y-33000D03*
X26000Y-34000D03*
X26000Y-35000D03*
X26000Y-36000D03*
X26000Y-37000D03*
X26000Y-38000D03*
X26000Y-39000D03*
X26000Y-40000D03*
X26000Y-41000D03*
X26000Y-42000D03*
X30000Y-11500D03*
X31000Y-11500D03*
X32000Y-11500D03*
G54D12*
X65500Y-18500D03*
G54D13*
X65500Y-17500D03*
X65500Y-16500D03*
X65500Y-15500D03*
X65500Y-14500D03*
G54D12*
X65500Y-37500D03*
G54D13*
X65500Y-36500D03*
X65500Y-35500D03*
X65500Y-34500D03*
X65500Y-33500D03*
G54D12*
X64500Y-29500D03*
G54D13*
X63500Y-29500D03*
G54D12*
X30000Y-18500D03*
G54D13*
X31000Y-18500D03*
G54D12*
X30000Y-17000D03*
G54D13*
X31000Y-17000D03*
G54D12*
X30000Y-15500D03*
G54D13*
X31000Y-15500D03*
G54D12*
X45000Y-17500D03*
G54D13*
X44000Y-17500D03*
G54D12*
X34000Y-17500D03*
G54D13*
X35000Y-17500D03*
G54D12*
X64500Y-23500D03*
G54D13*
X63500Y-23500D03*
G54D12*
X64500Y-26500D03*
G54D13*
X63500Y-26500D03*
G54D12*
X57000Y-15500D03*
G54D13*
X58000Y-15500D03*
G54D12*
X57000Y-17000D03*
G54D13*
X58000Y-17000D03*
G54D12*
X57000Y-18500D03*
G54D13*
X58000Y-18500D03*
G54D11*
X53000Y-12000D03*
X53000Y-11000D03*
X54000Y-12000D03*
X54000Y-11000D03*
X55000Y-12000D03*
X55000Y-11000D03*
X56000Y-12000D03*
X56000Y-11000D03*
X57000Y-12000D03*
X57000Y-11000D03*
X36500Y-25500D03*
X36500Y-26500D03*
X36500Y-27500D03*
X36500Y-28500D03*
X36500Y-29500D03*
X36500Y-30500D03*
X36500Y-31500D03*
X36500Y-32500D03*
X36500Y-33500D03*
X36500Y-34500D03*
X36500Y-35500D03*
X36500Y-36500D03*
X36500Y-37500D03*
X36500Y-38500D03*
X36500Y-39500D03*
X51500Y-39500D03*
X51500Y-38500D03*
X51500Y-37500D03*
X51500Y-36500D03*
X51500Y-35500D03*
X51500Y-34500D03*
X51500Y-33500D03*
X51500Y-32500D03*
X51500Y-31500D03*
X51500Y-30500D03*
X51500Y-29500D03*
X51500Y-28500D03*
X51500Y-27500D03*
X51500Y-26500D03*
X51500Y-25500D03*
G54D12*
X61000Y-30000D03*
G54D13*
X61000Y-29000D03*
G54D12*
X61000Y-24000D03*
G54D13*
X61000Y-23000D03*
G54D12*
X61000Y-27000D03*
G54D13*
X61000Y-26000D03*
G54D11*
X38500Y-11000D03*
X39500Y-11000D03*
X40500Y-11000D03*
X41500Y-11000D03*
X42500Y-11000D03*
X43500Y-11000D03*
X44500Y-11000D03*
X45500Y-11000D03*
X46500Y-11000D03*
G54D14*
X65500Y-42400D03*
X65500Y-10900D03*
X34000Y-42400D03*
X34000Y-10900D03*
G54D15*
X43069Y-22997D03*
X42955Y-23814D03*
X38297Y-15377D03*
X41659Y-16649D03*
X42100Y-22035D03*
X39188Y-21171D03*
X44655Y-16415D03*
X40364Y-22682D03*
X42496Y-16381D03*
X38917Y-16400D03*
X61490Y-35420D03*
X62003Y-19370D03*
X62003Y-36588D03*
X36879Y-21120D03*
G54D16*
X63500Y-26500D02*
X63500Y-29500D01*
X65500Y-34500D02*
X65500Y-35500D01*
X65500Y-35500D02*
X65500Y-36500D01*
X65500Y-36500D02*
X65500Y-37500D01*
X65500Y-14500D02*
X65500Y-15500D01*
X65500Y-15500D02*
X65500Y-16500D01*
X65500Y-16500D02*
X65500Y-17500D01*
X27000Y-15000D02*
X27000Y-16000D01*
X27000Y-17000D02*
X27000Y-18000D01*
X27000Y-18000D02*
X27000Y-19000D01*
X27000Y-37000D02*
X27000Y-36000D01*
X27000Y-37000D02*
X27000Y-38000D01*
X27000Y-38000D02*
X27000Y-39000D01*
X27000Y-39000D02*
X27000Y-40000D01*
X27000Y-40000D02*
X27000Y-41000D01*
X27000Y-41000D02*
X27000Y-42000D01*
X27000Y-36000D02*
X27000Y-35000D01*
X27000Y-35000D02*
X27000Y-34000D01*
X27000Y-34000D02*
X27000Y-33000D01*
X27000Y-32000D02*
X27000Y-31000D01*
X27000Y-31000D02*
X27000Y-30000D01*
X27000Y-27000D02*
X27000Y-28000D01*
X27000Y-28000D02*
X27000Y-29000D01*
X23500Y-13000D02*
X23500Y-12000D01*
X23500Y-12000D02*
X23500Y-11000D01*
X23500Y-14000D02*
X23500Y-15000D01*
X23500Y-15000D02*
X23500Y-16000D01*
X23500Y-16000D02*
X23500Y-17000D01*
X23500Y-17000D02*
X23500Y-18000D01*
X23500Y-18000D02*
X23500Y-19000D01*
X23500Y-19000D02*
X23500Y-20000D01*
X23500Y-20000D02*
X23500Y-21000D01*
X23500Y-37000D02*
X23500Y-36000D01*
X23500Y-37000D02*
X23500Y-38000D01*
X23500Y-38000D02*
X23500Y-39000D01*
X23500Y-39000D02*
X23500Y-40000D01*
X23500Y-40000D02*
X23500Y-41000D01*
X23500Y-41000D02*
X23500Y-42000D01*
X23500Y-36000D02*
X23500Y-35000D01*
X23500Y-35000D02*
X23500Y-34000D01*
X23500Y-34000D02*
X23500Y-33000D01*
X23500Y-33000D02*
X23500Y-32000D01*
X23500Y-32000D02*
X23500Y-31000D01*
X23500Y-27000D02*
X23500Y-26000D01*
X23500Y-28000D02*
X23500Y-27000D01*
X23500Y-31000D02*
X23500Y-30000D01*
X27000Y-29000D02*
X27000Y-30000D01*
X27000Y-14000D02*
X27000Y-15000D01*
X23500Y-28000D02*
X23500Y-29000D01*
X23500Y-29000D02*
X23500Y-30000D01*
X23500Y-24000D02*
X23500Y-25000D01*
X23500Y-25000D02*
X23500Y-26000D01*
X27000Y-26000D02*
X27000Y-25000D01*
X63500Y-31500D02*
X65500Y-33500D01*
X63500Y-29500D02*
X63500Y-31500D01*
X65500Y-33500D02*
X65500Y-34500D01*
X47500Y-12000D02*
X53000Y-12000D01*
X46500Y-11000D02*
X47500Y-12000D01*
X27000Y-23000D02*
X27000Y-24000D01*
X27000Y-21000D02*
X27000Y-22000D01*
X63500Y-23500D02*
X63500Y-26500D01*
X37057Y-26057D02*
X36500Y-25500D01*
X37057Y-33942D02*
X37057Y-26057D01*
X36500Y-34500D02*
X37057Y-33942D01*
X27000Y-13000D02*
X27000Y-12000D01*
X28563Y-11406D02*
X27000Y-11406D01*
X29000Y-10970D02*
X28563Y-11406D01*
X31470Y-10970D02*
X29000Y-10970D01*
X32000Y-11500D02*
X31470Y-10970D01*
X27000Y-12000D02*
X27000Y-11406D01*
X27000Y-11406D02*
X27000Y-11000D01*
X51092Y-25907D02*
X51500Y-25500D01*
X51092Y-26687D02*
X51092Y-25907D01*
X51405Y-27000D02*
X51092Y-26687D01*
X51591Y-27000D02*
X51405Y-27000D01*
X51905Y-27313D02*
X51591Y-27000D01*
X51905Y-34094D02*
X51905Y-27313D01*
X51500Y-34500D02*
X51905Y-34094D01*
X54000Y-12067D02*
X54000Y-12000D01*
X43069Y-22997D02*
X54000Y-12067D01*
X42804Y-23663D02*
X42955Y-23814D01*
X42804Y-22887D02*
X42804Y-23663D01*
X53500Y-12192D02*
X42804Y-22887D01*
X53500Y-11500D02*
X53500Y-12192D01*
X54000Y-11000D02*
X53500Y-11500D01*
X56000Y-22000D02*
X56000Y-12000D01*
X51500Y-26500D02*
X56000Y-22000D01*
X38031Y-12468D02*
X39500Y-11000D01*
X38031Y-17591D02*
X38031Y-12468D01*
X42365Y-21925D02*
X38031Y-17591D01*
X42365Y-29365D02*
X42365Y-21925D01*
X51500Y-38500D02*
X42365Y-29365D01*
X41877Y-15377D02*
X38297Y-15377D01*
X44000Y-17500D02*
X41877Y-15377D01*
X31000Y-17000D02*
X31000Y-18500D01*
X22500Y-17000D02*
X22500Y-18000D01*
X22500Y-19000D02*
X22500Y-18000D01*
X26000Y-19000D02*
X26000Y-18000D01*
X31000Y-15500D02*
X31000Y-17000D01*
X26000Y-17000D02*
X26000Y-18000D01*
X24914Y-26414D02*
X24500Y-26000D01*
X27585Y-26414D02*
X24914Y-26414D01*
X28000Y-26000D02*
X27585Y-26414D01*
X22906Y-21406D02*
X22500Y-21000D01*
X25593Y-21406D02*
X22906Y-21406D01*
X26000Y-21000D02*
X25593Y-21406D01*
X24906Y-26593D02*
X24500Y-27000D01*
X27593Y-26593D02*
X24906Y-26593D01*
X28000Y-27000D02*
X27593Y-26593D01*
X22906Y-22406D02*
X22500Y-22000D01*
X25593Y-22406D02*
X22906Y-22406D01*
X26000Y-22000D02*
X25593Y-22406D01*
X22906Y-23406D02*
X22500Y-23000D01*
X25593Y-23406D02*
X22906Y-23406D01*
X26000Y-23000D02*
X25593Y-23406D01*
X24914Y-32414D02*
X24500Y-32000D01*
X27585Y-32414D02*
X24914Y-32414D01*
X28000Y-32000D02*
X27585Y-32414D01*
X24905Y-42405D02*
X24500Y-42000D01*
X27594Y-42405D02*
X24905Y-42405D01*
X28000Y-42000D02*
X27594Y-42405D01*
X24906Y-32593D02*
X24500Y-33000D01*
X27593Y-32593D02*
X24906Y-32593D01*
X28000Y-33000D02*
X27593Y-32593D01*
X42564Y-28564D02*
X51500Y-37500D01*
X42564Y-17554D02*
X42564Y-28564D01*
X41659Y-16649D02*
X42564Y-17554D01*
X26000Y-11000D02*
X26000Y-12000D01*
X22500Y-11000D02*
X22500Y-12000D01*
X22500Y-12000D02*
X22500Y-13000D01*
X26000Y-12000D02*
X26000Y-13000D01*
X26000Y-13000D02*
X26000Y-13500D01*
X26000Y-13500D02*
X26000Y-14000D01*
X22500Y-13000D02*
X23000Y-13500D01*
X26000Y-13500D02*
X23000Y-13500D01*
X23000Y-13500D02*
X22500Y-14000D01*
X24906Y-24593D02*
X24500Y-25000D01*
X27593Y-24593D02*
X24906Y-24593D01*
X28000Y-25000D02*
X27593Y-24593D01*
X57000Y-14500D02*
X58000Y-15500D01*
X57000Y-12000D02*
X57000Y-14500D01*
X58000Y-18500D02*
X58000Y-17000D01*
X58000Y-17000D02*
X58000Y-15500D01*
X25041Y-16541D02*
X24500Y-16000D01*
X27458Y-16541D02*
X25041Y-16541D01*
X27458Y-19035D02*
X27458Y-16541D01*
X27923Y-19500D02*
X27458Y-19035D01*
X28094Y-19500D02*
X27923Y-19500D01*
X28826Y-20232D02*
X28094Y-19500D01*
X28826Y-29403D02*
X28826Y-20232D01*
X36423Y-37000D02*
X28826Y-29403D01*
X36575Y-37000D02*
X36423Y-37000D01*
X36916Y-37341D02*
X36575Y-37000D01*
X36916Y-38083D02*
X36916Y-37341D01*
X36500Y-38500D02*
X36916Y-38083D01*
X27458Y-16541D02*
X28000Y-16000D01*
X41535Y-22035D02*
X31000Y-11500D01*
X42100Y-22035D02*
X41535Y-22035D01*
X27593Y-19593D02*
X28000Y-20000D01*
X24906Y-19593D02*
X27593Y-19593D01*
X24500Y-20000D02*
X24906Y-19593D01*
X29439Y-20439D02*
X28000Y-19000D01*
X29439Y-24439D02*
X29439Y-20439D01*
X36500Y-31500D02*
X29439Y-24439D01*
X28405Y-29405D02*
X36500Y-37500D01*
X28405Y-21405D02*
X28405Y-29405D01*
X28000Y-21000D02*
X28405Y-21405D01*
X39188Y-21113D02*
X39188Y-21171D01*
X31075Y-13000D02*
X39188Y-21113D01*
X28000Y-13000D02*
X31075Y-13000D01*
X40000Y-11759D02*
X44655Y-16415D01*
X40000Y-10919D02*
X40000Y-11759D01*
X39671Y-10590D02*
X40000Y-10919D01*
X38274Y-10590D02*
X39671Y-10590D01*
X36949Y-11915D02*
X38274Y-10590D01*
X31815Y-11915D02*
X36949Y-11915D01*
X31500Y-11599D02*
X31815Y-11915D01*
X31500Y-11408D02*
X31500Y-11599D01*
X31186Y-11094D02*
X31500Y-11408D01*
X29684Y-11094D02*
X31186Y-11094D01*
X28279Y-12500D02*
X29684Y-11094D01*
X27923Y-12500D02*
X28279Y-12500D01*
X27594Y-12828D02*
X27923Y-12500D01*
X27594Y-13594D02*
X27594Y-12828D01*
X28000Y-14000D02*
X27594Y-13594D01*
X51262Y-32500D02*
X51500Y-32500D01*
X42684Y-23921D02*
X51262Y-32500D01*
X42684Y-22838D02*
X42684Y-23921D01*
X44605Y-20916D02*
X42684Y-22838D01*
X44605Y-16464D02*
X44605Y-20916D01*
X44655Y-16415D02*
X44605Y-16464D01*
X40364Y-21864D02*
X30000Y-11500D01*
X40364Y-22682D02*
X40364Y-21864D01*
X56609Y-17780D02*
X57000Y-17390D01*
X56609Y-19161D02*
X56609Y-17780D01*
X60930Y-23482D02*
X56609Y-19161D01*
X61230Y-23482D02*
X60930Y-23482D01*
X61390Y-23642D02*
X61230Y-23482D01*
X61390Y-26219D02*
X61390Y-23642D01*
X61000Y-26609D02*
X61390Y-26219D01*
X61000Y-27000D02*
X61000Y-26609D01*
X57000Y-17000D02*
X57000Y-17390D01*
X38936Y-16381D02*
X38917Y-16400D01*
X42496Y-16381D02*
X38936Y-16381D01*
X30916Y-18916D02*
X51500Y-39500D01*
X29672Y-18916D02*
X30916Y-18916D01*
X28000Y-17243D02*
X29672Y-18916D01*
X28000Y-17000D02*
X28000Y-17243D01*
X57410Y-39500D02*
X51500Y-39500D01*
X61490Y-35420D02*
X57410Y-39500D01*
X62003Y-36588D02*
X62003Y-19370D01*
X29879Y-19879D02*
X28000Y-18000D01*
X29879Y-23454D02*
X29879Y-19879D01*
X36425Y-30000D02*
X29879Y-23454D01*
X36575Y-30000D02*
X36425Y-30000D01*
X36922Y-30346D02*
X36575Y-30000D01*
X36922Y-33662D02*
X36922Y-30346D01*
X36527Y-34058D02*
X36922Y-33662D01*
X36349Y-34058D02*
X36527Y-34058D01*
X36089Y-34318D02*
X36349Y-34058D01*
X36089Y-35691D02*
X36089Y-34318D01*
X36397Y-36000D02*
X36089Y-35691D01*
X36579Y-36000D02*
X36397Y-36000D01*
X37036Y-36457D02*
X36579Y-36000D01*
X37036Y-38963D02*
X37036Y-36457D01*
X36500Y-39500D02*
X37036Y-38963D01*
X57000Y-15500D02*
X57000Y-15890D01*
X61000Y-24000D02*
X61000Y-24390D01*
X30000Y-15500D02*
X29609Y-15500D01*
X36500Y-27500D02*
X36500Y-26500D01*
X28609Y-16500D02*
X29609Y-15500D01*
X27917Y-16500D02*
X28609Y-16500D01*
X27582Y-16835D02*
X27917Y-16500D01*
X27582Y-17175D02*
X27582Y-16835D01*
X27948Y-17542D02*
X27582Y-17175D01*
X28115Y-17542D02*
X27948Y-17542D01*
X36000Y-25427D02*
X28115Y-17542D01*
X36000Y-26000D02*
X36000Y-25427D01*
X36500Y-26500D02*
X36000Y-26000D01*
X60609Y-26390D02*
X51500Y-35500D01*
X60609Y-24780D02*
X60609Y-26390D01*
X61000Y-24390D02*
X60609Y-24780D01*
X61000Y-24000D02*
X61000Y-23609D01*
X60865Y-23609D02*
X61000Y-23609D01*
X56465Y-19209D02*
X60865Y-23609D01*
X56465Y-16424D02*
X56465Y-19209D01*
X57000Y-15890D02*
X56465Y-16424D01*
X61512Y-22622D02*
X57390Y-18500D01*
X61512Y-29097D02*
X61512Y-22622D01*
X61000Y-29609D02*
X61512Y-29097D01*
X61000Y-30000D02*
X61000Y-29609D01*
X57000Y-18500D02*
X57390Y-18500D01*
X31827Y-16068D02*
X36879Y-21120D01*
X31827Y-15768D02*
X31827Y-16068D01*
X31059Y-15000D02*
X31827Y-15768D01*
X28000Y-15000D02*
X31059Y-15000D01*
G54D10*
G36*
X23576Y-22005D02*
X23505Y-22076D01*
X23500Y-22070D01*
X23494Y-22076D01*
X23423Y-22005D01*
X23429Y-22000D01*
X23423Y-21994D01*
X23494Y-21923D01*
X23500Y-21929D01*
X23505Y-21923D01*
X23576Y-21994D01*
X23570Y-22000D01*
X23576Y-22005D01*
X23576Y-22005D01*
G37*
G54D17*
X23576Y-22005D02*
X23505Y-22076D01*
X23500Y-22070D01*
X23494Y-22076D01*
X23423Y-22005D01*
X23429Y-22000D01*
X23423Y-21994D01*
X23494Y-21923D01*
X23500Y-21929D01*
X23505Y-21923D01*
X23576Y-21994D01*
X23570Y-22000D01*
X23576Y-22005D01*
G54D10*
G36*
X23576Y-23005D02*
X23505Y-23076D01*
X23500Y-23070D01*
X23494Y-23076D01*
X23423Y-23005D01*
X23429Y-23000D01*
X23423Y-22994D01*
X23494Y-22923D01*
X23500Y-22929D01*
X23505Y-22923D01*
X23576Y-22994D01*
X23570Y-23000D01*
X23576Y-23005D01*
X23576Y-23005D01*
G37*
G54D17*
X23576Y-23005D02*
X23505Y-23076D01*
X23500Y-23070D01*
X23494Y-23076D01*
X23423Y-23005D01*
X23429Y-23000D01*
X23423Y-22994D01*
X23494Y-22923D01*
X23500Y-22929D01*
X23505Y-22923D01*
X23576Y-22994D01*
X23570Y-23000D01*
X23576Y-23005D01*
G54D10*
G36*
X24230Y-20499D02*
X24180Y-20520D01*
X24021Y-20679D01*
X24002Y-20724D01*
X23993Y-20703D01*
X23896Y-20673D01*
X23826Y-20744D01*
X23826Y-20603D01*
X23796Y-20506D01*
X23780Y-20500D01*
X23796Y-20493D01*
X23826Y-20396D01*
X23500Y-20070D01*
X23173Y-20396D01*
X23203Y-20493D01*
X23219Y-20499D01*
X23203Y-20506D01*
X23173Y-20603D01*
X23500Y-20929D01*
X23826Y-20603D01*
X23826Y-20744D01*
X23570Y-21000D01*
X23576Y-21005D01*
X23505Y-21076D01*
X23500Y-21070D01*
X23494Y-21076D01*
X23423Y-21005D01*
X23429Y-21000D01*
X23103Y-20673D01*
X23006Y-20703D01*
X22998Y-20726D01*
X22979Y-20680D01*
X22820Y-20521D01*
X22769Y-20500D01*
X22819Y-20479D01*
X22978Y-20320D01*
X22997Y-20275D01*
X23006Y-20296D01*
X23103Y-20326D01*
X23429Y-20000D01*
X23103Y-19673D01*
X23006Y-19703D01*
X22998Y-19726D01*
X22979Y-19680D01*
X22820Y-19521D01*
X22769Y-19500D01*
X22819Y-19479D01*
X22978Y-19320D01*
X22997Y-19275D01*
X23006Y-19296D01*
X23103Y-19326D01*
X23429Y-19000D01*
X23103Y-18673D01*
X23006Y-18703D01*
X22998Y-18726D01*
X22979Y-18680D01*
X22820Y-18521D01*
X22780Y-18504D01*
X22780Y-18495D01*
X22819Y-18479D01*
X22978Y-18320D01*
X22997Y-18275D01*
X23006Y-18296D01*
X23103Y-18326D01*
X23429Y-18000D01*
X23103Y-17673D01*
X23006Y-17703D01*
X22998Y-17726D01*
X22979Y-17680D01*
X22820Y-17521D01*
X22780Y-17504D01*
X22780Y-17495D01*
X22819Y-17479D01*
X22978Y-17320D01*
X22997Y-17275D01*
X23006Y-17296D01*
X23103Y-17326D01*
X23429Y-17000D01*
X23103Y-16673D01*
X23006Y-16703D01*
X22998Y-16726D01*
X22979Y-16680D01*
X22820Y-16521D01*
X22769Y-16500D01*
X22819Y-16479D01*
X22978Y-16320D01*
X22997Y-16275D01*
X23006Y-16296D01*
X23103Y-16326D01*
X23429Y-16000D01*
X23103Y-15673D01*
X23006Y-15703D01*
X22998Y-15726D01*
X22979Y-15680D01*
X22820Y-15521D01*
X22769Y-15500D01*
X22819Y-15479D01*
X22978Y-15320D01*
X22997Y-15275D01*
X23006Y-15296D01*
X23103Y-15326D01*
X23429Y-15000D01*
X23103Y-14673D01*
X23006Y-14703D01*
X22998Y-14726D01*
X22979Y-14680D01*
X22820Y-14521D01*
X22769Y-14500D01*
X22819Y-14479D01*
X22978Y-14320D01*
X22997Y-14275D01*
X23006Y-14296D01*
X23103Y-14326D01*
X23429Y-14000D01*
X23423Y-13994D01*
X23494Y-13923D01*
X23500Y-13929D01*
X23505Y-13923D01*
X23576Y-13994D01*
X23570Y-14000D01*
X23896Y-14326D01*
X23993Y-14296D01*
X24001Y-14273D01*
X24020Y-14319D01*
X24179Y-14478D01*
X24230Y-14499D01*
X24180Y-14520D01*
X24021Y-14679D01*
X24002Y-14724D01*
X23993Y-14703D01*
X23896Y-14673D01*
X23826Y-14744D01*
X23826Y-14603D01*
X23796Y-14506D01*
X23780Y-14500D01*
X23796Y-14493D01*
X23826Y-14396D01*
X23500Y-14070D01*
X23173Y-14396D01*
X23203Y-14493D01*
X23219Y-14499D01*
X23203Y-14506D01*
X23173Y-14603D01*
X23500Y-14929D01*
X23826Y-14603D01*
X23826Y-14744D01*
X23570Y-15000D01*
X23896Y-15326D01*
X23993Y-15296D01*
X24001Y-15273D01*
X24020Y-15319D01*
X24179Y-15478D01*
X24230Y-15499D01*
X24180Y-15520D01*
X24021Y-15679D01*
X24002Y-15724D01*
X23993Y-15703D01*
X23896Y-15673D01*
X23826Y-15744D01*
X23826Y-15603D01*
X23796Y-15506D01*
X23780Y-15500D01*
X23796Y-15493D01*
X23826Y-15396D01*
X23500Y-15070D01*
X23173Y-15396D01*
X23203Y-15493D01*
X23219Y-15499D01*
X23203Y-15506D01*
X23173Y-15603D01*
X23500Y-15929D01*
X23826Y-15603D01*
X23826Y-15744D01*
X23570Y-16000D01*
X23896Y-16326D01*
X23993Y-16296D01*
X24001Y-16273D01*
X24020Y-16319D01*
X24179Y-16478D01*
X24230Y-16499D01*
X24180Y-16520D01*
X24021Y-16679D01*
X24002Y-16724D01*
X23993Y-16703D01*
X23896Y-16673D01*
X23826Y-16744D01*
X23826Y-16603D01*
X23796Y-16506D01*
X23780Y-16500D01*
X23796Y-16493D01*
X23826Y-16396D01*
X23500Y-16070D01*
X23173Y-16396D01*
X23203Y-16493D01*
X23219Y-16499D01*
X23203Y-16506D01*
X23173Y-16603D01*
X23500Y-16929D01*
X23826Y-16603D01*
X23826Y-16744D01*
X23570Y-17000D01*
X23896Y-17326D01*
X23993Y-17296D01*
X24001Y-17273D01*
X24020Y-17319D01*
X24179Y-17478D01*
X24230Y-17499D01*
X24180Y-17520D01*
X24021Y-17679D01*
X24002Y-17724D01*
X23993Y-17703D01*
X23896Y-17673D01*
X23826Y-17744D01*
X23826Y-17603D01*
X23796Y-17506D01*
X23780Y-17500D01*
X23796Y-17493D01*
X23826Y-17396D01*
X23500Y-17070D01*
X23173Y-17396D01*
X23203Y-17493D01*
X23219Y-17499D01*
X23203Y-17506D01*
X23173Y-17603D01*
X23500Y-17929D01*
X23826Y-17603D01*
X23826Y-17744D01*
X23570Y-18000D01*
X23896Y-18326D01*
X23993Y-18296D01*
X24001Y-18273D01*
X24020Y-18319D01*
X24179Y-18478D01*
X24230Y-18499D01*
X24180Y-18520D01*
X24021Y-18679D01*
X24002Y-18724D01*
X23993Y-18703D01*
X23896Y-18673D01*
X23826Y-18744D01*
X23826Y-18603D01*
X23796Y-18506D01*
X23780Y-18500D01*
X23796Y-18493D01*
X23826Y-18396D01*
X23500Y-18070D01*
X23173Y-18396D01*
X23203Y-18493D01*
X23219Y-18499D01*
X23203Y-18506D01*
X23173Y-18603D01*
X23500Y-18929D01*
X23826Y-18603D01*
X23826Y-18744D01*
X23570Y-19000D01*
X23896Y-19326D01*
X23993Y-19296D01*
X24001Y-19273D01*
X24020Y-19319D01*
X24179Y-19478D01*
X24230Y-19499D01*
X24180Y-19520D01*
X24021Y-19679D01*
X24002Y-19724D01*
X23993Y-19703D01*
X23896Y-19673D01*
X23826Y-19744D01*
X23826Y-19603D01*
X23796Y-19506D01*
X23780Y-19500D01*
X23796Y-19493D01*
X23826Y-19396D01*
X23500Y-19070D01*
X23173Y-19396D01*
X23203Y-19493D01*
X23219Y-19499D01*
X23203Y-19506D01*
X23173Y-19603D01*
X23500Y-19929D01*
X23826Y-19603D01*
X23826Y-19744D01*
X23570Y-20000D01*
X23896Y-20326D01*
X23993Y-20296D01*
X24001Y-20273D01*
X24020Y-20319D01*
X24179Y-20478D01*
X24230Y-20499D01*
X24230Y-20499D01*
G37*
G54D17*
X24230Y-20499D02*
X24180Y-20520D01*
X24021Y-20679D01*
X24002Y-20724D01*
X23993Y-20703D01*
X23896Y-20673D01*
X23826Y-20744D01*
X23826Y-20603D01*
X23796Y-20506D01*
X23780Y-20500D01*
X23796Y-20493D01*
X23826Y-20396D01*
X23500Y-20070D01*
X23173Y-20396D01*
X23203Y-20493D01*
X23219Y-20499D01*
X23203Y-20506D01*
X23173Y-20603D01*
X23500Y-20929D01*
X23826Y-20603D01*
X23826Y-20744D01*
X23570Y-21000D01*
X23576Y-21005D01*
X23505Y-21076D01*
X23500Y-21070D01*
X23494Y-21076D01*
X23423Y-21005D01*
X23429Y-21000D01*
X23103Y-20673D01*
X23006Y-20703D01*
X22998Y-20726D01*
X22979Y-20680D01*
X22820Y-20521D01*
X22769Y-20500D01*
X22819Y-20479D01*
X22978Y-20320D01*
X22997Y-20275D01*
X23006Y-20296D01*
X23103Y-20326D01*
X23429Y-20000D01*
X23103Y-19673D01*
X23006Y-19703D01*
X22998Y-19726D01*
X22979Y-19680D01*
X22820Y-19521D01*
X22769Y-19500D01*
X22819Y-19479D01*
X22978Y-19320D01*
X22997Y-19275D01*
X23006Y-19296D01*
X23103Y-19326D01*
X23429Y-19000D01*
X23103Y-18673D01*
X23006Y-18703D01*
X22998Y-18726D01*
X22979Y-18680D01*
X22820Y-18521D01*
X22780Y-18504D01*
X22780Y-18495D01*
X22819Y-18479D01*
X22978Y-18320D01*
X22997Y-18275D01*
X23006Y-18296D01*
X23103Y-18326D01*
X23429Y-18000D01*
X23103Y-17673D01*
X23006Y-17703D01*
X22998Y-17726D01*
X22979Y-17680D01*
X22820Y-17521D01*
X22780Y-17504D01*
X22780Y-17495D01*
X22819Y-17479D01*
X22978Y-17320D01*
X22997Y-17275D01*
X23006Y-17296D01*
X23103Y-17326D01*
X23429Y-17000D01*
X23103Y-16673D01*
X23006Y-16703D01*
X22998Y-16726D01*
X22979Y-16680D01*
X22820Y-16521D01*
X22769Y-16500D01*
X22819Y-16479D01*
X22978Y-16320D01*
X22997Y-16275D01*
X23006Y-16296D01*
X23103Y-16326D01*
X23429Y-16000D01*
X23103Y-15673D01*
X23006Y-15703D01*
X22998Y-15726D01*
X22979Y-15680D01*
X22820Y-15521D01*
X22769Y-15500D01*
X22819Y-15479D01*
X22978Y-15320D01*
X22997Y-15275D01*
X23006Y-15296D01*
X23103Y-15326D01*
X23429Y-15000D01*
X23103Y-14673D01*
X23006Y-14703D01*
X22998Y-14726D01*
X22979Y-14680D01*
X22820Y-14521D01*
X22769Y-14500D01*
X22819Y-14479D01*
X22978Y-14320D01*
X22997Y-14275D01*
X23006Y-14296D01*
X23103Y-14326D01*
X23429Y-14000D01*
X23423Y-13994D01*
X23494Y-13923D01*
X23500Y-13929D01*
X23505Y-13923D01*
X23576Y-13994D01*
X23570Y-14000D01*
X23896Y-14326D01*
X23993Y-14296D01*
X24001Y-14273D01*
X24020Y-14319D01*
X24179Y-14478D01*
X24230Y-14499D01*
X24180Y-14520D01*
X24021Y-14679D01*
X24002Y-14724D01*
X23993Y-14703D01*
X23896Y-14673D01*
X23826Y-14744D01*
X23826Y-14603D01*
X23796Y-14506D01*
X23780Y-14500D01*
X23796Y-14493D01*
X23826Y-14396D01*
X23500Y-14070D01*
X23173Y-14396D01*
X23203Y-14493D01*
X23219Y-14499D01*
X23203Y-14506D01*
X23173Y-14603D01*
X23500Y-14929D01*
X23826Y-14603D01*
X23826Y-14744D01*
X23570Y-15000D01*
X23896Y-15326D01*
X23993Y-15296D01*
X24001Y-15273D01*
X24020Y-15319D01*
X24179Y-15478D01*
X24230Y-15499D01*
X24180Y-15520D01*
X24021Y-15679D01*
X24002Y-15724D01*
X23993Y-15703D01*
X23896Y-15673D01*
X23826Y-15744D01*
X23826Y-15603D01*
X23796Y-15506D01*
X23780Y-15500D01*
X23796Y-15493D01*
X23826Y-15396D01*
X23500Y-15070D01*
X23173Y-15396D01*
X23203Y-15493D01*
X23219Y-15499D01*
X23203Y-15506D01*
X23173Y-15603D01*
X23500Y-15929D01*
X23826Y-15603D01*
X23826Y-15744D01*
X23570Y-16000D01*
X23896Y-16326D01*
X23993Y-16296D01*
X24001Y-16273D01*
X24020Y-16319D01*
X24179Y-16478D01*
X24230Y-16499D01*
X24180Y-16520D01*
X24021Y-16679D01*
X24002Y-16724D01*
X23993Y-16703D01*
X23896Y-16673D01*
X23826Y-16744D01*
X23826Y-16603D01*
X23796Y-16506D01*
X23780Y-16500D01*
X23796Y-16493D01*
X23826Y-16396D01*
X23500Y-16070D01*
X23173Y-16396D01*
X23203Y-16493D01*
X23219Y-16499D01*
X23203Y-16506D01*
X23173Y-16603D01*
X23500Y-16929D01*
X23826Y-16603D01*
X23826Y-16744D01*
X23570Y-17000D01*
X23896Y-17326D01*
X23993Y-17296D01*
X24001Y-17273D01*
X24020Y-17319D01*
X24179Y-17478D01*
X24230Y-17499D01*
X24180Y-17520D01*
X24021Y-17679D01*
X24002Y-17724D01*
X23993Y-17703D01*
X23896Y-17673D01*
X23826Y-17744D01*
X23826Y-17603D01*
X23796Y-17506D01*
X23780Y-17500D01*
X23796Y-17493D01*
X23826Y-17396D01*
X23500Y-17070D01*
X23173Y-17396D01*
X23203Y-17493D01*
X23219Y-17499D01*
X23203Y-17506D01*
X23173Y-17603D01*
X23500Y-17929D01*
X23826Y-17603D01*
X23826Y-17744D01*
X23570Y-18000D01*
X23896Y-18326D01*
X23993Y-18296D01*
X24001Y-18273D01*
X24020Y-18319D01*
X24179Y-18478D01*
X24230Y-18499D01*
X24180Y-18520D01*
X24021Y-18679D01*
X24002Y-18724D01*
X23993Y-18703D01*
X23896Y-18673D01*
X23826Y-18744D01*
X23826Y-18603D01*
X23796Y-18506D01*
X23780Y-18500D01*
X23796Y-18493D01*
X23826Y-18396D01*
X23500Y-18070D01*
X23173Y-18396D01*
X23203Y-18493D01*
X23219Y-18499D01*
X23203Y-18506D01*
X23173Y-18603D01*
X23500Y-18929D01*
X23826Y-18603D01*
X23826Y-18744D01*
X23570Y-19000D01*
X23896Y-19326D01*
X23993Y-19296D01*
X24001Y-19273D01*
X24020Y-19319D01*
X24179Y-19478D01*
X24230Y-19499D01*
X24180Y-19520D01*
X24021Y-19679D01*
X24002Y-19724D01*
X23993Y-19703D01*
X23896Y-19673D01*
X23826Y-19744D01*
X23826Y-19603D01*
X23796Y-19506D01*
X23780Y-19500D01*
X23796Y-19493D01*
X23826Y-19396D01*
X23500Y-19070D01*
X23173Y-19396D01*
X23203Y-19493D01*
X23219Y-19499D01*
X23203Y-19506D01*
X23173Y-19603D01*
X23500Y-19929D01*
X23826Y-19603D01*
X23826Y-19744D01*
X23570Y-20000D01*
X23896Y-20326D01*
X23993Y-20296D01*
X24001Y-20273D01*
X24020Y-20319D01*
X24179Y-20478D01*
X24230Y-20499D01*
G54D10*
G36*
X27076Y-19005D02*
X27005Y-19076D01*
X27000Y-19070D01*
X26994Y-19076D01*
X26923Y-19005D01*
X26929Y-19000D01*
X26603Y-18673D01*
X26506Y-18703D01*
X26498Y-18726D01*
X26479Y-18680D01*
X26320Y-18521D01*
X26280Y-18504D01*
X26280Y-18495D01*
X26319Y-18479D01*
X26478Y-18320D01*
X26497Y-18275D01*
X26506Y-18296D01*
X26603Y-18326D01*
X26929Y-18000D01*
X26603Y-17673D01*
X26506Y-17703D01*
X26498Y-17726D01*
X26479Y-17680D01*
X26320Y-17521D01*
X26280Y-17504D01*
X26280Y-17495D01*
X26319Y-17479D01*
X26478Y-17320D01*
X26497Y-17275D01*
X26506Y-17296D01*
X26603Y-17326D01*
X26929Y-17000D01*
X26923Y-16994D01*
X26994Y-16923D01*
X27000Y-16929D01*
X27005Y-16923D01*
X27076Y-16994D01*
X27070Y-17000D01*
X27076Y-17005D01*
X27005Y-17076D01*
X27000Y-17070D01*
X26673Y-17396D01*
X26703Y-17493D01*
X26719Y-17499D01*
X26703Y-17506D01*
X26673Y-17603D01*
X27000Y-17929D01*
X27005Y-17923D01*
X27076Y-17994D01*
X27070Y-18000D01*
X27076Y-18005D01*
X27005Y-18076D01*
X27000Y-18070D01*
X26673Y-18396D01*
X26703Y-18493D01*
X26719Y-18499D01*
X26703Y-18506D01*
X26673Y-18603D01*
X27000Y-18929D01*
X27005Y-18923D01*
X27076Y-18994D01*
X27070Y-19000D01*
X27076Y-19005D01*
X27076Y-19005D01*
G37*
G54D17*
X27076Y-19005D02*
X27005Y-19076D01*
X27000Y-19070D01*
X26994Y-19076D01*
X26923Y-19005D01*
X26929Y-19000D01*
X26603Y-18673D01*
X26506Y-18703D01*
X26498Y-18726D01*
X26479Y-18680D01*
X26320Y-18521D01*
X26280Y-18504D01*
X26280Y-18495D01*
X26319Y-18479D01*
X26478Y-18320D01*
X26497Y-18275D01*
X26506Y-18296D01*
X26603Y-18326D01*
X26929Y-18000D01*
X26603Y-17673D01*
X26506Y-17703D01*
X26498Y-17726D01*
X26479Y-17680D01*
X26320Y-17521D01*
X26280Y-17504D01*
X26280Y-17495D01*
X26319Y-17479D01*
X26478Y-17320D01*
X26497Y-17275D01*
X26506Y-17296D01*
X26603Y-17326D01*
X26929Y-17000D01*
X26923Y-16994D01*
X26994Y-16923D01*
X27000Y-16929D01*
X27005Y-16923D01*
X27076Y-16994D01*
X27070Y-17000D01*
X27076Y-17005D01*
X27005Y-17076D01*
X27000Y-17070D01*
X26673Y-17396D01*
X26703Y-17493D01*
X26719Y-17499D01*
X26703Y-17506D01*
X26673Y-17603D01*
X27000Y-17929D01*
X27005Y-17923D01*
X27076Y-17994D01*
X27070Y-18000D01*
X27076Y-18005D01*
X27005Y-18076D01*
X27000Y-18070D01*
X26673Y-18396D01*
X26703Y-18493D01*
X26719Y-18499D01*
X26703Y-18506D01*
X26673Y-18603D01*
X27000Y-18929D01*
X27005Y-18923D01*
X27076Y-18994D01*
X27070Y-19000D01*
X27076Y-19005D01*
G54D10*
G36*
X27730Y-23499D02*
X27680Y-23520D01*
X27521Y-23679D01*
X27502Y-23724D01*
X27493Y-23703D01*
X27396Y-23673D01*
X27326Y-23744D01*
X27326Y-23603D01*
X27296Y-23506D01*
X27280Y-23500D01*
X27296Y-23493D01*
X27326Y-23396D01*
X27000Y-23070D01*
X26673Y-23396D01*
X26703Y-23493D01*
X26719Y-23499D01*
X26703Y-23506D01*
X26673Y-23603D01*
X27000Y-23929D01*
X27326Y-23603D01*
X27326Y-23744D01*
X27070Y-24000D01*
X27076Y-24005D01*
X27005Y-24076D01*
X27000Y-24070D01*
X26994Y-24076D01*
X26923Y-24005D01*
X26929Y-24000D01*
X26603Y-23673D01*
X26506Y-23703D01*
X26498Y-23726D01*
X26479Y-23680D01*
X26320Y-23521D01*
X26269Y-23500D01*
X26319Y-23479D01*
X26478Y-23320D01*
X26497Y-23275D01*
X26506Y-23296D01*
X26603Y-23326D01*
X26929Y-23000D01*
X26603Y-22673D01*
X26506Y-22703D01*
X26498Y-22726D01*
X26479Y-22680D01*
X26320Y-22521D01*
X26269Y-22500D01*
X26319Y-22479D01*
X26478Y-22320D01*
X26497Y-22275D01*
X26506Y-22296D01*
X26603Y-22326D01*
X26929Y-22000D01*
X26603Y-21673D01*
X26506Y-21703D01*
X26498Y-21726D01*
X26479Y-21680D01*
X26320Y-21521D01*
X26269Y-21500D01*
X26319Y-21479D01*
X26478Y-21320D01*
X26497Y-21275D01*
X26506Y-21296D01*
X26603Y-21326D01*
X26929Y-21000D01*
X26603Y-20673D01*
X26506Y-20703D01*
X26498Y-20726D01*
X26479Y-20680D01*
X26320Y-20521D01*
X26269Y-20500D01*
X26319Y-20479D01*
X26478Y-20320D01*
X26497Y-20275D01*
X26506Y-20296D01*
X26603Y-20326D01*
X26929Y-20000D01*
X26923Y-19994D01*
X26994Y-19923D01*
X27000Y-19929D01*
X27005Y-19923D01*
X27076Y-19994D01*
X27070Y-20000D01*
X27396Y-20326D01*
X27493Y-20296D01*
X27501Y-20273D01*
X27520Y-20319D01*
X27679Y-20478D01*
X27730Y-20499D01*
X27680Y-20520D01*
X27521Y-20679D01*
X27502Y-20724D01*
X27493Y-20703D01*
X27396Y-20673D01*
X27326Y-20744D01*
X27326Y-20603D01*
X27296Y-20506D01*
X27280Y-20500D01*
X27296Y-20493D01*
X27326Y-20396D01*
X27000Y-20070D01*
X26673Y-20396D01*
X26703Y-20493D01*
X26719Y-20499D01*
X26703Y-20506D01*
X26673Y-20603D01*
X27000Y-20929D01*
X27326Y-20603D01*
X27326Y-20744D01*
X27070Y-21000D01*
X27396Y-21326D01*
X27493Y-21296D01*
X27501Y-21273D01*
X27520Y-21319D01*
X27679Y-21478D01*
X27730Y-21499D01*
X27680Y-21520D01*
X27521Y-21679D01*
X27502Y-21724D01*
X27493Y-21703D01*
X27396Y-21673D01*
X27326Y-21744D01*
X27326Y-21603D01*
X27296Y-21506D01*
X27280Y-21500D01*
X27296Y-21493D01*
X27326Y-21396D01*
X27000Y-21070D01*
X26673Y-21396D01*
X26703Y-21493D01*
X26719Y-21499D01*
X26703Y-21506D01*
X26673Y-21603D01*
X27000Y-21929D01*
X27326Y-21603D01*
X27326Y-21744D01*
X27070Y-22000D01*
X27396Y-22326D01*
X27493Y-22296D01*
X27501Y-22273D01*
X27520Y-22319D01*
X27679Y-22478D01*
X27730Y-22499D01*
X27680Y-22520D01*
X27521Y-22679D01*
X27502Y-22724D01*
X27493Y-22703D01*
X27396Y-22673D01*
X27326Y-22744D01*
X27326Y-22603D01*
X27296Y-22506D01*
X27280Y-22500D01*
X27296Y-22493D01*
X27326Y-22396D01*
X27000Y-22070D01*
X26673Y-22396D01*
X26703Y-22493D01*
X26719Y-22499D01*
X26703Y-22506D01*
X26673Y-22603D01*
X27000Y-22929D01*
X27326Y-22603D01*
X27326Y-22744D01*
X27070Y-23000D01*
X27396Y-23326D01*
X27493Y-23296D01*
X27501Y-23273D01*
X27520Y-23319D01*
X27679Y-23478D01*
X27730Y-23499D01*
X27730Y-23499D01*
G37*
G54D17*
X27730Y-23499D02*
X27680Y-23520D01*
X27521Y-23679D01*
X27502Y-23724D01*
X27493Y-23703D01*
X27396Y-23673D01*
X27326Y-23744D01*
X27326Y-23603D01*
X27296Y-23506D01*
X27280Y-23500D01*
X27296Y-23493D01*
X27326Y-23396D01*
X27000Y-23070D01*
X26673Y-23396D01*
X26703Y-23493D01*
X26719Y-23499D01*
X26703Y-23506D01*
X26673Y-23603D01*
X27000Y-23929D01*
X27326Y-23603D01*
X27326Y-23744D01*
X27070Y-24000D01*
X27076Y-24005D01*
X27005Y-24076D01*
X27000Y-24070D01*
X26994Y-24076D01*
X26923Y-24005D01*
X26929Y-24000D01*
X26603Y-23673D01*
X26506Y-23703D01*
X26498Y-23726D01*
X26479Y-23680D01*
X26320Y-23521D01*
X26269Y-23500D01*
X26319Y-23479D01*
X26478Y-23320D01*
X26497Y-23275D01*
X26506Y-23296D01*
X26603Y-23326D01*
X26929Y-23000D01*
X26603Y-22673D01*
X26506Y-22703D01*
X26498Y-22726D01*
X26479Y-22680D01*
X26320Y-22521D01*
X26269Y-22500D01*
X26319Y-22479D01*
X26478Y-22320D01*
X26497Y-22275D01*
X26506Y-22296D01*
X26603Y-22326D01*
X26929Y-22000D01*
X26603Y-21673D01*
X26506Y-21703D01*
X26498Y-21726D01*
X26479Y-21680D01*
X26320Y-21521D01*
X26269Y-21500D01*
X26319Y-21479D01*
X26478Y-21320D01*
X26497Y-21275D01*
X26506Y-21296D01*
X26603Y-21326D01*
X26929Y-21000D01*
X26603Y-20673D01*
X26506Y-20703D01*
X26498Y-20726D01*
X26479Y-20680D01*
X26320Y-20521D01*
X26269Y-20500D01*
X26319Y-20479D01*
X26478Y-20320D01*
X26497Y-20275D01*
X26506Y-20296D01*
X26603Y-20326D01*
X26929Y-20000D01*
X26923Y-19994D01*
X26994Y-19923D01*
X27000Y-19929D01*
X27005Y-19923D01*
X27076Y-19994D01*
X27070Y-20000D01*
X27396Y-20326D01*
X27493Y-20296D01*
X27501Y-20273D01*
X27520Y-20319D01*
X27679Y-20478D01*
X27730Y-20499D01*
X27680Y-20520D01*
X27521Y-20679D01*
X27502Y-20724D01*
X27493Y-20703D01*
X27396Y-20673D01*
X27326Y-20744D01*
X27326Y-20603D01*
X27296Y-20506D01*
X27280Y-20500D01*
X27296Y-20493D01*
X27326Y-20396D01*
X27000Y-20070D01*
X26673Y-20396D01*
X26703Y-20493D01*
X26719Y-20499D01*
X26703Y-20506D01*
X26673Y-20603D01*
X27000Y-20929D01*
X27326Y-20603D01*
X27326Y-20744D01*
X27070Y-21000D01*
X27396Y-21326D01*
X27493Y-21296D01*
X27501Y-21273D01*
X27520Y-21319D01*
X27679Y-21478D01*
X27730Y-21499D01*
X27680Y-21520D01*
X27521Y-21679D01*
X27502Y-21724D01*
X27493Y-21703D01*
X27396Y-21673D01*
X27326Y-21744D01*
X27326Y-21603D01*
X27296Y-21506D01*
X27280Y-21500D01*
X27296Y-21493D01*
X27326Y-21396D01*
X27000Y-21070D01*
X26673Y-21396D01*
X26703Y-21493D01*
X26719Y-21499D01*
X26703Y-21506D01*
X26673Y-21603D01*
X27000Y-21929D01*
X27326Y-21603D01*
X27326Y-21744D01*
X27070Y-22000D01*
X27396Y-22326D01*
X27493Y-22296D01*
X27501Y-22273D01*
X27520Y-22319D01*
X27679Y-22478D01*
X27730Y-22499D01*
X27680Y-22520D01*
X27521Y-22679D01*
X27502Y-22724D01*
X27493Y-22703D01*
X27396Y-22673D01*
X27326Y-22744D01*
X27326Y-22603D01*
X27296Y-22506D01*
X27280Y-22500D01*
X27296Y-22493D01*
X27326Y-22396D01*
X27000Y-22070D01*
X26673Y-22396D01*
X26703Y-22493D01*
X26719Y-22499D01*
X26703Y-22506D01*
X26673Y-22603D01*
X27000Y-22929D01*
X27326Y-22603D01*
X27326Y-22744D01*
X27070Y-23000D01*
X27396Y-23326D01*
X27493Y-23296D01*
X27501Y-23273D01*
X27520Y-23319D01*
X27679Y-23478D01*
X27730Y-23499D01*
G54D10*
G36*
X27730Y-25499D02*
X27680Y-25520D01*
X27521Y-25679D01*
X27502Y-25724D01*
X27493Y-25703D01*
X27396Y-25673D01*
X27326Y-25744D01*
X27326Y-25603D01*
X27296Y-25506D01*
X27280Y-25500D01*
X27296Y-25493D01*
X27326Y-25396D01*
X27000Y-25070D01*
X26673Y-25396D01*
X26703Y-25493D01*
X26719Y-25499D01*
X26703Y-25506D01*
X26673Y-25603D01*
X27000Y-25929D01*
X27326Y-25603D01*
X27326Y-25744D01*
X27070Y-26000D01*
X27076Y-26005D01*
X27005Y-26076D01*
X27000Y-26070D01*
X26994Y-26076D01*
X26923Y-26005D01*
X26929Y-26000D01*
X26603Y-25673D01*
X26506Y-25703D01*
X26498Y-25726D01*
X26479Y-25680D01*
X26320Y-25521D01*
X26269Y-25500D01*
X26319Y-25479D01*
X26478Y-25320D01*
X26497Y-25275D01*
X26506Y-25296D01*
X26603Y-25326D01*
X26929Y-25000D01*
X26923Y-24994D01*
X26994Y-24923D01*
X27000Y-24929D01*
X27005Y-24923D01*
X27076Y-24994D01*
X27070Y-25000D01*
X27396Y-25326D01*
X27493Y-25296D01*
X27501Y-25273D01*
X27520Y-25319D01*
X27679Y-25478D01*
X27730Y-25499D01*
X27730Y-25499D01*
G37*
G54D17*
X27730Y-25499D02*
X27680Y-25520D01*
X27521Y-25679D01*
X27502Y-25724D01*
X27493Y-25703D01*
X27396Y-25673D01*
X27326Y-25744D01*
X27326Y-25603D01*
X27296Y-25506D01*
X27280Y-25500D01*
X27296Y-25493D01*
X27326Y-25396D01*
X27000Y-25070D01*
X26673Y-25396D01*
X26703Y-25493D01*
X26719Y-25499D01*
X26703Y-25506D01*
X26673Y-25603D01*
X27000Y-25929D01*
X27326Y-25603D01*
X27326Y-25744D01*
X27070Y-26000D01*
X27076Y-26005D01*
X27005Y-26076D01*
X27000Y-26070D01*
X26994Y-26076D01*
X26923Y-26005D01*
X26929Y-26000D01*
X26603Y-25673D01*
X26506Y-25703D01*
X26498Y-25726D01*
X26479Y-25680D01*
X26320Y-25521D01*
X26269Y-25500D01*
X26319Y-25479D01*
X26478Y-25320D01*
X26497Y-25275D01*
X26506Y-25296D01*
X26603Y-25326D01*
X26929Y-25000D01*
X26923Y-24994D01*
X26994Y-24923D01*
X27000Y-24929D01*
X27005Y-24923D01*
X27076Y-24994D01*
X27070Y-25000D01*
X27396Y-25326D01*
X27493Y-25296D01*
X27501Y-25273D01*
X27520Y-25319D01*
X27679Y-25478D01*
X27730Y-25499D01*
G54D10*
G36*
X27730Y-31499D02*
X27680Y-31520D01*
X27521Y-31679D01*
X27502Y-31724D01*
X27493Y-31703D01*
X27396Y-31673D01*
X27326Y-31744D01*
X27326Y-31603D01*
X27296Y-31506D01*
X27280Y-31500D01*
X27296Y-31493D01*
X27326Y-31396D01*
X27000Y-31070D01*
X26673Y-31396D01*
X26703Y-31493D01*
X26719Y-31499D01*
X26703Y-31506D01*
X26673Y-31603D01*
X27000Y-31929D01*
X27326Y-31603D01*
X27326Y-31744D01*
X27070Y-32000D01*
X27076Y-32005D01*
X27005Y-32076D01*
X27000Y-32070D01*
X26994Y-32076D01*
X26923Y-32005D01*
X26929Y-32000D01*
X26603Y-31673D01*
X26506Y-31703D01*
X26498Y-31726D01*
X26479Y-31680D01*
X26320Y-31521D01*
X26269Y-31500D01*
X26319Y-31479D01*
X26478Y-31320D01*
X26497Y-31275D01*
X26506Y-31296D01*
X26603Y-31326D01*
X26929Y-31000D01*
X26603Y-30673D01*
X26506Y-30703D01*
X26498Y-30726D01*
X26479Y-30680D01*
X26320Y-30521D01*
X26269Y-30500D01*
X26319Y-30479D01*
X26478Y-30320D01*
X26497Y-30275D01*
X26506Y-30296D01*
X26603Y-30326D01*
X26929Y-30000D01*
X26603Y-29673D01*
X26506Y-29703D01*
X26498Y-29726D01*
X26479Y-29680D01*
X26320Y-29521D01*
X26269Y-29500D01*
X26319Y-29479D01*
X26478Y-29320D01*
X26497Y-29275D01*
X26506Y-29296D01*
X26603Y-29326D01*
X26929Y-29000D01*
X26603Y-28673D01*
X26506Y-28703D01*
X26498Y-28726D01*
X26479Y-28680D01*
X26320Y-28521D01*
X26269Y-28500D01*
X26319Y-28479D01*
X26478Y-28320D01*
X26497Y-28275D01*
X26506Y-28296D01*
X26603Y-28326D01*
X26929Y-28000D01*
X26603Y-27673D01*
X26506Y-27703D01*
X26498Y-27726D01*
X26479Y-27680D01*
X26320Y-27521D01*
X26269Y-27500D01*
X26319Y-27479D01*
X26478Y-27320D01*
X26497Y-27275D01*
X26506Y-27296D01*
X26603Y-27326D01*
X26929Y-27000D01*
X26923Y-26994D01*
X26994Y-26923D01*
X27000Y-26929D01*
X27005Y-26923D01*
X27076Y-26994D01*
X27070Y-27000D01*
X27396Y-27326D01*
X27493Y-27296D01*
X27501Y-27273D01*
X27520Y-27319D01*
X27679Y-27478D01*
X27730Y-27499D01*
X27680Y-27520D01*
X27521Y-27679D01*
X27502Y-27724D01*
X27493Y-27703D01*
X27396Y-27673D01*
X27326Y-27744D01*
X27326Y-27603D01*
X27296Y-27506D01*
X27280Y-27500D01*
X27296Y-27493D01*
X27326Y-27396D01*
X27000Y-27070D01*
X26673Y-27396D01*
X26703Y-27493D01*
X26719Y-27499D01*
X26703Y-27506D01*
X26673Y-27603D01*
X27000Y-27929D01*
X27326Y-27603D01*
X27326Y-27744D01*
X27070Y-28000D01*
X27396Y-28326D01*
X27493Y-28296D01*
X27501Y-28273D01*
X27520Y-28319D01*
X27679Y-28478D01*
X27730Y-28499D01*
X27680Y-28520D01*
X27521Y-28679D01*
X27502Y-28724D01*
X27493Y-28703D01*
X27396Y-28673D01*
X27326Y-28744D01*
X27326Y-28603D01*
X27296Y-28506D01*
X27280Y-28500D01*
X27296Y-28493D01*
X27326Y-28396D01*
X27000Y-28070D01*
X26673Y-28396D01*
X26703Y-28493D01*
X26719Y-28499D01*
X26703Y-28506D01*
X26673Y-28603D01*
X27000Y-28929D01*
X27326Y-28603D01*
X27326Y-28744D01*
X27070Y-29000D01*
X27396Y-29326D01*
X27493Y-29296D01*
X27501Y-29273D01*
X27520Y-29319D01*
X27679Y-29478D01*
X27730Y-29499D01*
X27680Y-29520D01*
X27521Y-29679D01*
X27502Y-29724D01*
X27493Y-29703D01*
X27396Y-29673D01*
X27326Y-29744D01*
X27326Y-29603D01*
X27296Y-29506D01*
X27280Y-29500D01*
X27296Y-29493D01*
X27326Y-29396D01*
X27000Y-29070D01*
X26673Y-29396D01*
X26703Y-29493D01*
X26719Y-29499D01*
X26703Y-29506D01*
X26673Y-29603D01*
X27000Y-29929D01*
X27326Y-29603D01*
X27326Y-29744D01*
X27070Y-30000D01*
X27396Y-30326D01*
X27493Y-30296D01*
X27501Y-30273D01*
X27520Y-30319D01*
X27679Y-30478D01*
X27730Y-30499D01*
X27680Y-30520D01*
X27521Y-30679D01*
X27502Y-30724D01*
X27493Y-30703D01*
X27396Y-30673D01*
X27326Y-30744D01*
X27326Y-30603D01*
X27296Y-30506D01*
X27280Y-30500D01*
X27296Y-30493D01*
X27326Y-30396D01*
X27000Y-30070D01*
X26673Y-30396D01*
X26703Y-30493D01*
X26719Y-30499D01*
X26703Y-30506D01*
X26673Y-30603D01*
X27000Y-30929D01*
X27326Y-30603D01*
X27326Y-30744D01*
X27070Y-31000D01*
X27396Y-31326D01*
X27493Y-31296D01*
X27501Y-31273D01*
X27520Y-31319D01*
X27679Y-31478D01*
X27730Y-31499D01*
X27730Y-31499D01*
G37*
G54D17*
X27730Y-31499D02*
X27680Y-31520D01*
X27521Y-31679D01*
X27502Y-31724D01*
X27493Y-31703D01*
X27396Y-31673D01*
X27326Y-31744D01*
X27326Y-31603D01*
X27296Y-31506D01*
X27280Y-31500D01*
X27296Y-31493D01*
X27326Y-31396D01*
X27000Y-31070D01*
X26673Y-31396D01*
X26703Y-31493D01*
X26719Y-31499D01*
X26703Y-31506D01*
X26673Y-31603D01*
X27000Y-31929D01*
X27326Y-31603D01*
X27326Y-31744D01*
X27070Y-32000D01*
X27076Y-32005D01*
X27005Y-32076D01*
X27000Y-32070D01*
X26994Y-32076D01*
X26923Y-32005D01*
X26929Y-32000D01*
X26603Y-31673D01*
X26506Y-31703D01*
X26498Y-31726D01*
X26479Y-31680D01*
X26320Y-31521D01*
X26269Y-31500D01*
X26319Y-31479D01*
X26478Y-31320D01*
X26497Y-31275D01*
X26506Y-31296D01*
X26603Y-31326D01*
X26929Y-31000D01*
X26603Y-30673D01*
X26506Y-30703D01*
X26498Y-30726D01*
X26479Y-30680D01*
X26320Y-30521D01*
X26269Y-30500D01*
X26319Y-30479D01*
X26478Y-30320D01*
X26497Y-30275D01*
X26506Y-30296D01*
X26603Y-30326D01*
X26929Y-30000D01*
X26603Y-29673D01*
X26506Y-29703D01*
X26498Y-29726D01*
X26479Y-29680D01*
X26320Y-29521D01*
X26269Y-29500D01*
X26319Y-29479D01*
X26478Y-29320D01*
X26497Y-29275D01*
X26506Y-29296D01*
X26603Y-29326D01*
X26929Y-29000D01*
X26603Y-28673D01*
X26506Y-28703D01*
X26498Y-28726D01*
X26479Y-28680D01*
X26320Y-28521D01*
X26269Y-28500D01*
X26319Y-28479D01*
X26478Y-28320D01*
X26497Y-28275D01*
X26506Y-28296D01*
X26603Y-28326D01*
X26929Y-28000D01*
X26603Y-27673D01*
X26506Y-27703D01*
X26498Y-27726D01*
X26479Y-27680D01*
X26320Y-27521D01*
X26269Y-27500D01*
X26319Y-27479D01*
X26478Y-27320D01*
X26497Y-27275D01*
X26506Y-27296D01*
X26603Y-27326D01*
X26929Y-27000D01*
X26923Y-26994D01*
X26994Y-26923D01*
X27000Y-26929D01*
X27005Y-26923D01*
X27076Y-26994D01*
X27070Y-27000D01*
X27396Y-27326D01*
X27493Y-27296D01*
X27501Y-27273D01*
X27520Y-27319D01*
X27679Y-27478D01*
X27730Y-27499D01*
X27680Y-27520D01*
X27521Y-27679D01*
X27502Y-27724D01*
X27493Y-27703D01*
X27396Y-27673D01*
X27326Y-27744D01*
X27326Y-27603D01*
X27296Y-27506D01*
X27280Y-27500D01*
X27296Y-27493D01*
X27326Y-27396D01*
X27000Y-27070D01*
X26673Y-27396D01*
X26703Y-27493D01*
X26719Y-27499D01*
X26703Y-27506D01*
X26673Y-27603D01*
X27000Y-27929D01*
X27326Y-27603D01*
X27326Y-27744D01*
X27070Y-28000D01*
X27396Y-28326D01*
X27493Y-28296D01*
X27501Y-28273D01*
X27520Y-28319D01*
X27679Y-28478D01*
X27730Y-28499D01*
X27680Y-28520D01*
X27521Y-28679D01*
X27502Y-28724D01*
X27493Y-28703D01*
X27396Y-28673D01*
X27326Y-28744D01*
X27326Y-28603D01*
X27296Y-28506D01*
X27280Y-28500D01*
X27296Y-28493D01*
X27326Y-28396D01*
X27000Y-28070D01*
X26673Y-28396D01*
X26703Y-28493D01*
X26719Y-28499D01*
X26703Y-28506D01*
X26673Y-28603D01*
X27000Y-28929D01*
X27326Y-28603D01*
X27326Y-28744D01*
X27070Y-29000D01*
X27396Y-29326D01*
X27493Y-29296D01*
X27501Y-29273D01*
X27520Y-29319D01*
X27679Y-29478D01*
X27730Y-29499D01*
X27680Y-29520D01*
X27521Y-29679D01*
X27502Y-29724D01*
X27493Y-29703D01*
X27396Y-29673D01*
X27326Y-29744D01*
X27326Y-29603D01*
X27296Y-29506D01*
X27280Y-29500D01*
X27296Y-29493D01*
X27326Y-29396D01*
X27000Y-29070D01*
X26673Y-29396D01*
X26703Y-29493D01*
X26719Y-29499D01*
X26703Y-29506D01*
X26673Y-29603D01*
X27000Y-29929D01*
X27326Y-29603D01*
X27326Y-29744D01*
X27070Y-30000D01*
X27396Y-30326D01*
X27493Y-30296D01*
X27501Y-30273D01*
X27520Y-30319D01*
X27679Y-30478D01*
X27730Y-30499D01*
X27680Y-30520D01*
X27521Y-30679D01*
X27502Y-30724D01*
X27493Y-30703D01*
X27396Y-30673D01*
X27326Y-30744D01*
X27326Y-30603D01*
X27296Y-30506D01*
X27280Y-30500D01*
X27296Y-30493D01*
X27326Y-30396D01*
X27000Y-30070D01*
X26673Y-30396D01*
X26703Y-30493D01*
X26719Y-30499D01*
X26703Y-30506D01*
X26673Y-30603D01*
X27000Y-30929D01*
X27326Y-30603D01*
X27326Y-30744D01*
X27070Y-31000D01*
X27396Y-31326D01*
X27493Y-31296D01*
X27501Y-31273D01*
X27520Y-31319D01*
X27679Y-31478D01*
X27730Y-31499D01*
G54D10*
G36*
X27730Y-41499D02*
X27680Y-41520D01*
X27521Y-41679D01*
X27502Y-41724D01*
X27493Y-41703D01*
X27396Y-41673D01*
X27326Y-41744D01*
X27326Y-41603D01*
X27296Y-41506D01*
X27280Y-41500D01*
X27296Y-41493D01*
X27326Y-41396D01*
X27000Y-41070D01*
X26673Y-41396D01*
X26703Y-41493D01*
X26719Y-41499D01*
X26703Y-41506D01*
X26673Y-41603D01*
X27000Y-41929D01*
X27326Y-41603D01*
X27326Y-41744D01*
X27070Y-42000D01*
X27076Y-42005D01*
X27005Y-42076D01*
X27000Y-42070D01*
X26994Y-42076D01*
X26923Y-42005D01*
X26929Y-42000D01*
X26603Y-41673D01*
X26506Y-41703D01*
X26498Y-41726D01*
X26479Y-41680D01*
X26320Y-41521D01*
X26269Y-41500D01*
X26319Y-41479D01*
X26478Y-41320D01*
X26497Y-41275D01*
X26506Y-41296D01*
X26603Y-41326D01*
X26929Y-41000D01*
X26603Y-40673D01*
X26506Y-40703D01*
X26498Y-40726D01*
X26479Y-40680D01*
X26320Y-40521D01*
X26269Y-40500D01*
X26319Y-40479D01*
X26478Y-40320D01*
X26497Y-40275D01*
X26506Y-40296D01*
X26603Y-40326D01*
X26929Y-40000D01*
X26603Y-39673D01*
X26506Y-39703D01*
X26498Y-39726D01*
X26479Y-39680D01*
X26320Y-39521D01*
X26269Y-39500D01*
X26319Y-39479D01*
X26478Y-39320D01*
X26497Y-39275D01*
X26506Y-39296D01*
X26603Y-39326D01*
X26929Y-39000D01*
X26603Y-38673D01*
X26506Y-38703D01*
X26498Y-38726D01*
X26479Y-38680D01*
X26320Y-38521D01*
X26269Y-38500D01*
X26319Y-38479D01*
X26478Y-38320D01*
X26497Y-38275D01*
X26506Y-38296D01*
X26603Y-38326D01*
X26929Y-38000D01*
X26603Y-37673D01*
X26506Y-37703D01*
X26498Y-37726D01*
X26479Y-37680D01*
X26320Y-37521D01*
X26269Y-37500D01*
X26319Y-37479D01*
X26478Y-37320D01*
X26497Y-37275D01*
X26506Y-37296D01*
X26603Y-37326D01*
X26929Y-37000D01*
X26603Y-36673D01*
X26506Y-36703D01*
X26498Y-36726D01*
X26479Y-36680D01*
X26320Y-36521D01*
X26269Y-36500D01*
X26319Y-36479D01*
X26478Y-36320D01*
X26497Y-36275D01*
X26506Y-36296D01*
X26603Y-36326D01*
X26929Y-36000D01*
X26603Y-35673D01*
X26506Y-35703D01*
X26498Y-35726D01*
X26479Y-35680D01*
X26320Y-35521D01*
X26269Y-35500D01*
X26319Y-35479D01*
X26478Y-35320D01*
X26497Y-35275D01*
X26506Y-35296D01*
X26603Y-35326D01*
X26929Y-35000D01*
X26603Y-34673D01*
X26506Y-34703D01*
X26498Y-34726D01*
X26479Y-34680D01*
X26320Y-34521D01*
X26269Y-34500D01*
X26319Y-34479D01*
X26478Y-34320D01*
X26497Y-34275D01*
X26506Y-34296D01*
X26603Y-34326D01*
X26929Y-34000D01*
X26603Y-33673D01*
X26506Y-33703D01*
X26498Y-33726D01*
X26479Y-33680D01*
X26320Y-33521D01*
X26269Y-33500D01*
X26319Y-33479D01*
X26478Y-33320D01*
X26497Y-33275D01*
X26506Y-33296D01*
X26603Y-33326D01*
X26929Y-33000D01*
X26923Y-32994D01*
X26994Y-32923D01*
X27000Y-32929D01*
X27005Y-32923D01*
X27076Y-32994D01*
X27070Y-33000D01*
X27396Y-33326D01*
X27493Y-33296D01*
X27501Y-33273D01*
X27520Y-33319D01*
X27679Y-33478D01*
X27730Y-33499D01*
X27680Y-33520D01*
X27521Y-33679D01*
X27502Y-33724D01*
X27493Y-33703D01*
X27396Y-33673D01*
X27326Y-33744D01*
X27326Y-33603D01*
X27296Y-33506D01*
X27280Y-33500D01*
X27296Y-33493D01*
X27326Y-33396D01*
X27000Y-33070D01*
X26673Y-33396D01*
X26703Y-33493D01*
X26719Y-33499D01*
X26703Y-33506D01*
X26673Y-33603D01*
X27000Y-33929D01*
X27326Y-33603D01*
X27326Y-33744D01*
X27070Y-34000D01*
X27396Y-34326D01*
X27493Y-34296D01*
X27501Y-34273D01*
X27520Y-34319D01*
X27679Y-34478D01*
X27730Y-34499D01*
X27680Y-34520D01*
X27521Y-34679D01*
X27502Y-34724D01*
X27493Y-34703D01*
X27396Y-34673D01*
X27326Y-34744D01*
X27326Y-34603D01*
X27296Y-34506D01*
X27280Y-34500D01*
X27296Y-34493D01*
X27326Y-34396D01*
X27000Y-34070D01*
X26673Y-34396D01*
X26703Y-34493D01*
X26719Y-34499D01*
X26703Y-34506D01*
X26673Y-34603D01*
X27000Y-34929D01*
X27326Y-34603D01*
X27326Y-34744D01*
X27070Y-35000D01*
X27396Y-35326D01*
X27493Y-35296D01*
X27501Y-35273D01*
X27520Y-35319D01*
X27679Y-35478D01*
X27730Y-35499D01*
X27680Y-35520D01*
X27521Y-35679D01*
X27502Y-35724D01*
X27493Y-35703D01*
X27396Y-35673D01*
X27326Y-35744D01*
X27326Y-35603D01*
X27296Y-35506D01*
X27280Y-35500D01*
X27296Y-35493D01*
X27326Y-35396D01*
X27000Y-35070D01*
X26673Y-35396D01*
X26703Y-35493D01*
X26719Y-35499D01*
X26703Y-35506D01*
X26673Y-35603D01*
X27000Y-35929D01*
X27326Y-35603D01*
X27326Y-35744D01*
X27070Y-36000D01*
X27396Y-36326D01*
X27493Y-36296D01*
X27501Y-36273D01*
X27520Y-36319D01*
X27679Y-36478D01*
X27730Y-36499D01*
X27680Y-36520D01*
X27521Y-36679D01*
X27502Y-36724D01*
X27493Y-36703D01*
X27396Y-36673D01*
X27326Y-36744D01*
X27326Y-36603D01*
X27296Y-36506D01*
X27280Y-36500D01*
X27296Y-36493D01*
X27326Y-36396D01*
X27000Y-36070D01*
X26673Y-36396D01*
X26703Y-36493D01*
X26719Y-36499D01*
X26703Y-36506D01*
X26673Y-36603D01*
X27000Y-36929D01*
X27326Y-36603D01*
X27326Y-36744D01*
X27070Y-37000D01*
X27396Y-37326D01*
X27493Y-37296D01*
X27501Y-37273D01*
X27520Y-37319D01*
X27679Y-37478D01*
X27730Y-37499D01*
X27680Y-37520D01*
X27521Y-37679D01*
X27502Y-37724D01*
X27493Y-37703D01*
X27396Y-37673D01*
X27326Y-37744D01*
X27326Y-37603D01*
X27296Y-37506D01*
X27280Y-37500D01*
X27296Y-37493D01*
X27326Y-37396D01*
X27000Y-37070D01*
X26673Y-37396D01*
X26703Y-37493D01*
X26719Y-37499D01*
X26703Y-37506D01*
X26673Y-37603D01*
X27000Y-37929D01*
X27326Y-37603D01*
X27326Y-37744D01*
X27070Y-38000D01*
X27396Y-38326D01*
X27493Y-38296D01*
X27501Y-38273D01*
X27520Y-38319D01*
X27679Y-38478D01*
X27730Y-38499D01*
X27680Y-38520D01*
X27521Y-38679D01*
X27502Y-38724D01*
X27493Y-38703D01*
X27396Y-38673D01*
X27326Y-38744D01*
X27326Y-38603D01*
X27296Y-38506D01*
X27280Y-38500D01*
X27296Y-38493D01*
X27326Y-38396D01*
X27000Y-38070D01*
X26673Y-38396D01*
X26703Y-38493D01*
X26719Y-38499D01*
X26703Y-38506D01*
X26673Y-38603D01*
X27000Y-38929D01*
X27326Y-38603D01*
X27326Y-38744D01*
X27070Y-39000D01*
X27396Y-39326D01*
X27493Y-39296D01*
X27501Y-39273D01*
X27520Y-39319D01*
X27679Y-39478D01*
X27730Y-39499D01*
X27680Y-39520D01*
X27521Y-39679D01*
X27502Y-39724D01*
X27493Y-39703D01*
X27396Y-39673D01*
X27326Y-39744D01*
X27326Y-39603D01*
X27296Y-39506D01*
X27280Y-39500D01*
X27296Y-39493D01*
X27326Y-39396D01*
X27000Y-39070D01*
X26673Y-39396D01*
X26703Y-39493D01*
X26719Y-39499D01*
X26703Y-39506D01*
X26673Y-39603D01*
X27000Y-39929D01*
X27326Y-39603D01*
X27326Y-39744D01*
X27070Y-40000D01*
X27396Y-40326D01*
X27493Y-40296D01*
X27501Y-40273D01*
X27520Y-40319D01*
X27679Y-40478D01*
X27730Y-40499D01*
X27680Y-40520D01*
X27521Y-40679D01*
X27502Y-40724D01*
X27493Y-40703D01*
X27396Y-40673D01*
X27326Y-40744D01*
X27326Y-40603D01*
X27296Y-40506D01*
X27280Y-40500D01*
X27296Y-40493D01*
X27326Y-40396D01*
X27000Y-40070D01*
X26673Y-40396D01*
X26703Y-40493D01*
X26719Y-40499D01*
X26703Y-40506D01*
X26673Y-40603D01*
X27000Y-40929D01*
X27326Y-40603D01*
X27326Y-40744D01*
X27070Y-41000D01*
X27396Y-41326D01*
X27493Y-41296D01*
X27501Y-41273D01*
X27520Y-41319D01*
X27679Y-41478D01*
X27730Y-41499D01*
X27730Y-41499D01*
G37*
G54D17*
X27730Y-41499D02*
X27680Y-41520D01*
X27521Y-41679D01*
X27502Y-41724D01*
X27493Y-41703D01*
X27396Y-41673D01*
X27326Y-41744D01*
X27326Y-41603D01*
X27296Y-41506D01*
X27280Y-41500D01*
X27296Y-41493D01*
X27326Y-41396D01*
X27000Y-41070D01*
X26673Y-41396D01*
X26703Y-41493D01*
X26719Y-41499D01*
X26703Y-41506D01*
X26673Y-41603D01*
X27000Y-41929D01*
X27326Y-41603D01*
X27326Y-41744D01*
X27070Y-42000D01*
X27076Y-42005D01*
X27005Y-42076D01*
X27000Y-42070D01*
X26994Y-42076D01*
X26923Y-42005D01*
X26929Y-42000D01*
X26603Y-41673D01*
X26506Y-41703D01*
X26498Y-41726D01*
X26479Y-41680D01*
X26320Y-41521D01*
X26269Y-41500D01*
X26319Y-41479D01*
X26478Y-41320D01*
X26497Y-41275D01*
X26506Y-41296D01*
X26603Y-41326D01*
X26929Y-41000D01*
X26603Y-40673D01*
X26506Y-40703D01*
X26498Y-40726D01*
X26479Y-40680D01*
X26320Y-40521D01*
X26269Y-40500D01*
X26319Y-40479D01*
X26478Y-40320D01*
X26497Y-40275D01*
X26506Y-40296D01*
X26603Y-40326D01*
X26929Y-40000D01*
X26603Y-39673D01*
X26506Y-39703D01*
X26498Y-39726D01*
X26479Y-39680D01*
X26320Y-39521D01*
X26269Y-39500D01*
X26319Y-39479D01*
X26478Y-39320D01*
X26497Y-39275D01*
X26506Y-39296D01*
X26603Y-39326D01*
X26929Y-39000D01*
X26603Y-38673D01*
X26506Y-38703D01*
X26498Y-38726D01*
X26479Y-38680D01*
X26320Y-38521D01*
X26269Y-38500D01*
X26319Y-38479D01*
X26478Y-38320D01*
X26497Y-38275D01*
X26506Y-38296D01*
X26603Y-38326D01*
X26929Y-38000D01*
X26603Y-37673D01*
X26506Y-37703D01*
X26498Y-37726D01*
X26479Y-37680D01*
X26320Y-37521D01*
X26269Y-37500D01*
X26319Y-37479D01*
X26478Y-37320D01*
X26497Y-37275D01*
X26506Y-37296D01*
X26603Y-37326D01*
X26929Y-37000D01*
X26603Y-36673D01*
X26506Y-36703D01*
X26498Y-36726D01*
X26479Y-36680D01*
X26320Y-36521D01*
X26269Y-36500D01*
X26319Y-36479D01*
X26478Y-36320D01*
X26497Y-36275D01*
X26506Y-36296D01*
X26603Y-36326D01*
X26929Y-36000D01*
X26603Y-35673D01*
X26506Y-35703D01*
X26498Y-35726D01*
X26479Y-35680D01*
X26320Y-35521D01*
X26269Y-35500D01*
X26319Y-35479D01*
X26478Y-35320D01*
X26497Y-35275D01*
X26506Y-35296D01*
X26603Y-35326D01*
X26929Y-35000D01*
X26603Y-34673D01*
X26506Y-34703D01*
X26498Y-34726D01*
X26479Y-34680D01*
X26320Y-34521D01*
X26269Y-34500D01*
X26319Y-34479D01*
X26478Y-34320D01*
X26497Y-34275D01*
X26506Y-34296D01*
X26603Y-34326D01*
X26929Y-34000D01*
X26603Y-33673D01*
X26506Y-33703D01*
X26498Y-33726D01*
X26479Y-33680D01*
X26320Y-33521D01*
X26269Y-33500D01*
X26319Y-33479D01*
X26478Y-33320D01*
X26497Y-33275D01*
X26506Y-33296D01*
X26603Y-33326D01*
X26929Y-33000D01*
X26923Y-32994D01*
X26994Y-32923D01*
X27000Y-32929D01*
X27005Y-32923D01*
X27076Y-32994D01*
X27070Y-33000D01*
X27396Y-33326D01*
X27493Y-33296D01*
X27501Y-33273D01*
X27520Y-33319D01*
X27679Y-33478D01*
X27730Y-33499D01*
X27680Y-33520D01*
X27521Y-33679D01*
X27502Y-33724D01*
X27493Y-33703D01*
X27396Y-33673D01*
X27326Y-33744D01*
X27326Y-33603D01*
X27296Y-33506D01*
X27280Y-33500D01*
X27296Y-33493D01*
X27326Y-33396D01*
X27000Y-33070D01*
X26673Y-33396D01*
X26703Y-33493D01*
X26719Y-33499D01*
X26703Y-33506D01*
X26673Y-33603D01*
X27000Y-33929D01*
X27326Y-33603D01*
X27326Y-33744D01*
X27070Y-34000D01*
X27396Y-34326D01*
X27493Y-34296D01*
X27501Y-34273D01*
X27520Y-34319D01*
X27679Y-34478D01*
X27730Y-34499D01*
X27680Y-34520D01*
X27521Y-34679D01*
X27502Y-34724D01*
X27493Y-34703D01*
X27396Y-34673D01*
X27326Y-34744D01*
X27326Y-34603D01*
X27296Y-34506D01*
X27280Y-34500D01*
X27296Y-34493D01*
X27326Y-34396D01*
X27000Y-34070D01*
X26673Y-34396D01*
X26703Y-34493D01*
X26719Y-34499D01*
X26703Y-34506D01*
X26673Y-34603D01*
X27000Y-34929D01*
X27326Y-34603D01*
X27326Y-34744D01*
X27070Y-35000D01*
X27396Y-35326D01*
X27493Y-35296D01*
X27501Y-35273D01*
X27520Y-35319D01*
X27679Y-35478D01*
X27730Y-35499D01*
X27680Y-35520D01*
X27521Y-35679D01*
X27502Y-35724D01*
X27493Y-35703D01*
X27396Y-35673D01*
X27326Y-35744D01*
X27326Y-35603D01*
X27296Y-35506D01*
X27280Y-35500D01*
X27296Y-35493D01*
X27326Y-35396D01*
X27000Y-35070D01*
X26673Y-35396D01*
X26703Y-35493D01*
X26719Y-35499D01*
X26703Y-35506D01*
X26673Y-35603D01*
X27000Y-35929D01*
X27326Y-35603D01*
X27326Y-35744D01*
X27070Y-36000D01*
X27396Y-36326D01*
X27493Y-36296D01*
X27501Y-36273D01*
X27520Y-36319D01*
X27679Y-36478D01*
X27730Y-36499D01*
X27680Y-36520D01*
X27521Y-36679D01*
X27502Y-36724D01*
X27493Y-36703D01*
X27396Y-36673D01*
X27326Y-36744D01*
X27326Y-36603D01*
X27296Y-36506D01*
X27280Y-36500D01*
X27296Y-36493D01*
X27326Y-36396D01*
X27000Y-36070D01*
X26673Y-36396D01*
X26703Y-36493D01*
X26719Y-36499D01*
X26703Y-36506D01*
X26673Y-36603D01*
X27000Y-36929D01*
X27326Y-36603D01*
X27326Y-36744D01*
X27070Y-37000D01*
X27396Y-37326D01*
X27493Y-37296D01*
X27501Y-37273D01*
X27520Y-37319D01*
X27679Y-37478D01*
X27730Y-37499D01*
X27680Y-37520D01*
X27521Y-37679D01*
X27502Y-37724D01*
X27493Y-37703D01*
X27396Y-37673D01*
X27326Y-37744D01*
X27326Y-37603D01*
X27296Y-37506D01*
X27280Y-37500D01*
X27296Y-37493D01*
X27326Y-37396D01*
X27000Y-37070D01*
X26673Y-37396D01*
X26703Y-37493D01*
X26719Y-37499D01*
X26703Y-37506D01*
X26673Y-37603D01*
X27000Y-37929D01*
X27326Y-37603D01*
X27326Y-37744D01*
X27070Y-38000D01*
X27396Y-38326D01*
X27493Y-38296D01*
X27501Y-38273D01*
X27520Y-38319D01*
X27679Y-38478D01*
X27730Y-38499D01*
X27680Y-38520D01*
X27521Y-38679D01*
X27502Y-38724D01*
X27493Y-38703D01*
X27396Y-38673D01*
X27326Y-38744D01*
X27326Y-38603D01*
X27296Y-38506D01*
X27280Y-38500D01*
X27296Y-38493D01*
X27326Y-38396D01*
X27000Y-38070D01*
X26673Y-38396D01*
X26703Y-38493D01*
X26719Y-38499D01*
X26703Y-38506D01*
X26673Y-38603D01*
X27000Y-38929D01*
X27326Y-38603D01*
X27326Y-38744D01*
X27070Y-39000D01*
X27396Y-39326D01*
X27493Y-39296D01*
X27501Y-39273D01*
X27520Y-39319D01*
X27679Y-39478D01*
X27730Y-39499D01*
X27680Y-39520D01*
X27521Y-39679D01*
X27502Y-39724D01*
X27493Y-39703D01*
X27396Y-39673D01*
X27326Y-39744D01*
X27326Y-39603D01*
X27296Y-39506D01*
X27280Y-39500D01*
X27296Y-39493D01*
X27326Y-39396D01*
X27000Y-39070D01*
X26673Y-39396D01*
X26703Y-39493D01*
X26719Y-39499D01*
X26703Y-39506D01*
X26673Y-39603D01*
X27000Y-39929D01*
X27326Y-39603D01*
X27326Y-39744D01*
X27070Y-40000D01*
X27396Y-40326D01*
X27493Y-40296D01*
X27501Y-40273D01*
X27520Y-40319D01*
X27679Y-40478D01*
X27730Y-40499D01*
X27680Y-40520D01*
X27521Y-40679D01*
X27502Y-40724D01*
X27493Y-40703D01*
X27396Y-40673D01*
X27326Y-40744D01*
X27326Y-40603D01*
X27296Y-40506D01*
X27280Y-40500D01*
X27296Y-40493D01*
X27326Y-40396D01*
X27000Y-40070D01*
X26673Y-40396D01*
X26703Y-40493D01*
X26719Y-40499D01*
X26703Y-40506D01*
X26673Y-40603D01*
X27000Y-40929D01*
X27326Y-40603D01*
X27326Y-40744D01*
X27070Y-41000D01*
X27396Y-41326D01*
X27493Y-41296D01*
X27501Y-41273D01*
X27520Y-41319D01*
X27679Y-41478D01*
X27730Y-41499D01*
G54D10*
G36*
X55720Y-21884D02*
X52067Y-25536D01*
X52058Y-25360D01*
X51993Y-25203D01*
X51896Y-25173D01*
X51826Y-25244D01*
X51826Y-25103D01*
X51796Y-25006D01*
X51585Y-24930D01*
X51360Y-24941D01*
X51203Y-25006D01*
X51173Y-25103D01*
X51500Y-25429D01*
X51826Y-25103D01*
X51826Y-25244D01*
X51570Y-25500D01*
X51576Y-25505D01*
X51505Y-25576D01*
X51500Y-25570D01*
X51429Y-25641D01*
X51429Y-25500D01*
X51103Y-25173D01*
X51006Y-25203D01*
X50930Y-25414D01*
X50941Y-25639D01*
X51006Y-25796D01*
X51103Y-25826D01*
X51429Y-25500D01*
X51429Y-25641D01*
X51173Y-25896D01*
X51203Y-25993D01*
X51226Y-26001D01*
X51180Y-26020D01*
X51021Y-26179D01*
X50935Y-26387D01*
X50934Y-26611D01*
X51020Y-26819D01*
X51179Y-26978D01*
X51230Y-26999D01*
X51180Y-27020D01*
X51021Y-27179D01*
X50935Y-27387D01*
X50934Y-27611D01*
X51020Y-27819D01*
X51179Y-27978D01*
X51230Y-27999D01*
X51180Y-28020D01*
X51021Y-28179D01*
X50935Y-28387D01*
X50934Y-28611D01*
X51020Y-28819D01*
X51179Y-28978D01*
X51230Y-28999D01*
X51180Y-29020D01*
X51021Y-29179D01*
X50935Y-29387D01*
X50934Y-29611D01*
X51020Y-29819D01*
X51179Y-29978D01*
X51230Y-29999D01*
X51180Y-30020D01*
X51021Y-30179D01*
X50935Y-30387D01*
X50934Y-30611D01*
X51020Y-30819D01*
X51179Y-30978D01*
X51230Y-30999D01*
X51180Y-31020D01*
X51021Y-31179D01*
X50935Y-31387D01*
X50934Y-31611D01*
X51020Y-31819D01*
X51179Y-31978D01*
X51230Y-31999D01*
X51180Y-32020D01*
X51180Y-32021D01*
X43265Y-24106D01*
X43315Y-24055D01*
X43380Y-23899D01*
X43380Y-23730D01*
X43316Y-23574D01*
X43196Y-23454D01*
X43120Y-23422D01*
X43153Y-23422D01*
X43310Y-23358D01*
X43429Y-23238D01*
X43494Y-23082D01*
X43494Y-22968D01*
X53898Y-12564D01*
X54111Y-12565D01*
X54319Y-12479D01*
X54478Y-12320D01*
X54499Y-12269D01*
X54520Y-12319D01*
X54679Y-12478D01*
X54887Y-12564D01*
X55111Y-12565D01*
X55319Y-12479D01*
X55478Y-12320D01*
X55499Y-12269D01*
X55520Y-12319D01*
X55679Y-12478D01*
X55720Y-12495D01*
X55720Y-21884D01*
X55720Y-21884D01*
G37*
G54D17*
X55720Y-21884D02*
X52067Y-25536D01*
X52058Y-25360D01*
X51993Y-25203D01*
X51896Y-25173D01*
X51826Y-25244D01*
X51826Y-25103D01*
X51796Y-25006D01*
X51585Y-24930D01*
X51360Y-24941D01*
X51203Y-25006D01*
X51173Y-25103D01*
X51500Y-25429D01*
X51826Y-25103D01*
X51826Y-25244D01*
X51570Y-25500D01*
X51576Y-25505D01*
X51505Y-25576D01*
X51500Y-25570D01*
X51429Y-25641D01*
X51429Y-25500D01*
X51103Y-25173D01*
X51006Y-25203D01*
X50930Y-25414D01*
X50941Y-25639D01*
X51006Y-25796D01*
X51103Y-25826D01*
X51429Y-25500D01*
X51429Y-25641D01*
X51173Y-25896D01*
X51203Y-25993D01*
X51226Y-26001D01*
X51180Y-26020D01*
X51021Y-26179D01*
X50935Y-26387D01*
X50934Y-26611D01*
X51020Y-26819D01*
X51179Y-26978D01*
X51230Y-26999D01*
X51180Y-27020D01*
X51021Y-27179D01*
X50935Y-27387D01*
X50934Y-27611D01*
X51020Y-27819D01*
X51179Y-27978D01*
X51230Y-27999D01*
X51180Y-28020D01*
X51021Y-28179D01*
X50935Y-28387D01*
X50934Y-28611D01*
X51020Y-28819D01*
X51179Y-28978D01*
X51230Y-28999D01*
X51180Y-29020D01*
X51021Y-29179D01*
X50935Y-29387D01*
X50934Y-29611D01*
X51020Y-29819D01*
X51179Y-29978D01*
X51230Y-29999D01*
X51180Y-30020D01*
X51021Y-30179D01*
X50935Y-30387D01*
X50934Y-30611D01*
X51020Y-30819D01*
X51179Y-30978D01*
X51230Y-30999D01*
X51180Y-31020D01*
X51021Y-31179D01*
X50935Y-31387D01*
X50934Y-31611D01*
X51020Y-31819D01*
X51179Y-31978D01*
X51230Y-31999D01*
X51180Y-32020D01*
X51180Y-32021D01*
X43265Y-24106D01*
X43315Y-24055D01*
X43380Y-23899D01*
X43380Y-23730D01*
X43316Y-23574D01*
X43196Y-23454D01*
X43120Y-23422D01*
X43153Y-23422D01*
X43310Y-23358D01*
X43429Y-23238D01*
X43494Y-23082D01*
X43494Y-22968D01*
X53898Y-12564D01*
X54111Y-12565D01*
X54319Y-12479D01*
X54478Y-12320D01*
X54499Y-12269D01*
X54520Y-12319D01*
X54679Y-12478D01*
X54887Y-12564D01*
X55111Y-12565D01*
X55319Y-12479D01*
X55478Y-12320D01*
X55499Y-12269D01*
X55520Y-12319D01*
X55679Y-12478D01*
X55720Y-12495D01*
X55720Y-21884D01*
G54D10*
G36*
X60520Y-24473D02*
X60411Y-24582D01*
X60351Y-24673D01*
X60329Y-24780D01*
X60329Y-26274D01*
X52067Y-34536D01*
X52058Y-34360D01*
X51993Y-34203D01*
X51896Y-34173D01*
X51570Y-34500D01*
X51576Y-34505D01*
X51505Y-34576D01*
X51500Y-34570D01*
X51429Y-34641D01*
X51429Y-34500D01*
X51103Y-34173D01*
X51006Y-34203D01*
X50930Y-34414D01*
X50941Y-34639D01*
X51006Y-34796D01*
X51103Y-34826D01*
X51429Y-34500D01*
X51429Y-34641D01*
X51173Y-34896D01*
X51203Y-34993D01*
X51226Y-35001D01*
X51180Y-35020D01*
X51021Y-35179D01*
X50935Y-35387D01*
X50934Y-35611D01*
X51020Y-35819D01*
X51179Y-35978D01*
X51230Y-35999D01*
X51180Y-36020D01*
X51021Y-36179D01*
X50935Y-36387D01*
X50935Y-36539D01*
X42844Y-28448D01*
X42844Y-24477D01*
X50934Y-32568D01*
X50934Y-32611D01*
X51020Y-32819D01*
X51179Y-32978D01*
X51230Y-32999D01*
X51180Y-33020D01*
X51021Y-33179D01*
X50935Y-33387D01*
X50934Y-33611D01*
X51020Y-33819D01*
X51179Y-33978D01*
X51224Y-33997D01*
X51203Y-34006D01*
X51173Y-34103D01*
X51500Y-34429D01*
X51826Y-34103D01*
X51796Y-34006D01*
X51773Y-33998D01*
X51819Y-33979D01*
X51978Y-33820D01*
X52064Y-33612D01*
X52065Y-33388D01*
X51979Y-33180D01*
X51820Y-33021D01*
X51769Y-33000D01*
X51819Y-32979D01*
X51978Y-32820D01*
X52064Y-32612D01*
X52065Y-32388D01*
X51979Y-32180D01*
X51820Y-32021D01*
X51769Y-32000D01*
X51819Y-31979D01*
X51978Y-31820D01*
X52064Y-31612D01*
X52065Y-31388D01*
X51979Y-31180D01*
X51820Y-31021D01*
X51769Y-31000D01*
X51819Y-30979D01*
X51978Y-30820D01*
X52064Y-30612D01*
X52065Y-30388D01*
X51979Y-30180D01*
X51820Y-30021D01*
X51769Y-30000D01*
X51819Y-29979D01*
X51978Y-29820D01*
X52064Y-29612D01*
X52065Y-29388D01*
X51979Y-29180D01*
X51820Y-29021D01*
X51769Y-29000D01*
X51819Y-28979D01*
X51978Y-28820D01*
X52064Y-28612D01*
X52065Y-28388D01*
X51979Y-28180D01*
X51820Y-28021D01*
X51769Y-28000D01*
X51819Y-27979D01*
X51978Y-27820D01*
X52064Y-27612D01*
X52065Y-27388D01*
X51979Y-27180D01*
X51820Y-27021D01*
X51769Y-27000D01*
X51819Y-26979D01*
X51978Y-26820D01*
X52064Y-26612D01*
X52065Y-26388D01*
X52048Y-26347D01*
X56197Y-22197D01*
X56258Y-22107D01*
X56258Y-22107D01*
X56280Y-22000D01*
X56280Y-19420D01*
X60467Y-23608D01*
X60450Y-23650D01*
X60449Y-23749D01*
X60449Y-24349D01*
X60487Y-24441D01*
X60520Y-24473D01*
X60520Y-24473D01*
G37*
G54D17*
X60520Y-24473D02*
X60411Y-24582D01*
X60351Y-24673D01*
X60329Y-24780D01*
X60329Y-26274D01*
X52067Y-34536D01*
X52058Y-34360D01*
X51993Y-34203D01*
X51896Y-34173D01*
X51570Y-34500D01*
X51576Y-34505D01*
X51505Y-34576D01*
X51500Y-34570D01*
X51429Y-34641D01*
X51429Y-34500D01*
X51103Y-34173D01*
X51006Y-34203D01*
X50930Y-34414D01*
X50941Y-34639D01*
X51006Y-34796D01*
X51103Y-34826D01*
X51429Y-34500D01*
X51429Y-34641D01*
X51173Y-34896D01*
X51203Y-34993D01*
X51226Y-35001D01*
X51180Y-35020D01*
X51021Y-35179D01*
X50935Y-35387D01*
X50934Y-35611D01*
X51020Y-35819D01*
X51179Y-35978D01*
X51230Y-35999D01*
X51180Y-36020D01*
X51021Y-36179D01*
X50935Y-36387D01*
X50935Y-36539D01*
X42844Y-28448D01*
X42844Y-24477D01*
X50934Y-32568D01*
X50934Y-32611D01*
X51020Y-32819D01*
X51179Y-32978D01*
X51230Y-32999D01*
X51180Y-33020D01*
X51021Y-33179D01*
X50935Y-33387D01*
X50934Y-33611D01*
X51020Y-33819D01*
X51179Y-33978D01*
X51224Y-33997D01*
X51203Y-34006D01*
X51173Y-34103D01*
X51500Y-34429D01*
X51826Y-34103D01*
X51796Y-34006D01*
X51773Y-33998D01*
X51819Y-33979D01*
X51978Y-33820D01*
X52064Y-33612D01*
X52065Y-33388D01*
X51979Y-33180D01*
X51820Y-33021D01*
X51769Y-33000D01*
X51819Y-32979D01*
X51978Y-32820D01*
X52064Y-32612D01*
X52065Y-32388D01*
X51979Y-32180D01*
X51820Y-32021D01*
X51769Y-32000D01*
X51819Y-31979D01*
X51978Y-31820D01*
X52064Y-31612D01*
X52065Y-31388D01*
X51979Y-31180D01*
X51820Y-31021D01*
X51769Y-31000D01*
X51819Y-30979D01*
X51978Y-30820D01*
X52064Y-30612D01*
X52065Y-30388D01*
X51979Y-30180D01*
X51820Y-30021D01*
X51769Y-30000D01*
X51819Y-29979D01*
X51978Y-29820D01*
X52064Y-29612D01*
X52065Y-29388D01*
X51979Y-29180D01*
X51820Y-29021D01*
X51769Y-29000D01*
X51819Y-28979D01*
X51978Y-28820D01*
X52064Y-28612D01*
X52065Y-28388D01*
X51979Y-28180D01*
X51820Y-28021D01*
X51769Y-28000D01*
X51819Y-27979D01*
X51978Y-27820D01*
X52064Y-27612D01*
X52065Y-27388D01*
X51979Y-27180D01*
X51820Y-27021D01*
X51769Y-27000D01*
X51819Y-26979D01*
X51978Y-26820D01*
X52064Y-26612D01*
X52065Y-26388D01*
X52048Y-26347D01*
X56197Y-22197D01*
X56258Y-22107D01*
X56258Y-22107D01*
X56280Y-22000D01*
X56280Y-19420D01*
X60467Y-23608D01*
X60450Y-23650D01*
X60449Y-23749D01*
X60449Y-24349D01*
X60487Y-24441D01*
X60520Y-24473D01*
G54D10*
G36*
X61076Y-23005D02*
X61005Y-23076D01*
X61000Y-23070D01*
X60994Y-23076D01*
X60923Y-23005D01*
X60929Y-23000D01*
X60614Y-22684D01*
X60547Y-22703D01*
X56894Y-19050D01*
X57349Y-19050D01*
X57441Y-19012D01*
X57473Y-18979D01*
X60946Y-22452D01*
X60863Y-22456D01*
X60712Y-22518D01*
X60684Y-22614D01*
X61000Y-22929D01*
X61005Y-22923D01*
X61076Y-22994D01*
X61070Y-23000D01*
X61076Y-23005D01*
X61076Y-23005D01*
G37*
G54D17*
X61076Y-23005D02*
X61005Y-23076D01*
X61000Y-23070D01*
X60994Y-23076D01*
X60923Y-23005D01*
X60929Y-23000D01*
X60614Y-22684D01*
X60547Y-22703D01*
X56894Y-19050D01*
X57349Y-19050D01*
X57441Y-19012D01*
X57473Y-18979D01*
X60946Y-22452D01*
X60863Y-22456D01*
X60712Y-22518D01*
X60684Y-22614D01*
X61000Y-22929D01*
X61005Y-22923D01*
X61076Y-22994D01*
X61070Y-23000D01*
X61076Y-23005D01*
G54D10*
G36*
X61076Y-26005D02*
X61005Y-26076D01*
X61000Y-26070D01*
X60994Y-26076D01*
X60923Y-26005D01*
X60929Y-26000D01*
X60923Y-25994D01*
X60994Y-25923D01*
X61000Y-25929D01*
X61005Y-25923D01*
X61076Y-25994D01*
X61070Y-26000D01*
X61076Y-26005D01*
X61076Y-26005D01*
G37*
G54D17*
X61076Y-26005D02*
X61005Y-26076D01*
X61000Y-26070D01*
X60994Y-26076D01*
X60923Y-26005D01*
X60929Y-26000D01*
X60923Y-25994D01*
X60994Y-25923D01*
X61000Y-25929D01*
X61005Y-25923D01*
X61076Y-25994D01*
X61070Y-26000D01*
X61076Y-26005D01*
G54D10*
G36*
X61723Y-35057D02*
X61574Y-34995D01*
X61405Y-34995D01*
X61249Y-35060D01*
X61129Y-35179D01*
X61065Y-35335D01*
X61064Y-35449D01*
X57294Y-39220D01*
X51995Y-39220D01*
X51979Y-39180D01*
X51820Y-39021D01*
X51769Y-39000D01*
X51819Y-38979D01*
X51978Y-38820D01*
X52064Y-38612D01*
X52065Y-38388D01*
X51979Y-38180D01*
X51820Y-38021D01*
X51769Y-38000D01*
X51819Y-37979D01*
X51978Y-37820D01*
X52064Y-37612D01*
X52065Y-37388D01*
X51979Y-37180D01*
X51820Y-37021D01*
X51769Y-37000D01*
X51819Y-36979D01*
X51978Y-36820D01*
X52064Y-36612D01*
X52065Y-36388D01*
X51979Y-36180D01*
X51820Y-36021D01*
X51769Y-36000D01*
X51819Y-35979D01*
X51978Y-35820D01*
X52064Y-35612D01*
X52065Y-35388D01*
X52048Y-35347D01*
X60449Y-26946D01*
X60449Y-27349D01*
X60487Y-27441D01*
X60558Y-27511D01*
X60650Y-27549D01*
X60749Y-27550D01*
X61232Y-27550D01*
X61232Y-28498D01*
X61081Y-28445D01*
X60863Y-28456D01*
X60712Y-28518D01*
X60684Y-28614D01*
X61000Y-28929D01*
X61005Y-28923D01*
X61076Y-28994D01*
X61070Y-29000D01*
X61076Y-29005D01*
X61005Y-29076D01*
X61000Y-29070D01*
X60929Y-29141D01*
X60929Y-29000D01*
X60614Y-28684D01*
X60518Y-28712D01*
X60445Y-28918D01*
X60456Y-29136D01*
X60518Y-29287D01*
X60614Y-29315D01*
X60929Y-29000D01*
X60929Y-29141D01*
X60684Y-29385D01*
X60703Y-29449D01*
X60650Y-29449D01*
X60558Y-29487D01*
X60488Y-29558D01*
X60450Y-29650D01*
X60449Y-29749D01*
X60449Y-30349D01*
X60487Y-30441D01*
X60558Y-30511D01*
X60650Y-30549D01*
X60749Y-30550D01*
X61349Y-30550D01*
X61441Y-30512D01*
X61511Y-30441D01*
X61549Y-30349D01*
X61550Y-30250D01*
X61550Y-29650D01*
X61512Y-29558D01*
X61479Y-29526D01*
X61710Y-29295D01*
X61710Y-29295D01*
X61723Y-29275D01*
X61723Y-35057D01*
X61723Y-35057D01*
G37*
G54D17*
X61723Y-35057D02*
X61574Y-34995D01*
X61405Y-34995D01*
X61249Y-35060D01*
X61129Y-35179D01*
X61065Y-35335D01*
X61064Y-35449D01*
X57294Y-39220D01*
X51995Y-39220D01*
X51979Y-39180D01*
X51820Y-39021D01*
X51769Y-39000D01*
X51819Y-38979D01*
X51978Y-38820D01*
X52064Y-38612D01*
X52065Y-38388D01*
X51979Y-38180D01*
X51820Y-38021D01*
X51769Y-38000D01*
X51819Y-37979D01*
X51978Y-37820D01*
X52064Y-37612D01*
X52065Y-37388D01*
X51979Y-37180D01*
X51820Y-37021D01*
X51769Y-37000D01*
X51819Y-36979D01*
X51978Y-36820D01*
X52064Y-36612D01*
X52065Y-36388D01*
X51979Y-36180D01*
X51820Y-36021D01*
X51769Y-36000D01*
X51819Y-35979D01*
X51978Y-35820D01*
X52064Y-35612D01*
X52065Y-35388D01*
X52048Y-35347D01*
X60449Y-26946D01*
X60449Y-27349D01*
X60487Y-27441D01*
X60558Y-27511D01*
X60650Y-27549D01*
X60749Y-27550D01*
X61232Y-27550D01*
X61232Y-28498D01*
X61081Y-28445D01*
X60863Y-28456D01*
X60712Y-28518D01*
X60684Y-28614D01*
X61000Y-28929D01*
X61005Y-28923D01*
X61076Y-28994D01*
X61070Y-29000D01*
X61076Y-29005D01*
X61005Y-29076D01*
X61000Y-29070D01*
X60929Y-29141D01*
X60929Y-29000D01*
X60614Y-28684D01*
X60518Y-28712D01*
X60445Y-28918D01*
X60456Y-29136D01*
X60518Y-29287D01*
X60614Y-29315D01*
X60929Y-29000D01*
X60929Y-29141D01*
X60684Y-29385D01*
X60703Y-29449D01*
X60650Y-29449D01*
X60558Y-29487D01*
X60488Y-29558D01*
X60450Y-29650D01*
X60449Y-29749D01*
X60449Y-30349D01*
X60487Y-30441D01*
X60558Y-30511D01*
X60650Y-30549D01*
X60749Y-30550D01*
X61349Y-30550D01*
X61441Y-30512D01*
X61511Y-30441D01*
X61549Y-30349D01*
X61550Y-30250D01*
X61550Y-29650D01*
X61512Y-29558D01*
X61479Y-29526D01*
X61710Y-29295D01*
X61710Y-29295D01*
X61723Y-29275D01*
X61723Y-35057D01*
G54D10*
G36*
X66450Y-43450D02*
X63815Y-43450D01*
X63815Y-29885D01*
X63500Y-29570D01*
X63429Y-29641D01*
X63429Y-29500D01*
X63114Y-29184D01*
X63018Y-29212D01*
X62945Y-29418D01*
X62956Y-29636D01*
X63018Y-29787D01*
X63114Y-29815D01*
X63429Y-29500D01*
X63429Y-29641D01*
X63184Y-29885D01*
X63212Y-29981D01*
X63418Y-30054D01*
X63636Y-30043D01*
X63787Y-29981D01*
X63815Y-29885D01*
X63815Y-43450D01*
X35037Y-43450D01*
X35037Y-42194D01*
X34879Y-41813D01*
X34588Y-41521D01*
X34207Y-41362D01*
X33794Y-41362D01*
X33413Y-41520D01*
X33121Y-41811D01*
X32962Y-42192D01*
X32962Y-42605D01*
X33120Y-42986D01*
X33411Y-43278D01*
X33792Y-43437D01*
X34205Y-43437D01*
X34586Y-43279D01*
X34878Y-42988D01*
X35037Y-42607D01*
X35037Y-42194D01*
X35037Y-43450D01*
X23826Y-43450D01*
X23826Y-42396D01*
X23500Y-42070D01*
X23173Y-42396D01*
X23203Y-42493D01*
X23414Y-42569D01*
X23639Y-42558D01*
X23796Y-42493D01*
X23826Y-42396D01*
X23826Y-43450D01*
X21550Y-43450D01*
X21550Y-10050D01*
X33383Y-10050D01*
X33121Y-10311D01*
X32962Y-10692D01*
X32962Y-11105D01*
X33120Y-11486D01*
X33268Y-11635D01*
X32551Y-11635D01*
X32569Y-11585D01*
X32558Y-11360D01*
X32493Y-11203D01*
X32396Y-11173D01*
X32326Y-11244D01*
X32326Y-11103D01*
X32296Y-11006D01*
X32085Y-10930D01*
X31860Y-10941D01*
X31703Y-11006D01*
X31673Y-11103D01*
X32000Y-11429D01*
X32326Y-11103D01*
X32326Y-11244D01*
X32070Y-11500D01*
X32076Y-11505D01*
X32005Y-11576D01*
X32000Y-11570D01*
X31994Y-11576D01*
X31923Y-11505D01*
X31929Y-11500D01*
X31765Y-11336D01*
X31762Y-11318D01*
X31758Y-11301D01*
X31758Y-11301D01*
X31697Y-11210D01*
X31384Y-10896D01*
X31293Y-10835D01*
X31186Y-10814D01*
X29684Y-10814D01*
X29595Y-10832D01*
X29577Y-10835D01*
X29486Y-10896D01*
X28544Y-11838D01*
X28479Y-11680D01*
X28320Y-11521D01*
X28269Y-11500D01*
X28319Y-11479D01*
X28478Y-11320D01*
X28564Y-11112D01*
X28565Y-10888D01*
X28479Y-10680D01*
X28320Y-10521D01*
X28112Y-10435D01*
X27888Y-10434D01*
X27680Y-10520D01*
X27521Y-10679D01*
X27502Y-10724D01*
X27493Y-10703D01*
X27396Y-10673D01*
X27326Y-10744D01*
X27326Y-10603D01*
X27296Y-10506D01*
X27085Y-10430D01*
X26860Y-10441D01*
X26703Y-10506D01*
X26673Y-10603D01*
X27000Y-10929D01*
X27326Y-10603D01*
X27326Y-10744D01*
X27070Y-11000D01*
X27396Y-11326D01*
X27493Y-11296D01*
X27501Y-11273D01*
X27520Y-11319D01*
X27679Y-11478D01*
X27730Y-11499D01*
X27680Y-11520D01*
X27521Y-11679D01*
X27502Y-11724D01*
X27493Y-11703D01*
X27396Y-11673D01*
X27326Y-11744D01*
X27326Y-11603D01*
X27296Y-11506D01*
X27280Y-11500D01*
X27296Y-11493D01*
X27326Y-11396D01*
X27000Y-11070D01*
X26673Y-11396D01*
X26703Y-11493D01*
X26719Y-11499D01*
X26703Y-11506D01*
X26673Y-11603D01*
X27000Y-11929D01*
X27326Y-11603D01*
X27326Y-11744D01*
X27070Y-12000D01*
X27396Y-12326D01*
X27493Y-12296D01*
X27501Y-12273D01*
X27520Y-12319D01*
X27614Y-12413D01*
X27396Y-12630D01*
X27336Y-12721D01*
X27333Y-12737D01*
X27333Y-12737D01*
X27326Y-12744D01*
X27326Y-12603D01*
X27296Y-12506D01*
X27280Y-12500D01*
X27296Y-12493D01*
X27326Y-12396D01*
X27000Y-12070D01*
X26673Y-12396D01*
X26703Y-12493D01*
X26719Y-12499D01*
X26703Y-12506D01*
X26673Y-12603D01*
X27000Y-12929D01*
X27326Y-12603D01*
X27326Y-12744D01*
X27070Y-13000D01*
X27076Y-13005D01*
X27005Y-13076D01*
X27000Y-13070D01*
X26673Y-13396D01*
X26703Y-13493D01*
X26719Y-13499D01*
X26703Y-13506D01*
X26673Y-13603D01*
X27000Y-13929D01*
X27005Y-13923D01*
X27076Y-13994D01*
X27070Y-14000D01*
X27396Y-14326D01*
X27493Y-14296D01*
X27501Y-14273D01*
X27520Y-14319D01*
X27679Y-14478D01*
X27730Y-14499D01*
X27680Y-14520D01*
X27521Y-14679D01*
X27502Y-14724D01*
X27493Y-14703D01*
X27396Y-14673D01*
X27326Y-14744D01*
X27326Y-14603D01*
X27296Y-14506D01*
X27280Y-14500D01*
X27296Y-14493D01*
X27326Y-14396D01*
X27000Y-14070D01*
X26673Y-14396D01*
X26703Y-14493D01*
X26719Y-14499D01*
X26703Y-14506D01*
X26673Y-14603D01*
X27000Y-14929D01*
X27326Y-14603D01*
X27326Y-14744D01*
X27070Y-15000D01*
X27396Y-15326D01*
X27493Y-15296D01*
X27501Y-15273D01*
X27520Y-15319D01*
X27679Y-15478D01*
X27730Y-15499D01*
X27680Y-15520D01*
X27521Y-15679D01*
X27502Y-15724D01*
X27493Y-15703D01*
X27396Y-15673D01*
X27326Y-15744D01*
X27326Y-15603D01*
X27296Y-15506D01*
X27280Y-15500D01*
X27296Y-15493D01*
X27326Y-15396D01*
X27000Y-15070D01*
X26673Y-15396D01*
X26703Y-15493D01*
X26719Y-15499D01*
X26703Y-15506D01*
X26673Y-15603D01*
X27000Y-15929D01*
X27326Y-15603D01*
X27326Y-15744D01*
X27070Y-16000D01*
X27076Y-16005D01*
X27005Y-16076D01*
X27000Y-16070D01*
X26994Y-16076D01*
X26923Y-16005D01*
X26929Y-16000D01*
X26603Y-15673D01*
X26506Y-15703D01*
X26498Y-15726D01*
X26479Y-15680D01*
X26320Y-15521D01*
X26269Y-15500D01*
X26319Y-15479D01*
X26478Y-15320D01*
X26497Y-15275D01*
X26506Y-15296D01*
X26603Y-15326D01*
X26929Y-15000D01*
X26603Y-14673D01*
X26506Y-14703D01*
X26498Y-14726D01*
X26479Y-14680D01*
X26320Y-14521D01*
X26269Y-14500D01*
X26319Y-14479D01*
X26478Y-14320D01*
X26497Y-14275D01*
X26506Y-14296D01*
X26603Y-14326D01*
X26929Y-14000D01*
X26603Y-13673D01*
X26506Y-13703D01*
X26498Y-13726D01*
X26479Y-13680D01*
X26320Y-13521D01*
X26280Y-13504D01*
X26280Y-13500D01*
X26280Y-13495D01*
X26319Y-13479D01*
X26478Y-13320D01*
X26497Y-13275D01*
X26506Y-13296D01*
X26603Y-13326D01*
X26929Y-13000D01*
X26603Y-12673D01*
X26506Y-12703D01*
X26498Y-12726D01*
X26479Y-12680D01*
X26320Y-12521D01*
X26280Y-12504D01*
X26280Y-12495D01*
X26319Y-12479D01*
X26478Y-12320D01*
X26497Y-12275D01*
X26506Y-12296D01*
X26603Y-12326D01*
X26929Y-12000D01*
X26603Y-11673D01*
X26506Y-11703D01*
X26498Y-11726D01*
X26479Y-11680D01*
X26320Y-11521D01*
X26280Y-11504D01*
X26280Y-11495D01*
X26319Y-11479D01*
X26478Y-11320D01*
X26497Y-11275D01*
X26506Y-11296D01*
X26603Y-11326D01*
X26929Y-11000D01*
X26603Y-10673D01*
X26506Y-10703D01*
X26498Y-10726D01*
X26479Y-10680D01*
X26320Y-10521D01*
X26112Y-10435D01*
X25888Y-10434D01*
X25680Y-10520D01*
X25521Y-10679D01*
X25435Y-10887D01*
X25434Y-11111D01*
X25520Y-11319D01*
X25679Y-11478D01*
X25720Y-11495D01*
X25720Y-11504D01*
X25680Y-11520D01*
X25521Y-11679D01*
X25435Y-11887D01*
X25434Y-12111D01*
X25520Y-12319D01*
X25679Y-12478D01*
X25720Y-12495D01*
X25720Y-12504D01*
X25680Y-12520D01*
X25521Y-12679D01*
X25435Y-12887D01*
X25434Y-13111D01*
X25479Y-13220D01*
X25020Y-13220D01*
X25064Y-13112D01*
X25065Y-12888D01*
X24979Y-12680D01*
X24820Y-12521D01*
X24769Y-12500D01*
X24819Y-12479D01*
X24978Y-12320D01*
X25064Y-12112D01*
X25065Y-11888D01*
X24979Y-11680D01*
X24820Y-11521D01*
X24769Y-11500D01*
X24819Y-11479D01*
X24978Y-11320D01*
X25064Y-11112D01*
X25065Y-10888D01*
X24979Y-10680D01*
X24820Y-10521D01*
X24612Y-10435D01*
X24388Y-10434D01*
X24180Y-10520D01*
X24021Y-10679D01*
X24002Y-10724D01*
X23993Y-10703D01*
X23896Y-10673D01*
X23826Y-10744D01*
X23826Y-10603D01*
X23796Y-10506D01*
X23585Y-10430D01*
X23360Y-10441D01*
X23203Y-10506D01*
X23173Y-10603D01*
X23500Y-10929D01*
X23826Y-10603D01*
X23826Y-10744D01*
X23570Y-11000D01*
X23896Y-11326D01*
X23993Y-11296D01*
X24001Y-11273D01*
X24020Y-11319D01*
X24179Y-11478D01*
X24230Y-11499D01*
X24180Y-11520D01*
X24021Y-11679D01*
X24002Y-11724D01*
X23993Y-11703D01*
X23896Y-11673D01*
X23826Y-11744D01*
X23826Y-11603D01*
X23796Y-11506D01*
X23780Y-11500D01*
X23796Y-11493D01*
X23826Y-11396D01*
X23500Y-11070D01*
X23173Y-11396D01*
X23203Y-11493D01*
X23219Y-11499D01*
X23203Y-11506D01*
X23173Y-11603D01*
X23500Y-11929D01*
X23826Y-11603D01*
X23826Y-11744D01*
X23570Y-12000D01*
X23896Y-12326D01*
X23993Y-12296D01*
X24001Y-12273D01*
X24020Y-12319D01*
X24179Y-12478D01*
X24230Y-12499D01*
X24180Y-12520D01*
X24021Y-12679D01*
X24002Y-12724D01*
X23993Y-12703D01*
X23896Y-12673D01*
X23826Y-12744D01*
X23826Y-12603D01*
X23796Y-12506D01*
X23780Y-12500D01*
X23796Y-12493D01*
X23826Y-12396D01*
X23500Y-12070D01*
X23173Y-12396D01*
X23203Y-12493D01*
X23219Y-12499D01*
X23203Y-12506D01*
X23173Y-12603D01*
X23500Y-12929D01*
X23826Y-12603D01*
X23826Y-12744D01*
X23570Y-13000D01*
X23576Y-13005D01*
X23505Y-13076D01*
X23500Y-13070D01*
X23494Y-13076D01*
X23423Y-13005D01*
X23429Y-13000D01*
X23103Y-12673D01*
X23006Y-12703D01*
X22998Y-12726D01*
X22979Y-12680D01*
X22820Y-12521D01*
X22780Y-12504D01*
X22780Y-12495D01*
X22819Y-12479D01*
X22978Y-12320D01*
X22997Y-12275D01*
X23006Y-12296D01*
X23103Y-12326D01*
X23429Y-12000D01*
X23103Y-11673D01*
X23006Y-11703D01*
X22998Y-11726D01*
X22979Y-11680D01*
X22820Y-11521D01*
X22780Y-11504D01*
X22780Y-11495D01*
X22819Y-11479D01*
X22978Y-11320D01*
X22997Y-11275D01*
X23006Y-11296D01*
X23103Y-11326D01*
X23429Y-11000D01*
X23103Y-10673D01*
X23006Y-10703D01*
X22998Y-10726D01*
X22979Y-10680D01*
X22820Y-10521D01*
X22612Y-10435D01*
X22388Y-10434D01*
X22180Y-10520D01*
X22021Y-10679D01*
X21935Y-10887D01*
X21934Y-11111D01*
X22020Y-11319D01*
X22179Y-11478D01*
X22220Y-11495D01*
X22220Y-11504D01*
X22180Y-11520D01*
X22021Y-11679D01*
X21935Y-11887D01*
X21934Y-12111D01*
X22020Y-12319D01*
X22179Y-12478D01*
X22220Y-12495D01*
X22220Y-12504D01*
X22180Y-12520D01*
X22021Y-12679D01*
X21935Y-12887D01*
X21934Y-13111D01*
X22020Y-13319D01*
X22179Y-13478D01*
X22230Y-13499D01*
X22180Y-13520D01*
X22021Y-13679D01*
X21935Y-13887D01*
X21934Y-14111D01*
X22020Y-14319D01*
X22179Y-14478D01*
X22230Y-14499D01*
X22180Y-14520D01*
X22021Y-14679D01*
X21935Y-14887D01*
X21934Y-15111D01*
X22020Y-15319D01*
X22179Y-15478D01*
X22230Y-15499D01*
X22180Y-15520D01*
X22021Y-15679D01*
X21935Y-15887D01*
X21934Y-16111D01*
X22020Y-16319D01*
X22179Y-16478D01*
X22230Y-16499D01*
X22180Y-16520D01*
X22021Y-16679D01*
X21935Y-16887D01*
X21934Y-17111D01*
X22020Y-17319D01*
X22179Y-17478D01*
X22220Y-17495D01*
X22220Y-17504D01*
X22180Y-17520D01*
X22021Y-17679D01*
X21935Y-17887D01*
X21934Y-18111D01*
X22020Y-18319D01*
X22179Y-18478D01*
X22220Y-18495D01*
X22220Y-18504D01*
X22180Y-18520D01*
X22021Y-18679D01*
X21935Y-18887D01*
X21934Y-19111D01*
X22020Y-19319D01*
X22179Y-19478D01*
X22230Y-19499D01*
X22180Y-19520D01*
X22021Y-19679D01*
X21935Y-19887D01*
X21934Y-20111D01*
X22020Y-20319D01*
X22179Y-20478D01*
X22230Y-20499D01*
X22180Y-20520D01*
X22021Y-20679D01*
X21935Y-20887D01*
X21934Y-21111D01*
X22020Y-21319D01*
X22179Y-21478D01*
X22230Y-21499D01*
X22180Y-21520D01*
X22021Y-21679D01*
X21935Y-21887D01*
X21934Y-22111D01*
X22020Y-22319D01*
X22179Y-22478D01*
X22230Y-22499D01*
X22180Y-22520D01*
X22021Y-22679D01*
X21935Y-22887D01*
X21934Y-23111D01*
X22020Y-23319D01*
X22179Y-23478D01*
X22230Y-23499D01*
X22180Y-23520D01*
X22021Y-23679D01*
X21935Y-23887D01*
X21934Y-24111D01*
X22020Y-24319D01*
X22179Y-24478D01*
X22230Y-24499D01*
X22180Y-24520D01*
X22021Y-24679D01*
X21935Y-24887D01*
X21934Y-25111D01*
X22020Y-25319D01*
X22179Y-25478D01*
X22230Y-25499D01*
X22180Y-25520D01*
X22021Y-25679D01*
X21935Y-25887D01*
X21934Y-26111D01*
X22020Y-26319D01*
X22179Y-26478D01*
X22230Y-26499D01*
X22180Y-26520D01*
X22021Y-26679D01*
X21935Y-26887D01*
X21934Y-27111D01*
X22020Y-27319D01*
X22179Y-27478D01*
X22230Y-27499D01*
X22180Y-27520D01*
X22021Y-27679D01*
X21935Y-27887D01*
X21934Y-28111D01*
X22020Y-28319D01*
X22179Y-28478D01*
X22230Y-28499D01*
X22180Y-28520D01*
X22021Y-28679D01*
X21935Y-28887D01*
X21934Y-29111D01*
X22020Y-29319D01*
X22179Y-29478D01*
X22230Y-29499D01*
X22180Y-29520D01*
X22021Y-29679D01*
X21935Y-29887D01*
X21934Y-30111D01*
X22020Y-30319D01*
X22179Y-30478D01*
X22230Y-30499D01*
X22180Y-30520D01*
X22021Y-30679D01*
X21935Y-30887D01*
X21934Y-31111D01*
X22020Y-31319D01*
X22179Y-31478D01*
X22230Y-31499D01*
X22180Y-31520D01*
X22021Y-31679D01*
X21935Y-31887D01*
X21934Y-32111D01*
X22020Y-32319D01*
X22179Y-32478D01*
X22230Y-32499D01*
X22180Y-32520D01*
X22021Y-32679D01*
X21935Y-32887D01*
X21934Y-33111D01*
X22020Y-33319D01*
X22179Y-33478D01*
X22230Y-33499D01*
X22180Y-33520D01*
X22021Y-33679D01*
X21935Y-33887D01*
X21934Y-34111D01*
X22020Y-34319D01*
X22179Y-34478D01*
X22230Y-34499D01*
X22180Y-34520D01*
X22021Y-34679D01*
X21935Y-34887D01*
X21934Y-35111D01*
X22020Y-35319D01*
X22179Y-35478D01*
X22230Y-35499D01*
X22180Y-35520D01*
X22021Y-35679D01*
X21935Y-35887D01*
X21934Y-36111D01*
X22020Y-36319D01*
X22179Y-36478D01*
X22230Y-36499D01*
X22180Y-36520D01*
X22021Y-36679D01*
X21935Y-36887D01*
X21934Y-37111D01*
X22020Y-37319D01*
X22179Y-37478D01*
X22230Y-37499D01*
X22180Y-37520D01*
X22021Y-37679D01*
X21935Y-37887D01*
X21934Y-38111D01*
X22020Y-38319D01*
X22179Y-38478D01*
X22230Y-38499D01*
X22180Y-38520D01*
X22021Y-38679D01*
X21935Y-38887D01*
X21934Y-39111D01*
X22020Y-39319D01*
X22179Y-39478D01*
X22230Y-39499D01*
X22180Y-39520D01*
X22021Y-39679D01*
X21935Y-39887D01*
X21934Y-40111D01*
X22020Y-40319D01*
X22179Y-40478D01*
X22230Y-40499D01*
X22180Y-40520D01*
X22021Y-40679D01*
X21935Y-40887D01*
X21934Y-41111D01*
X22020Y-41319D01*
X22179Y-41478D01*
X22230Y-41499D01*
X22180Y-41520D01*
X22021Y-41679D01*
X21935Y-41887D01*
X21934Y-42111D01*
X22020Y-42319D01*
X22179Y-42478D01*
X22387Y-42564D01*
X22611Y-42565D01*
X22819Y-42479D01*
X22978Y-42320D01*
X22997Y-42275D01*
X23006Y-42296D01*
X23103Y-42326D01*
X23429Y-42000D01*
X23103Y-41673D01*
X23006Y-41703D01*
X22998Y-41726D01*
X22979Y-41680D01*
X22820Y-41521D01*
X22769Y-41500D01*
X22819Y-41479D01*
X22978Y-41320D01*
X22997Y-41275D01*
X23006Y-41296D01*
X23103Y-41326D01*
X23429Y-41000D01*
X23103Y-40673D01*
X23006Y-40703D01*
X22998Y-40726D01*
X22979Y-40680D01*
X22820Y-40521D01*
X22769Y-40500D01*
X22819Y-40479D01*
X22978Y-40320D01*
X22997Y-40275D01*
X23006Y-40296D01*
X23103Y-40326D01*
X23429Y-40000D01*
X23103Y-39673D01*
X23006Y-39703D01*
X22998Y-39726D01*
X22979Y-39680D01*
X22820Y-39521D01*
X22769Y-39500D01*
X22819Y-39479D01*
X22978Y-39320D01*
X22997Y-39275D01*
X23006Y-39296D01*
X23103Y-39326D01*
X23429Y-39000D01*
X23103Y-38673D01*
X23006Y-38703D01*
X22998Y-38726D01*
X22979Y-38680D01*
X22820Y-38521D01*
X22769Y-38500D01*
X22819Y-38479D01*
X22978Y-38320D01*
X22997Y-38275D01*
X23006Y-38296D01*
X23103Y-38326D01*
X23429Y-38000D01*
X23103Y-37673D01*
X23006Y-37703D01*
X22998Y-37726D01*
X22979Y-37680D01*
X22820Y-37521D01*
X22769Y-37500D01*
X22819Y-37479D01*
X22978Y-37320D01*
X22997Y-37275D01*
X23006Y-37296D01*
X23103Y-37326D01*
X23429Y-37000D01*
X23103Y-36673D01*
X23006Y-36703D01*
X22998Y-36726D01*
X22979Y-36680D01*
X22820Y-36521D01*
X22769Y-36500D01*
X22819Y-36479D01*
X22978Y-36320D01*
X22997Y-36275D01*
X23006Y-36296D01*
X23103Y-36326D01*
X23429Y-36000D01*
X23103Y-35673D01*
X23006Y-35703D01*
X22998Y-35726D01*
X22979Y-35680D01*
X22820Y-35521D01*
X22769Y-35500D01*
X22819Y-35479D01*
X22978Y-35320D01*
X22997Y-35275D01*
X23006Y-35296D01*
X23103Y-35326D01*
X23429Y-35000D01*
X23103Y-34673D01*
X23006Y-34703D01*
X22998Y-34726D01*
X22979Y-34680D01*
X22820Y-34521D01*
X22769Y-34500D01*
X22819Y-34479D01*
X22978Y-34320D01*
X22997Y-34275D01*
X23006Y-34296D01*
X23103Y-34326D01*
X23429Y-34000D01*
X23103Y-33673D01*
X23006Y-33703D01*
X22998Y-33726D01*
X22979Y-33680D01*
X22820Y-33521D01*
X22769Y-33500D01*
X22819Y-33479D01*
X22978Y-33320D01*
X22997Y-33275D01*
X23006Y-33296D01*
X23103Y-33326D01*
X23429Y-33000D01*
X23103Y-32673D01*
X23006Y-32703D01*
X22998Y-32726D01*
X22979Y-32680D01*
X22820Y-32521D01*
X22769Y-32500D01*
X22819Y-32479D01*
X22978Y-32320D01*
X22997Y-32275D01*
X23006Y-32296D01*
X23103Y-32326D01*
X23429Y-32000D01*
X23103Y-31673D01*
X23006Y-31703D01*
X22998Y-31726D01*
X22979Y-31680D01*
X22820Y-31521D01*
X22769Y-31500D01*
X22819Y-31479D01*
X22978Y-31320D01*
X22997Y-31275D01*
X23006Y-31296D01*
X23103Y-31326D01*
X23429Y-31000D01*
X23103Y-30673D01*
X23006Y-30703D01*
X22998Y-30726D01*
X22979Y-30680D01*
X22820Y-30521D01*
X22769Y-30500D01*
X22819Y-30479D01*
X22978Y-30320D01*
X22997Y-30275D01*
X23006Y-30296D01*
X23103Y-30326D01*
X23429Y-30000D01*
X23103Y-29673D01*
X23006Y-29703D01*
X22998Y-29726D01*
X22979Y-29680D01*
X22820Y-29521D01*
X22769Y-29500D01*
X22819Y-29479D01*
X22978Y-29320D01*
X22997Y-29275D01*
X23006Y-29296D01*
X23103Y-29326D01*
X23429Y-29000D01*
X23103Y-28673D01*
X23006Y-28703D01*
X22998Y-28726D01*
X22979Y-28680D01*
X22820Y-28521D01*
X22769Y-28500D01*
X22819Y-28479D01*
X22978Y-28320D01*
X22997Y-28275D01*
X23006Y-28296D01*
X23103Y-28326D01*
X23429Y-28000D01*
X23103Y-27673D01*
X23006Y-27703D01*
X22998Y-27726D01*
X22979Y-27680D01*
X22820Y-27521D01*
X22769Y-27500D01*
X22819Y-27479D01*
X22978Y-27320D01*
X22997Y-27275D01*
X23006Y-27296D01*
X23103Y-27326D01*
X23429Y-27000D01*
X23103Y-26673D01*
X23006Y-26703D01*
X22998Y-26726D01*
X22979Y-26680D01*
X22820Y-26521D01*
X22769Y-26500D01*
X22819Y-26479D01*
X22978Y-26320D01*
X22997Y-26275D01*
X23006Y-26296D01*
X23103Y-26326D01*
X23429Y-26000D01*
X23103Y-25673D01*
X23006Y-25703D01*
X22998Y-25726D01*
X22979Y-25680D01*
X22820Y-25521D01*
X22769Y-25500D01*
X22819Y-25479D01*
X22978Y-25320D01*
X22997Y-25275D01*
X23006Y-25296D01*
X23103Y-25326D01*
X23429Y-25000D01*
X23103Y-24673D01*
X23006Y-24703D01*
X22998Y-24726D01*
X22979Y-24680D01*
X22820Y-24521D01*
X22769Y-24500D01*
X22819Y-24479D01*
X22978Y-24320D01*
X22997Y-24275D01*
X23006Y-24296D01*
X23103Y-24326D01*
X23429Y-24000D01*
X23423Y-23994D01*
X23494Y-23923D01*
X23500Y-23929D01*
X23505Y-23923D01*
X23576Y-23994D01*
X23570Y-24000D01*
X23896Y-24326D01*
X23993Y-24296D01*
X24001Y-24273D01*
X24020Y-24319D01*
X24179Y-24478D01*
X24230Y-24499D01*
X24180Y-24520D01*
X24021Y-24679D01*
X24002Y-24724D01*
X23993Y-24703D01*
X23896Y-24673D01*
X23826Y-24744D01*
X23826Y-24603D01*
X23796Y-24506D01*
X23780Y-24500D01*
X23796Y-24493D01*
X23826Y-24396D01*
X23500Y-24070D01*
X23173Y-24396D01*
X23203Y-24493D01*
X23219Y-24499D01*
X23203Y-24506D01*
X23173Y-24603D01*
X23500Y-24929D01*
X23826Y-24603D01*
X23826Y-24744D01*
X23570Y-25000D01*
X23896Y-25326D01*
X23993Y-25296D01*
X24001Y-25273D01*
X24020Y-25319D01*
X24179Y-25478D01*
X24230Y-25499D01*
X24180Y-25520D01*
X24021Y-25679D01*
X24002Y-25724D01*
X23993Y-25703D01*
X23896Y-25673D01*
X23826Y-25744D01*
X23826Y-25603D01*
X23796Y-25506D01*
X23780Y-25500D01*
X23796Y-25493D01*
X23826Y-25396D01*
X23500Y-25070D01*
X23173Y-25396D01*
X23203Y-25493D01*
X23219Y-25499D01*
X23203Y-25506D01*
X23173Y-25603D01*
X23500Y-25929D01*
X23826Y-25603D01*
X23826Y-25744D01*
X23570Y-26000D01*
X23896Y-26326D01*
X23993Y-26296D01*
X24001Y-26273D01*
X24020Y-26319D01*
X24179Y-26478D01*
X24230Y-26499D01*
X24180Y-26520D01*
X24021Y-26679D01*
X24002Y-26724D01*
X23993Y-26703D01*
X23896Y-26673D01*
X23826Y-26744D01*
X23826Y-26603D01*
X23796Y-26506D01*
X23780Y-26500D01*
X23796Y-26493D01*
X23826Y-26396D01*
X23500Y-26070D01*
X23173Y-26396D01*
X23203Y-26493D01*
X23219Y-26499D01*
X23203Y-26506D01*
X23173Y-26603D01*
X23500Y-26929D01*
X23826Y-26603D01*
X23826Y-26744D01*
X23570Y-27000D01*
X23896Y-27326D01*
X23993Y-27296D01*
X24001Y-27273D01*
X24020Y-27319D01*
X24179Y-27478D01*
X24230Y-27499D01*
X24180Y-27520D01*
X24021Y-27679D01*
X24002Y-27724D01*
X23993Y-27703D01*
X23896Y-27673D01*
X23826Y-27744D01*
X23826Y-27603D01*
X23796Y-27506D01*
X23780Y-27500D01*
X23796Y-27493D01*
X23826Y-27396D01*
X23500Y-27070D01*
X23173Y-27396D01*
X23203Y-27493D01*
X23219Y-27499D01*
X23203Y-27506D01*
X23173Y-27603D01*
X23500Y-27929D01*
X23826Y-27603D01*
X23826Y-27744D01*
X23570Y-28000D01*
X23896Y-28326D01*
X23993Y-28296D01*
X24001Y-28273D01*
X24020Y-28319D01*
X24179Y-28478D01*
X24230Y-28499D01*
X24180Y-28520D01*
X24021Y-28679D01*
X24002Y-28724D01*
X23993Y-28703D01*
X23896Y-28673D01*
X23826Y-28744D01*
X23826Y-28603D01*
X23796Y-28506D01*
X23780Y-28500D01*
X23796Y-28493D01*
X23826Y-28396D01*
X23500Y-28070D01*
X23173Y-28396D01*
X23203Y-28493D01*
X23219Y-28499D01*
X23203Y-28506D01*
X23173Y-28603D01*
X23500Y-28929D01*
X23826Y-28603D01*
X23826Y-28744D01*
X23570Y-29000D01*
X23896Y-29326D01*
X23993Y-29296D01*
X24001Y-29273D01*
X24020Y-29319D01*
X24179Y-29478D01*
X24230Y-29499D01*
X24180Y-29520D01*
X24021Y-29679D01*
X24002Y-29724D01*
X23993Y-29703D01*
X23896Y-29673D01*
X23826Y-29744D01*
X23826Y-29603D01*
X23796Y-29506D01*
X23780Y-29500D01*
X23796Y-29493D01*
X23826Y-29396D01*
X23500Y-29070D01*
X23173Y-29396D01*
X23203Y-29493D01*
X23219Y-29499D01*
X23203Y-29506D01*
X23173Y-29603D01*
X23500Y-29929D01*
X23826Y-29603D01*
X23826Y-29744D01*
X23570Y-30000D01*
X23896Y-30326D01*
X23993Y-30296D01*
X24001Y-30273D01*
X24020Y-30319D01*
X24179Y-30478D01*
X24230Y-30499D01*
X24180Y-30520D01*
X24021Y-30679D01*
X24002Y-30724D01*
X23993Y-30703D01*
X23896Y-30673D01*
X23826Y-30744D01*
X23826Y-30603D01*
X23796Y-30506D01*
X23780Y-30500D01*
X23796Y-30493D01*
X23826Y-30396D01*
X23500Y-30070D01*
X23173Y-30396D01*
X23203Y-30493D01*
X23219Y-30499D01*
X23203Y-30506D01*
X23173Y-30603D01*
X23500Y-30929D01*
X23826Y-30603D01*
X23826Y-30744D01*
X23570Y-31000D01*
X23896Y-31326D01*
X23993Y-31296D01*
X24001Y-31273D01*
X24020Y-31319D01*
X24179Y-31478D01*
X24230Y-31499D01*
X24180Y-31520D01*
X24021Y-31679D01*
X24002Y-31724D01*
X23993Y-31703D01*
X23896Y-31673D01*
X23826Y-31744D01*
X23826Y-31603D01*
X23796Y-31506D01*
X23780Y-31500D01*
X23796Y-31493D01*
X23826Y-31396D01*
X23500Y-31070D01*
X23173Y-31396D01*
X23203Y-31493D01*
X23219Y-31499D01*
X23203Y-31506D01*
X23173Y-31603D01*
X23500Y-31929D01*
X23826Y-31603D01*
X23826Y-31744D01*
X23570Y-32000D01*
X23896Y-32326D01*
X23993Y-32296D01*
X24001Y-32273D01*
X24020Y-32319D01*
X24179Y-32478D01*
X24230Y-32499D01*
X24180Y-32520D01*
X24021Y-32679D01*
X24002Y-32724D01*
X23993Y-32703D01*
X23896Y-32673D01*
X23826Y-32744D01*
X23826Y-32603D01*
X23796Y-32506D01*
X23780Y-32500D01*
X23796Y-32493D01*
X23826Y-32396D01*
X23500Y-32070D01*
X23173Y-32396D01*
X23203Y-32493D01*
X23219Y-32499D01*
X23203Y-32506D01*
X23173Y-32603D01*
X23500Y-32929D01*
X23826Y-32603D01*
X23826Y-32744D01*
X23570Y-33000D01*
X23896Y-33326D01*
X23993Y-33296D01*
X24001Y-33273D01*
X24020Y-33319D01*
X24179Y-33478D01*
X24230Y-33499D01*
X24180Y-33520D01*
X24021Y-33679D01*
X24002Y-33724D01*
X23993Y-33703D01*
X23896Y-33673D01*
X23826Y-33744D01*
X23826Y-33603D01*
X23796Y-33506D01*
X23780Y-33500D01*
X23796Y-33493D01*
X23826Y-33396D01*
X23500Y-33070D01*
X23173Y-33396D01*
X23203Y-33493D01*
X23219Y-33499D01*
X23203Y-33506D01*
X23173Y-33603D01*
X23500Y-33929D01*
X23826Y-33603D01*
X23826Y-33744D01*
X23570Y-34000D01*
X23896Y-34326D01*
X23993Y-34296D01*
X24001Y-34273D01*
X24020Y-34319D01*
X24179Y-34478D01*
X24230Y-34499D01*
X24180Y-34520D01*
X24021Y-34679D01*
X24002Y-34724D01*
X23993Y-34703D01*
X23896Y-34673D01*
X23826Y-34744D01*
X23826Y-34603D01*
X23796Y-34506D01*
X23780Y-34500D01*
X23796Y-34493D01*
X23826Y-34396D01*
X23500Y-34070D01*
X23173Y-34396D01*
X23203Y-34493D01*
X23219Y-34499D01*
X23203Y-34506D01*
X23173Y-34603D01*
X23500Y-34929D01*
X23826Y-34603D01*
X23826Y-34744D01*
X23570Y-35000D01*
X23896Y-35326D01*
X23993Y-35296D01*
X24001Y-35273D01*
X24020Y-35319D01*
X24179Y-35478D01*
X24230Y-35499D01*
X24180Y-35520D01*
X24021Y-35679D01*
X24002Y-35724D01*
X23993Y-35703D01*
X23896Y-35673D01*
X23826Y-35744D01*
X23826Y-35603D01*
X23796Y-35506D01*
X23780Y-35500D01*
X23796Y-35493D01*
X23826Y-35396D01*
X23500Y-35070D01*
X23173Y-35396D01*
X23203Y-35493D01*
X23219Y-35499D01*
X23203Y-35506D01*
X23173Y-35603D01*
X23500Y-35929D01*
X23826Y-35603D01*
X23826Y-35744D01*
X23570Y-36000D01*
X23896Y-36326D01*
X23993Y-36296D01*
X24001Y-36273D01*
X24020Y-36319D01*
X24179Y-36478D01*
X24230Y-36499D01*
X24180Y-36520D01*
X24021Y-36679D01*
X24002Y-36724D01*
X23993Y-36703D01*
X23896Y-36673D01*
X23826Y-36744D01*
X23826Y-36603D01*
X23796Y-36506D01*
X23780Y-36500D01*
X23796Y-36493D01*
X23826Y-36396D01*
X23500Y-36070D01*
X23173Y-36396D01*
X23203Y-36493D01*
X23219Y-36499D01*
X23203Y-36506D01*
X23173Y-36603D01*
X23500Y-36929D01*
X23826Y-36603D01*
X23826Y-36744D01*
X23570Y-37000D01*
X23896Y-37326D01*
X23993Y-37296D01*
X24001Y-37273D01*
X24020Y-37319D01*
X24179Y-37478D01*
X24230Y-37499D01*
X24180Y-37520D01*
X24021Y-37679D01*
X24002Y-37724D01*
X23993Y-37703D01*
X23896Y-37673D01*
X23826Y-37744D01*
X23826Y-37603D01*
X23796Y-37506D01*
X23780Y-37500D01*
X23796Y-37493D01*
X23826Y-37396D01*
X23500Y-37070D01*
X23173Y-37396D01*
X23203Y-37493D01*
X23219Y-37499D01*
X23203Y-37506D01*
X23173Y-37603D01*
X23500Y-37929D01*
X23826Y-37603D01*
X23826Y-37744D01*
X23570Y-38000D01*
X23896Y-38326D01*
X23993Y-38296D01*
X24001Y-38273D01*
X24020Y-38319D01*
X24179Y-38478D01*
X24230Y-38499D01*
X24180Y-38520D01*
X24021Y-38679D01*
X24002Y-38724D01*
X23993Y-38703D01*
X23896Y-38673D01*
X23826Y-38744D01*
X23826Y-38603D01*
X23796Y-38506D01*
X23780Y-38500D01*
X23796Y-38493D01*
X23826Y-38396D01*
X23500Y-38070D01*
X23173Y-38396D01*
X23203Y-38493D01*
X23219Y-38499D01*
X23203Y-38506D01*
X23173Y-38603D01*
X23500Y-38929D01*
X23826Y-38603D01*
X23826Y-38744D01*
X23570Y-39000D01*
X23896Y-39326D01*
X23993Y-39296D01*
X24001Y-39273D01*
X24020Y-39319D01*
X24179Y-39478D01*
X24230Y-39499D01*
X24180Y-39520D01*
X24021Y-39679D01*
X24002Y-39724D01*
X23993Y-39703D01*
X23896Y-39673D01*
X23826Y-39744D01*
X23826Y-39603D01*
X23796Y-39506D01*
X23780Y-39500D01*
X23796Y-39493D01*
X23826Y-39396D01*
X23500Y-39070D01*
X23173Y-39396D01*
X23203Y-39493D01*
X23219Y-39499D01*
X23203Y-39506D01*
X23173Y-39603D01*
X23500Y-39929D01*
X23826Y-39603D01*
X23826Y-39744D01*
X23570Y-40000D01*
X23896Y-40326D01*
X23993Y-40296D01*
X24001Y-40273D01*
X24020Y-40319D01*
X24179Y-40478D01*
X24230Y-40499D01*
X24180Y-40520D01*
X24021Y-40679D01*
X24002Y-40724D01*
X23993Y-40703D01*
X23896Y-40673D01*
X23826Y-40744D01*
X23826Y-40603D01*
X23796Y-40506D01*
X23780Y-40500D01*
X23796Y-40493D01*
X23826Y-40396D01*
X23500Y-40070D01*
X23173Y-40396D01*
X23203Y-40493D01*
X23219Y-40499D01*
X23203Y-40506D01*
X23173Y-40603D01*
X23500Y-40929D01*
X23826Y-40603D01*
X23826Y-40744D01*
X23570Y-41000D01*
X23896Y-41326D01*
X23993Y-41296D01*
X24001Y-41273D01*
X24020Y-41319D01*
X24179Y-41478D01*
X24230Y-41499D01*
X24180Y-41520D01*
X24021Y-41679D01*
X24002Y-41724D01*
X23993Y-41703D01*
X23896Y-41673D01*
X23826Y-41744D01*
X23826Y-41603D01*
X23796Y-41506D01*
X23780Y-41500D01*
X23796Y-41493D01*
X23826Y-41396D01*
X23500Y-41070D01*
X23173Y-41396D01*
X23203Y-41493D01*
X23219Y-41499D01*
X23203Y-41506D01*
X23173Y-41603D01*
X23500Y-41929D01*
X23826Y-41603D01*
X23826Y-41744D01*
X23570Y-42000D01*
X23896Y-42326D01*
X23993Y-42296D01*
X24001Y-42273D01*
X24020Y-42319D01*
X24179Y-42478D01*
X24387Y-42564D01*
X24611Y-42565D01*
X24652Y-42548D01*
X24707Y-42603D01*
X24798Y-42663D01*
X24798Y-42663D01*
X24905Y-42685D01*
X27594Y-42685D01*
X27701Y-42663D01*
X27701Y-42663D01*
X27792Y-42603D01*
X27847Y-42548D01*
X27887Y-42564D01*
X28111Y-42565D01*
X28319Y-42479D01*
X28478Y-42320D01*
X28564Y-42112D01*
X28565Y-41888D01*
X28479Y-41680D01*
X28320Y-41521D01*
X28269Y-41500D01*
X28319Y-41479D01*
X28478Y-41320D01*
X28564Y-41112D01*
X28565Y-40888D01*
X28479Y-40680D01*
X28320Y-40521D01*
X28269Y-40500D01*
X28319Y-40479D01*
X28478Y-40320D01*
X28564Y-40112D01*
X28565Y-39888D01*
X28479Y-39680D01*
X28320Y-39521D01*
X28269Y-39500D01*
X28319Y-39479D01*
X28478Y-39320D01*
X28564Y-39112D01*
X28565Y-38888D01*
X28479Y-38680D01*
X28320Y-38521D01*
X28269Y-38500D01*
X28319Y-38479D01*
X28478Y-38320D01*
X28564Y-38112D01*
X28565Y-37888D01*
X28479Y-37680D01*
X28320Y-37521D01*
X28269Y-37500D01*
X28319Y-37479D01*
X28478Y-37320D01*
X28564Y-37112D01*
X28565Y-36888D01*
X28479Y-36680D01*
X28320Y-36521D01*
X28269Y-36500D01*
X28319Y-36479D01*
X28478Y-36320D01*
X28564Y-36112D01*
X28565Y-35888D01*
X28479Y-35680D01*
X28320Y-35521D01*
X28269Y-35500D01*
X28319Y-35479D01*
X28478Y-35320D01*
X28564Y-35112D01*
X28565Y-34888D01*
X28479Y-34680D01*
X28320Y-34521D01*
X28269Y-34500D01*
X28319Y-34479D01*
X28478Y-34320D01*
X28564Y-34112D01*
X28565Y-33888D01*
X28479Y-33680D01*
X28320Y-33521D01*
X28269Y-33500D01*
X28319Y-33479D01*
X28478Y-33320D01*
X28564Y-33112D01*
X28565Y-32888D01*
X28479Y-32680D01*
X28320Y-32521D01*
X28269Y-32500D01*
X28319Y-32479D01*
X28478Y-32320D01*
X28564Y-32112D01*
X28565Y-31888D01*
X28479Y-31680D01*
X28320Y-31521D01*
X28269Y-31500D01*
X28319Y-31479D01*
X28478Y-31320D01*
X28564Y-31112D01*
X28565Y-30888D01*
X28479Y-30680D01*
X28320Y-30521D01*
X28269Y-30500D01*
X28319Y-30479D01*
X28478Y-30320D01*
X28564Y-30112D01*
X28564Y-29960D01*
X35951Y-37347D01*
X35935Y-37387D01*
X35934Y-37611D01*
X36020Y-37819D01*
X36179Y-37978D01*
X36230Y-37999D01*
X36180Y-38020D01*
X36021Y-38179D01*
X35935Y-38387D01*
X35934Y-38611D01*
X36020Y-38819D01*
X36179Y-38978D01*
X36230Y-38999D01*
X36180Y-39020D01*
X36021Y-39179D01*
X35935Y-39387D01*
X35934Y-39611D01*
X36020Y-39819D01*
X36179Y-39978D01*
X36387Y-40064D01*
X36611Y-40065D01*
X36819Y-39979D01*
X36978Y-39820D01*
X37064Y-39612D01*
X37065Y-39388D01*
X37048Y-39347D01*
X37234Y-39161D01*
X37295Y-39070D01*
X37295Y-39070D01*
X37298Y-39052D01*
X37316Y-38963D01*
X37316Y-38963D01*
X37316Y-36457D01*
X37316Y-36457D01*
X37295Y-36349D01*
X37295Y-36349D01*
X37275Y-36319D01*
X37234Y-36259D01*
X37234Y-36259D01*
X37069Y-36094D01*
X37069Y-34585D01*
X37058Y-34360D01*
X36993Y-34203D01*
X36896Y-34173D01*
X36570Y-34500D01*
X36896Y-34826D01*
X36993Y-34796D01*
X37069Y-34585D01*
X37069Y-36094D01*
X36887Y-35911D01*
X36978Y-35820D01*
X37064Y-35612D01*
X37065Y-35388D01*
X36979Y-35180D01*
X36820Y-35021D01*
X36775Y-35002D01*
X36796Y-34993D01*
X36826Y-34896D01*
X36500Y-34570D01*
X36494Y-34576D01*
X36423Y-34505D01*
X36429Y-34500D01*
X36423Y-34494D01*
X36494Y-34423D01*
X36500Y-34429D01*
X36607Y-34322D01*
X36634Y-34316D01*
X36634Y-34316D01*
X36725Y-34256D01*
X37120Y-33860D01*
X37181Y-33770D01*
X37181Y-33770D01*
X37184Y-33752D01*
X37202Y-33662D01*
X37202Y-33662D01*
X37202Y-30346D01*
X37184Y-30257D01*
X37181Y-30239D01*
X37181Y-30239D01*
X37120Y-30148D01*
X36885Y-29913D01*
X36978Y-29820D01*
X37064Y-29612D01*
X37065Y-29388D01*
X36979Y-29180D01*
X36820Y-29021D01*
X36769Y-29000D01*
X36819Y-28979D01*
X36978Y-28820D01*
X37064Y-28612D01*
X37065Y-28388D01*
X36979Y-28180D01*
X36820Y-28021D01*
X36769Y-28000D01*
X36819Y-27979D01*
X36978Y-27820D01*
X37064Y-27612D01*
X37065Y-27388D01*
X36979Y-27180D01*
X36820Y-27021D01*
X36780Y-27004D01*
X36780Y-26995D01*
X36819Y-26979D01*
X36978Y-26820D01*
X37064Y-26612D01*
X37065Y-26388D01*
X36979Y-26180D01*
X36820Y-26021D01*
X36775Y-26002D01*
X36796Y-25993D01*
X36826Y-25896D01*
X36500Y-25570D01*
X36494Y-25576D01*
X36423Y-25505D01*
X36429Y-25500D01*
X36261Y-25331D01*
X36261Y-25331D01*
X36258Y-25319D01*
X36258Y-25319D01*
X36238Y-25289D01*
X36197Y-25229D01*
X36197Y-25229D01*
X30165Y-19196D01*
X30800Y-19196D01*
X36536Y-24932D01*
X36360Y-24941D01*
X36203Y-25006D01*
X36173Y-25103D01*
X36500Y-25429D01*
X36505Y-25423D01*
X36576Y-25494D01*
X36570Y-25500D01*
X36896Y-25826D01*
X36993Y-25796D01*
X37069Y-25585D01*
X37063Y-25459D01*
X50951Y-39347D01*
X50935Y-39387D01*
X50934Y-39611D01*
X51020Y-39819D01*
X51179Y-39978D01*
X51387Y-40064D01*
X51611Y-40065D01*
X51819Y-39979D01*
X51978Y-39820D01*
X51995Y-39780D01*
X57410Y-39780D01*
X57518Y-39758D01*
X57518Y-39758D01*
X57608Y-39697D01*
X61461Y-35845D01*
X61574Y-35845D01*
X61723Y-35784D01*
X61723Y-36267D01*
X61643Y-36347D01*
X61578Y-36503D01*
X61578Y-36672D01*
X61642Y-36828D01*
X61762Y-36948D01*
X61918Y-37013D01*
X62087Y-37013D01*
X62243Y-36948D01*
X62363Y-36829D01*
X62428Y-36673D01*
X62428Y-36504D01*
X62364Y-36347D01*
X62283Y-36267D01*
X62283Y-19691D01*
X62363Y-19611D01*
X62428Y-19455D01*
X62428Y-19286D01*
X62364Y-19130D01*
X62244Y-19010D01*
X62088Y-18945D01*
X61919Y-18945D01*
X61763Y-19010D01*
X61643Y-19129D01*
X61578Y-19285D01*
X61578Y-19455D01*
X61642Y-19611D01*
X61723Y-19691D01*
X61723Y-22443D01*
X61710Y-22424D01*
X58269Y-18983D01*
X58311Y-18966D01*
X58465Y-18811D01*
X58549Y-18609D01*
X58550Y-18391D01*
X58466Y-18188D01*
X58311Y-18034D01*
X58280Y-18020D01*
X58280Y-17479D01*
X58311Y-17466D01*
X58465Y-17311D01*
X58549Y-17109D01*
X58550Y-16891D01*
X58466Y-16688D01*
X58311Y-16534D01*
X58280Y-16520D01*
X58280Y-15979D01*
X58311Y-15966D01*
X58465Y-15811D01*
X58549Y-15609D01*
X58550Y-15391D01*
X58466Y-15188D01*
X58311Y-15034D01*
X58109Y-14950D01*
X57891Y-14949D01*
X57859Y-14963D01*
X57280Y-14384D01*
X57280Y-12495D01*
X57319Y-12479D01*
X57478Y-12320D01*
X57564Y-12112D01*
X57565Y-11888D01*
X57479Y-11680D01*
X57320Y-11521D01*
X57269Y-11500D01*
X57319Y-11479D01*
X57478Y-11320D01*
X57564Y-11112D01*
X57565Y-10888D01*
X57479Y-10680D01*
X57320Y-10521D01*
X57112Y-10435D01*
X56888Y-10434D01*
X56680Y-10520D01*
X56521Y-10679D01*
X56500Y-10730D01*
X56479Y-10680D01*
X56320Y-10521D01*
X56112Y-10435D01*
X55888Y-10434D01*
X55680Y-10520D01*
X55521Y-10679D01*
X55500Y-10730D01*
X55479Y-10680D01*
X55320Y-10521D01*
X55112Y-10435D01*
X54888Y-10434D01*
X54680Y-10520D01*
X54521Y-10679D01*
X54500Y-10730D01*
X54479Y-10680D01*
X54320Y-10521D01*
X54112Y-10435D01*
X53888Y-10434D01*
X53680Y-10520D01*
X53521Y-10679D01*
X53500Y-10730D01*
X53479Y-10680D01*
X53320Y-10521D01*
X53112Y-10435D01*
X52888Y-10434D01*
X52680Y-10520D01*
X52521Y-10679D01*
X52435Y-10887D01*
X52434Y-11111D01*
X52520Y-11319D01*
X52679Y-11478D01*
X52724Y-11497D01*
X52703Y-11506D01*
X52673Y-11603D01*
X53000Y-11929D01*
X53005Y-11923D01*
X53076Y-11994D01*
X53070Y-12000D01*
X53076Y-12005D01*
X53005Y-12076D01*
X53000Y-12070D01*
X52929Y-12141D01*
X52929Y-12000D01*
X52603Y-11673D01*
X52506Y-11703D01*
X52430Y-11914D01*
X52441Y-12139D01*
X52506Y-12296D01*
X52603Y-12326D01*
X52929Y-12000D01*
X52929Y-12141D01*
X52673Y-12396D01*
X52703Y-12493D01*
X52776Y-12519D01*
X47069Y-18226D01*
X47069Y-11085D01*
X47058Y-10860D01*
X46993Y-10703D01*
X46896Y-10673D01*
X46826Y-10744D01*
X46826Y-10603D01*
X46796Y-10506D01*
X46585Y-10430D01*
X46360Y-10441D01*
X46203Y-10506D01*
X46173Y-10603D01*
X46500Y-10929D01*
X46826Y-10603D01*
X46826Y-10744D01*
X46570Y-11000D01*
X46896Y-11326D01*
X46993Y-11296D01*
X47069Y-11085D01*
X47069Y-18226D01*
X46826Y-18470D01*
X46826Y-11396D01*
X46500Y-11070D01*
X46429Y-11141D01*
X46429Y-11000D01*
X46103Y-10673D01*
X46006Y-10703D01*
X46000Y-10719D01*
X45993Y-10703D01*
X45896Y-10673D01*
X45826Y-10744D01*
X45826Y-10603D01*
X45796Y-10506D01*
X45585Y-10430D01*
X45360Y-10441D01*
X45203Y-10506D01*
X45173Y-10603D01*
X45500Y-10929D01*
X45826Y-10603D01*
X45826Y-10744D01*
X45570Y-11000D01*
X45896Y-11326D01*
X45993Y-11296D01*
X45999Y-11280D01*
X46006Y-11296D01*
X46103Y-11326D01*
X46429Y-11000D01*
X46429Y-11141D01*
X46173Y-11396D01*
X46203Y-11493D01*
X46414Y-11569D01*
X46639Y-11558D01*
X46796Y-11493D01*
X46826Y-11396D01*
X46826Y-18470D01*
X45826Y-19470D01*
X45826Y-11396D01*
X45500Y-11070D01*
X45429Y-11141D01*
X45429Y-11000D01*
X45103Y-10673D01*
X45006Y-10703D01*
X45000Y-10719D01*
X44993Y-10703D01*
X44896Y-10673D01*
X44826Y-10744D01*
X44826Y-10603D01*
X44796Y-10506D01*
X44585Y-10430D01*
X44360Y-10441D01*
X44203Y-10506D01*
X44173Y-10603D01*
X44500Y-10929D01*
X44826Y-10603D01*
X44826Y-10744D01*
X44570Y-11000D01*
X44896Y-11326D01*
X44993Y-11296D01*
X44999Y-11280D01*
X45006Y-11296D01*
X45103Y-11326D01*
X45429Y-11000D01*
X45429Y-11141D01*
X45173Y-11396D01*
X45203Y-11493D01*
X45414Y-11569D01*
X45639Y-11558D01*
X45796Y-11493D01*
X45826Y-11396D01*
X45826Y-19470D01*
X44885Y-20410D01*
X44885Y-18050D01*
X45349Y-18050D01*
X45441Y-18012D01*
X45511Y-17941D01*
X45549Y-17849D01*
X45550Y-17750D01*
X45550Y-17150D01*
X45512Y-17058D01*
X45441Y-16988D01*
X45349Y-16950D01*
X45250Y-16949D01*
X44885Y-16949D01*
X44885Y-16779D01*
X44895Y-16775D01*
X45015Y-16656D01*
X45080Y-16500D01*
X45080Y-16330D01*
X45016Y-16174D01*
X44896Y-16055D01*
X44826Y-16025D01*
X44826Y-11396D01*
X44500Y-11070D01*
X44429Y-11141D01*
X44429Y-11000D01*
X44103Y-10673D01*
X44006Y-10703D01*
X44000Y-10719D01*
X43993Y-10703D01*
X43896Y-10673D01*
X43826Y-10744D01*
X43826Y-10603D01*
X43796Y-10506D01*
X43585Y-10430D01*
X43360Y-10441D01*
X43203Y-10506D01*
X43173Y-10603D01*
X43500Y-10929D01*
X43826Y-10603D01*
X43826Y-10744D01*
X43570Y-11000D01*
X43896Y-11326D01*
X43993Y-11296D01*
X43999Y-11280D01*
X44006Y-11296D01*
X44103Y-11326D01*
X44429Y-11000D01*
X44429Y-11141D01*
X44173Y-11396D01*
X44203Y-11493D01*
X44414Y-11569D01*
X44639Y-11558D01*
X44796Y-11493D01*
X44826Y-11396D01*
X44826Y-16025D01*
X44740Y-15990D01*
X44626Y-15990D01*
X43826Y-15189D01*
X43826Y-11396D01*
X43500Y-11070D01*
X43429Y-11141D01*
X43429Y-11000D01*
X43103Y-10673D01*
X43006Y-10703D01*
X43000Y-10719D01*
X42993Y-10703D01*
X42896Y-10673D01*
X42826Y-10744D01*
X42826Y-10603D01*
X42796Y-10506D01*
X42585Y-10430D01*
X42360Y-10441D01*
X42203Y-10506D01*
X42173Y-10603D01*
X42500Y-10929D01*
X42826Y-10603D01*
X42826Y-10744D01*
X42570Y-11000D01*
X42896Y-11326D01*
X42993Y-11296D01*
X42999Y-11280D01*
X43006Y-11296D01*
X43103Y-11326D01*
X43429Y-11000D01*
X43429Y-11141D01*
X43173Y-11396D01*
X43203Y-11493D01*
X43414Y-11569D01*
X43639Y-11558D01*
X43796Y-11493D01*
X43826Y-11396D01*
X43826Y-15189D01*
X42826Y-14189D01*
X42826Y-11396D01*
X42500Y-11070D01*
X42429Y-11141D01*
X42429Y-11000D01*
X42103Y-10673D01*
X42006Y-10703D01*
X42000Y-10719D01*
X41993Y-10703D01*
X41896Y-10673D01*
X41826Y-10744D01*
X41826Y-10603D01*
X41796Y-10506D01*
X41585Y-10430D01*
X41360Y-10441D01*
X41203Y-10506D01*
X41173Y-10603D01*
X41500Y-10929D01*
X41826Y-10603D01*
X41826Y-10744D01*
X41570Y-11000D01*
X41896Y-11326D01*
X41993Y-11296D01*
X41999Y-11280D01*
X42006Y-11296D01*
X42103Y-11326D01*
X42429Y-11000D01*
X42429Y-11141D01*
X42173Y-11396D01*
X42203Y-11493D01*
X42414Y-11569D01*
X42639Y-11558D01*
X42796Y-11493D01*
X42826Y-11396D01*
X42826Y-14189D01*
X41826Y-13189D01*
X41826Y-11396D01*
X41500Y-11070D01*
X41173Y-11396D01*
X41203Y-11493D01*
X41414Y-11569D01*
X41639Y-11558D01*
X41796Y-11493D01*
X41826Y-11396D01*
X41826Y-13189D01*
X40280Y-11643D01*
X40280Y-11520D01*
X40387Y-11564D01*
X40611Y-11565D01*
X40819Y-11479D01*
X40978Y-11320D01*
X40997Y-11275D01*
X41006Y-11296D01*
X41103Y-11326D01*
X41429Y-11000D01*
X41103Y-10673D01*
X41006Y-10703D01*
X40998Y-10726D01*
X40979Y-10680D01*
X40820Y-10521D01*
X40612Y-10435D01*
X40388Y-10434D01*
X40180Y-10520D01*
X40088Y-10612D01*
X39869Y-10392D01*
X39778Y-10332D01*
X39671Y-10310D01*
X38274Y-10310D01*
X38166Y-10332D01*
X38076Y-10392D01*
X36833Y-11635D01*
X34731Y-11635D01*
X34878Y-11488D01*
X35037Y-11107D01*
X35037Y-10694D01*
X34879Y-10313D01*
X34617Y-10050D01*
X64883Y-10050D01*
X64621Y-10311D01*
X64462Y-10692D01*
X64462Y-11105D01*
X64620Y-11486D01*
X64911Y-11778D01*
X65292Y-11937D01*
X65705Y-11937D01*
X66086Y-11779D01*
X66378Y-11488D01*
X66450Y-11317D01*
X66450Y-41982D01*
X66379Y-41813D01*
X66088Y-41521D01*
X66054Y-41507D01*
X66054Y-36581D01*
X66054Y-35581D01*
X66054Y-34581D01*
X66054Y-33581D01*
X66054Y-17581D01*
X66054Y-16581D01*
X66054Y-15581D01*
X66054Y-14581D01*
X66043Y-14363D01*
X65981Y-14212D01*
X65885Y-14184D01*
X65815Y-14255D01*
X65815Y-14114D01*
X65787Y-14018D01*
X65581Y-13945D01*
X65363Y-13956D01*
X65212Y-14018D01*
X65184Y-14114D01*
X65500Y-14429D01*
X65815Y-14114D01*
X65815Y-14255D01*
X65570Y-14500D01*
X65885Y-14815D01*
X65981Y-14787D01*
X66054Y-14581D01*
X66054Y-15581D01*
X66043Y-15363D01*
X65981Y-15212D01*
X65885Y-15184D01*
X65815Y-15255D01*
X65815Y-15114D01*
X65787Y-15018D01*
X65739Y-15001D01*
X65787Y-14981D01*
X65815Y-14885D01*
X65500Y-14570D01*
X65429Y-14641D01*
X65429Y-14500D01*
X65114Y-14184D01*
X65018Y-14212D01*
X64945Y-14418D01*
X64956Y-14636D01*
X65018Y-14787D01*
X65114Y-14815D01*
X65429Y-14500D01*
X65429Y-14641D01*
X65184Y-14885D01*
X65212Y-14981D01*
X65260Y-14998D01*
X65212Y-15018D01*
X65184Y-15114D01*
X65500Y-15429D01*
X65815Y-15114D01*
X65815Y-15255D01*
X65570Y-15500D01*
X65885Y-15815D01*
X65981Y-15787D01*
X66054Y-15581D01*
X66054Y-16581D01*
X66043Y-16363D01*
X65981Y-16212D01*
X65885Y-16184D01*
X65815Y-16255D01*
X65815Y-16114D01*
X65787Y-16018D01*
X65739Y-16001D01*
X65787Y-15981D01*
X65815Y-15885D01*
X65500Y-15570D01*
X65429Y-15641D01*
X65429Y-15500D01*
X65114Y-15184D01*
X65018Y-15212D01*
X64945Y-15418D01*
X64956Y-15636D01*
X65018Y-15787D01*
X65114Y-15815D01*
X65429Y-15500D01*
X65429Y-15641D01*
X65184Y-15885D01*
X65212Y-15981D01*
X65260Y-15998D01*
X65212Y-16018D01*
X65184Y-16114D01*
X65500Y-16429D01*
X65815Y-16114D01*
X65815Y-16255D01*
X65570Y-16500D01*
X65885Y-16815D01*
X65981Y-16787D01*
X66054Y-16581D01*
X66054Y-17581D01*
X66043Y-17363D01*
X65981Y-17212D01*
X65885Y-17184D01*
X65815Y-17255D01*
X65815Y-17114D01*
X65787Y-17018D01*
X65739Y-17001D01*
X65787Y-16981D01*
X65815Y-16885D01*
X65500Y-16570D01*
X65429Y-16641D01*
X65429Y-16500D01*
X65114Y-16184D01*
X65018Y-16212D01*
X64945Y-16418D01*
X64956Y-16636D01*
X65018Y-16787D01*
X65114Y-16815D01*
X65429Y-16500D01*
X65429Y-16641D01*
X65184Y-16885D01*
X65212Y-16981D01*
X65260Y-16998D01*
X65212Y-17018D01*
X65184Y-17114D01*
X65500Y-17429D01*
X65815Y-17114D01*
X65815Y-17255D01*
X65570Y-17500D01*
X65885Y-17815D01*
X65981Y-17787D01*
X66054Y-17581D01*
X66054Y-33581D01*
X66050Y-33487D01*
X66050Y-18849D01*
X66050Y-18150D01*
X66012Y-18058D01*
X65941Y-17988D01*
X65849Y-17950D01*
X65796Y-17949D01*
X65815Y-17885D01*
X65500Y-17570D01*
X65429Y-17641D01*
X65429Y-17500D01*
X65114Y-17184D01*
X65018Y-17212D01*
X64945Y-17418D01*
X64956Y-17636D01*
X65018Y-17787D01*
X65114Y-17815D01*
X65429Y-17500D01*
X65429Y-17641D01*
X65184Y-17885D01*
X65203Y-17949D01*
X65150Y-17950D01*
X65058Y-17988D01*
X64987Y-18058D01*
X64949Y-18150D01*
X64950Y-18387D01*
X65012Y-18450D01*
X65450Y-18450D01*
X65450Y-18442D01*
X65550Y-18442D01*
X65550Y-18450D01*
X65987Y-18450D01*
X66050Y-18387D01*
X66050Y-18150D01*
X66050Y-18849D01*
X66050Y-18612D01*
X65987Y-18550D01*
X65550Y-18550D01*
X65550Y-18987D01*
X65612Y-19050D01*
X65750Y-19050D01*
X65849Y-19049D01*
X65941Y-19011D01*
X66012Y-18941D01*
X66050Y-18849D01*
X66050Y-33487D01*
X66043Y-33363D01*
X65981Y-33212D01*
X65885Y-33184D01*
X65815Y-33255D01*
X65815Y-33114D01*
X65787Y-33018D01*
X65581Y-32945D01*
X65450Y-32951D01*
X65450Y-18987D01*
X65450Y-18550D01*
X65012Y-18550D01*
X64950Y-18612D01*
X64949Y-18849D01*
X64987Y-18941D01*
X65058Y-19011D01*
X65150Y-19049D01*
X65249Y-19050D01*
X65387Y-19050D01*
X65450Y-18987D01*
X65450Y-32951D01*
X65363Y-32956D01*
X65212Y-33018D01*
X65184Y-33114D01*
X65500Y-33429D01*
X65815Y-33114D01*
X65815Y-33255D01*
X65570Y-33500D01*
X65885Y-33815D01*
X65981Y-33787D01*
X66054Y-33581D01*
X66054Y-34581D01*
X66043Y-34363D01*
X65981Y-34212D01*
X65885Y-34184D01*
X65815Y-34255D01*
X65815Y-34114D01*
X65787Y-34018D01*
X65739Y-34001D01*
X65787Y-33981D01*
X65815Y-33885D01*
X65500Y-33570D01*
X65429Y-33641D01*
X65429Y-33500D01*
X65114Y-33184D01*
X65050Y-33203D01*
X65050Y-29750D01*
X65050Y-29150D01*
X65050Y-26750D01*
X65050Y-26150D01*
X65050Y-23750D01*
X65050Y-23150D01*
X65012Y-23058D01*
X64941Y-22988D01*
X64849Y-22950D01*
X64750Y-22949D01*
X64150Y-22949D01*
X64058Y-22987D01*
X63988Y-23058D01*
X63950Y-23150D01*
X63949Y-23203D01*
X63885Y-23184D01*
X63815Y-23255D01*
X63815Y-23114D01*
X63787Y-23018D01*
X63581Y-22945D01*
X63363Y-22956D01*
X63212Y-23018D01*
X63184Y-23114D01*
X63500Y-23429D01*
X63815Y-23114D01*
X63815Y-23255D01*
X63570Y-23500D01*
X63885Y-23815D01*
X63949Y-23796D01*
X63949Y-23849D01*
X63987Y-23941D01*
X64058Y-24011D01*
X64150Y-24049D01*
X64249Y-24050D01*
X64849Y-24050D01*
X64941Y-24012D01*
X65011Y-23941D01*
X65049Y-23849D01*
X65050Y-23750D01*
X65050Y-26150D01*
X65012Y-26058D01*
X64941Y-25988D01*
X64849Y-25950D01*
X64750Y-25949D01*
X64150Y-25949D01*
X64058Y-25987D01*
X63988Y-26058D01*
X63950Y-26150D01*
X63949Y-26203D01*
X63885Y-26184D01*
X63815Y-26255D01*
X63815Y-26114D01*
X63815Y-23885D01*
X63500Y-23570D01*
X63429Y-23641D01*
X63429Y-23500D01*
X63114Y-23184D01*
X63018Y-23212D01*
X62945Y-23418D01*
X62956Y-23636D01*
X63018Y-23787D01*
X63114Y-23815D01*
X63429Y-23500D01*
X63429Y-23641D01*
X63184Y-23885D01*
X63212Y-23981D01*
X63418Y-24054D01*
X63636Y-24043D01*
X63787Y-23981D01*
X63815Y-23885D01*
X63815Y-26114D01*
X63787Y-26018D01*
X63581Y-25945D01*
X63363Y-25956D01*
X63212Y-26018D01*
X63184Y-26114D01*
X63500Y-26429D01*
X63815Y-26114D01*
X63815Y-26255D01*
X63570Y-26500D01*
X63885Y-26815D01*
X63949Y-26796D01*
X63949Y-26849D01*
X63987Y-26941D01*
X64058Y-27011D01*
X64150Y-27049D01*
X64249Y-27050D01*
X64849Y-27050D01*
X64941Y-27012D01*
X65011Y-26941D01*
X65049Y-26849D01*
X65050Y-26750D01*
X65050Y-29150D01*
X65012Y-29058D01*
X64941Y-28988D01*
X64849Y-28950D01*
X64750Y-28949D01*
X64150Y-28949D01*
X64058Y-28987D01*
X63988Y-29058D01*
X63950Y-29150D01*
X63949Y-29203D01*
X63885Y-29184D01*
X63815Y-29255D01*
X63815Y-29114D01*
X63815Y-26885D01*
X63500Y-26570D01*
X63429Y-26641D01*
X63429Y-26500D01*
X63114Y-26184D01*
X63018Y-26212D01*
X62945Y-26418D01*
X62956Y-26636D01*
X63018Y-26787D01*
X63114Y-26815D01*
X63429Y-26500D01*
X63429Y-26641D01*
X63184Y-26885D01*
X63212Y-26981D01*
X63418Y-27054D01*
X63636Y-27043D01*
X63787Y-26981D01*
X63815Y-26885D01*
X63815Y-29114D01*
X63787Y-29018D01*
X63581Y-28945D01*
X63363Y-28956D01*
X63212Y-29018D01*
X63184Y-29114D01*
X63500Y-29429D01*
X63815Y-29114D01*
X63815Y-29255D01*
X63570Y-29500D01*
X63885Y-29815D01*
X63949Y-29796D01*
X63949Y-29849D01*
X63987Y-29941D01*
X64058Y-30011D01*
X64150Y-30049D01*
X64249Y-30050D01*
X64849Y-30050D01*
X64941Y-30012D01*
X65011Y-29941D01*
X65049Y-29849D01*
X65050Y-29750D01*
X65050Y-33203D01*
X65018Y-33212D01*
X64945Y-33418D01*
X64956Y-33636D01*
X65018Y-33787D01*
X65114Y-33815D01*
X65429Y-33500D01*
X65429Y-33641D01*
X65184Y-33885D01*
X65212Y-33981D01*
X65260Y-33998D01*
X65212Y-34018D01*
X65184Y-34114D01*
X65500Y-34429D01*
X65815Y-34114D01*
X65815Y-34255D01*
X65570Y-34500D01*
X65885Y-34815D01*
X65981Y-34787D01*
X66054Y-34581D01*
X66054Y-35581D01*
X66043Y-35363D01*
X65981Y-35212D01*
X65885Y-35184D01*
X65815Y-35255D01*
X65815Y-35114D01*
X65787Y-35018D01*
X65739Y-35001D01*
X65787Y-34981D01*
X65815Y-34885D01*
X65500Y-34570D01*
X65429Y-34641D01*
X65429Y-34500D01*
X65114Y-34184D01*
X65018Y-34212D01*
X64945Y-34418D01*
X64956Y-34636D01*
X65018Y-34787D01*
X65114Y-34815D01*
X65429Y-34500D01*
X65429Y-34641D01*
X65184Y-34885D01*
X65212Y-34981D01*
X65260Y-34998D01*
X65212Y-35018D01*
X65184Y-35114D01*
X65500Y-35429D01*
X65815Y-35114D01*
X65815Y-35255D01*
X65570Y-35500D01*
X65885Y-35815D01*
X65981Y-35787D01*
X66054Y-35581D01*
X66054Y-36581D01*
X66043Y-36363D01*
X65981Y-36212D01*
X65885Y-36184D01*
X65815Y-36255D01*
X65815Y-36114D01*
X65787Y-36018D01*
X65739Y-36001D01*
X65787Y-35981D01*
X65815Y-35885D01*
X65500Y-35570D01*
X65429Y-35641D01*
X65429Y-35500D01*
X65114Y-35184D01*
X65018Y-35212D01*
X64945Y-35418D01*
X64956Y-35636D01*
X65018Y-35787D01*
X65114Y-35815D01*
X65429Y-35500D01*
X65429Y-35641D01*
X65184Y-35885D01*
X65212Y-35981D01*
X65260Y-35998D01*
X65212Y-36018D01*
X65184Y-36114D01*
X65500Y-36429D01*
X65815Y-36114D01*
X65815Y-36255D01*
X65570Y-36500D01*
X65885Y-36815D01*
X65981Y-36787D01*
X66054Y-36581D01*
X66054Y-41507D01*
X66050Y-41505D01*
X66050Y-37849D01*
X66050Y-37150D01*
X66012Y-37058D01*
X65941Y-36988D01*
X65849Y-36950D01*
X65796Y-36949D01*
X65815Y-36885D01*
X65500Y-36570D01*
X65429Y-36641D01*
X65429Y-36500D01*
X65114Y-36184D01*
X65018Y-36212D01*
X64945Y-36418D01*
X64956Y-36636D01*
X65018Y-36787D01*
X65114Y-36815D01*
X65429Y-36500D01*
X65429Y-36641D01*
X65184Y-36885D01*
X65203Y-36949D01*
X65150Y-36950D01*
X65058Y-36988D01*
X64987Y-37058D01*
X64949Y-37150D01*
X64950Y-37387D01*
X65012Y-37450D01*
X65450Y-37450D01*
X65450Y-37442D01*
X65550Y-37442D01*
X65550Y-37450D01*
X65987Y-37450D01*
X66050Y-37387D01*
X66050Y-37150D01*
X66050Y-37849D01*
X66050Y-37612D01*
X65987Y-37550D01*
X65550Y-37550D01*
X65550Y-37987D01*
X65612Y-38050D01*
X65750Y-38050D01*
X65849Y-38049D01*
X65941Y-38011D01*
X66012Y-37941D01*
X66050Y-37849D01*
X66050Y-41505D01*
X65707Y-41362D01*
X65450Y-41362D01*
X65450Y-37987D01*
X65450Y-37550D01*
X65012Y-37550D01*
X64950Y-37612D01*
X64949Y-37849D01*
X64987Y-37941D01*
X65058Y-38011D01*
X65150Y-38049D01*
X65249Y-38050D01*
X65387Y-38050D01*
X65450Y-37987D01*
X65450Y-41362D01*
X65294Y-41362D01*
X64913Y-41520D01*
X64621Y-41811D01*
X64462Y-42192D01*
X64462Y-42605D01*
X64620Y-42986D01*
X64911Y-43278D01*
X65292Y-43437D01*
X65705Y-43437D01*
X66086Y-43279D01*
X66378Y-42988D01*
X66450Y-42817D01*
X66450Y-43450D01*
X66450Y-43450D01*
G37*
G54D17*
X66450Y-43450D02*
X63815Y-43450D01*
X63815Y-29885D01*
X63500Y-29570D01*
X63429Y-29641D01*
X63429Y-29500D01*
X63114Y-29184D01*
X63018Y-29212D01*
X62945Y-29418D01*
X62956Y-29636D01*
X63018Y-29787D01*
X63114Y-29815D01*
X63429Y-29500D01*
X63429Y-29641D01*
X63184Y-29885D01*
X63212Y-29981D01*
X63418Y-30054D01*
X63636Y-30043D01*
X63787Y-29981D01*
X63815Y-29885D01*
X63815Y-43450D01*
X35037Y-43450D01*
X35037Y-42194D01*
X34879Y-41813D01*
X34588Y-41521D01*
X34207Y-41362D01*
X33794Y-41362D01*
X33413Y-41520D01*
X33121Y-41811D01*
X32962Y-42192D01*
X32962Y-42605D01*
X33120Y-42986D01*
X33411Y-43278D01*
X33792Y-43437D01*
X34205Y-43437D01*
X34586Y-43279D01*
X34878Y-42988D01*
X35037Y-42607D01*
X35037Y-42194D01*
X35037Y-43450D01*
X23826Y-43450D01*
X23826Y-42396D01*
X23500Y-42070D01*
X23173Y-42396D01*
X23203Y-42493D01*
X23414Y-42569D01*
X23639Y-42558D01*
X23796Y-42493D01*
X23826Y-42396D01*
X23826Y-43450D01*
X21550Y-43450D01*
X21550Y-10050D01*
X33383Y-10050D01*
X33121Y-10311D01*
X32962Y-10692D01*
X32962Y-11105D01*
X33120Y-11486D01*
X33268Y-11635D01*
X32551Y-11635D01*
X32569Y-11585D01*
X32558Y-11360D01*
X32493Y-11203D01*
X32396Y-11173D01*
X32326Y-11244D01*
X32326Y-11103D01*
X32296Y-11006D01*
X32085Y-10930D01*
X31860Y-10941D01*
X31703Y-11006D01*
X31673Y-11103D01*
X32000Y-11429D01*
X32326Y-11103D01*
X32326Y-11244D01*
X32070Y-11500D01*
X32076Y-11505D01*
X32005Y-11576D01*
X32000Y-11570D01*
X31994Y-11576D01*
X31923Y-11505D01*
X31929Y-11500D01*
X31765Y-11336D01*
X31762Y-11318D01*
X31758Y-11301D01*
X31758Y-11301D01*
X31697Y-11210D01*
X31384Y-10896D01*
X31293Y-10835D01*
X31186Y-10814D01*
X29684Y-10814D01*
X29595Y-10832D01*
X29577Y-10835D01*
X29486Y-10896D01*
X28544Y-11838D01*
X28479Y-11680D01*
X28320Y-11521D01*
X28269Y-11500D01*
X28319Y-11479D01*
X28478Y-11320D01*
X28564Y-11112D01*
X28565Y-10888D01*
X28479Y-10680D01*
X28320Y-10521D01*
X28112Y-10435D01*
X27888Y-10434D01*
X27680Y-10520D01*
X27521Y-10679D01*
X27502Y-10724D01*
X27493Y-10703D01*
X27396Y-10673D01*
X27326Y-10744D01*
X27326Y-10603D01*
X27296Y-10506D01*
X27085Y-10430D01*
X26860Y-10441D01*
X26703Y-10506D01*
X26673Y-10603D01*
X27000Y-10929D01*
X27326Y-10603D01*
X27326Y-10744D01*
X27070Y-11000D01*
X27396Y-11326D01*
X27493Y-11296D01*
X27501Y-11273D01*
X27520Y-11319D01*
X27679Y-11478D01*
X27730Y-11499D01*
X27680Y-11520D01*
X27521Y-11679D01*
X27502Y-11724D01*
X27493Y-11703D01*
X27396Y-11673D01*
X27326Y-11744D01*
X27326Y-11603D01*
X27296Y-11506D01*
X27280Y-11500D01*
X27296Y-11493D01*
X27326Y-11396D01*
X27000Y-11070D01*
X26673Y-11396D01*
X26703Y-11493D01*
X26719Y-11499D01*
X26703Y-11506D01*
X26673Y-11603D01*
X27000Y-11929D01*
X27326Y-11603D01*
X27326Y-11744D01*
X27070Y-12000D01*
X27396Y-12326D01*
X27493Y-12296D01*
X27501Y-12273D01*
X27520Y-12319D01*
X27614Y-12413D01*
X27396Y-12630D01*
X27336Y-12721D01*
X27333Y-12737D01*
X27333Y-12737D01*
X27326Y-12744D01*
X27326Y-12603D01*
X27296Y-12506D01*
X27280Y-12500D01*
X27296Y-12493D01*
X27326Y-12396D01*
X27000Y-12070D01*
X26673Y-12396D01*
X26703Y-12493D01*
X26719Y-12499D01*
X26703Y-12506D01*
X26673Y-12603D01*
X27000Y-12929D01*
X27326Y-12603D01*
X27326Y-12744D01*
X27070Y-13000D01*
X27076Y-13005D01*
X27005Y-13076D01*
X27000Y-13070D01*
X26673Y-13396D01*
X26703Y-13493D01*
X26719Y-13499D01*
X26703Y-13506D01*
X26673Y-13603D01*
X27000Y-13929D01*
X27005Y-13923D01*
X27076Y-13994D01*
X27070Y-14000D01*
X27396Y-14326D01*
X27493Y-14296D01*
X27501Y-14273D01*
X27520Y-14319D01*
X27679Y-14478D01*
X27730Y-14499D01*
X27680Y-14520D01*
X27521Y-14679D01*
X27502Y-14724D01*
X27493Y-14703D01*
X27396Y-14673D01*
X27326Y-14744D01*
X27326Y-14603D01*
X27296Y-14506D01*
X27280Y-14500D01*
X27296Y-14493D01*
X27326Y-14396D01*
X27000Y-14070D01*
X26673Y-14396D01*
X26703Y-14493D01*
X26719Y-14499D01*
X26703Y-14506D01*
X26673Y-14603D01*
X27000Y-14929D01*
X27326Y-14603D01*
X27326Y-14744D01*
X27070Y-15000D01*
X27396Y-15326D01*
X27493Y-15296D01*
X27501Y-15273D01*
X27520Y-15319D01*
X27679Y-15478D01*
X27730Y-15499D01*
X27680Y-15520D01*
X27521Y-15679D01*
X27502Y-15724D01*
X27493Y-15703D01*
X27396Y-15673D01*
X27326Y-15744D01*
X27326Y-15603D01*
X27296Y-15506D01*
X27280Y-15500D01*
X27296Y-15493D01*
X27326Y-15396D01*
X27000Y-15070D01*
X26673Y-15396D01*
X26703Y-15493D01*
X26719Y-15499D01*
X26703Y-15506D01*
X26673Y-15603D01*
X27000Y-15929D01*
X27326Y-15603D01*
X27326Y-15744D01*
X27070Y-16000D01*
X27076Y-16005D01*
X27005Y-16076D01*
X27000Y-16070D01*
X26994Y-16076D01*
X26923Y-16005D01*
X26929Y-16000D01*
X26603Y-15673D01*
X26506Y-15703D01*
X26498Y-15726D01*
X26479Y-15680D01*
X26320Y-15521D01*
X26269Y-15500D01*
X26319Y-15479D01*
X26478Y-15320D01*
X26497Y-15275D01*
X26506Y-15296D01*
X26603Y-15326D01*
X26929Y-15000D01*
X26603Y-14673D01*
X26506Y-14703D01*
X26498Y-14726D01*
X26479Y-14680D01*
X26320Y-14521D01*
X26269Y-14500D01*
X26319Y-14479D01*
X26478Y-14320D01*
X26497Y-14275D01*
X26506Y-14296D01*
X26603Y-14326D01*
X26929Y-14000D01*
X26603Y-13673D01*
X26506Y-13703D01*
X26498Y-13726D01*
X26479Y-13680D01*
X26320Y-13521D01*
X26280Y-13504D01*
X26280Y-13500D01*
X26280Y-13495D01*
X26319Y-13479D01*
X26478Y-13320D01*
X26497Y-13275D01*
X26506Y-13296D01*
X26603Y-13326D01*
X26929Y-13000D01*
X26603Y-12673D01*
X26506Y-12703D01*
X26498Y-12726D01*
X26479Y-12680D01*
X26320Y-12521D01*
X26280Y-12504D01*
X26280Y-12495D01*
X26319Y-12479D01*
X26478Y-12320D01*
X26497Y-12275D01*
X26506Y-12296D01*
X26603Y-12326D01*
X26929Y-12000D01*
X26603Y-11673D01*
X26506Y-11703D01*
X26498Y-11726D01*
X26479Y-11680D01*
X26320Y-11521D01*
X26280Y-11504D01*
X26280Y-11495D01*
X26319Y-11479D01*
X26478Y-11320D01*
X26497Y-11275D01*
X26506Y-11296D01*
X26603Y-11326D01*
X26929Y-11000D01*
X26603Y-10673D01*
X26506Y-10703D01*
X26498Y-10726D01*
X26479Y-10680D01*
X26320Y-10521D01*
X26112Y-10435D01*
X25888Y-10434D01*
X25680Y-10520D01*
X25521Y-10679D01*
X25435Y-10887D01*
X25434Y-11111D01*
X25520Y-11319D01*
X25679Y-11478D01*
X25720Y-11495D01*
X25720Y-11504D01*
X25680Y-11520D01*
X25521Y-11679D01*
X25435Y-11887D01*
X25434Y-12111D01*
X25520Y-12319D01*
X25679Y-12478D01*
X25720Y-12495D01*
X25720Y-12504D01*
X25680Y-12520D01*
X25521Y-12679D01*
X25435Y-12887D01*
X25434Y-13111D01*
X25479Y-13220D01*
X25020Y-13220D01*
X25064Y-13112D01*
X25065Y-12888D01*
X24979Y-12680D01*
X24820Y-12521D01*
X24769Y-12500D01*
X24819Y-12479D01*
X24978Y-12320D01*
X25064Y-12112D01*
X25065Y-11888D01*
X24979Y-11680D01*
X24820Y-11521D01*
X24769Y-11500D01*
X24819Y-11479D01*
X24978Y-11320D01*
X25064Y-11112D01*
X25065Y-10888D01*
X24979Y-10680D01*
X24820Y-10521D01*
X24612Y-10435D01*
X24388Y-10434D01*
X24180Y-10520D01*
X24021Y-10679D01*
X24002Y-10724D01*
X23993Y-10703D01*
X23896Y-10673D01*
X23826Y-10744D01*
X23826Y-10603D01*
X23796Y-10506D01*
X23585Y-10430D01*
X23360Y-10441D01*
X23203Y-10506D01*
X23173Y-10603D01*
X23500Y-10929D01*
X23826Y-10603D01*
X23826Y-10744D01*
X23570Y-11000D01*
X23896Y-11326D01*
X23993Y-11296D01*
X24001Y-11273D01*
X24020Y-11319D01*
X24179Y-11478D01*
X24230Y-11499D01*
X24180Y-11520D01*
X24021Y-11679D01*
X24002Y-11724D01*
X23993Y-11703D01*
X23896Y-11673D01*
X23826Y-11744D01*
X23826Y-11603D01*
X23796Y-11506D01*
X23780Y-11500D01*
X23796Y-11493D01*
X23826Y-11396D01*
X23500Y-11070D01*
X23173Y-11396D01*
X23203Y-11493D01*
X23219Y-11499D01*
X23203Y-11506D01*
X23173Y-11603D01*
X23500Y-11929D01*
X23826Y-11603D01*
X23826Y-11744D01*
X23570Y-12000D01*
X23896Y-12326D01*
X23993Y-12296D01*
X24001Y-12273D01*
X24020Y-12319D01*
X24179Y-12478D01*
X24230Y-12499D01*
X24180Y-12520D01*
X24021Y-12679D01*
X24002Y-12724D01*
X23993Y-12703D01*
X23896Y-12673D01*
X23826Y-12744D01*
X23826Y-12603D01*
X23796Y-12506D01*
X23780Y-12500D01*
X23796Y-12493D01*
X23826Y-12396D01*
X23500Y-12070D01*
X23173Y-12396D01*
X23203Y-12493D01*
X23219Y-12499D01*
X23203Y-12506D01*
X23173Y-12603D01*
X23500Y-12929D01*
X23826Y-12603D01*
X23826Y-12744D01*
X23570Y-13000D01*
X23576Y-13005D01*
X23505Y-13076D01*
X23500Y-13070D01*
X23494Y-13076D01*
X23423Y-13005D01*
X23429Y-13000D01*
X23103Y-12673D01*
X23006Y-12703D01*
X22998Y-12726D01*
X22979Y-12680D01*
X22820Y-12521D01*
X22780Y-12504D01*
X22780Y-12495D01*
X22819Y-12479D01*
X22978Y-12320D01*
X22997Y-12275D01*
X23006Y-12296D01*
X23103Y-12326D01*
X23429Y-12000D01*
X23103Y-11673D01*
X23006Y-11703D01*
X22998Y-11726D01*
X22979Y-11680D01*
X22820Y-11521D01*
X22780Y-11504D01*
X22780Y-11495D01*
X22819Y-11479D01*
X22978Y-11320D01*
X22997Y-11275D01*
X23006Y-11296D01*
X23103Y-11326D01*
X23429Y-11000D01*
X23103Y-10673D01*
X23006Y-10703D01*
X22998Y-10726D01*
X22979Y-10680D01*
X22820Y-10521D01*
X22612Y-10435D01*
X22388Y-10434D01*
X22180Y-10520D01*
X22021Y-10679D01*
X21935Y-10887D01*
X21934Y-11111D01*
X22020Y-11319D01*
X22179Y-11478D01*
X22220Y-11495D01*
X22220Y-11504D01*
X22180Y-11520D01*
X22021Y-11679D01*
X21935Y-11887D01*
X21934Y-12111D01*
X22020Y-12319D01*
X22179Y-12478D01*
X22220Y-12495D01*
X22220Y-12504D01*
X22180Y-12520D01*
X22021Y-12679D01*
X21935Y-12887D01*
X21934Y-13111D01*
X22020Y-13319D01*
X22179Y-13478D01*
X22230Y-13499D01*
X22180Y-13520D01*
X22021Y-13679D01*
X21935Y-13887D01*
X21934Y-14111D01*
X22020Y-14319D01*
X22179Y-14478D01*
X22230Y-14499D01*
X22180Y-14520D01*
X22021Y-14679D01*
X21935Y-14887D01*
X21934Y-15111D01*
X22020Y-15319D01*
X22179Y-15478D01*
X22230Y-15499D01*
X22180Y-15520D01*
X22021Y-15679D01*
X21935Y-15887D01*
X21934Y-16111D01*
X22020Y-16319D01*
X22179Y-16478D01*
X22230Y-16499D01*
X22180Y-16520D01*
X22021Y-16679D01*
X21935Y-16887D01*
X21934Y-17111D01*
X22020Y-17319D01*
X22179Y-17478D01*
X22220Y-17495D01*
X22220Y-17504D01*
X22180Y-17520D01*
X22021Y-17679D01*
X21935Y-17887D01*
X21934Y-18111D01*
X22020Y-18319D01*
X22179Y-18478D01*
X22220Y-18495D01*
X22220Y-18504D01*
X22180Y-18520D01*
X22021Y-18679D01*
X21935Y-18887D01*
X21934Y-19111D01*
X22020Y-19319D01*
X22179Y-19478D01*
X22230Y-19499D01*
X22180Y-19520D01*
X22021Y-19679D01*
X21935Y-19887D01*
X21934Y-20111D01*
X22020Y-20319D01*
X22179Y-20478D01*
X22230Y-20499D01*
X22180Y-20520D01*
X22021Y-20679D01*
X21935Y-20887D01*
X21934Y-21111D01*
X22020Y-21319D01*
X22179Y-21478D01*
X22230Y-21499D01*
X22180Y-21520D01*
X22021Y-21679D01*
X21935Y-21887D01*
X21934Y-22111D01*
X22020Y-22319D01*
X22179Y-22478D01*
X22230Y-22499D01*
X22180Y-22520D01*
X22021Y-22679D01*
X21935Y-22887D01*
X21934Y-23111D01*
X22020Y-23319D01*
X22179Y-23478D01*
X22230Y-23499D01*
X22180Y-23520D01*
X22021Y-23679D01*
X21935Y-23887D01*
X21934Y-24111D01*
X22020Y-24319D01*
X22179Y-24478D01*
X22230Y-24499D01*
X22180Y-24520D01*
X22021Y-24679D01*
X21935Y-24887D01*
X21934Y-25111D01*
X22020Y-25319D01*
X22179Y-25478D01*
X22230Y-25499D01*
X22180Y-25520D01*
X22021Y-25679D01*
X21935Y-25887D01*
X21934Y-26111D01*
X22020Y-26319D01*
X22179Y-26478D01*
X22230Y-26499D01*
X22180Y-26520D01*
X22021Y-26679D01*
X21935Y-26887D01*
X21934Y-27111D01*
X22020Y-27319D01*
X22179Y-27478D01*
X22230Y-27499D01*
X22180Y-27520D01*
X22021Y-27679D01*
X21935Y-27887D01*
X21934Y-28111D01*
X22020Y-28319D01*
X22179Y-28478D01*
X22230Y-28499D01*
X22180Y-28520D01*
X22021Y-28679D01*
X21935Y-28887D01*
X21934Y-29111D01*
X22020Y-29319D01*
X22179Y-29478D01*
X22230Y-29499D01*
X22180Y-29520D01*
X22021Y-29679D01*
X21935Y-29887D01*
X21934Y-30111D01*
X22020Y-30319D01*
X22179Y-30478D01*
X22230Y-30499D01*
X22180Y-30520D01*
X22021Y-30679D01*
X21935Y-30887D01*
X21934Y-31111D01*
X22020Y-31319D01*
X22179Y-31478D01*
X22230Y-31499D01*
X22180Y-31520D01*
X22021Y-31679D01*
X21935Y-31887D01*
X21934Y-32111D01*
X22020Y-32319D01*
X22179Y-32478D01*
X22230Y-32499D01*
X22180Y-32520D01*
X22021Y-32679D01*
X21935Y-32887D01*
X21934Y-33111D01*
X22020Y-33319D01*
X22179Y-33478D01*
X22230Y-33499D01*
X22180Y-33520D01*
X22021Y-33679D01*
X21935Y-33887D01*
X21934Y-34111D01*
X22020Y-34319D01*
X22179Y-34478D01*
X22230Y-34499D01*
X22180Y-34520D01*
X22021Y-34679D01*
X21935Y-34887D01*
X21934Y-35111D01*
X22020Y-35319D01*
X22179Y-35478D01*
X22230Y-35499D01*
X22180Y-35520D01*
X22021Y-35679D01*
X21935Y-35887D01*
X21934Y-36111D01*
X22020Y-36319D01*
X22179Y-36478D01*
X22230Y-36499D01*
X22180Y-36520D01*
X22021Y-36679D01*
X21935Y-36887D01*
X21934Y-37111D01*
X22020Y-37319D01*
X22179Y-37478D01*
X22230Y-37499D01*
X22180Y-37520D01*
X22021Y-37679D01*
X21935Y-37887D01*
X21934Y-38111D01*
X22020Y-38319D01*
X22179Y-38478D01*
X22230Y-38499D01*
X22180Y-38520D01*
X22021Y-38679D01*
X21935Y-38887D01*
X21934Y-39111D01*
X22020Y-39319D01*
X22179Y-39478D01*
X22230Y-39499D01*
X22180Y-39520D01*
X22021Y-39679D01*
X21935Y-39887D01*
X21934Y-40111D01*
X22020Y-40319D01*
X22179Y-40478D01*
X22230Y-40499D01*
X22180Y-40520D01*
X22021Y-40679D01*
X21935Y-40887D01*
X21934Y-41111D01*
X22020Y-41319D01*
X22179Y-41478D01*
X22230Y-41499D01*
X22180Y-41520D01*
X22021Y-41679D01*
X21935Y-41887D01*
X21934Y-42111D01*
X22020Y-42319D01*
X22179Y-42478D01*
X22387Y-42564D01*
X22611Y-42565D01*
X22819Y-42479D01*
X22978Y-42320D01*
X22997Y-42275D01*
X23006Y-42296D01*
X23103Y-42326D01*
X23429Y-42000D01*
X23103Y-41673D01*
X23006Y-41703D01*
X22998Y-41726D01*
X22979Y-41680D01*
X22820Y-41521D01*
X22769Y-41500D01*
X22819Y-41479D01*
X22978Y-41320D01*
X22997Y-41275D01*
X23006Y-41296D01*
X23103Y-41326D01*
X23429Y-41000D01*
X23103Y-40673D01*
X23006Y-40703D01*
X22998Y-40726D01*
X22979Y-40680D01*
X22820Y-40521D01*
X22769Y-40500D01*
X22819Y-40479D01*
X22978Y-40320D01*
X22997Y-40275D01*
X23006Y-40296D01*
X23103Y-40326D01*
X23429Y-40000D01*
X23103Y-39673D01*
X23006Y-39703D01*
X22998Y-39726D01*
X22979Y-39680D01*
X22820Y-39521D01*
X22769Y-39500D01*
X22819Y-39479D01*
X22978Y-39320D01*
X22997Y-39275D01*
X23006Y-39296D01*
X23103Y-39326D01*
X23429Y-39000D01*
X23103Y-38673D01*
X23006Y-38703D01*
X22998Y-38726D01*
X22979Y-38680D01*
X22820Y-38521D01*
X22769Y-38500D01*
X22819Y-38479D01*
X22978Y-38320D01*
X22997Y-38275D01*
X23006Y-38296D01*
X23103Y-38326D01*
X23429Y-38000D01*
X23103Y-37673D01*
X23006Y-37703D01*
X22998Y-37726D01*
X22979Y-37680D01*
X22820Y-37521D01*
X22769Y-37500D01*
X22819Y-37479D01*
X22978Y-37320D01*
X22997Y-37275D01*
X23006Y-37296D01*
X23103Y-37326D01*
X23429Y-37000D01*
X23103Y-36673D01*
X23006Y-36703D01*
X22998Y-36726D01*
X22979Y-36680D01*
X22820Y-36521D01*
X22769Y-36500D01*
X22819Y-36479D01*
X22978Y-36320D01*
X22997Y-36275D01*
X23006Y-36296D01*
X23103Y-36326D01*
X23429Y-36000D01*
X23103Y-35673D01*
X23006Y-35703D01*
X22998Y-35726D01*
X22979Y-35680D01*
X22820Y-35521D01*
X22769Y-35500D01*
X22819Y-35479D01*
X22978Y-35320D01*
X22997Y-35275D01*
X23006Y-35296D01*
X23103Y-35326D01*
X23429Y-35000D01*
X23103Y-34673D01*
X23006Y-34703D01*
X22998Y-34726D01*
X22979Y-34680D01*
X22820Y-34521D01*
X22769Y-34500D01*
X22819Y-34479D01*
X22978Y-34320D01*
X22997Y-34275D01*
X23006Y-34296D01*
X23103Y-34326D01*
X23429Y-34000D01*
X23103Y-33673D01*
X23006Y-33703D01*
X22998Y-33726D01*
X22979Y-33680D01*
X22820Y-33521D01*
X22769Y-33500D01*
X22819Y-33479D01*
X22978Y-33320D01*
X22997Y-33275D01*
X23006Y-33296D01*
X23103Y-33326D01*
X23429Y-33000D01*
X23103Y-32673D01*
X23006Y-32703D01*
X22998Y-32726D01*
X22979Y-32680D01*
X22820Y-32521D01*
X22769Y-32500D01*
X22819Y-32479D01*
X22978Y-32320D01*
X22997Y-32275D01*
X23006Y-32296D01*
X23103Y-32326D01*
X23429Y-32000D01*
X23103Y-31673D01*
X23006Y-31703D01*
X22998Y-31726D01*
X22979Y-31680D01*
X22820Y-31521D01*
X22769Y-31500D01*
X22819Y-31479D01*
X22978Y-31320D01*
X22997Y-31275D01*
X23006Y-31296D01*
X23103Y-31326D01*
X23429Y-31000D01*
X23103Y-30673D01*
X23006Y-30703D01*
X22998Y-30726D01*
X22979Y-30680D01*
X22820Y-30521D01*
X22769Y-30500D01*
X22819Y-30479D01*
X22978Y-30320D01*
X22997Y-30275D01*
X23006Y-30296D01*
X23103Y-30326D01*
X23429Y-30000D01*
X23103Y-29673D01*
X23006Y-29703D01*
X22998Y-29726D01*
X22979Y-29680D01*
X22820Y-29521D01*
X22769Y-29500D01*
X22819Y-29479D01*
X22978Y-29320D01*
X22997Y-29275D01*
X23006Y-29296D01*
X23103Y-29326D01*
X23429Y-29000D01*
X23103Y-28673D01*
X23006Y-28703D01*
X22998Y-28726D01*
X22979Y-28680D01*
X22820Y-28521D01*
X22769Y-28500D01*
X22819Y-28479D01*
X22978Y-28320D01*
X22997Y-28275D01*
X23006Y-28296D01*
X23103Y-28326D01*
X23429Y-28000D01*
X23103Y-27673D01*
X23006Y-27703D01*
X22998Y-27726D01*
X22979Y-27680D01*
X22820Y-27521D01*
X22769Y-27500D01*
X22819Y-27479D01*
X22978Y-27320D01*
X22997Y-27275D01*
X23006Y-27296D01*
X23103Y-27326D01*
X23429Y-27000D01*
X23103Y-26673D01*
X23006Y-26703D01*
X22998Y-26726D01*
X22979Y-26680D01*
X22820Y-26521D01*
X22769Y-26500D01*
X22819Y-26479D01*
X22978Y-26320D01*
X22997Y-26275D01*
X23006Y-26296D01*
X23103Y-26326D01*
X23429Y-26000D01*
X23103Y-25673D01*
X23006Y-25703D01*
X22998Y-25726D01*
X22979Y-25680D01*
X22820Y-25521D01*
X22769Y-25500D01*
X22819Y-25479D01*
X22978Y-25320D01*
X22997Y-25275D01*
X23006Y-25296D01*
X23103Y-25326D01*
X23429Y-25000D01*
X23103Y-24673D01*
X23006Y-24703D01*
X22998Y-24726D01*
X22979Y-24680D01*
X22820Y-24521D01*
X22769Y-24500D01*
X22819Y-24479D01*
X22978Y-24320D01*
X22997Y-24275D01*
X23006Y-24296D01*
X23103Y-24326D01*
X23429Y-24000D01*
X23423Y-23994D01*
X23494Y-23923D01*
X23500Y-23929D01*
X23505Y-23923D01*
X23576Y-23994D01*
X23570Y-24000D01*
X23896Y-24326D01*
X23993Y-24296D01*
X24001Y-24273D01*
X24020Y-24319D01*
X24179Y-24478D01*
X24230Y-24499D01*
X24180Y-24520D01*
X24021Y-24679D01*
X24002Y-24724D01*
X23993Y-24703D01*
X23896Y-24673D01*
X23826Y-24744D01*
X23826Y-24603D01*
X23796Y-24506D01*
X23780Y-24500D01*
X23796Y-24493D01*
X23826Y-24396D01*
X23500Y-24070D01*
X23173Y-24396D01*
X23203Y-24493D01*
X23219Y-24499D01*
X23203Y-24506D01*
X23173Y-24603D01*
X23500Y-24929D01*
X23826Y-24603D01*
X23826Y-24744D01*
X23570Y-25000D01*
X23896Y-25326D01*
X23993Y-25296D01*
X24001Y-25273D01*
X24020Y-25319D01*
X24179Y-25478D01*
X24230Y-25499D01*
X24180Y-25520D01*
X24021Y-25679D01*
X24002Y-25724D01*
X23993Y-25703D01*
X23896Y-25673D01*
X23826Y-25744D01*
X23826Y-25603D01*
X23796Y-25506D01*
X23780Y-25500D01*
X23796Y-25493D01*
X23826Y-25396D01*
X23500Y-25070D01*
X23173Y-25396D01*
X23203Y-25493D01*
X23219Y-25499D01*
X23203Y-25506D01*
X23173Y-25603D01*
X23500Y-25929D01*
X23826Y-25603D01*
X23826Y-25744D01*
X23570Y-26000D01*
X23896Y-26326D01*
X23993Y-26296D01*
X24001Y-26273D01*
X24020Y-26319D01*
X24179Y-26478D01*
X24230Y-26499D01*
X24180Y-26520D01*
X24021Y-26679D01*
X24002Y-26724D01*
X23993Y-26703D01*
X23896Y-26673D01*
X23826Y-26744D01*
X23826Y-26603D01*
X23796Y-26506D01*
X23780Y-26500D01*
X23796Y-26493D01*
X23826Y-26396D01*
X23500Y-26070D01*
X23173Y-26396D01*
X23203Y-26493D01*
X23219Y-26499D01*
X23203Y-26506D01*
X23173Y-26603D01*
X23500Y-26929D01*
X23826Y-26603D01*
X23826Y-26744D01*
X23570Y-27000D01*
X23896Y-27326D01*
X23993Y-27296D01*
X24001Y-27273D01*
X24020Y-27319D01*
X24179Y-27478D01*
X24230Y-27499D01*
X24180Y-27520D01*
X24021Y-27679D01*
X24002Y-27724D01*
X23993Y-27703D01*
X23896Y-27673D01*
X23826Y-27744D01*
X23826Y-27603D01*
X23796Y-27506D01*
X23780Y-27500D01*
X23796Y-27493D01*
X23826Y-27396D01*
X23500Y-27070D01*
X23173Y-27396D01*
X23203Y-27493D01*
X23219Y-27499D01*
X23203Y-27506D01*
X23173Y-27603D01*
X23500Y-27929D01*
X23826Y-27603D01*
X23826Y-27744D01*
X23570Y-28000D01*
X23896Y-28326D01*
X23993Y-28296D01*
X24001Y-28273D01*
X24020Y-28319D01*
X24179Y-28478D01*
X24230Y-28499D01*
X24180Y-28520D01*
X24021Y-28679D01*
X24002Y-28724D01*
X23993Y-28703D01*
X23896Y-28673D01*
X23826Y-28744D01*
X23826Y-28603D01*
X23796Y-28506D01*
X23780Y-28500D01*
X23796Y-28493D01*
X23826Y-28396D01*
X23500Y-28070D01*
X23173Y-28396D01*
X23203Y-28493D01*
X23219Y-28499D01*
X23203Y-28506D01*
X23173Y-28603D01*
X23500Y-28929D01*
X23826Y-28603D01*
X23826Y-28744D01*
X23570Y-29000D01*
X23896Y-29326D01*
X23993Y-29296D01*
X24001Y-29273D01*
X24020Y-29319D01*
X24179Y-29478D01*
X24230Y-29499D01*
X24180Y-29520D01*
X24021Y-29679D01*
X24002Y-29724D01*
X23993Y-29703D01*
X23896Y-29673D01*
X23826Y-29744D01*
X23826Y-29603D01*
X23796Y-29506D01*
X23780Y-29500D01*
X23796Y-29493D01*
X23826Y-29396D01*
X23500Y-29070D01*
X23173Y-29396D01*
X23203Y-29493D01*
X23219Y-29499D01*
X23203Y-29506D01*
X23173Y-29603D01*
X23500Y-29929D01*
X23826Y-29603D01*
X23826Y-29744D01*
X23570Y-30000D01*
X23896Y-30326D01*
X23993Y-30296D01*
X24001Y-30273D01*
X24020Y-30319D01*
X24179Y-30478D01*
X24230Y-30499D01*
X24180Y-30520D01*
X24021Y-30679D01*
X24002Y-30724D01*
X23993Y-30703D01*
X23896Y-30673D01*
X23826Y-30744D01*
X23826Y-30603D01*
X23796Y-30506D01*
X23780Y-30500D01*
X23796Y-30493D01*
X23826Y-30396D01*
X23500Y-30070D01*
X23173Y-30396D01*
X23203Y-30493D01*
X23219Y-30499D01*
X23203Y-30506D01*
X23173Y-30603D01*
X23500Y-30929D01*
X23826Y-30603D01*
X23826Y-30744D01*
X23570Y-31000D01*
X23896Y-31326D01*
X23993Y-31296D01*
X24001Y-31273D01*
X24020Y-31319D01*
X24179Y-31478D01*
X24230Y-31499D01*
X24180Y-31520D01*
X24021Y-31679D01*
X24002Y-31724D01*
X23993Y-31703D01*
X23896Y-31673D01*
X23826Y-31744D01*
X23826Y-31603D01*
X23796Y-31506D01*
X23780Y-31500D01*
X23796Y-31493D01*
X23826Y-31396D01*
X23500Y-31070D01*
X23173Y-31396D01*
X23203Y-31493D01*
X23219Y-31499D01*
X23203Y-31506D01*
X23173Y-31603D01*
X23500Y-31929D01*
X23826Y-31603D01*
X23826Y-31744D01*
X23570Y-32000D01*
X23896Y-32326D01*
X23993Y-32296D01*
X24001Y-32273D01*
X24020Y-32319D01*
X24179Y-32478D01*
X24230Y-32499D01*
X24180Y-32520D01*
X24021Y-32679D01*
X24002Y-32724D01*
X23993Y-32703D01*
X23896Y-32673D01*
X23826Y-32744D01*
X23826Y-32603D01*
X23796Y-32506D01*
X23780Y-32500D01*
X23796Y-32493D01*
X23826Y-32396D01*
X23500Y-32070D01*
X23173Y-32396D01*
X23203Y-32493D01*
X23219Y-32499D01*
X23203Y-32506D01*
X23173Y-32603D01*
X23500Y-32929D01*
X23826Y-32603D01*
X23826Y-32744D01*
X23570Y-33000D01*
X23896Y-33326D01*
X23993Y-33296D01*
X24001Y-33273D01*
X24020Y-33319D01*
X24179Y-33478D01*
X24230Y-33499D01*
X24180Y-33520D01*
X24021Y-33679D01*
X24002Y-33724D01*
X23993Y-33703D01*
X23896Y-33673D01*
X23826Y-33744D01*
X23826Y-33603D01*
X23796Y-33506D01*
X23780Y-33500D01*
X23796Y-33493D01*
X23826Y-33396D01*
X23500Y-33070D01*
X23173Y-33396D01*
X23203Y-33493D01*
X23219Y-33499D01*
X23203Y-33506D01*
X23173Y-33603D01*
X23500Y-33929D01*
X23826Y-33603D01*
X23826Y-33744D01*
X23570Y-34000D01*
X23896Y-34326D01*
X23993Y-34296D01*
X24001Y-34273D01*
X24020Y-34319D01*
X24179Y-34478D01*
X24230Y-34499D01*
X24180Y-34520D01*
X24021Y-34679D01*
X24002Y-34724D01*
X23993Y-34703D01*
X23896Y-34673D01*
X23826Y-34744D01*
X23826Y-34603D01*
X23796Y-34506D01*
X23780Y-34500D01*
X23796Y-34493D01*
X23826Y-34396D01*
X23500Y-34070D01*
X23173Y-34396D01*
X23203Y-34493D01*
X23219Y-34499D01*
X23203Y-34506D01*
X23173Y-34603D01*
X23500Y-34929D01*
X23826Y-34603D01*
X23826Y-34744D01*
X23570Y-35000D01*
X23896Y-35326D01*
X23993Y-35296D01*
X24001Y-35273D01*
X24020Y-35319D01*
X24179Y-35478D01*
X24230Y-35499D01*
X24180Y-35520D01*
X24021Y-35679D01*
X24002Y-35724D01*
X23993Y-35703D01*
X23896Y-35673D01*
X23826Y-35744D01*
X23826Y-35603D01*
X23796Y-35506D01*
X23780Y-35500D01*
X23796Y-35493D01*
X23826Y-35396D01*
X23500Y-35070D01*
X23173Y-35396D01*
X23203Y-35493D01*
X23219Y-35499D01*
X23203Y-35506D01*
X23173Y-35603D01*
X23500Y-35929D01*
X23826Y-35603D01*
X23826Y-35744D01*
X23570Y-36000D01*
X23896Y-36326D01*
X23993Y-36296D01*
X24001Y-36273D01*
X24020Y-36319D01*
X24179Y-36478D01*
X24230Y-36499D01*
X24180Y-36520D01*
X24021Y-36679D01*
X24002Y-36724D01*
X23993Y-36703D01*
X23896Y-36673D01*
X23826Y-36744D01*
X23826Y-36603D01*
X23796Y-36506D01*
X23780Y-36500D01*
X23796Y-36493D01*
X23826Y-36396D01*
X23500Y-36070D01*
X23173Y-36396D01*
X23203Y-36493D01*
X23219Y-36499D01*
X23203Y-36506D01*
X23173Y-36603D01*
X23500Y-36929D01*
X23826Y-36603D01*
X23826Y-36744D01*
X23570Y-37000D01*
X23896Y-37326D01*
X23993Y-37296D01*
X24001Y-37273D01*
X24020Y-37319D01*
X24179Y-37478D01*
X24230Y-37499D01*
X24180Y-37520D01*
X24021Y-37679D01*
X24002Y-37724D01*
X23993Y-37703D01*
X23896Y-37673D01*
X23826Y-37744D01*
X23826Y-37603D01*
X23796Y-37506D01*
X23780Y-37500D01*
X23796Y-37493D01*
X23826Y-37396D01*
X23500Y-37070D01*
X23173Y-37396D01*
X23203Y-37493D01*
X23219Y-37499D01*
X23203Y-37506D01*
X23173Y-37603D01*
X23500Y-37929D01*
X23826Y-37603D01*
X23826Y-37744D01*
X23570Y-38000D01*
X23896Y-38326D01*
X23993Y-38296D01*
X24001Y-38273D01*
X24020Y-38319D01*
X24179Y-38478D01*
X24230Y-38499D01*
X24180Y-38520D01*
X24021Y-38679D01*
X24002Y-38724D01*
X23993Y-38703D01*
X23896Y-38673D01*
X23826Y-38744D01*
X23826Y-38603D01*
X23796Y-38506D01*
X23780Y-38500D01*
X23796Y-38493D01*
X23826Y-38396D01*
X23500Y-38070D01*
X23173Y-38396D01*
X23203Y-38493D01*
X23219Y-38499D01*
X23203Y-38506D01*
X23173Y-38603D01*
X23500Y-38929D01*
X23826Y-38603D01*
X23826Y-38744D01*
X23570Y-39000D01*
X23896Y-39326D01*
X23993Y-39296D01*
X24001Y-39273D01*
X24020Y-39319D01*
X24179Y-39478D01*
X24230Y-39499D01*
X24180Y-39520D01*
X24021Y-39679D01*
X24002Y-39724D01*
X23993Y-39703D01*
X23896Y-39673D01*
X23826Y-39744D01*
X23826Y-39603D01*
X23796Y-39506D01*
X23780Y-39500D01*
X23796Y-39493D01*
X23826Y-39396D01*
X23500Y-39070D01*
X23173Y-39396D01*
X23203Y-39493D01*
X23219Y-39499D01*
X23203Y-39506D01*
X23173Y-39603D01*
X23500Y-39929D01*
X23826Y-39603D01*
X23826Y-39744D01*
X23570Y-40000D01*
X23896Y-40326D01*
X23993Y-40296D01*
X24001Y-40273D01*
X24020Y-40319D01*
X24179Y-40478D01*
X24230Y-40499D01*
X24180Y-40520D01*
X24021Y-40679D01*
X24002Y-40724D01*
X23993Y-40703D01*
X23896Y-40673D01*
X23826Y-40744D01*
X23826Y-40603D01*
X23796Y-40506D01*
X23780Y-40500D01*
X23796Y-40493D01*
X23826Y-40396D01*
X23500Y-40070D01*
X23173Y-40396D01*
X23203Y-40493D01*
X23219Y-40499D01*
X23203Y-40506D01*
X23173Y-40603D01*
X23500Y-40929D01*
X23826Y-40603D01*
X23826Y-40744D01*
X23570Y-41000D01*
X23896Y-41326D01*
X23993Y-41296D01*
X24001Y-41273D01*
X24020Y-41319D01*
X24179Y-41478D01*
X24230Y-41499D01*
X24180Y-41520D01*
X24021Y-41679D01*
X24002Y-41724D01*
X23993Y-41703D01*
X23896Y-41673D01*
X23826Y-41744D01*
X23826Y-41603D01*
X23796Y-41506D01*
X23780Y-41500D01*
X23796Y-41493D01*
X23826Y-41396D01*
X23500Y-41070D01*
X23173Y-41396D01*
X23203Y-41493D01*
X23219Y-41499D01*
X23203Y-41506D01*
X23173Y-41603D01*
X23500Y-41929D01*
X23826Y-41603D01*
X23826Y-41744D01*
X23570Y-42000D01*
X23896Y-42326D01*
X23993Y-42296D01*
X24001Y-42273D01*
X24020Y-42319D01*
X24179Y-42478D01*
X24387Y-42564D01*
X24611Y-42565D01*
X24652Y-42548D01*
X24707Y-42603D01*
X24798Y-42663D01*
X24798Y-42663D01*
X24905Y-42685D01*
X27594Y-42685D01*
X27701Y-42663D01*
X27701Y-42663D01*
X27792Y-42603D01*
X27847Y-42548D01*
X27887Y-42564D01*
X28111Y-42565D01*
X28319Y-42479D01*
X28478Y-42320D01*
X28564Y-42112D01*
X28565Y-41888D01*
X28479Y-41680D01*
X28320Y-41521D01*
X28269Y-41500D01*
X28319Y-41479D01*
X28478Y-41320D01*
X28564Y-41112D01*
X28565Y-40888D01*
X28479Y-40680D01*
X28320Y-40521D01*
X28269Y-40500D01*
X28319Y-40479D01*
X28478Y-40320D01*
X28564Y-40112D01*
X28565Y-39888D01*
X28479Y-39680D01*
X28320Y-39521D01*
X28269Y-39500D01*
X28319Y-39479D01*
X28478Y-39320D01*
X28564Y-39112D01*
X28565Y-38888D01*
X28479Y-38680D01*
X28320Y-38521D01*
X28269Y-38500D01*
X28319Y-38479D01*
X28478Y-38320D01*
X28564Y-38112D01*
X28565Y-37888D01*
X28479Y-37680D01*
X28320Y-37521D01*
X28269Y-37500D01*
X28319Y-37479D01*
X28478Y-37320D01*
X28564Y-37112D01*
X28565Y-36888D01*
X28479Y-36680D01*
X28320Y-36521D01*
X28269Y-36500D01*
X28319Y-36479D01*
X28478Y-36320D01*
X28564Y-36112D01*
X28565Y-35888D01*
X28479Y-35680D01*
X28320Y-35521D01*
X28269Y-35500D01*
X28319Y-35479D01*
X28478Y-35320D01*
X28564Y-35112D01*
X28565Y-34888D01*
X28479Y-34680D01*
X28320Y-34521D01*
X28269Y-34500D01*
X28319Y-34479D01*
X28478Y-34320D01*
X28564Y-34112D01*
X28565Y-33888D01*
X28479Y-33680D01*
X28320Y-33521D01*
X28269Y-33500D01*
X28319Y-33479D01*
X28478Y-33320D01*
X28564Y-33112D01*
X28565Y-32888D01*
X28479Y-32680D01*
X28320Y-32521D01*
X28269Y-32500D01*
X28319Y-32479D01*
X28478Y-32320D01*
X28564Y-32112D01*
X28565Y-31888D01*
X28479Y-31680D01*
X28320Y-31521D01*
X28269Y-31500D01*
X28319Y-31479D01*
X28478Y-31320D01*
X28564Y-31112D01*
X28565Y-30888D01*
X28479Y-30680D01*
X28320Y-30521D01*
X28269Y-30500D01*
X28319Y-30479D01*
X28478Y-30320D01*
X28564Y-30112D01*
X28564Y-29960D01*
X35951Y-37347D01*
X35935Y-37387D01*
X35934Y-37611D01*
X36020Y-37819D01*
X36179Y-37978D01*
X36230Y-37999D01*
X36180Y-38020D01*
X36021Y-38179D01*
X35935Y-38387D01*
X35934Y-38611D01*
X36020Y-38819D01*
X36179Y-38978D01*
X36230Y-38999D01*
X36180Y-39020D01*
X36021Y-39179D01*
X35935Y-39387D01*
X35934Y-39611D01*
X36020Y-39819D01*
X36179Y-39978D01*
X36387Y-40064D01*
X36611Y-40065D01*
X36819Y-39979D01*
X36978Y-39820D01*
X37064Y-39612D01*
X37065Y-39388D01*
X37048Y-39347D01*
X37234Y-39161D01*
X37295Y-39070D01*
X37295Y-39070D01*
X37298Y-39052D01*
X37316Y-38963D01*
X37316Y-38963D01*
X37316Y-36457D01*
X37316Y-36457D01*
X37295Y-36349D01*
X37295Y-36349D01*
X37275Y-36319D01*
X37234Y-36259D01*
X37234Y-36259D01*
X37069Y-36094D01*
X37069Y-34585D01*
X37058Y-34360D01*
X36993Y-34203D01*
X36896Y-34173D01*
X36570Y-34500D01*
X36896Y-34826D01*
X36993Y-34796D01*
X37069Y-34585D01*
X37069Y-36094D01*
X36887Y-35911D01*
X36978Y-35820D01*
X37064Y-35612D01*
X37065Y-35388D01*
X36979Y-35180D01*
X36820Y-35021D01*
X36775Y-35002D01*
X36796Y-34993D01*
X36826Y-34896D01*
X36500Y-34570D01*
X36494Y-34576D01*
X36423Y-34505D01*
X36429Y-34500D01*
X36423Y-34494D01*
X36494Y-34423D01*
X36500Y-34429D01*
X36607Y-34322D01*
X36634Y-34316D01*
X36634Y-34316D01*
X36725Y-34256D01*
X37120Y-33860D01*
X37181Y-33770D01*
X37181Y-33770D01*
X37184Y-33752D01*
X37202Y-33662D01*
X37202Y-33662D01*
X37202Y-30346D01*
X37184Y-30257D01*
X37181Y-30239D01*
X37181Y-30239D01*
X37120Y-30148D01*
X36885Y-29913D01*
X36978Y-29820D01*
X37064Y-29612D01*
X37065Y-29388D01*
X36979Y-29180D01*
X36820Y-29021D01*
X36769Y-29000D01*
X36819Y-28979D01*
X36978Y-28820D01*
X37064Y-28612D01*
X37065Y-28388D01*
X36979Y-28180D01*
X36820Y-28021D01*
X36769Y-28000D01*
X36819Y-27979D01*
X36978Y-27820D01*
X37064Y-27612D01*
X37065Y-27388D01*
X36979Y-27180D01*
X36820Y-27021D01*
X36780Y-27004D01*
X36780Y-26995D01*
X36819Y-26979D01*
X36978Y-26820D01*
X37064Y-26612D01*
X37065Y-26388D01*
X36979Y-26180D01*
X36820Y-26021D01*
X36775Y-26002D01*
X36796Y-25993D01*
X36826Y-25896D01*
X36500Y-25570D01*
X36494Y-25576D01*
X36423Y-25505D01*
X36429Y-25500D01*
X36261Y-25331D01*
X36261Y-25331D01*
X36258Y-25319D01*
X36258Y-25319D01*
X36238Y-25289D01*
X36197Y-25229D01*
X36197Y-25229D01*
X30165Y-19196D01*
X30800Y-19196D01*
X36536Y-24932D01*
X36360Y-24941D01*
X36203Y-25006D01*
X36173Y-25103D01*
X36500Y-25429D01*
X36505Y-25423D01*
X36576Y-25494D01*
X36570Y-25500D01*
X36896Y-25826D01*
X36993Y-25796D01*
X37069Y-25585D01*
X37063Y-25459D01*
X50951Y-39347D01*
X50935Y-39387D01*
X50934Y-39611D01*
X51020Y-39819D01*
X51179Y-39978D01*
X51387Y-40064D01*
X51611Y-40065D01*
X51819Y-39979D01*
X51978Y-39820D01*
X51995Y-39780D01*
X57410Y-39780D01*
X57518Y-39758D01*
X57518Y-39758D01*
X57608Y-39697D01*
X61461Y-35845D01*
X61574Y-35845D01*
X61723Y-35784D01*
X61723Y-36267D01*
X61643Y-36347D01*
X61578Y-36503D01*
X61578Y-36672D01*
X61642Y-36828D01*
X61762Y-36948D01*
X61918Y-37013D01*
X62087Y-37013D01*
X62243Y-36948D01*
X62363Y-36829D01*
X62428Y-36673D01*
X62428Y-36504D01*
X62364Y-36347D01*
X62283Y-36267D01*
X62283Y-19691D01*
X62363Y-19611D01*
X62428Y-19455D01*
X62428Y-19286D01*
X62364Y-19130D01*
X62244Y-19010D01*
X62088Y-18945D01*
X61919Y-18945D01*
X61763Y-19010D01*
X61643Y-19129D01*
X61578Y-19285D01*
X61578Y-19455D01*
X61642Y-19611D01*
X61723Y-19691D01*
X61723Y-22443D01*
X61710Y-22424D01*
X58269Y-18983D01*
X58311Y-18966D01*
X58465Y-18811D01*
X58549Y-18609D01*
X58550Y-18391D01*
X58466Y-18188D01*
X58311Y-18034D01*
X58280Y-18020D01*
X58280Y-17479D01*
X58311Y-17466D01*
X58465Y-17311D01*
X58549Y-17109D01*
X58550Y-16891D01*
X58466Y-16688D01*
X58311Y-16534D01*
X58280Y-16520D01*
X58280Y-15979D01*
X58311Y-15966D01*
X58465Y-15811D01*
X58549Y-15609D01*
X58550Y-15391D01*
X58466Y-15188D01*
X58311Y-15034D01*
X58109Y-14950D01*
X57891Y-14949D01*
X57859Y-14963D01*
X57280Y-14384D01*
X57280Y-12495D01*
X57319Y-12479D01*
X57478Y-12320D01*
X57564Y-12112D01*
X57565Y-11888D01*
X57479Y-11680D01*
X57320Y-11521D01*
X57269Y-11500D01*
X57319Y-11479D01*
X57478Y-11320D01*
X57564Y-11112D01*
X57565Y-10888D01*
X57479Y-10680D01*
X57320Y-10521D01*
X57112Y-10435D01*
X56888Y-10434D01*
X56680Y-10520D01*
X56521Y-10679D01*
X56500Y-10730D01*
X56479Y-10680D01*
X56320Y-10521D01*
X56112Y-10435D01*
X55888Y-10434D01*
X55680Y-10520D01*
X55521Y-10679D01*
X55500Y-10730D01*
X55479Y-10680D01*
X55320Y-10521D01*
X55112Y-10435D01*
X54888Y-10434D01*
X54680Y-10520D01*
X54521Y-10679D01*
X54500Y-10730D01*
X54479Y-10680D01*
X54320Y-10521D01*
X54112Y-10435D01*
X53888Y-10434D01*
X53680Y-10520D01*
X53521Y-10679D01*
X53500Y-10730D01*
X53479Y-10680D01*
X53320Y-10521D01*
X53112Y-10435D01*
X52888Y-10434D01*
X52680Y-10520D01*
X52521Y-10679D01*
X52435Y-10887D01*
X52434Y-11111D01*
X52520Y-11319D01*
X52679Y-11478D01*
X52724Y-11497D01*
X52703Y-11506D01*
X52673Y-11603D01*
X53000Y-11929D01*
X53005Y-11923D01*
X53076Y-11994D01*
X53070Y-12000D01*
X53076Y-12005D01*
X53005Y-12076D01*
X53000Y-12070D01*
X52929Y-12141D01*
X52929Y-12000D01*
X52603Y-11673D01*
X52506Y-11703D01*
X52430Y-11914D01*
X52441Y-12139D01*
X52506Y-12296D01*
X52603Y-12326D01*
X52929Y-12000D01*
X52929Y-12141D01*
X52673Y-12396D01*
X52703Y-12493D01*
X52776Y-12519D01*
X47069Y-18226D01*
X47069Y-11085D01*
X47058Y-10860D01*
X46993Y-10703D01*
X46896Y-10673D01*
X46826Y-10744D01*
X46826Y-10603D01*
X46796Y-10506D01*
X46585Y-10430D01*
X46360Y-10441D01*
X46203Y-10506D01*
X46173Y-10603D01*
X46500Y-10929D01*
X46826Y-10603D01*
X46826Y-10744D01*
X46570Y-11000D01*
X46896Y-11326D01*
X46993Y-11296D01*
X47069Y-11085D01*
X47069Y-18226D01*
X46826Y-18470D01*
X46826Y-11396D01*
X46500Y-11070D01*
X46429Y-11141D01*
X46429Y-11000D01*
X46103Y-10673D01*
X46006Y-10703D01*
X46000Y-10719D01*
X45993Y-10703D01*
X45896Y-10673D01*
X45826Y-10744D01*
X45826Y-10603D01*
X45796Y-10506D01*
X45585Y-10430D01*
X45360Y-10441D01*
X45203Y-10506D01*
X45173Y-10603D01*
X45500Y-10929D01*
X45826Y-10603D01*
X45826Y-10744D01*
X45570Y-11000D01*
X45896Y-11326D01*
X45993Y-11296D01*
X45999Y-11280D01*
X46006Y-11296D01*
X46103Y-11326D01*
X46429Y-11000D01*
X46429Y-11141D01*
X46173Y-11396D01*
X46203Y-11493D01*
X46414Y-11569D01*
X46639Y-11558D01*
X46796Y-11493D01*
X46826Y-11396D01*
X46826Y-18470D01*
X45826Y-19470D01*
X45826Y-11396D01*
X45500Y-11070D01*
X45429Y-11141D01*
X45429Y-11000D01*
X45103Y-10673D01*
X45006Y-10703D01*
X45000Y-10719D01*
X44993Y-10703D01*
X44896Y-10673D01*
X44826Y-10744D01*
X44826Y-10603D01*
X44796Y-10506D01*
X44585Y-10430D01*
X44360Y-10441D01*
X44203Y-10506D01*
X44173Y-10603D01*
X44500Y-10929D01*
X44826Y-10603D01*
X44826Y-10744D01*
X44570Y-11000D01*
X44896Y-11326D01*
X44993Y-11296D01*
X44999Y-11280D01*
X45006Y-11296D01*
X45103Y-11326D01*
X45429Y-11000D01*
X45429Y-11141D01*
X45173Y-11396D01*
X45203Y-11493D01*
X45414Y-11569D01*
X45639Y-11558D01*
X45796Y-11493D01*
X45826Y-11396D01*
X45826Y-19470D01*
X44885Y-20410D01*
X44885Y-18050D01*
X45349Y-18050D01*
X45441Y-18012D01*
X45511Y-17941D01*
X45549Y-17849D01*
X45550Y-17750D01*
X45550Y-17150D01*
X45512Y-17058D01*
X45441Y-16988D01*
X45349Y-16950D01*
X45250Y-16949D01*
X44885Y-16949D01*
X44885Y-16779D01*
X44895Y-16775D01*
X45015Y-16656D01*
X45080Y-16500D01*
X45080Y-16330D01*
X45016Y-16174D01*
X44896Y-16055D01*
X44826Y-16025D01*
X44826Y-11396D01*
X44500Y-11070D01*
X44429Y-11141D01*
X44429Y-11000D01*
X44103Y-10673D01*
X44006Y-10703D01*
X44000Y-10719D01*
X43993Y-10703D01*
X43896Y-10673D01*
X43826Y-10744D01*
X43826Y-10603D01*
X43796Y-10506D01*
X43585Y-10430D01*
X43360Y-10441D01*
X43203Y-10506D01*
X43173Y-10603D01*
X43500Y-10929D01*
X43826Y-10603D01*
X43826Y-10744D01*
X43570Y-11000D01*
X43896Y-11326D01*
X43993Y-11296D01*
X43999Y-11280D01*
X44006Y-11296D01*
X44103Y-11326D01*
X44429Y-11000D01*
X44429Y-11141D01*
X44173Y-11396D01*
X44203Y-11493D01*
X44414Y-11569D01*
X44639Y-11558D01*
X44796Y-11493D01*
X44826Y-11396D01*
X44826Y-16025D01*
X44740Y-15990D01*
X44626Y-15990D01*
X43826Y-15189D01*
X43826Y-11396D01*
X43500Y-11070D01*
X43429Y-11141D01*
X43429Y-11000D01*
X43103Y-10673D01*
X43006Y-10703D01*
X43000Y-10719D01*
X42993Y-10703D01*
X42896Y-10673D01*
X42826Y-10744D01*
X42826Y-10603D01*
X42796Y-10506D01*
X42585Y-10430D01*
X42360Y-10441D01*
X42203Y-10506D01*
X42173Y-10603D01*
X42500Y-10929D01*
X42826Y-10603D01*
X42826Y-10744D01*
X42570Y-11000D01*
X42896Y-11326D01*
X42993Y-11296D01*
X42999Y-11280D01*
X43006Y-11296D01*
X43103Y-11326D01*
X43429Y-11000D01*
X43429Y-11141D01*
X43173Y-11396D01*
X43203Y-11493D01*
X43414Y-11569D01*
X43639Y-11558D01*
X43796Y-11493D01*
X43826Y-11396D01*
X43826Y-15189D01*
X42826Y-14189D01*
X42826Y-11396D01*
X42500Y-11070D01*
X42429Y-11141D01*
X42429Y-11000D01*
X42103Y-10673D01*
X42006Y-10703D01*
X42000Y-10719D01*
X41993Y-10703D01*
X41896Y-10673D01*
X41826Y-10744D01*
X41826Y-10603D01*
X41796Y-10506D01*
X41585Y-10430D01*
X41360Y-10441D01*
X41203Y-10506D01*
X41173Y-10603D01*
X41500Y-10929D01*
X41826Y-10603D01*
X41826Y-10744D01*
X41570Y-11000D01*
X41896Y-11326D01*
X41993Y-11296D01*
X41999Y-11280D01*
X42006Y-11296D01*
X42103Y-11326D01*
X42429Y-11000D01*
X42429Y-11141D01*
X42173Y-11396D01*
X42203Y-11493D01*
X42414Y-11569D01*
X42639Y-11558D01*
X42796Y-11493D01*
X42826Y-11396D01*
X42826Y-14189D01*
X41826Y-13189D01*
X41826Y-11396D01*
X41500Y-11070D01*
X41173Y-11396D01*
X41203Y-11493D01*
X41414Y-11569D01*
X41639Y-11558D01*
X41796Y-11493D01*
X41826Y-11396D01*
X41826Y-13189D01*
X40280Y-11643D01*
X40280Y-11520D01*
X40387Y-11564D01*
X40611Y-11565D01*
X40819Y-11479D01*
X40978Y-11320D01*
X40997Y-11275D01*
X41006Y-11296D01*
X41103Y-11326D01*
X41429Y-11000D01*
X41103Y-10673D01*
X41006Y-10703D01*
X40998Y-10726D01*
X40979Y-10680D01*
X40820Y-10521D01*
X40612Y-10435D01*
X40388Y-10434D01*
X40180Y-10520D01*
X40088Y-10612D01*
X39869Y-10392D01*
X39778Y-10332D01*
X39671Y-10310D01*
X38274Y-10310D01*
X38166Y-10332D01*
X38076Y-10392D01*
X36833Y-11635D01*
X34731Y-11635D01*
X34878Y-11488D01*
X35037Y-11107D01*
X35037Y-10694D01*
X34879Y-10313D01*
X34617Y-10050D01*
X64883Y-10050D01*
X64621Y-10311D01*
X64462Y-10692D01*
X64462Y-11105D01*
X64620Y-11486D01*
X64911Y-11778D01*
X65292Y-11937D01*
X65705Y-11937D01*
X66086Y-11779D01*
X66378Y-11488D01*
X66450Y-11317D01*
X66450Y-41982D01*
X66379Y-41813D01*
X66088Y-41521D01*
X66054Y-41507D01*
X66054Y-36581D01*
X66054Y-35581D01*
X66054Y-34581D01*
X66054Y-33581D01*
X66054Y-17581D01*
X66054Y-16581D01*
X66054Y-15581D01*
X66054Y-14581D01*
X66043Y-14363D01*
X65981Y-14212D01*
X65885Y-14184D01*
X65815Y-14255D01*
X65815Y-14114D01*
X65787Y-14018D01*
X65581Y-13945D01*
X65363Y-13956D01*
X65212Y-14018D01*
X65184Y-14114D01*
X65500Y-14429D01*
X65815Y-14114D01*
X65815Y-14255D01*
X65570Y-14500D01*
X65885Y-14815D01*
X65981Y-14787D01*
X66054Y-14581D01*
X66054Y-15581D01*
X66043Y-15363D01*
X65981Y-15212D01*
X65885Y-15184D01*
X65815Y-15255D01*
X65815Y-15114D01*
X65787Y-15018D01*
X65739Y-15001D01*
X65787Y-14981D01*
X65815Y-14885D01*
X65500Y-14570D01*
X65429Y-14641D01*
X65429Y-14500D01*
X65114Y-14184D01*
X65018Y-14212D01*
X64945Y-14418D01*
X64956Y-14636D01*
X65018Y-14787D01*
X65114Y-14815D01*
X65429Y-14500D01*
X65429Y-14641D01*
X65184Y-14885D01*
X65212Y-14981D01*
X65260Y-14998D01*
X65212Y-15018D01*
X65184Y-15114D01*
X65500Y-15429D01*
X65815Y-15114D01*
X65815Y-15255D01*
X65570Y-15500D01*
X65885Y-15815D01*
X65981Y-15787D01*
X66054Y-15581D01*
X66054Y-16581D01*
X66043Y-16363D01*
X65981Y-16212D01*
X65885Y-16184D01*
X65815Y-16255D01*
X65815Y-16114D01*
X65787Y-16018D01*
X65739Y-16001D01*
X65787Y-15981D01*
X65815Y-15885D01*
X65500Y-15570D01*
X65429Y-15641D01*
X65429Y-15500D01*
X65114Y-15184D01*
X65018Y-15212D01*
X64945Y-15418D01*
X64956Y-15636D01*
X65018Y-15787D01*
X65114Y-15815D01*
X65429Y-15500D01*
X65429Y-15641D01*
X65184Y-15885D01*
X65212Y-15981D01*
X65260Y-15998D01*
X65212Y-16018D01*
X65184Y-16114D01*
X65500Y-16429D01*
X65815Y-16114D01*
X65815Y-16255D01*
X65570Y-16500D01*
X65885Y-16815D01*
X65981Y-16787D01*
X66054Y-16581D01*
X66054Y-17581D01*
X66043Y-17363D01*
X65981Y-17212D01*
X65885Y-17184D01*
X65815Y-17255D01*
X65815Y-17114D01*
X65787Y-17018D01*
X65739Y-17001D01*
X65787Y-16981D01*
X65815Y-16885D01*
X65500Y-16570D01*
X65429Y-16641D01*
X65429Y-16500D01*
X65114Y-16184D01*
X65018Y-16212D01*
X64945Y-16418D01*
X64956Y-16636D01*
X65018Y-16787D01*
X65114Y-16815D01*
X65429Y-16500D01*
X65429Y-16641D01*
X65184Y-16885D01*
X65212Y-16981D01*
X65260Y-16998D01*
X65212Y-17018D01*
X65184Y-17114D01*
X65500Y-17429D01*
X65815Y-17114D01*
X65815Y-17255D01*
X65570Y-17500D01*
X65885Y-17815D01*
X65981Y-17787D01*
X66054Y-17581D01*
X66054Y-33581D01*
X66050Y-33487D01*
X66050Y-18849D01*
X66050Y-18150D01*
X66012Y-18058D01*
X65941Y-17988D01*
X65849Y-17950D01*
X65796Y-17949D01*
X65815Y-17885D01*
X65500Y-17570D01*
X65429Y-17641D01*
X65429Y-17500D01*
X65114Y-17184D01*
X65018Y-17212D01*
X64945Y-17418D01*
X64956Y-17636D01*
X65018Y-17787D01*
X65114Y-17815D01*
X65429Y-17500D01*
X65429Y-17641D01*
X65184Y-17885D01*
X65203Y-17949D01*
X65150Y-17950D01*
X65058Y-17988D01*
X64987Y-18058D01*
X64949Y-18150D01*
X64950Y-18387D01*
X65012Y-18450D01*
X65450Y-18450D01*
X65450Y-18442D01*
X65550Y-18442D01*
X65550Y-18450D01*
X65987Y-18450D01*
X66050Y-18387D01*
X66050Y-18150D01*
X66050Y-18849D01*
X66050Y-18612D01*
X65987Y-18550D01*
X65550Y-18550D01*
X65550Y-18987D01*
X65612Y-19050D01*
X65750Y-19050D01*
X65849Y-19049D01*
X65941Y-19011D01*
X66012Y-18941D01*
X66050Y-18849D01*
X66050Y-33487D01*
X66043Y-33363D01*
X65981Y-33212D01*
X65885Y-33184D01*
X65815Y-33255D01*
X65815Y-33114D01*
X65787Y-33018D01*
X65581Y-32945D01*
X65450Y-32951D01*
X65450Y-18987D01*
X65450Y-18550D01*
X65012Y-18550D01*
X64950Y-18612D01*
X64949Y-18849D01*
X64987Y-18941D01*
X65058Y-19011D01*
X65150Y-19049D01*
X65249Y-19050D01*
X65387Y-19050D01*
X65450Y-18987D01*
X65450Y-32951D01*
X65363Y-32956D01*
X65212Y-33018D01*
X65184Y-33114D01*
X65500Y-33429D01*
X65815Y-33114D01*
X65815Y-33255D01*
X65570Y-33500D01*
X65885Y-33815D01*
X65981Y-33787D01*
X66054Y-33581D01*
X66054Y-34581D01*
X66043Y-34363D01*
X65981Y-34212D01*
X65885Y-34184D01*
X65815Y-34255D01*
X65815Y-34114D01*
X65787Y-34018D01*
X65739Y-34001D01*
X65787Y-33981D01*
X65815Y-33885D01*
X65500Y-33570D01*
X65429Y-33641D01*
X65429Y-33500D01*
X65114Y-33184D01*
X65050Y-33203D01*
X65050Y-29750D01*
X65050Y-29150D01*
X65050Y-26750D01*
X65050Y-26150D01*
X65050Y-23750D01*
X65050Y-23150D01*
X65012Y-23058D01*
X64941Y-22988D01*
X64849Y-22950D01*
X64750Y-22949D01*
X64150Y-22949D01*
X64058Y-22987D01*
X63988Y-23058D01*
X63950Y-23150D01*
X63949Y-23203D01*
X63885Y-23184D01*
X63815Y-23255D01*
X63815Y-23114D01*
X63787Y-23018D01*
X63581Y-22945D01*
X63363Y-22956D01*
X63212Y-23018D01*
X63184Y-23114D01*
X63500Y-23429D01*
X63815Y-23114D01*
X63815Y-23255D01*
X63570Y-23500D01*
X63885Y-23815D01*
X63949Y-23796D01*
X63949Y-23849D01*
X63987Y-23941D01*
X64058Y-24011D01*
X64150Y-24049D01*
X64249Y-24050D01*
X64849Y-24050D01*
X64941Y-24012D01*
X65011Y-23941D01*
X65049Y-23849D01*
X65050Y-23750D01*
X65050Y-26150D01*
X65012Y-26058D01*
X64941Y-25988D01*
X64849Y-25950D01*
X64750Y-25949D01*
X64150Y-25949D01*
X64058Y-25987D01*
X63988Y-26058D01*
X63950Y-26150D01*
X63949Y-26203D01*
X63885Y-26184D01*
X63815Y-26255D01*
X63815Y-26114D01*
X63815Y-23885D01*
X63500Y-23570D01*
X63429Y-23641D01*
X63429Y-23500D01*
X63114Y-23184D01*
X63018Y-23212D01*
X62945Y-23418D01*
X62956Y-23636D01*
X63018Y-23787D01*
X63114Y-23815D01*
X63429Y-23500D01*
X63429Y-23641D01*
X63184Y-23885D01*
X63212Y-23981D01*
X63418Y-24054D01*
X63636Y-24043D01*
X63787Y-23981D01*
X63815Y-23885D01*
X63815Y-26114D01*
X63787Y-26018D01*
X63581Y-25945D01*
X63363Y-25956D01*
X63212Y-26018D01*
X63184Y-26114D01*
X63500Y-26429D01*
X63815Y-26114D01*
X63815Y-26255D01*
X63570Y-26500D01*
X63885Y-26815D01*
X63949Y-26796D01*
X63949Y-26849D01*
X63987Y-26941D01*
X64058Y-27011D01*
X64150Y-27049D01*
X64249Y-27050D01*
X64849Y-27050D01*
X64941Y-27012D01*
X65011Y-26941D01*
X65049Y-26849D01*
X65050Y-26750D01*
X65050Y-29150D01*
X65012Y-29058D01*
X64941Y-28988D01*
X64849Y-28950D01*
X64750Y-28949D01*
X64150Y-28949D01*
X64058Y-28987D01*
X63988Y-29058D01*
X63950Y-29150D01*
X63949Y-29203D01*
X63885Y-29184D01*
X63815Y-29255D01*
X63815Y-29114D01*
X63815Y-26885D01*
X63500Y-26570D01*
X63429Y-26641D01*
X63429Y-26500D01*
X63114Y-26184D01*
X63018Y-26212D01*
X62945Y-26418D01*
X62956Y-26636D01*
X63018Y-26787D01*
X63114Y-26815D01*
X63429Y-26500D01*
X63429Y-26641D01*
X63184Y-26885D01*
X63212Y-26981D01*
X63418Y-27054D01*
X63636Y-27043D01*
X63787Y-26981D01*
X63815Y-26885D01*
X63815Y-29114D01*
X63787Y-29018D01*
X63581Y-28945D01*
X63363Y-28956D01*
X63212Y-29018D01*
X63184Y-29114D01*
X63500Y-29429D01*
X63815Y-29114D01*
X63815Y-29255D01*
X63570Y-29500D01*
X63885Y-29815D01*
X63949Y-29796D01*
X63949Y-29849D01*
X63987Y-29941D01*
X64058Y-30011D01*
X64150Y-30049D01*
X64249Y-30050D01*
X64849Y-30050D01*
X64941Y-30012D01*
X65011Y-29941D01*
X65049Y-29849D01*
X65050Y-29750D01*
X65050Y-33203D01*
X65018Y-33212D01*
X64945Y-33418D01*
X64956Y-33636D01*
X65018Y-33787D01*
X65114Y-33815D01*
X65429Y-33500D01*
X65429Y-33641D01*
X65184Y-33885D01*
X65212Y-33981D01*
X65260Y-33998D01*
X65212Y-34018D01*
X65184Y-34114D01*
X65500Y-34429D01*
X65815Y-34114D01*
X65815Y-34255D01*
X65570Y-34500D01*
X65885Y-34815D01*
X65981Y-34787D01*
X66054Y-34581D01*
X66054Y-35581D01*
X66043Y-35363D01*
X65981Y-35212D01*
X65885Y-35184D01*
X65815Y-35255D01*
X65815Y-35114D01*
X65787Y-35018D01*
X65739Y-35001D01*
X65787Y-34981D01*
X65815Y-34885D01*
X65500Y-34570D01*
X65429Y-34641D01*
X65429Y-34500D01*
X65114Y-34184D01*
X65018Y-34212D01*
X64945Y-34418D01*
X64956Y-34636D01*
X65018Y-34787D01*
X65114Y-34815D01*
X65429Y-34500D01*
X65429Y-34641D01*
X65184Y-34885D01*
X65212Y-34981D01*
X65260Y-34998D01*
X65212Y-35018D01*
X65184Y-35114D01*
X65500Y-35429D01*
X65815Y-35114D01*
X65815Y-35255D01*
X65570Y-35500D01*
X65885Y-35815D01*
X65981Y-35787D01*
X66054Y-35581D01*
X66054Y-36581D01*
X66043Y-36363D01*
X65981Y-36212D01*
X65885Y-36184D01*
X65815Y-36255D01*
X65815Y-36114D01*
X65787Y-36018D01*
X65739Y-36001D01*
X65787Y-35981D01*
X65815Y-35885D01*
X65500Y-35570D01*
X65429Y-35641D01*
X65429Y-35500D01*
X65114Y-35184D01*
X65018Y-35212D01*
X64945Y-35418D01*
X64956Y-35636D01*
X65018Y-35787D01*
X65114Y-35815D01*
X65429Y-35500D01*
X65429Y-35641D01*
X65184Y-35885D01*
X65212Y-35981D01*
X65260Y-35998D01*
X65212Y-36018D01*
X65184Y-36114D01*
X65500Y-36429D01*
X65815Y-36114D01*
X65815Y-36255D01*
X65570Y-36500D01*
X65885Y-36815D01*
X65981Y-36787D01*
X66054Y-36581D01*
X66054Y-41507D01*
X66050Y-41505D01*
X66050Y-37849D01*
X66050Y-37150D01*
X66012Y-37058D01*
X65941Y-36988D01*
X65849Y-36950D01*
X65796Y-36949D01*
X65815Y-36885D01*
X65500Y-36570D01*
X65429Y-36641D01*
X65429Y-36500D01*
X65114Y-36184D01*
X65018Y-36212D01*
X64945Y-36418D01*
X64956Y-36636D01*
X65018Y-36787D01*
X65114Y-36815D01*
X65429Y-36500D01*
X65429Y-36641D01*
X65184Y-36885D01*
X65203Y-36949D01*
X65150Y-36950D01*
X65058Y-36988D01*
X64987Y-37058D01*
X64949Y-37150D01*
X64950Y-37387D01*
X65012Y-37450D01*
X65450Y-37450D01*
X65450Y-37442D01*
X65550Y-37442D01*
X65550Y-37450D01*
X65987Y-37450D01*
X66050Y-37387D01*
X66050Y-37150D01*
X66050Y-37849D01*
X66050Y-37612D01*
X65987Y-37550D01*
X65550Y-37550D01*
X65550Y-37987D01*
X65612Y-38050D01*
X65750Y-38050D01*
X65849Y-38049D01*
X65941Y-38011D01*
X66012Y-37941D01*
X66050Y-37849D01*
X66050Y-41505D01*
X65707Y-41362D01*
X65450Y-41362D01*
X65450Y-37987D01*
X65450Y-37550D01*
X65012Y-37550D01*
X64950Y-37612D01*
X64949Y-37849D01*
X64987Y-37941D01*
X65058Y-38011D01*
X65150Y-38049D01*
X65249Y-38050D01*
X65387Y-38050D01*
X65450Y-37987D01*
X65450Y-41362D01*
X65294Y-41362D01*
X64913Y-41520D01*
X64621Y-41811D01*
X64462Y-42192D01*
X64462Y-42605D01*
X64620Y-42986D01*
X64911Y-43278D01*
X65292Y-43437D01*
X65705Y-43437D01*
X66086Y-43279D01*
X66378Y-42988D01*
X66450Y-42817D01*
X66450Y-43450D01*
M02*
