G04 (created by PCBNEW (2013-05-31 BZR 4019)-stable) date 8/21/2013 10:35:06 AM*
%MOIN*%
G04 Gerber Fmt 3.4, Leading zero omitted, Abs format*
%FSLAX34Y34*%
G01*
G70*
G90*
G04 APERTURE LIST*
%ADD10C,0.00590551*%
%ADD11C,0.011811*%
%ADD12C,0.008*%
%ADD13C,0.005*%
%ADD14C,0.0031*%
%ADD15C,0.012*%
%ADD16C,0.006*%
%ADD17C,0.0075*%
%ADD18C,0.0047*%
%ADD19C,0.0039*%
%ADD20C,0.0059*%
%ADD21C,0.0045*%
%ADD22C,0.01125*%
%ADD23C,0.003*%
G04 APERTURE END LIST*
G54D10*
G54D11*
X52275Y-12514D02*
X52724Y-12514D01*
X52500Y-12739D02*
X52500Y-12289D01*
X40550Y-10239D02*
X40550Y-9648D01*
X40775Y-9648D01*
X40831Y-9676D01*
X40859Y-9704D01*
X40887Y-9760D01*
X40887Y-9845D01*
X40859Y-9901D01*
X40831Y-9929D01*
X40775Y-9957D01*
X40550Y-9957D01*
X41140Y-10239D02*
X41140Y-9648D01*
X41281Y-9648D01*
X41365Y-9676D01*
X41421Y-9732D01*
X41449Y-9789D01*
X41478Y-9901D01*
X41478Y-9985D01*
X41449Y-10098D01*
X41421Y-10154D01*
X41365Y-10210D01*
X41281Y-10239D01*
X41140Y-10239D01*
X39204Y-10239D02*
X39204Y-9648D01*
X39823Y-10239D02*
X39626Y-9957D01*
X39485Y-10239D02*
X39485Y-9648D01*
X39710Y-9648D01*
X39767Y-9676D01*
X39795Y-9704D01*
X39823Y-9760D01*
X39823Y-9845D01*
X39795Y-9901D01*
X39767Y-9929D01*
X39710Y-9957D01*
X39485Y-9957D01*
X38682Y-10239D02*
X38485Y-9957D01*
X38345Y-10239D02*
X38345Y-9648D01*
X38570Y-9648D01*
X38626Y-9676D01*
X38654Y-9704D01*
X38682Y-9760D01*
X38682Y-9845D01*
X38654Y-9901D01*
X38626Y-9929D01*
X38570Y-9957D01*
X38345Y-9957D01*
X46945Y-42710D02*
X47029Y-42739D01*
X47170Y-42739D01*
X47226Y-42710D01*
X47254Y-42682D01*
X47282Y-42626D01*
X47282Y-42570D01*
X47254Y-42514D01*
X47226Y-42485D01*
X47170Y-42457D01*
X47057Y-42429D01*
X47001Y-42401D01*
X46973Y-42373D01*
X46945Y-42317D01*
X46945Y-42260D01*
X46973Y-42204D01*
X47001Y-42176D01*
X47057Y-42148D01*
X47198Y-42148D01*
X47282Y-42176D01*
X47535Y-42739D02*
X47535Y-42148D01*
X47760Y-42148D01*
X47817Y-42176D01*
X47845Y-42204D01*
X47873Y-42260D01*
X47873Y-42345D01*
X47845Y-42401D01*
X47817Y-42429D01*
X47760Y-42457D01*
X47535Y-42457D01*
X48239Y-42148D02*
X48351Y-42148D01*
X48407Y-42176D01*
X48464Y-42232D01*
X48492Y-42345D01*
X48492Y-42542D01*
X48464Y-42654D01*
X48407Y-42710D01*
X48351Y-42739D01*
X48239Y-42739D01*
X48182Y-42710D01*
X48126Y-42654D01*
X48098Y-42542D01*
X48098Y-42345D01*
X48126Y-42232D01*
X48182Y-42176D01*
X48239Y-42148D01*
X48717Y-42204D02*
X48745Y-42176D01*
X48801Y-42148D01*
X48942Y-42148D01*
X48998Y-42176D01*
X49026Y-42204D01*
X49054Y-42260D01*
X49054Y-42317D01*
X49026Y-42401D01*
X48688Y-42739D01*
X49054Y-42739D01*
G54D10*
X22000Y-10500D02*
X25000Y-10500D01*
X25000Y-10500D02*
X25000Y-42500D01*
X25000Y-42500D02*
X22000Y-42500D01*
X22000Y-42500D02*
X22000Y-10500D01*
X25500Y-10500D02*
X28500Y-10500D01*
X28500Y-10500D02*
X28500Y-42500D01*
X28500Y-42500D02*
X25500Y-42500D01*
X25500Y-42500D02*
X25500Y-10500D01*
X29500Y-12000D02*
X29500Y-11000D01*
X29500Y-11000D02*
X32500Y-11000D01*
X32500Y-11000D02*
X32500Y-12000D01*
X32500Y-12000D02*
X29500Y-12000D01*
G54D12*
X61050Y-35300D02*
X62950Y-35300D01*
X62950Y-35300D02*
X62950Y-36700D01*
X62950Y-36700D02*
X61050Y-36700D01*
X61050Y-36700D02*
X61050Y-35300D01*
X61450Y-36450D02*
G75*
G03X61450Y-36450I-150J0D01*
G74*
G01*
G54D13*
X37400Y-20850D02*
X37400Y-20150D01*
X37400Y-20150D02*
X38600Y-20150D01*
X38600Y-20150D02*
X38600Y-20850D01*
X38600Y-20850D02*
X37400Y-20850D01*
G54D14*
X62099Y-15638D02*
G75*
G03X62099Y-15638I-62J0D01*
G74*
G01*
X63000Y-15300D02*
X63000Y-15700D01*
X61975Y-15300D02*
X61975Y-15700D01*
X63000Y-15700D02*
X61975Y-15700D01*
X61975Y-15300D02*
X63000Y-15300D01*
X62099Y-18638D02*
G75*
G03X62099Y-18638I-62J0D01*
G74*
G01*
X63000Y-18300D02*
X63000Y-18700D01*
X61975Y-18300D02*
X61975Y-18700D01*
X63000Y-18700D02*
X61975Y-18700D01*
X61975Y-18300D02*
X63000Y-18300D01*
G54D13*
X37550Y-16220D02*
X37550Y-17780D01*
X37550Y-17780D02*
X39450Y-17780D01*
X39450Y-17780D02*
X39450Y-16220D01*
X39450Y-16220D02*
X37550Y-16220D01*
X37750Y-16220D02*
X37750Y-15790D01*
X38250Y-16220D02*
X38250Y-15790D01*
X38750Y-16220D02*
X38750Y-15790D01*
X39250Y-15790D02*
X39250Y-16220D01*
X39250Y-17780D02*
X39250Y-18210D01*
X38750Y-18210D02*
X38750Y-17780D01*
X38250Y-18210D02*
X38250Y-17780D01*
X37750Y-18210D02*
X37750Y-17780D01*
X38026Y-17490D02*
G75*
G03X38026Y-17490I-186J0D01*
G74*
G01*
X48050Y-15720D02*
X48050Y-17280D01*
X48050Y-17280D02*
X49950Y-17280D01*
X49950Y-17280D02*
X49950Y-15720D01*
X49950Y-15720D02*
X48050Y-15720D01*
X48250Y-15720D02*
X48250Y-15290D01*
X48750Y-15720D02*
X48750Y-15290D01*
X49250Y-15720D02*
X49250Y-15290D01*
X49750Y-15290D02*
X49750Y-15720D01*
X49750Y-17280D02*
X49750Y-17710D01*
X49250Y-17710D02*
X49250Y-17280D01*
X48750Y-17710D02*
X48750Y-17280D01*
X48250Y-17710D02*
X48250Y-17280D01*
X48526Y-16990D02*
G75*
G03X48526Y-16990I-186J0D01*
G74*
G01*
X63750Y-18950D02*
X63750Y-18050D01*
X63750Y-18050D02*
X64250Y-18050D01*
X64250Y-18050D02*
X64250Y-18950D01*
X64250Y-18950D02*
X63750Y-18950D01*
X37250Y-16550D02*
X37250Y-17450D01*
X37250Y-17450D02*
X36750Y-17450D01*
X36750Y-17450D02*
X36750Y-16550D01*
X36750Y-16550D02*
X37250Y-16550D01*
X36250Y-20950D02*
X36250Y-20050D01*
X36250Y-20050D02*
X36750Y-20050D01*
X36750Y-20050D02*
X36750Y-20950D01*
X36750Y-20950D02*
X36250Y-20950D01*
X39750Y-14450D02*
X39750Y-13550D01*
X39750Y-13550D02*
X40250Y-13550D01*
X40250Y-13550D02*
X40250Y-14450D01*
X40250Y-14450D02*
X39750Y-14450D01*
X47750Y-16050D02*
X47750Y-16950D01*
X47750Y-16950D02*
X47250Y-16950D01*
X47250Y-16950D02*
X47250Y-16050D01*
X47250Y-16050D02*
X47750Y-16050D01*
X60750Y-15950D02*
X60750Y-15050D01*
X60750Y-15050D02*
X61250Y-15050D01*
X61250Y-15050D02*
X61250Y-15950D01*
X61250Y-15950D02*
X60750Y-15950D01*
X60750Y-18950D02*
X60750Y-18050D01*
X60750Y-18050D02*
X61250Y-18050D01*
X61250Y-18050D02*
X61250Y-18950D01*
X61250Y-18950D02*
X60750Y-18950D01*
X63750Y-15950D02*
X63750Y-15050D01*
X63750Y-15050D02*
X64250Y-15050D01*
X64250Y-15050D02*
X64250Y-15950D01*
X64250Y-15950D02*
X63750Y-15950D01*
X60250Y-36450D02*
X60250Y-35550D01*
X60250Y-35550D02*
X60750Y-35550D01*
X60750Y-35550D02*
X60750Y-36450D01*
X60750Y-36450D02*
X60250Y-36450D01*
X41450Y-12750D02*
X40550Y-12750D01*
X40550Y-12750D02*
X40550Y-12250D01*
X40550Y-12250D02*
X41450Y-12250D01*
X41450Y-12250D02*
X41450Y-12750D01*
X40750Y-16550D02*
X40750Y-17450D01*
X40750Y-17450D02*
X40250Y-17450D01*
X40250Y-17450D02*
X40250Y-16550D01*
X40250Y-16550D02*
X40750Y-16550D01*
X34250Y-26450D02*
X34250Y-25550D01*
X34250Y-25550D02*
X34750Y-25550D01*
X34750Y-25550D02*
X34750Y-26450D01*
X34750Y-26450D02*
X34250Y-26450D01*
X51450Y-14750D02*
X50550Y-14750D01*
X50550Y-14750D02*
X50550Y-14250D01*
X50550Y-14250D02*
X51450Y-14250D01*
X51450Y-14250D02*
X51450Y-14750D01*
X51450Y-18750D02*
X50550Y-18750D01*
X50550Y-18750D02*
X50550Y-18250D01*
X50550Y-18250D02*
X51450Y-18250D01*
X51450Y-18250D02*
X51450Y-18750D01*
X49050Y-14250D02*
X49950Y-14250D01*
X49950Y-14250D02*
X49950Y-14750D01*
X49950Y-14750D02*
X49050Y-14750D01*
X49050Y-14750D02*
X49050Y-14250D01*
X48550Y-18250D02*
X49450Y-18250D01*
X49450Y-18250D02*
X49450Y-18750D01*
X49450Y-18750D02*
X48550Y-18750D01*
X48550Y-18750D02*
X48550Y-18250D01*
X38450Y-19250D02*
X37550Y-19250D01*
X37550Y-19250D02*
X37550Y-18750D01*
X37550Y-18750D02*
X38450Y-18750D01*
X38450Y-18750D02*
X38450Y-19250D01*
X40250Y-18950D02*
X40250Y-18050D01*
X40250Y-18050D02*
X40750Y-18050D01*
X40750Y-18050D02*
X40750Y-18950D01*
X40750Y-18950D02*
X40250Y-18950D01*
G54D15*
X65000Y-19000D02*
X66000Y-19000D01*
X66000Y-14000D02*
X65000Y-14000D01*
X65000Y-19000D02*
X65000Y-14000D01*
X66000Y-14000D02*
X66000Y-19000D01*
X65000Y-38000D02*
X66000Y-38000D01*
X66000Y-33000D02*
X65000Y-33000D01*
X65000Y-38000D02*
X65000Y-33000D01*
X66000Y-33000D02*
X66000Y-38000D01*
G54D16*
X65000Y-29000D02*
X65000Y-30000D01*
X65000Y-30000D02*
X63000Y-30000D01*
X63000Y-30000D02*
X63000Y-29000D01*
X63000Y-29000D02*
X65000Y-29000D01*
X29500Y-19000D02*
X29500Y-18000D01*
X29500Y-18000D02*
X31500Y-18000D01*
X31500Y-18000D02*
X31500Y-19000D01*
X31500Y-19000D02*
X29500Y-19000D01*
X29500Y-17500D02*
X29500Y-16500D01*
X29500Y-16500D02*
X31500Y-16500D01*
X31500Y-16500D02*
X31500Y-17500D01*
X31500Y-17500D02*
X29500Y-17500D01*
X29500Y-16000D02*
X29500Y-15000D01*
X29500Y-15000D02*
X31500Y-15000D01*
X31500Y-15000D02*
X31500Y-16000D01*
X31500Y-16000D02*
X29500Y-16000D01*
X45500Y-17000D02*
X45500Y-18000D01*
X45500Y-18000D02*
X43500Y-18000D01*
X43500Y-18000D02*
X43500Y-17000D01*
X43500Y-17000D02*
X45500Y-17000D01*
X33500Y-18000D02*
X33500Y-17000D01*
X33500Y-17000D02*
X35500Y-17000D01*
X35500Y-17000D02*
X35500Y-18000D01*
X35500Y-18000D02*
X33500Y-18000D01*
X65000Y-23000D02*
X65000Y-24000D01*
X65000Y-24000D02*
X63000Y-24000D01*
X63000Y-24000D02*
X63000Y-23000D01*
X63000Y-23000D02*
X65000Y-23000D01*
X65000Y-26000D02*
X65000Y-27000D01*
X65000Y-27000D02*
X63000Y-27000D01*
X63000Y-27000D02*
X63000Y-26000D01*
X63000Y-26000D02*
X65000Y-26000D01*
X56500Y-16000D02*
X56500Y-15000D01*
X56500Y-15000D02*
X58500Y-15000D01*
X58500Y-15000D02*
X58500Y-16000D01*
X58500Y-16000D02*
X56500Y-16000D01*
X56500Y-17500D02*
X56500Y-16500D01*
X56500Y-16500D02*
X58500Y-16500D01*
X58500Y-16500D02*
X58500Y-17500D01*
X58500Y-17500D02*
X56500Y-17500D01*
X56500Y-19000D02*
X56500Y-18000D01*
X56500Y-18000D02*
X58500Y-18000D01*
X58500Y-18000D02*
X58500Y-19000D01*
X58500Y-19000D02*
X56500Y-19000D01*
G54D10*
X51500Y-13500D02*
X51500Y-9500D01*
X51500Y-9500D02*
X58500Y-9500D01*
X58500Y-9500D02*
X58500Y-13500D01*
X58500Y-13500D02*
X51500Y-13500D01*
X31500Y-21900D02*
X28950Y-21900D01*
X28950Y-21900D02*
X28600Y-21900D01*
X28600Y-21900D02*
X28600Y-43350D01*
X28600Y-43350D02*
X31500Y-43350D01*
X56500Y-21900D02*
X59200Y-21900D01*
X59200Y-21900D02*
X59200Y-43350D01*
X59200Y-43350D02*
X56500Y-43350D01*
X31500Y-21900D02*
X56500Y-21900D01*
X31500Y-43350D02*
X56500Y-43350D01*
G54D13*
X62250Y-29500D02*
G75*
G03X62250Y-29500I-1250J0D01*
G74*
G01*
X62250Y-23500D02*
G75*
G03X62250Y-23500I-1250J0D01*
G74*
G01*
X62250Y-26500D02*
G75*
G03X62250Y-26500I-1250J0D01*
G74*
G01*
G54D10*
X38000Y-11500D02*
X38000Y-10500D01*
X38000Y-10500D02*
X47000Y-10500D01*
X47000Y-10500D02*
X47000Y-11500D01*
X47000Y-11500D02*
X38000Y-11500D01*
G54D13*
X37700Y-13500D02*
X37700Y-13100D01*
X37700Y-13100D02*
X38300Y-13100D01*
X38300Y-13100D02*
X38300Y-13500D01*
X38300Y-14200D02*
X38100Y-14500D01*
X38300Y-13500D02*
X38300Y-14525D01*
X38300Y-14525D02*
X37700Y-14525D01*
X37700Y-14525D02*
X37700Y-13500D01*
G54D10*
X22700Y-9765D02*
X22700Y-10084D01*
X22718Y-10121D01*
X22737Y-10140D01*
X22775Y-10159D01*
X22850Y-10159D01*
X22887Y-10140D01*
X22906Y-10121D01*
X22925Y-10084D01*
X22925Y-9765D01*
X23093Y-9803D02*
X23112Y-9784D01*
X23149Y-9765D01*
X23243Y-9765D01*
X23281Y-9784D01*
X23299Y-9803D01*
X23318Y-9840D01*
X23318Y-9878D01*
X23299Y-9934D01*
X23074Y-10159D01*
X23318Y-10159D01*
X23875Y-9765D02*
X24006Y-10159D01*
X24137Y-9765D01*
X24268Y-10159D02*
X24268Y-9765D01*
X24681Y-10159D02*
X24550Y-9971D01*
X24456Y-10159D02*
X24456Y-9765D01*
X24606Y-9765D01*
X24643Y-9784D01*
X24662Y-9803D01*
X24681Y-9840D01*
X24681Y-9896D01*
X24662Y-9934D01*
X24643Y-9953D01*
X24606Y-9971D01*
X24456Y-9971D01*
X24793Y-9765D02*
X25018Y-9765D01*
X24906Y-10159D02*
X24906Y-9765D01*
X25149Y-9953D02*
X25281Y-9953D01*
X25337Y-10159D02*
X25149Y-10159D01*
X25149Y-9765D01*
X25337Y-9765D01*
X25468Y-9765D02*
X25731Y-10159D01*
X25731Y-9765D02*
X25468Y-10159D01*
X26068Y-9765D02*
X25881Y-9765D01*
X25862Y-9953D01*
X25881Y-9934D01*
X25918Y-9915D01*
X26012Y-9915D01*
X26049Y-9934D01*
X26068Y-9953D01*
X26087Y-9990D01*
X26087Y-10084D01*
X26068Y-10121D01*
X26049Y-10140D01*
X26012Y-10159D01*
X25918Y-10159D01*
X25881Y-10140D01*
X25862Y-10121D01*
X26200Y-9765D02*
X26200Y-10084D01*
X26218Y-10121D01*
X26237Y-10140D01*
X26275Y-10159D01*
X26350Y-10159D01*
X26387Y-10140D01*
X26406Y-10121D01*
X26425Y-10084D01*
X26425Y-9765D01*
X26574Y-9765D02*
X26818Y-9765D01*
X26687Y-9915D01*
X26743Y-9915D01*
X26781Y-9934D01*
X26799Y-9953D01*
X26818Y-9990D01*
X26818Y-10084D01*
X26799Y-10121D01*
X26781Y-10140D01*
X26743Y-10159D01*
X26631Y-10159D01*
X26593Y-10140D01*
X26574Y-10121D01*
X27375Y-9765D02*
X27506Y-10159D01*
X27637Y-9765D01*
X27768Y-10159D02*
X27768Y-9765D01*
X28181Y-10159D02*
X28050Y-9971D01*
X27956Y-10159D02*
X27956Y-9765D01*
X28106Y-9765D01*
X28143Y-9784D01*
X28162Y-9803D01*
X28181Y-9840D01*
X28181Y-9896D01*
X28162Y-9934D01*
X28143Y-9953D01*
X28106Y-9971D01*
X27956Y-9971D01*
X28293Y-9765D02*
X28518Y-9765D01*
X28406Y-10159D02*
X28406Y-9765D01*
X28649Y-9953D02*
X28781Y-9953D01*
X28837Y-10159D02*
X28649Y-10159D01*
X28649Y-9765D01*
X28837Y-9765D01*
X28968Y-9765D02*
X29231Y-10159D01*
X29231Y-9765D02*
X28968Y-10159D01*
X29568Y-9765D02*
X29381Y-9765D01*
X29362Y-9953D01*
X29381Y-9934D01*
X29418Y-9915D01*
X29512Y-9915D01*
X29549Y-9934D01*
X29568Y-9953D01*
X29587Y-9990D01*
X29587Y-10084D01*
X29568Y-10121D01*
X29549Y-10140D01*
X29512Y-10159D01*
X29418Y-10159D01*
X29381Y-10140D01*
X29362Y-10121D01*
X28265Y-11799D02*
X28584Y-11799D01*
X28621Y-11781D01*
X28640Y-11762D01*
X28659Y-11724D01*
X28659Y-11649D01*
X28640Y-11612D01*
X28621Y-11593D01*
X28584Y-11574D01*
X28265Y-11574D01*
X28265Y-11200D02*
X28265Y-11387D01*
X28453Y-11406D01*
X28434Y-11387D01*
X28415Y-11350D01*
X28415Y-11256D01*
X28434Y-11218D01*
X28453Y-11200D01*
X28490Y-11181D01*
X28584Y-11181D01*
X28621Y-11200D01*
X28640Y-11218D01*
X28659Y-11256D01*
X28659Y-11350D01*
X28640Y-11387D01*
X28621Y-11406D01*
X28765Y-12128D02*
X29084Y-12128D01*
X29121Y-12109D01*
X29140Y-12090D01*
X29159Y-12053D01*
X29159Y-11978D01*
X29140Y-11940D01*
X29121Y-11921D01*
X29084Y-11903D01*
X28765Y-11903D01*
X29046Y-11734D02*
X29046Y-11546D01*
X29159Y-11771D02*
X28765Y-11640D01*
X29159Y-11509D01*
X29159Y-11153D02*
X28971Y-11284D01*
X29159Y-11378D02*
X28765Y-11378D01*
X28765Y-11228D01*
X28784Y-11190D01*
X28803Y-11171D01*
X28840Y-11153D01*
X28896Y-11153D01*
X28934Y-11171D01*
X28953Y-11190D01*
X28971Y-11228D01*
X28971Y-11378D01*
X28765Y-11040D02*
X28765Y-10815D01*
X29159Y-10928D02*
X28765Y-10928D01*
X31784Y-10799D02*
X31765Y-10837D01*
X31765Y-10893D01*
X31784Y-10949D01*
X31821Y-10987D01*
X31859Y-11006D01*
X31934Y-11024D01*
X31990Y-11024D01*
X32065Y-11006D01*
X32103Y-10987D01*
X32140Y-10949D01*
X32159Y-10893D01*
X32159Y-10856D01*
X32140Y-10799D01*
X32121Y-10781D01*
X31990Y-10781D01*
X31990Y-10856D01*
X32159Y-10612D02*
X31765Y-10612D01*
X32159Y-10387D01*
X31765Y-10387D01*
X32159Y-10200D02*
X31765Y-10200D01*
X31765Y-10106D01*
X31784Y-10050D01*
X31821Y-10012D01*
X31859Y-9993D01*
X31934Y-9975D01*
X31990Y-9975D01*
X32065Y-9993D01*
X32103Y-10012D01*
X32140Y-10050D01*
X32159Y-10106D01*
X32159Y-10200D01*
X31159Y-10734D02*
X30971Y-10865D01*
X31159Y-10959D02*
X30765Y-10959D01*
X30765Y-10809D01*
X30784Y-10771D01*
X30803Y-10753D01*
X30840Y-10734D01*
X30896Y-10734D01*
X30934Y-10753D01*
X30953Y-10771D01*
X30971Y-10809D01*
X30971Y-10959D01*
X31159Y-10603D02*
X30896Y-10396D01*
X30896Y-10603D02*
X31159Y-10396D01*
X31159Y-10246D02*
X30765Y-10246D01*
X30765Y-10153D01*
X30784Y-10096D01*
X30821Y-10059D01*
X30859Y-10040D01*
X30934Y-10021D01*
X30990Y-10021D01*
X31065Y-10040D01*
X31103Y-10059D01*
X31140Y-10096D01*
X31159Y-10153D01*
X31159Y-10246D01*
X29765Y-10968D02*
X29765Y-10743D01*
X30159Y-10856D02*
X29765Y-10856D01*
X30159Y-10649D02*
X29896Y-10443D01*
X29896Y-10649D02*
X30159Y-10443D01*
X30159Y-10293D02*
X29765Y-10293D01*
X29765Y-10200D01*
X29784Y-10143D01*
X29821Y-10106D01*
X29859Y-10087D01*
X29934Y-10068D01*
X29990Y-10068D01*
X30065Y-10087D01*
X30103Y-10106D01*
X30140Y-10143D01*
X30159Y-10200D01*
X30159Y-10293D01*
G54D17*
X61771Y-35491D02*
X61771Y-35775D01*
X61785Y-35808D01*
X61800Y-35825D01*
X61828Y-35841D01*
X61885Y-35841D01*
X61914Y-35825D01*
X61928Y-35808D01*
X61942Y-35775D01*
X61942Y-35491D01*
X62128Y-35641D02*
X62100Y-35625D01*
X62085Y-35608D01*
X62071Y-35575D01*
X62071Y-35558D01*
X62085Y-35525D01*
X62100Y-35508D01*
X62128Y-35491D01*
X62185Y-35491D01*
X62214Y-35508D01*
X62228Y-35525D01*
X62242Y-35558D01*
X62242Y-35575D01*
X62228Y-35608D01*
X62214Y-35625D01*
X62185Y-35641D01*
X62128Y-35641D01*
X62100Y-35658D01*
X62085Y-35675D01*
X62071Y-35708D01*
X62071Y-35775D01*
X62085Y-35808D01*
X62100Y-35825D01*
X62128Y-35841D01*
X62185Y-35841D01*
X62214Y-35825D01*
X62228Y-35808D01*
X62242Y-35775D01*
X62242Y-35708D01*
X62228Y-35675D01*
X62214Y-35658D01*
X62185Y-35641D01*
X60928Y-36021D02*
X61100Y-36021D01*
X61014Y-36321D02*
X61014Y-36021D01*
X61185Y-36307D02*
X61228Y-36321D01*
X61300Y-36321D01*
X61328Y-36307D01*
X61342Y-36292D01*
X61357Y-36264D01*
X61357Y-36235D01*
X61342Y-36207D01*
X61328Y-36192D01*
X61300Y-36178D01*
X61242Y-36164D01*
X61214Y-36150D01*
X61200Y-36135D01*
X61185Y-36107D01*
X61185Y-36078D01*
X61200Y-36050D01*
X61214Y-36035D01*
X61242Y-36021D01*
X61314Y-36021D01*
X61357Y-36035D01*
X61457Y-36021D02*
X61642Y-36021D01*
X61542Y-36135D01*
X61585Y-36135D01*
X61614Y-36150D01*
X61628Y-36164D01*
X61642Y-36192D01*
X61642Y-36264D01*
X61628Y-36292D01*
X61614Y-36307D01*
X61585Y-36321D01*
X61500Y-36321D01*
X61471Y-36307D01*
X61457Y-36292D01*
X61757Y-36235D02*
X61900Y-36235D01*
X61728Y-36321D02*
X61828Y-36021D01*
X61928Y-36321D01*
X62157Y-36121D02*
X62157Y-36321D01*
X62085Y-36007D02*
X62014Y-36221D01*
X62200Y-36221D01*
X62285Y-36021D02*
X62485Y-36021D01*
X62357Y-36321D01*
X62742Y-36021D02*
X62600Y-36021D01*
X62585Y-36164D01*
X62600Y-36150D01*
X62628Y-36135D01*
X62700Y-36135D01*
X62728Y-36150D01*
X62742Y-36164D01*
X62757Y-36192D01*
X62757Y-36264D01*
X62742Y-36292D01*
X62728Y-36307D01*
X62700Y-36321D01*
X62628Y-36321D01*
X62600Y-36307D01*
X62585Y-36292D01*
X63042Y-36321D02*
X62871Y-36321D01*
X62957Y-36321D02*
X62957Y-36021D01*
X62928Y-36064D01*
X62899Y-36092D01*
X62871Y-36107D01*
G54D13*
X36985Y-20808D02*
X37187Y-20808D01*
X37211Y-20796D01*
X37223Y-20784D01*
X37235Y-20760D01*
X37235Y-20713D01*
X37223Y-20689D01*
X37211Y-20677D01*
X37187Y-20665D01*
X36985Y-20665D01*
X36985Y-20439D02*
X36985Y-20487D01*
X36997Y-20510D01*
X37009Y-20522D01*
X37044Y-20546D01*
X37092Y-20558D01*
X37187Y-20558D01*
X37211Y-20546D01*
X37223Y-20534D01*
X37235Y-20510D01*
X37235Y-20463D01*
X37223Y-20439D01*
X37211Y-20427D01*
X37187Y-20415D01*
X37128Y-20415D01*
X37104Y-20427D01*
X37092Y-20439D01*
X37080Y-20463D01*
X37080Y-20510D01*
X37092Y-20534D01*
X37104Y-20546D01*
X37128Y-20558D01*
X37214Y-20601D02*
X37214Y-20351D01*
X37297Y-20529D01*
X37380Y-20351D01*
X37380Y-20601D01*
X37488Y-20529D02*
X37607Y-20529D01*
X37464Y-20601D02*
X37547Y-20351D01*
X37630Y-20601D01*
X37690Y-20351D02*
X37857Y-20601D01*
X37857Y-20351D02*
X37690Y-20601D01*
X38059Y-20434D02*
X38059Y-20601D01*
X38000Y-20339D02*
X37940Y-20517D01*
X38095Y-20517D01*
X38309Y-20351D02*
X38190Y-20351D01*
X38178Y-20470D01*
X38190Y-20458D01*
X38214Y-20446D01*
X38273Y-20446D01*
X38297Y-20458D01*
X38309Y-20470D01*
X38321Y-20494D01*
X38321Y-20553D01*
X38309Y-20577D01*
X38297Y-20589D01*
X38273Y-20601D01*
X38214Y-20601D01*
X38190Y-20589D01*
X38178Y-20577D01*
X38440Y-20601D02*
X38488Y-20601D01*
X38511Y-20589D01*
X38523Y-20577D01*
X38547Y-20541D01*
X38559Y-20494D01*
X38559Y-20398D01*
X38547Y-20375D01*
X38535Y-20363D01*
X38511Y-20351D01*
X38464Y-20351D01*
X38440Y-20363D01*
X38428Y-20375D01*
X38416Y-20398D01*
X38416Y-20458D01*
X38428Y-20482D01*
X38440Y-20494D01*
X38464Y-20505D01*
X38511Y-20505D01*
X38535Y-20494D01*
X38547Y-20482D01*
X38559Y-20458D01*
X38773Y-20434D02*
X38773Y-20601D01*
X38714Y-20339D02*
X38654Y-20517D01*
X38809Y-20517D01*
G54D18*
X63108Y-15832D02*
X63351Y-15832D01*
X63379Y-15818D01*
X63394Y-15803D01*
X63408Y-15775D01*
X63408Y-15718D01*
X63394Y-15689D01*
X63379Y-15675D01*
X63351Y-15661D01*
X63108Y-15661D01*
X63408Y-15361D02*
X63408Y-15532D01*
X63408Y-15446D02*
X63108Y-15446D01*
X63151Y-15475D01*
X63179Y-15503D01*
X63194Y-15532D01*
X63137Y-15246D02*
X63122Y-15232D01*
X63108Y-15203D01*
X63108Y-15132D01*
X63122Y-15103D01*
X63137Y-15089D01*
X63165Y-15075D01*
X63194Y-15075D01*
X63237Y-15089D01*
X63408Y-15261D01*
X63408Y-15075D01*
G54D19*
X62037Y-15579D02*
X61971Y-15485D01*
X61924Y-15579D02*
X61924Y-15382D01*
X61999Y-15382D01*
X62018Y-15392D01*
X62027Y-15401D01*
X62037Y-15420D01*
X62037Y-15448D01*
X62027Y-15467D01*
X62018Y-15476D01*
X61999Y-15485D01*
X61924Y-15485D01*
X62121Y-15476D02*
X62187Y-15476D01*
X62215Y-15579D02*
X62121Y-15579D01*
X62121Y-15382D01*
X62215Y-15382D01*
X62365Y-15476D02*
X62299Y-15476D01*
X62299Y-15579D02*
X62299Y-15382D01*
X62393Y-15382D01*
X62449Y-15382D02*
X62571Y-15382D01*
X62506Y-15457D01*
X62534Y-15457D01*
X62553Y-15467D01*
X62562Y-15476D01*
X62571Y-15495D01*
X62571Y-15542D01*
X62562Y-15560D01*
X62553Y-15570D01*
X62534Y-15579D01*
X62478Y-15579D01*
X62459Y-15570D01*
X62449Y-15560D01*
X62637Y-15382D02*
X62759Y-15382D01*
X62693Y-15457D01*
X62722Y-15457D01*
X62740Y-15467D01*
X62750Y-15476D01*
X62759Y-15495D01*
X62759Y-15542D01*
X62750Y-15560D01*
X62740Y-15570D01*
X62722Y-15579D01*
X62665Y-15579D01*
X62646Y-15570D01*
X62637Y-15560D01*
X62947Y-15579D02*
X62834Y-15579D01*
X62890Y-15579D02*
X62890Y-15382D01*
X62872Y-15410D01*
X62853Y-15429D01*
X62834Y-15439D01*
X63022Y-15401D02*
X63031Y-15392D01*
X63050Y-15382D01*
X63097Y-15382D01*
X63116Y-15392D01*
X63125Y-15401D01*
X63134Y-15420D01*
X63134Y-15439D01*
X63125Y-15467D01*
X63012Y-15579D01*
X63134Y-15579D01*
G54D18*
X63108Y-18832D02*
X63351Y-18832D01*
X63379Y-18818D01*
X63394Y-18803D01*
X63408Y-18775D01*
X63408Y-18718D01*
X63394Y-18689D01*
X63379Y-18675D01*
X63351Y-18661D01*
X63108Y-18661D01*
X63408Y-18361D02*
X63408Y-18532D01*
X63408Y-18446D02*
X63108Y-18446D01*
X63151Y-18475D01*
X63179Y-18503D01*
X63194Y-18532D01*
X63408Y-18075D02*
X63408Y-18246D01*
X63408Y-18161D02*
X63108Y-18161D01*
X63151Y-18189D01*
X63179Y-18218D01*
X63194Y-18246D01*
G54D19*
X62037Y-18579D02*
X61971Y-18485D01*
X61924Y-18579D02*
X61924Y-18382D01*
X61999Y-18382D01*
X62018Y-18392D01*
X62027Y-18401D01*
X62037Y-18420D01*
X62037Y-18448D01*
X62027Y-18467D01*
X62018Y-18476D01*
X61999Y-18485D01*
X61924Y-18485D01*
X62121Y-18476D02*
X62187Y-18476D01*
X62215Y-18579D02*
X62121Y-18579D01*
X62121Y-18382D01*
X62215Y-18382D01*
X62365Y-18476D02*
X62299Y-18476D01*
X62299Y-18579D02*
X62299Y-18382D01*
X62393Y-18382D01*
X62449Y-18382D02*
X62571Y-18382D01*
X62506Y-18457D01*
X62534Y-18457D01*
X62553Y-18467D01*
X62562Y-18476D01*
X62571Y-18495D01*
X62571Y-18542D01*
X62562Y-18560D01*
X62553Y-18570D01*
X62534Y-18579D01*
X62478Y-18579D01*
X62459Y-18570D01*
X62449Y-18560D01*
X62637Y-18382D02*
X62759Y-18382D01*
X62693Y-18457D01*
X62722Y-18457D01*
X62740Y-18467D01*
X62750Y-18476D01*
X62759Y-18495D01*
X62759Y-18542D01*
X62750Y-18560D01*
X62740Y-18570D01*
X62722Y-18579D01*
X62665Y-18579D01*
X62646Y-18570D01*
X62637Y-18560D01*
X62834Y-18401D02*
X62843Y-18392D01*
X62862Y-18382D01*
X62909Y-18382D01*
X62928Y-18392D01*
X62937Y-18401D01*
X62947Y-18420D01*
X62947Y-18439D01*
X62937Y-18467D01*
X62825Y-18579D01*
X62947Y-18579D01*
X63125Y-18382D02*
X63031Y-18382D01*
X63022Y-18476D01*
X63031Y-18467D01*
X63050Y-18457D01*
X63097Y-18457D01*
X63116Y-18467D01*
X63125Y-18476D01*
X63134Y-18495D01*
X63134Y-18542D01*
X63125Y-18560D01*
X63116Y-18570D01*
X63097Y-18579D01*
X63050Y-18579D01*
X63031Y-18570D01*
X63022Y-18560D01*
G54D20*
X38275Y-16424D02*
X38275Y-16663D01*
X38289Y-16691D01*
X38303Y-16705D01*
X38331Y-16719D01*
X38387Y-16719D01*
X38415Y-16705D01*
X38429Y-16691D01*
X38443Y-16663D01*
X38443Y-16424D01*
X38738Y-16719D02*
X38570Y-16719D01*
X38654Y-16719D02*
X38654Y-16424D01*
X38626Y-16466D01*
X38598Y-16494D01*
X38570Y-16508D01*
X37636Y-17224D02*
X37692Y-17224D01*
X37720Y-17238D01*
X37748Y-17266D01*
X37762Y-17322D01*
X37762Y-17421D01*
X37748Y-17477D01*
X37720Y-17505D01*
X37692Y-17519D01*
X37636Y-17519D01*
X37607Y-17505D01*
X37579Y-17477D01*
X37565Y-17421D01*
X37565Y-17322D01*
X37579Y-17266D01*
X37607Y-17238D01*
X37636Y-17224D01*
X37888Y-17519D02*
X37888Y-17224D01*
X38001Y-17224D01*
X38029Y-17238D01*
X38043Y-17252D01*
X38057Y-17280D01*
X38057Y-17322D01*
X38043Y-17350D01*
X38029Y-17364D01*
X38001Y-17378D01*
X37888Y-17378D01*
X38169Y-17435D02*
X38310Y-17435D01*
X38141Y-17519D02*
X38240Y-17224D01*
X38338Y-17519D01*
X38422Y-17252D02*
X38436Y-17238D01*
X38464Y-17224D01*
X38535Y-17224D01*
X38563Y-17238D01*
X38577Y-17252D01*
X38591Y-17280D01*
X38591Y-17308D01*
X38577Y-17350D01*
X38408Y-17519D01*
X38591Y-17519D01*
X38689Y-17224D02*
X38872Y-17224D01*
X38773Y-17336D01*
X38816Y-17336D01*
X38844Y-17350D01*
X38858Y-17364D01*
X38872Y-17392D01*
X38872Y-17463D01*
X38858Y-17491D01*
X38844Y-17505D01*
X38816Y-17519D01*
X38731Y-17519D01*
X38703Y-17505D01*
X38689Y-17491D01*
X39153Y-17519D02*
X38984Y-17519D01*
X39068Y-17519D02*
X39068Y-17224D01*
X39040Y-17266D01*
X39012Y-17294D01*
X38984Y-17308D01*
X39406Y-17322D02*
X39406Y-17519D01*
X39335Y-17210D02*
X39265Y-17421D01*
X39448Y-17421D01*
X48634Y-15924D02*
X48634Y-16163D01*
X48648Y-16191D01*
X48662Y-16205D01*
X48690Y-16219D01*
X48747Y-16219D01*
X48775Y-16205D01*
X48789Y-16191D01*
X48803Y-16163D01*
X48803Y-15924D01*
X49098Y-16219D02*
X48929Y-16219D01*
X49014Y-16219D02*
X49014Y-15924D01*
X48985Y-15966D01*
X48957Y-15994D01*
X48929Y-16008D01*
X49196Y-15924D02*
X49379Y-15924D01*
X49280Y-16036D01*
X49323Y-16036D01*
X49351Y-16050D01*
X49365Y-16064D01*
X49379Y-16092D01*
X49379Y-16163D01*
X49365Y-16191D01*
X49351Y-16205D01*
X49323Y-16219D01*
X49238Y-16219D01*
X49210Y-16205D01*
X49196Y-16191D01*
X48107Y-16724D02*
X48276Y-16724D01*
X48192Y-17019D02*
X48192Y-16724D01*
X48515Y-17019D02*
X48374Y-17019D01*
X48374Y-16724D01*
X48571Y-16724D02*
X48669Y-17019D01*
X48768Y-16724D01*
X48838Y-16724D02*
X49021Y-16724D01*
X48922Y-16836D01*
X48964Y-16836D01*
X48992Y-16850D01*
X49007Y-16864D01*
X49021Y-16892D01*
X49021Y-16963D01*
X49007Y-16991D01*
X48992Y-17005D01*
X48964Y-17019D01*
X48880Y-17019D01*
X48852Y-17005D01*
X48838Y-16991D01*
X49133Y-16752D02*
X49147Y-16738D01*
X49175Y-16724D01*
X49245Y-16724D01*
X49273Y-16738D01*
X49287Y-16752D01*
X49302Y-16780D01*
X49302Y-16808D01*
X49287Y-16850D01*
X49119Y-17019D01*
X49302Y-17019D01*
X49484Y-16724D02*
X49512Y-16724D01*
X49540Y-16738D01*
X49554Y-16752D01*
X49568Y-16780D01*
X49582Y-16836D01*
X49582Y-16907D01*
X49568Y-16963D01*
X49554Y-16991D01*
X49540Y-17005D01*
X49512Y-17019D01*
X49484Y-17019D01*
X49456Y-17005D01*
X49442Y-16991D01*
X49428Y-16963D01*
X49414Y-16907D01*
X49414Y-16836D01*
X49428Y-16780D01*
X49442Y-16752D01*
X49456Y-16738D01*
X49484Y-16724D01*
X49695Y-16752D02*
X49709Y-16738D01*
X49737Y-16724D01*
X49807Y-16724D01*
X49835Y-16738D01*
X49849Y-16752D01*
X49863Y-16780D01*
X49863Y-16808D01*
X49849Y-16850D01*
X49681Y-17019D01*
X49863Y-17019D01*
G54D21*
X64061Y-18615D02*
X64071Y-18624D01*
X64080Y-18650D01*
X64080Y-18667D01*
X64071Y-18692D01*
X64052Y-18710D01*
X64033Y-18718D01*
X63995Y-18727D01*
X63966Y-18727D01*
X63928Y-18718D01*
X63909Y-18710D01*
X63890Y-18692D01*
X63880Y-18667D01*
X63880Y-18650D01*
X63890Y-18624D01*
X63900Y-18615D01*
X64080Y-18444D02*
X64080Y-18547D01*
X64080Y-18495D02*
X63880Y-18495D01*
X63909Y-18512D01*
X63928Y-18530D01*
X63938Y-18547D01*
X63900Y-18375D02*
X63890Y-18367D01*
X63880Y-18350D01*
X63880Y-18307D01*
X63890Y-18290D01*
X63900Y-18281D01*
X63919Y-18272D01*
X63938Y-18272D01*
X63966Y-18281D01*
X64080Y-18384D01*
X64080Y-18272D01*
X37061Y-17030D02*
X37071Y-17038D01*
X37080Y-17064D01*
X37080Y-17081D01*
X37071Y-17107D01*
X37052Y-17124D01*
X37033Y-17132D01*
X36995Y-17141D01*
X36966Y-17141D01*
X36928Y-17132D01*
X36909Y-17124D01*
X36890Y-17107D01*
X36880Y-17081D01*
X36880Y-17064D01*
X36890Y-17038D01*
X36900Y-17030D01*
X36947Y-16875D02*
X37080Y-16875D01*
X36871Y-16918D02*
X37014Y-16961D01*
X37014Y-16850D01*
X36561Y-20530D02*
X36571Y-20538D01*
X36580Y-20564D01*
X36580Y-20581D01*
X36571Y-20607D01*
X36552Y-20624D01*
X36533Y-20632D01*
X36495Y-20641D01*
X36466Y-20641D01*
X36428Y-20632D01*
X36409Y-20624D01*
X36390Y-20607D01*
X36380Y-20581D01*
X36380Y-20564D01*
X36390Y-20538D01*
X36400Y-20530D01*
X36380Y-20470D02*
X36380Y-20358D01*
X36457Y-20418D01*
X36457Y-20392D01*
X36466Y-20375D01*
X36476Y-20367D01*
X36495Y-20358D01*
X36542Y-20358D01*
X36561Y-20367D01*
X36571Y-20375D01*
X36580Y-20392D01*
X36580Y-20444D01*
X36571Y-20461D01*
X36561Y-20470D01*
X40061Y-14030D02*
X40071Y-14038D01*
X40080Y-14064D01*
X40080Y-14081D01*
X40071Y-14107D01*
X40052Y-14124D01*
X40033Y-14132D01*
X39995Y-14141D01*
X39966Y-14141D01*
X39928Y-14132D01*
X39909Y-14124D01*
X39890Y-14107D01*
X39880Y-14081D01*
X39880Y-14064D01*
X39890Y-14038D01*
X39900Y-14030D01*
X39880Y-13867D02*
X39880Y-13952D01*
X39976Y-13961D01*
X39966Y-13952D01*
X39957Y-13935D01*
X39957Y-13892D01*
X39966Y-13875D01*
X39976Y-13867D01*
X39995Y-13858D01*
X40042Y-13858D01*
X40061Y-13867D01*
X40071Y-13875D01*
X40080Y-13892D01*
X40080Y-13935D01*
X40071Y-13952D01*
X40061Y-13961D01*
X47561Y-16615D02*
X47571Y-16624D01*
X47580Y-16650D01*
X47580Y-16667D01*
X47571Y-16692D01*
X47552Y-16710D01*
X47533Y-16718D01*
X47495Y-16727D01*
X47466Y-16727D01*
X47428Y-16718D01*
X47409Y-16710D01*
X47390Y-16692D01*
X47380Y-16667D01*
X47380Y-16650D01*
X47390Y-16624D01*
X47400Y-16615D01*
X47580Y-16444D02*
X47580Y-16547D01*
X47580Y-16495D02*
X47380Y-16495D01*
X47409Y-16512D01*
X47428Y-16530D01*
X47438Y-16547D01*
X47447Y-16290D02*
X47580Y-16290D01*
X47371Y-16332D02*
X47514Y-16375D01*
X47514Y-16264D01*
X61061Y-15530D02*
X61071Y-15538D01*
X61080Y-15564D01*
X61080Y-15581D01*
X61071Y-15607D01*
X61052Y-15624D01*
X61033Y-15632D01*
X60995Y-15641D01*
X60966Y-15641D01*
X60928Y-15632D01*
X60909Y-15624D01*
X60890Y-15607D01*
X60880Y-15581D01*
X60880Y-15564D01*
X60890Y-15538D01*
X60900Y-15530D01*
X60966Y-15427D02*
X60957Y-15444D01*
X60947Y-15452D01*
X60928Y-15461D01*
X60919Y-15461D01*
X60900Y-15452D01*
X60890Y-15444D01*
X60880Y-15427D01*
X60880Y-15392D01*
X60890Y-15375D01*
X60900Y-15367D01*
X60919Y-15358D01*
X60928Y-15358D01*
X60947Y-15367D01*
X60957Y-15375D01*
X60966Y-15392D01*
X60966Y-15427D01*
X60976Y-15444D01*
X60985Y-15452D01*
X61004Y-15461D01*
X61042Y-15461D01*
X61061Y-15452D01*
X61071Y-15444D01*
X61080Y-15427D01*
X61080Y-15392D01*
X61071Y-15375D01*
X61061Y-15367D01*
X61042Y-15358D01*
X61004Y-15358D01*
X60985Y-15367D01*
X60976Y-15375D01*
X60966Y-15392D01*
X61061Y-18530D02*
X61071Y-18538D01*
X61080Y-18564D01*
X61080Y-18581D01*
X61071Y-18607D01*
X61052Y-18624D01*
X61033Y-18632D01*
X60995Y-18641D01*
X60966Y-18641D01*
X60928Y-18632D01*
X60909Y-18624D01*
X60890Y-18607D01*
X60880Y-18581D01*
X60880Y-18564D01*
X60890Y-18538D01*
X60900Y-18530D01*
X60880Y-18470D02*
X60880Y-18350D01*
X61080Y-18427D01*
X64061Y-15615D02*
X64071Y-15624D01*
X64080Y-15650D01*
X64080Y-15667D01*
X64071Y-15692D01*
X64052Y-15710D01*
X64033Y-15718D01*
X63995Y-15727D01*
X63966Y-15727D01*
X63928Y-15718D01*
X63909Y-15710D01*
X63890Y-15692D01*
X63880Y-15667D01*
X63880Y-15650D01*
X63890Y-15624D01*
X63900Y-15615D01*
X64080Y-15444D02*
X64080Y-15547D01*
X64080Y-15495D02*
X63880Y-15495D01*
X63909Y-15512D01*
X63928Y-15530D01*
X63938Y-15547D01*
X63880Y-15384D02*
X63880Y-15272D01*
X63957Y-15332D01*
X63957Y-15307D01*
X63966Y-15290D01*
X63976Y-15281D01*
X63995Y-15272D01*
X64042Y-15272D01*
X64061Y-15281D01*
X64071Y-15290D01*
X64080Y-15307D01*
X64080Y-15358D01*
X64071Y-15375D01*
X64061Y-15384D01*
X60561Y-36030D02*
X60571Y-36038D01*
X60580Y-36064D01*
X60580Y-36081D01*
X60571Y-36107D01*
X60552Y-36124D01*
X60533Y-36132D01*
X60495Y-36141D01*
X60466Y-36141D01*
X60428Y-36132D01*
X60409Y-36124D01*
X60390Y-36107D01*
X60380Y-36081D01*
X60380Y-36064D01*
X60390Y-36038D01*
X60400Y-36030D01*
X60380Y-35875D02*
X60380Y-35910D01*
X60390Y-35927D01*
X60400Y-35935D01*
X60428Y-35952D01*
X60466Y-35961D01*
X60542Y-35961D01*
X60561Y-35952D01*
X60571Y-35944D01*
X60580Y-35927D01*
X60580Y-35892D01*
X60571Y-35875D01*
X60561Y-35867D01*
X60542Y-35858D01*
X60495Y-35858D01*
X60476Y-35867D01*
X60466Y-35875D01*
X60457Y-35892D01*
X60457Y-35927D01*
X60466Y-35944D01*
X60476Y-35952D01*
X60495Y-35961D01*
X40970Y-12580D02*
X40910Y-12485D01*
X40867Y-12580D02*
X40867Y-12380D01*
X40935Y-12380D01*
X40952Y-12390D01*
X40961Y-12400D01*
X40970Y-12419D01*
X40970Y-12447D01*
X40961Y-12466D01*
X40952Y-12476D01*
X40935Y-12485D01*
X40867Y-12485D01*
X41038Y-12400D02*
X41047Y-12390D01*
X41064Y-12380D01*
X41107Y-12380D01*
X41124Y-12390D01*
X41132Y-12400D01*
X41141Y-12419D01*
X41141Y-12438D01*
X41132Y-12466D01*
X41030Y-12580D01*
X41141Y-12580D01*
X40580Y-17394D02*
X40485Y-17454D01*
X40580Y-17497D02*
X40380Y-17497D01*
X40380Y-17428D01*
X40390Y-17411D01*
X40400Y-17402D01*
X40419Y-17394D01*
X40447Y-17394D01*
X40466Y-17402D01*
X40476Y-17411D01*
X40485Y-17428D01*
X40485Y-17497D01*
X40580Y-17240D02*
X40380Y-17240D01*
X40571Y-17240D02*
X40580Y-17257D01*
X40580Y-17291D01*
X40571Y-17308D01*
X40561Y-17317D01*
X40542Y-17325D01*
X40485Y-17325D01*
X40466Y-17317D01*
X40457Y-17308D01*
X40447Y-17291D01*
X40447Y-17257D01*
X40457Y-17240D01*
X40580Y-17154D02*
X40447Y-17154D01*
X40380Y-17154D02*
X40390Y-17162D01*
X40400Y-17154D01*
X40390Y-17145D01*
X40380Y-17154D01*
X40400Y-17154D01*
X40580Y-17042D02*
X40571Y-17060D01*
X40561Y-17068D01*
X40542Y-17077D01*
X40485Y-17077D01*
X40466Y-17068D01*
X40457Y-17060D01*
X40447Y-17042D01*
X40447Y-17017D01*
X40457Y-17000D01*
X40466Y-16991D01*
X40485Y-16982D01*
X40542Y-16982D01*
X40561Y-16991D01*
X40571Y-17000D01*
X40580Y-17017D01*
X40580Y-17042D01*
X40580Y-16828D02*
X40380Y-16828D01*
X40571Y-16828D02*
X40580Y-16845D01*
X40580Y-16880D01*
X40571Y-16897D01*
X40561Y-16905D01*
X40542Y-16914D01*
X40485Y-16914D01*
X40466Y-16905D01*
X40457Y-16897D01*
X40447Y-16880D01*
X40447Y-16845D01*
X40457Y-16828D01*
X40571Y-16674D02*
X40580Y-16691D01*
X40580Y-16725D01*
X40571Y-16742D01*
X40552Y-16751D01*
X40476Y-16751D01*
X40457Y-16742D01*
X40447Y-16725D01*
X40447Y-16691D01*
X40457Y-16674D01*
X40476Y-16665D01*
X40495Y-16665D01*
X40514Y-16751D01*
X40580Y-16494D02*
X40580Y-16597D01*
X40580Y-16545D02*
X40380Y-16545D01*
X40409Y-16562D01*
X40428Y-16580D01*
X40438Y-16597D01*
X34561Y-26030D02*
X34571Y-26038D01*
X34580Y-26064D01*
X34580Y-26081D01*
X34571Y-26107D01*
X34552Y-26124D01*
X34533Y-26132D01*
X34495Y-26141D01*
X34466Y-26141D01*
X34428Y-26132D01*
X34409Y-26124D01*
X34390Y-26107D01*
X34380Y-26081D01*
X34380Y-26064D01*
X34390Y-26038D01*
X34400Y-26030D01*
X34580Y-25858D02*
X34580Y-25961D01*
X34580Y-25910D02*
X34380Y-25910D01*
X34409Y-25927D01*
X34428Y-25944D01*
X34438Y-25961D01*
X50610Y-14580D02*
X50550Y-14485D01*
X50507Y-14580D02*
X50507Y-14380D01*
X50575Y-14380D01*
X50592Y-14390D01*
X50601Y-14400D01*
X50610Y-14419D01*
X50610Y-14447D01*
X50601Y-14466D01*
X50592Y-14476D01*
X50575Y-14485D01*
X50507Y-14485D01*
X50764Y-14571D02*
X50747Y-14580D01*
X50712Y-14580D01*
X50695Y-14571D01*
X50687Y-14561D01*
X50678Y-14542D01*
X50678Y-14485D01*
X50687Y-14466D01*
X50695Y-14457D01*
X50712Y-14447D01*
X50747Y-14447D01*
X50764Y-14457D01*
X50867Y-14580D02*
X50850Y-14571D01*
X50841Y-14561D01*
X50832Y-14542D01*
X50832Y-14485D01*
X50841Y-14466D01*
X50850Y-14457D01*
X50867Y-14447D01*
X50892Y-14447D01*
X50910Y-14457D01*
X50918Y-14466D01*
X50927Y-14485D01*
X50927Y-14542D01*
X50918Y-14561D01*
X50910Y-14571D01*
X50892Y-14580D01*
X50867Y-14580D01*
X51004Y-14580D02*
X51004Y-14447D01*
X51004Y-14466D02*
X51012Y-14457D01*
X51030Y-14447D01*
X51055Y-14447D01*
X51072Y-14457D01*
X51081Y-14476D01*
X51081Y-14580D01*
X51081Y-14476D02*
X51090Y-14457D01*
X51107Y-14447D01*
X51132Y-14447D01*
X51150Y-14457D01*
X51158Y-14476D01*
X51158Y-14580D01*
X51244Y-14447D02*
X51244Y-14647D01*
X51244Y-14457D02*
X51261Y-14447D01*
X51295Y-14447D01*
X51312Y-14457D01*
X51321Y-14466D01*
X51330Y-14485D01*
X51330Y-14542D01*
X51321Y-14561D01*
X51312Y-14571D01*
X51295Y-14580D01*
X51261Y-14580D01*
X51244Y-14571D01*
X51398Y-14400D02*
X51407Y-14390D01*
X51424Y-14380D01*
X51467Y-14380D01*
X51484Y-14390D01*
X51492Y-14400D01*
X51501Y-14419D01*
X51501Y-14438D01*
X51492Y-14466D01*
X51390Y-14580D01*
X51501Y-14580D01*
X50610Y-18580D02*
X50550Y-18485D01*
X50507Y-18580D02*
X50507Y-18380D01*
X50575Y-18380D01*
X50592Y-18390D01*
X50601Y-18400D01*
X50610Y-18419D01*
X50610Y-18447D01*
X50601Y-18466D01*
X50592Y-18476D01*
X50575Y-18485D01*
X50507Y-18485D01*
X50764Y-18571D02*
X50747Y-18580D01*
X50712Y-18580D01*
X50695Y-18571D01*
X50687Y-18561D01*
X50678Y-18542D01*
X50678Y-18485D01*
X50687Y-18466D01*
X50695Y-18457D01*
X50712Y-18447D01*
X50747Y-18447D01*
X50764Y-18457D01*
X50867Y-18580D02*
X50850Y-18571D01*
X50841Y-18561D01*
X50832Y-18542D01*
X50832Y-18485D01*
X50841Y-18466D01*
X50850Y-18457D01*
X50867Y-18447D01*
X50892Y-18447D01*
X50910Y-18457D01*
X50918Y-18466D01*
X50927Y-18485D01*
X50927Y-18542D01*
X50918Y-18561D01*
X50910Y-18571D01*
X50892Y-18580D01*
X50867Y-18580D01*
X51004Y-18580D02*
X51004Y-18447D01*
X51004Y-18466D02*
X51012Y-18457D01*
X51030Y-18447D01*
X51055Y-18447D01*
X51072Y-18457D01*
X51081Y-18476D01*
X51081Y-18580D01*
X51081Y-18476D02*
X51090Y-18457D01*
X51107Y-18447D01*
X51132Y-18447D01*
X51150Y-18457D01*
X51158Y-18476D01*
X51158Y-18580D01*
X51244Y-18447D02*
X51244Y-18647D01*
X51244Y-18457D02*
X51261Y-18447D01*
X51295Y-18447D01*
X51312Y-18457D01*
X51321Y-18466D01*
X51330Y-18485D01*
X51330Y-18542D01*
X51321Y-18561D01*
X51312Y-18571D01*
X51295Y-18580D01*
X51261Y-18580D01*
X51244Y-18571D01*
X51501Y-18580D02*
X51398Y-18580D01*
X51450Y-18580D02*
X51450Y-18380D01*
X51432Y-18409D01*
X51415Y-18428D01*
X51398Y-18438D01*
X49110Y-14561D02*
X49101Y-14571D01*
X49075Y-14580D01*
X49058Y-14580D01*
X49032Y-14571D01*
X49015Y-14552D01*
X49007Y-14533D01*
X48998Y-14495D01*
X48998Y-14466D01*
X49007Y-14428D01*
X49015Y-14409D01*
X49032Y-14390D01*
X49058Y-14380D01*
X49075Y-14380D01*
X49101Y-14390D01*
X49110Y-14400D01*
X49264Y-14571D02*
X49247Y-14580D01*
X49212Y-14580D01*
X49195Y-14571D01*
X49187Y-14561D01*
X49178Y-14542D01*
X49178Y-14485D01*
X49187Y-14466D01*
X49195Y-14457D01*
X49212Y-14447D01*
X49247Y-14447D01*
X49264Y-14457D01*
X49367Y-14580D02*
X49350Y-14571D01*
X49341Y-14561D01*
X49332Y-14542D01*
X49332Y-14485D01*
X49341Y-14466D01*
X49350Y-14457D01*
X49367Y-14447D01*
X49392Y-14447D01*
X49410Y-14457D01*
X49418Y-14466D01*
X49427Y-14485D01*
X49427Y-14542D01*
X49418Y-14561D01*
X49410Y-14571D01*
X49392Y-14580D01*
X49367Y-14580D01*
X49504Y-14580D02*
X49504Y-14447D01*
X49504Y-14466D02*
X49512Y-14457D01*
X49530Y-14447D01*
X49555Y-14447D01*
X49572Y-14457D01*
X49581Y-14476D01*
X49581Y-14580D01*
X49581Y-14476D02*
X49590Y-14457D01*
X49607Y-14447D01*
X49632Y-14447D01*
X49650Y-14457D01*
X49658Y-14476D01*
X49658Y-14580D01*
X49744Y-14447D02*
X49744Y-14647D01*
X49744Y-14457D02*
X49761Y-14447D01*
X49795Y-14447D01*
X49812Y-14457D01*
X49821Y-14466D01*
X49830Y-14485D01*
X49830Y-14542D01*
X49821Y-14561D01*
X49812Y-14571D01*
X49795Y-14580D01*
X49761Y-14580D01*
X49744Y-14571D01*
X49898Y-14400D02*
X49907Y-14390D01*
X49924Y-14380D01*
X49967Y-14380D01*
X49984Y-14390D01*
X49992Y-14400D01*
X50001Y-14419D01*
X50001Y-14438D01*
X49992Y-14466D01*
X49890Y-14580D01*
X50001Y-14580D01*
X48610Y-18561D02*
X48601Y-18571D01*
X48575Y-18580D01*
X48558Y-18580D01*
X48532Y-18571D01*
X48515Y-18552D01*
X48507Y-18533D01*
X48498Y-18495D01*
X48498Y-18466D01*
X48507Y-18428D01*
X48515Y-18409D01*
X48532Y-18390D01*
X48558Y-18380D01*
X48575Y-18380D01*
X48601Y-18390D01*
X48610Y-18400D01*
X48764Y-18571D02*
X48747Y-18580D01*
X48712Y-18580D01*
X48695Y-18571D01*
X48687Y-18561D01*
X48678Y-18542D01*
X48678Y-18485D01*
X48687Y-18466D01*
X48695Y-18457D01*
X48712Y-18447D01*
X48747Y-18447D01*
X48764Y-18457D01*
X48867Y-18580D02*
X48850Y-18571D01*
X48841Y-18561D01*
X48832Y-18542D01*
X48832Y-18485D01*
X48841Y-18466D01*
X48850Y-18457D01*
X48867Y-18447D01*
X48892Y-18447D01*
X48910Y-18457D01*
X48918Y-18466D01*
X48927Y-18485D01*
X48927Y-18542D01*
X48918Y-18561D01*
X48910Y-18571D01*
X48892Y-18580D01*
X48867Y-18580D01*
X49004Y-18580D02*
X49004Y-18447D01*
X49004Y-18466D02*
X49012Y-18457D01*
X49030Y-18447D01*
X49055Y-18447D01*
X49072Y-18457D01*
X49081Y-18476D01*
X49081Y-18580D01*
X49081Y-18476D02*
X49090Y-18457D01*
X49107Y-18447D01*
X49132Y-18447D01*
X49150Y-18457D01*
X49158Y-18476D01*
X49158Y-18580D01*
X49244Y-18447D02*
X49244Y-18647D01*
X49244Y-18457D02*
X49261Y-18447D01*
X49295Y-18447D01*
X49312Y-18457D01*
X49321Y-18466D01*
X49330Y-18485D01*
X49330Y-18542D01*
X49321Y-18561D01*
X49312Y-18571D01*
X49295Y-18580D01*
X49261Y-18580D01*
X49244Y-18571D01*
X49501Y-18580D02*
X49398Y-18580D01*
X49450Y-18580D02*
X49450Y-18380D01*
X49432Y-18409D01*
X49415Y-18428D01*
X49398Y-18438D01*
X37918Y-19061D02*
X37910Y-19071D01*
X37884Y-19080D01*
X37867Y-19080D01*
X37841Y-19071D01*
X37824Y-19052D01*
X37815Y-19033D01*
X37807Y-18995D01*
X37807Y-18966D01*
X37815Y-18928D01*
X37824Y-18909D01*
X37841Y-18890D01*
X37867Y-18880D01*
X37884Y-18880D01*
X37910Y-18890D01*
X37918Y-18900D01*
X37970Y-18947D02*
X38038Y-18947D01*
X37995Y-19080D02*
X37995Y-18909D01*
X38004Y-18890D01*
X38021Y-18880D01*
X38038Y-18880D01*
X38192Y-19080D02*
X38090Y-19080D01*
X38141Y-19080D02*
X38141Y-18880D01*
X38124Y-18909D01*
X38107Y-18928D01*
X38090Y-18938D01*
X40580Y-18530D02*
X40485Y-18590D01*
X40580Y-18632D02*
X40380Y-18632D01*
X40380Y-18564D01*
X40390Y-18547D01*
X40400Y-18538D01*
X40419Y-18530D01*
X40447Y-18530D01*
X40466Y-18538D01*
X40476Y-18547D01*
X40485Y-18564D01*
X40485Y-18632D01*
X40380Y-18470D02*
X40380Y-18358D01*
X40457Y-18418D01*
X40457Y-18392D01*
X40466Y-18375D01*
X40476Y-18367D01*
X40495Y-18358D01*
X40542Y-18358D01*
X40561Y-18367D01*
X40571Y-18375D01*
X40580Y-18392D01*
X40580Y-18444D01*
X40571Y-18461D01*
X40561Y-18470D01*
G54D12*
X64661Y-16985D02*
X64261Y-16985D01*
X64261Y-16833D01*
X64280Y-16795D01*
X64300Y-16776D01*
X64338Y-16757D01*
X64395Y-16757D01*
X64433Y-16776D01*
X64452Y-16795D01*
X64471Y-16833D01*
X64471Y-16985D01*
X64661Y-16376D02*
X64661Y-16604D01*
X64661Y-16490D02*
X64261Y-16490D01*
X64319Y-16528D01*
X64357Y-16566D01*
X64376Y-16604D01*
X64261Y-16242D02*
X64261Y-15995D01*
X64414Y-16128D01*
X64414Y-16071D01*
X64433Y-16033D01*
X64452Y-16014D01*
X64490Y-15995D01*
X64585Y-15995D01*
X64623Y-16014D01*
X64642Y-16033D01*
X64661Y-16071D01*
X64661Y-16185D01*
X64642Y-16223D01*
X64623Y-16242D01*
X64661Y-35795D02*
X64261Y-35795D01*
X64261Y-35642D01*
X64280Y-35604D01*
X64300Y-35585D01*
X64338Y-35566D01*
X64395Y-35566D01*
X64433Y-35585D01*
X64452Y-35604D01*
X64471Y-35642D01*
X64471Y-35795D01*
X64661Y-35376D02*
X64661Y-35299D01*
X64642Y-35261D01*
X64623Y-35242D01*
X64566Y-35204D01*
X64490Y-35185D01*
X64338Y-35185D01*
X64300Y-35204D01*
X64280Y-35223D01*
X64261Y-35261D01*
X64261Y-35338D01*
X64280Y-35376D01*
X64300Y-35395D01*
X64338Y-35414D01*
X64433Y-35414D01*
X64471Y-35395D01*
X64490Y-35376D01*
X64509Y-35338D01*
X64509Y-35261D01*
X64490Y-35223D01*
X64471Y-35204D01*
X64433Y-35185D01*
G54D16*
X63635Y-30371D02*
X63635Y-30071D01*
X63750Y-30071D01*
X63778Y-30085D01*
X63792Y-30100D01*
X63807Y-30128D01*
X63807Y-30171D01*
X63792Y-30200D01*
X63778Y-30214D01*
X63750Y-30228D01*
X63635Y-30228D01*
X64092Y-30371D02*
X63921Y-30371D01*
X64007Y-30371D02*
X64007Y-30071D01*
X63978Y-30114D01*
X63950Y-30142D01*
X63921Y-30157D01*
X64207Y-30100D02*
X64221Y-30085D01*
X64250Y-30071D01*
X64321Y-30071D01*
X64350Y-30085D01*
X64364Y-30100D01*
X64378Y-30128D01*
X64378Y-30157D01*
X64364Y-30200D01*
X64192Y-30371D01*
X64378Y-30371D01*
X30278Y-17871D02*
X30278Y-17571D01*
X30392Y-17571D01*
X30421Y-17585D01*
X30435Y-17600D01*
X30450Y-17628D01*
X30450Y-17671D01*
X30435Y-17700D01*
X30421Y-17714D01*
X30392Y-17728D01*
X30278Y-17728D01*
X30707Y-17571D02*
X30650Y-17571D01*
X30621Y-17585D01*
X30607Y-17600D01*
X30578Y-17642D01*
X30564Y-17700D01*
X30564Y-17814D01*
X30578Y-17842D01*
X30592Y-17857D01*
X30621Y-17871D01*
X30678Y-17871D01*
X30707Y-17857D01*
X30721Y-17842D01*
X30735Y-17814D01*
X30735Y-17742D01*
X30721Y-17714D01*
X30707Y-17700D01*
X30678Y-17685D01*
X30621Y-17685D01*
X30592Y-17700D01*
X30578Y-17714D01*
X30564Y-17742D01*
X30278Y-16371D02*
X30278Y-16071D01*
X30392Y-16071D01*
X30421Y-16085D01*
X30435Y-16100D01*
X30450Y-16128D01*
X30450Y-16171D01*
X30435Y-16200D01*
X30421Y-16214D01*
X30392Y-16228D01*
X30278Y-16228D01*
X30721Y-16071D02*
X30578Y-16071D01*
X30564Y-16214D01*
X30578Y-16200D01*
X30607Y-16185D01*
X30678Y-16185D01*
X30707Y-16200D01*
X30721Y-16214D01*
X30735Y-16242D01*
X30735Y-16314D01*
X30721Y-16342D01*
X30707Y-16357D01*
X30678Y-16371D01*
X30607Y-16371D01*
X30578Y-16357D01*
X30564Y-16342D01*
X30278Y-14871D02*
X30278Y-14571D01*
X30392Y-14571D01*
X30421Y-14585D01*
X30435Y-14600D01*
X30450Y-14628D01*
X30450Y-14671D01*
X30435Y-14700D01*
X30421Y-14714D01*
X30392Y-14728D01*
X30278Y-14728D01*
X30707Y-14671D02*
X30707Y-14871D01*
X30635Y-14557D02*
X30564Y-14771D01*
X30750Y-14771D01*
X44278Y-18371D02*
X44278Y-18071D01*
X44392Y-18071D01*
X44421Y-18085D01*
X44435Y-18100D01*
X44450Y-18128D01*
X44450Y-18171D01*
X44435Y-18200D01*
X44421Y-18214D01*
X44392Y-18228D01*
X44278Y-18228D01*
X44621Y-18200D02*
X44592Y-18185D01*
X44578Y-18171D01*
X44564Y-18142D01*
X44564Y-18128D01*
X44578Y-18100D01*
X44592Y-18085D01*
X44621Y-18071D01*
X44678Y-18071D01*
X44707Y-18085D01*
X44721Y-18100D01*
X44735Y-18128D01*
X44735Y-18142D01*
X44721Y-18171D01*
X44707Y-18185D01*
X44678Y-18200D01*
X44621Y-18200D01*
X44592Y-18214D01*
X44578Y-18228D01*
X44564Y-18257D01*
X44564Y-18314D01*
X44578Y-18342D01*
X44592Y-18357D01*
X44621Y-18371D01*
X44678Y-18371D01*
X44707Y-18357D01*
X44721Y-18342D01*
X44735Y-18314D01*
X44735Y-18257D01*
X44721Y-18228D01*
X44707Y-18214D01*
X44678Y-18200D01*
X34278Y-16871D02*
X34278Y-16571D01*
X34392Y-16571D01*
X34421Y-16585D01*
X34435Y-16600D01*
X34450Y-16628D01*
X34450Y-16671D01*
X34435Y-16700D01*
X34421Y-16714D01*
X34392Y-16728D01*
X34278Y-16728D01*
X34550Y-16571D02*
X34750Y-16571D01*
X34621Y-16871D01*
X63635Y-24371D02*
X63635Y-24071D01*
X63750Y-24071D01*
X63778Y-24085D01*
X63792Y-24100D01*
X63807Y-24128D01*
X63807Y-24171D01*
X63792Y-24200D01*
X63778Y-24214D01*
X63750Y-24228D01*
X63635Y-24228D01*
X64092Y-24371D02*
X63921Y-24371D01*
X64007Y-24371D02*
X64007Y-24071D01*
X63978Y-24114D01*
X63950Y-24142D01*
X63921Y-24157D01*
X64278Y-24071D02*
X64307Y-24071D01*
X64335Y-24085D01*
X64350Y-24100D01*
X64364Y-24128D01*
X64378Y-24185D01*
X64378Y-24257D01*
X64364Y-24314D01*
X64350Y-24342D01*
X64335Y-24357D01*
X64307Y-24371D01*
X64278Y-24371D01*
X64250Y-24357D01*
X64235Y-24342D01*
X64221Y-24314D01*
X64207Y-24257D01*
X64207Y-24185D01*
X64221Y-24128D01*
X64235Y-24100D01*
X64250Y-24085D01*
X64278Y-24071D01*
X63635Y-27371D02*
X63635Y-27071D01*
X63750Y-27071D01*
X63778Y-27085D01*
X63792Y-27100D01*
X63807Y-27128D01*
X63807Y-27171D01*
X63792Y-27200D01*
X63778Y-27214D01*
X63750Y-27228D01*
X63635Y-27228D01*
X64092Y-27371D02*
X63921Y-27371D01*
X64007Y-27371D02*
X64007Y-27071D01*
X63978Y-27114D01*
X63950Y-27142D01*
X63921Y-27157D01*
X64378Y-27371D02*
X64207Y-27371D01*
X64292Y-27371D02*
X64292Y-27071D01*
X64264Y-27114D01*
X64235Y-27142D01*
X64207Y-27157D01*
X57278Y-14871D02*
X57278Y-14571D01*
X57392Y-14571D01*
X57421Y-14585D01*
X57435Y-14600D01*
X57450Y-14628D01*
X57450Y-14671D01*
X57435Y-14700D01*
X57421Y-14714D01*
X57392Y-14728D01*
X57278Y-14728D01*
X57735Y-14871D02*
X57564Y-14871D01*
X57650Y-14871D02*
X57650Y-14571D01*
X57621Y-14614D01*
X57592Y-14642D01*
X57564Y-14657D01*
X57278Y-16371D02*
X57278Y-16071D01*
X57392Y-16071D01*
X57421Y-16085D01*
X57435Y-16100D01*
X57450Y-16128D01*
X57450Y-16171D01*
X57435Y-16200D01*
X57421Y-16214D01*
X57392Y-16228D01*
X57278Y-16228D01*
X57564Y-16100D02*
X57578Y-16085D01*
X57607Y-16071D01*
X57678Y-16071D01*
X57707Y-16085D01*
X57721Y-16100D01*
X57735Y-16128D01*
X57735Y-16157D01*
X57721Y-16200D01*
X57550Y-16371D01*
X57735Y-16371D01*
X57278Y-17871D02*
X57278Y-17571D01*
X57392Y-17571D01*
X57421Y-17585D01*
X57435Y-17600D01*
X57450Y-17628D01*
X57450Y-17671D01*
X57435Y-17700D01*
X57421Y-17714D01*
X57392Y-17728D01*
X57278Y-17728D01*
X57550Y-17571D02*
X57735Y-17571D01*
X57635Y-17685D01*
X57678Y-17685D01*
X57707Y-17700D01*
X57721Y-17714D01*
X57735Y-17742D01*
X57735Y-17814D01*
X57721Y-17842D01*
X57707Y-17857D01*
X57678Y-17871D01*
X57592Y-17871D01*
X57564Y-17857D01*
X57550Y-17842D01*
G54D10*
X51765Y-12799D02*
X52084Y-12799D01*
X52121Y-12781D01*
X52140Y-12762D01*
X52159Y-12724D01*
X52159Y-12649D01*
X52140Y-12612D01*
X52121Y-12593D01*
X52084Y-12574D01*
X51765Y-12574D01*
X51896Y-12218D02*
X52159Y-12218D01*
X51746Y-12312D02*
X52028Y-12406D01*
X52028Y-12162D01*
X58121Y-12771D02*
X58140Y-12790D01*
X58159Y-12846D01*
X58159Y-12884D01*
X58140Y-12940D01*
X58103Y-12978D01*
X58065Y-12996D01*
X57990Y-13015D01*
X57934Y-13015D01*
X57859Y-12996D01*
X57821Y-12978D01*
X57784Y-12940D01*
X57765Y-12884D01*
X57765Y-12846D01*
X57784Y-12790D01*
X57803Y-12771D01*
X58121Y-12378D02*
X58140Y-12396D01*
X58159Y-12453D01*
X58159Y-12490D01*
X58140Y-12546D01*
X58103Y-12584D01*
X58065Y-12603D01*
X57990Y-12621D01*
X57934Y-12621D01*
X57859Y-12603D01*
X57821Y-12584D01*
X57784Y-12546D01*
X57765Y-12490D01*
X57765Y-12453D01*
X57784Y-12396D01*
X57803Y-12378D01*
X58159Y-12209D02*
X57765Y-12209D01*
X57765Y-12115D01*
X57784Y-12059D01*
X57821Y-12021D01*
X57859Y-12003D01*
X57934Y-11984D01*
X57990Y-11984D01*
X58065Y-12003D01*
X58103Y-12021D01*
X58140Y-12059D01*
X58159Y-12115D01*
X58159Y-12209D01*
X38700Y-24265D02*
X38700Y-24584D01*
X38718Y-24621D01*
X38737Y-24640D01*
X38775Y-24659D01*
X38850Y-24659D01*
X38887Y-24640D01*
X38906Y-24621D01*
X38925Y-24584D01*
X38925Y-24265D01*
X39074Y-24265D02*
X39337Y-24265D01*
X39168Y-24659D01*
X36584Y-40621D02*
X36565Y-40640D01*
X36509Y-40659D01*
X36472Y-40659D01*
X36415Y-40640D01*
X36378Y-40603D01*
X36359Y-40565D01*
X36340Y-40490D01*
X36340Y-40434D01*
X36359Y-40359D01*
X36378Y-40321D01*
X36415Y-40284D01*
X36472Y-40265D01*
X36509Y-40265D01*
X36565Y-40284D01*
X36584Y-40303D01*
X36978Y-40621D02*
X36959Y-40640D01*
X36903Y-40659D01*
X36865Y-40659D01*
X36809Y-40640D01*
X36772Y-40603D01*
X36753Y-40565D01*
X36734Y-40490D01*
X36734Y-40434D01*
X36753Y-40359D01*
X36772Y-40321D01*
X36809Y-40284D01*
X36865Y-40265D01*
X36903Y-40265D01*
X36959Y-40284D01*
X36978Y-40303D01*
X37128Y-40303D02*
X37146Y-40284D01*
X37184Y-40265D01*
X37278Y-40265D01*
X37315Y-40284D01*
X37334Y-40303D01*
X37353Y-40340D01*
X37353Y-40378D01*
X37334Y-40434D01*
X37109Y-40659D01*
X37353Y-40659D01*
X37709Y-40265D02*
X37521Y-40265D01*
X37503Y-40453D01*
X37521Y-40434D01*
X37559Y-40415D01*
X37653Y-40415D01*
X37690Y-40434D01*
X37709Y-40453D01*
X37728Y-40490D01*
X37728Y-40584D01*
X37709Y-40621D01*
X37690Y-40640D01*
X37653Y-40659D01*
X37559Y-40659D01*
X37521Y-40640D01*
X37503Y-40621D01*
X38065Y-40396D02*
X38065Y-40659D01*
X37971Y-40246D02*
X37878Y-40528D01*
X38121Y-40528D01*
X38478Y-40659D02*
X38253Y-40659D01*
X38365Y-40659D02*
X38365Y-40265D01*
X38328Y-40321D01*
X38290Y-40359D01*
X38253Y-40378D01*
X38778Y-40453D02*
X38834Y-40471D01*
X38853Y-40490D01*
X38871Y-40528D01*
X38871Y-40584D01*
X38853Y-40621D01*
X38834Y-40640D01*
X38796Y-40659D01*
X38646Y-40659D01*
X38646Y-40265D01*
X38778Y-40265D01*
X38815Y-40284D01*
X38834Y-40303D01*
X38853Y-40340D01*
X38853Y-40378D01*
X38834Y-40415D01*
X38815Y-40434D01*
X38778Y-40453D01*
X38646Y-40453D01*
X39265Y-40659D02*
X39134Y-40471D01*
X39040Y-40659D02*
X39040Y-40265D01*
X39190Y-40265D01*
X39227Y-40284D01*
X39246Y-40303D01*
X39265Y-40340D01*
X39265Y-40396D01*
X39246Y-40434D01*
X39227Y-40453D01*
X39190Y-40471D01*
X39040Y-40471D01*
X39434Y-40659D02*
X39434Y-40265D01*
X39659Y-40659D02*
X39490Y-40434D01*
X39659Y-40265D02*
X39434Y-40490D01*
G54D12*
X61739Y-29725D02*
X61760Y-29741D01*
X61782Y-29791D01*
X61782Y-29825D01*
X61760Y-29875D01*
X61717Y-29908D01*
X61675Y-29925D01*
X61589Y-29941D01*
X61525Y-29941D01*
X61439Y-29925D01*
X61396Y-29908D01*
X61353Y-29875D01*
X61332Y-29825D01*
X61332Y-29791D01*
X61353Y-29741D01*
X61375Y-29725D01*
X61782Y-29391D02*
X61782Y-29591D01*
X61782Y-29491D02*
X61332Y-29491D01*
X61396Y-29525D01*
X61439Y-29558D01*
X61460Y-29591D01*
X61332Y-29091D02*
X61332Y-29158D01*
X61353Y-29191D01*
X61375Y-29208D01*
X61439Y-29241D01*
X61525Y-29258D01*
X61696Y-29258D01*
X61739Y-29241D01*
X61760Y-29225D01*
X61782Y-29191D01*
X61782Y-29125D01*
X61760Y-29091D01*
X61739Y-29075D01*
X61696Y-29058D01*
X61589Y-29058D01*
X61546Y-29075D01*
X61525Y-29091D01*
X61503Y-29125D01*
X61503Y-29191D01*
X61525Y-29225D01*
X61546Y-29241D01*
X61589Y-29258D01*
X60282Y-29841D02*
X60582Y-29841D01*
X60110Y-29925D02*
X60432Y-30008D01*
X60432Y-29791D01*
X60539Y-29658D02*
X60560Y-29641D01*
X60582Y-29658D01*
X60560Y-29675D01*
X60539Y-29658D01*
X60582Y-29658D01*
X60132Y-29525D02*
X60132Y-29291D01*
X60582Y-29441D01*
X60282Y-29008D02*
X60582Y-29008D01*
X60282Y-29158D02*
X60517Y-29158D01*
X60560Y-29141D01*
X60582Y-29108D01*
X60582Y-29058D01*
X60560Y-29025D01*
X60539Y-29008D01*
G54D22*
X61010Y-30671D02*
X61010Y-30328D01*
X61182Y-30500D02*
X60839Y-30500D01*
G54D15*
G54D12*
X61739Y-23725D02*
X61760Y-23741D01*
X61782Y-23791D01*
X61782Y-23825D01*
X61760Y-23875D01*
X61717Y-23908D01*
X61675Y-23925D01*
X61589Y-23941D01*
X61525Y-23941D01*
X61439Y-23925D01*
X61396Y-23908D01*
X61353Y-23875D01*
X61332Y-23825D01*
X61332Y-23791D01*
X61353Y-23741D01*
X61375Y-23725D01*
X61782Y-23391D02*
X61782Y-23591D01*
X61782Y-23491D02*
X61332Y-23491D01*
X61396Y-23525D01*
X61439Y-23558D01*
X61460Y-23591D01*
X61782Y-23058D02*
X61782Y-23258D01*
X61782Y-23158D02*
X61332Y-23158D01*
X61396Y-23191D01*
X61439Y-23225D01*
X61460Y-23258D01*
X60282Y-23841D02*
X60582Y-23841D01*
X60110Y-23925D02*
X60432Y-24008D01*
X60432Y-23791D01*
X60539Y-23658D02*
X60560Y-23641D01*
X60582Y-23658D01*
X60560Y-23675D01*
X60539Y-23658D01*
X60582Y-23658D01*
X60132Y-23525D02*
X60132Y-23291D01*
X60582Y-23441D01*
X60282Y-23008D02*
X60582Y-23008D01*
X60282Y-23158D02*
X60517Y-23158D01*
X60560Y-23141D01*
X60582Y-23108D01*
X60582Y-23058D01*
X60560Y-23025D01*
X60539Y-23008D01*
G54D22*
X61010Y-24671D02*
X61010Y-24328D01*
X61182Y-24500D02*
X60839Y-24500D01*
G54D15*
G54D12*
X61739Y-26725D02*
X61760Y-26741D01*
X61782Y-26791D01*
X61782Y-26825D01*
X61760Y-26875D01*
X61717Y-26908D01*
X61675Y-26925D01*
X61589Y-26941D01*
X61525Y-26941D01*
X61439Y-26925D01*
X61396Y-26908D01*
X61353Y-26875D01*
X61332Y-26825D01*
X61332Y-26791D01*
X61353Y-26741D01*
X61375Y-26725D01*
X61782Y-26391D02*
X61782Y-26591D01*
X61782Y-26491D02*
X61332Y-26491D01*
X61396Y-26525D01*
X61439Y-26558D01*
X61460Y-26591D01*
X61332Y-26075D02*
X61332Y-26241D01*
X61546Y-26258D01*
X61525Y-26241D01*
X61503Y-26208D01*
X61503Y-26125D01*
X61525Y-26091D01*
X61546Y-26075D01*
X61589Y-26058D01*
X61696Y-26058D01*
X61739Y-26075D01*
X61760Y-26091D01*
X61782Y-26125D01*
X61782Y-26208D01*
X61760Y-26241D01*
X61739Y-26258D01*
X60282Y-26841D02*
X60582Y-26841D01*
X60110Y-26925D02*
X60432Y-27008D01*
X60432Y-26791D01*
X60539Y-26658D02*
X60560Y-26641D01*
X60582Y-26658D01*
X60560Y-26675D01*
X60539Y-26658D01*
X60582Y-26658D01*
X60132Y-26525D02*
X60132Y-26291D01*
X60582Y-26441D01*
X60282Y-26008D02*
X60582Y-26008D01*
X60282Y-26158D02*
X60517Y-26158D01*
X60560Y-26141D01*
X60582Y-26108D01*
X60582Y-26058D01*
X60560Y-26025D01*
X60539Y-26008D01*
G54D22*
X61010Y-27671D02*
X61010Y-27328D01*
X61182Y-27500D02*
X60839Y-27500D01*
G54D15*
G54D10*
X36765Y-11487D02*
X37084Y-11487D01*
X37121Y-11468D01*
X37140Y-11449D01*
X37159Y-11412D01*
X37159Y-11337D01*
X37140Y-11299D01*
X37121Y-11281D01*
X37084Y-11262D01*
X36765Y-11262D01*
X37159Y-10868D02*
X37159Y-11093D01*
X37159Y-10981D02*
X36765Y-10981D01*
X36821Y-11018D01*
X36859Y-11056D01*
X36878Y-11093D01*
X36765Y-10625D02*
X36765Y-10587D01*
X36784Y-10550D01*
X36803Y-10531D01*
X36840Y-10512D01*
X36915Y-10493D01*
X37009Y-10493D01*
X37084Y-10512D01*
X37121Y-10531D01*
X37140Y-10550D01*
X37159Y-10587D01*
X37159Y-10625D01*
X37140Y-10662D01*
X37121Y-10681D01*
X37084Y-10700D01*
X37009Y-10718D01*
X36915Y-10718D01*
X36840Y-10700D01*
X36803Y-10681D01*
X36784Y-10662D01*
X36765Y-10625D01*
X37640Y-11703D02*
X37659Y-11646D01*
X37659Y-11553D01*
X37640Y-11515D01*
X37621Y-11496D01*
X37584Y-11478D01*
X37546Y-11478D01*
X37509Y-11496D01*
X37490Y-11515D01*
X37471Y-11553D01*
X37453Y-11628D01*
X37434Y-11665D01*
X37415Y-11684D01*
X37378Y-11703D01*
X37340Y-11703D01*
X37303Y-11684D01*
X37284Y-11665D01*
X37265Y-11628D01*
X37265Y-11534D01*
X37284Y-11478D01*
X37659Y-11309D02*
X37265Y-11309D01*
X37265Y-11159D01*
X37284Y-11121D01*
X37303Y-11103D01*
X37340Y-11084D01*
X37396Y-11084D01*
X37434Y-11103D01*
X37453Y-11121D01*
X37471Y-11159D01*
X37471Y-11309D01*
X37265Y-10840D02*
X37265Y-10765D01*
X37284Y-10728D01*
X37321Y-10690D01*
X37396Y-10671D01*
X37528Y-10671D01*
X37603Y-10690D01*
X37640Y-10728D01*
X37659Y-10765D01*
X37659Y-10840D01*
X37640Y-10878D01*
X37603Y-10915D01*
X37528Y-10934D01*
X37396Y-10934D01*
X37321Y-10915D01*
X37284Y-10878D01*
X37265Y-10840D01*
X37303Y-10521D02*
X37284Y-10503D01*
X37265Y-10465D01*
X37265Y-10371D01*
X37284Y-10334D01*
X37303Y-10315D01*
X37340Y-10296D01*
X37378Y-10296D01*
X37434Y-10315D01*
X37659Y-10540D01*
X37659Y-10296D01*
G54D23*
X37771Y-12321D02*
X37771Y-12564D01*
X37785Y-12592D01*
X37800Y-12607D01*
X37828Y-12621D01*
X37885Y-12621D01*
X37914Y-12607D01*
X37928Y-12592D01*
X37942Y-12564D01*
X37942Y-12321D01*
X38100Y-12621D02*
X38157Y-12621D01*
X38185Y-12607D01*
X38200Y-12592D01*
X38228Y-12550D01*
X38242Y-12492D01*
X38242Y-12378D01*
X38228Y-12350D01*
X38214Y-12335D01*
X38185Y-12321D01*
X38128Y-12321D01*
X38100Y-12335D01*
X38085Y-12350D01*
X38071Y-12378D01*
X38071Y-12450D01*
X38085Y-12478D01*
X38100Y-12492D01*
X38128Y-12507D01*
X38185Y-12507D01*
X38214Y-12492D01*
X38228Y-12478D01*
X38242Y-12450D01*
X37882Y-14988D02*
X37882Y-14875D01*
X38079Y-14931D02*
X37882Y-14931D01*
X38079Y-14809D02*
X37882Y-14809D01*
X37882Y-14734D01*
X37892Y-14716D01*
X37901Y-14706D01*
X37920Y-14697D01*
X37948Y-14697D01*
X37967Y-14706D01*
X37976Y-14716D01*
X37985Y-14734D01*
X37985Y-14809D01*
X38079Y-14519D02*
X38079Y-14612D01*
X37882Y-14612D01*
X37882Y-14415D02*
X37882Y-14397D01*
X37892Y-14378D01*
X37901Y-14368D01*
X37920Y-14359D01*
X37957Y-14350D01*
X38004Y-14350D01*
X38042Y-14359D01*
X38060Y-14368D01*
X38070Y-14378D01*
X38079Y-14397D01*
X38079Y-14415D01*
X38070Y-14434D01*
X38060Y-14444D01*
X38042Y-14453D01*
X38004Y-14462D01*
X37957Y-14462D01*
X37920Y-14453D01*
X37901Y-14444D01*
X37892Y-14434D01*
X37882Y-14415D01*
X37882Y-14171D02*
X37882Y-14265D01*
X37976Y-14275D01*
X37967Y-14265D01*
X37957Y-14247D01*
X37957Y-14200D01*
X37967Y-14181D01*
X37976Y-14171D01*
X37995Y-14162D01*
X38042Y-14162D01*
X38060Y-14171D01*
X38070Y-14181D01*
X38079Y-14200D01*
X38079Y-14247D01*
X38070Y-14265D01*
X38060Y-14275D01*
X37882Y-14040D02*
X37882Y-14021D01*
X37892Y-14003D01*
X37901Y-13993D01*
X37920Y-13984D01*
X37957Y-13974D01*
X38004Y-13974D01*
X38042Y-13984D01*
X38060Y-13993D01*
X38070Y-14003D01*
X38079Y-14021D01*
X38079Y-14040D01*
X38070Y-14059D01*
X38060Y-14068D01*
X38042Y-14078D01*
X38004Y-14087D01*
X37957Y-14087D01*
X37920Y-14078D01*
X37901Y-14068D01*
X37892Y-14059D01*
X37882Y-14040D01*
X38079Y-13787D02*
X38079Y-13899D01*
X38079Y-13843D02*
X37882Y-13843D01*
X37910Y-13862D01*
X37929Y-13881D01*
X37939Y-13899D01*
X38004Y-13702D02*
X38004Y-13552D01*
X38079Y-13355D02*
X38079Y-13468D01*
X38079Y-13412D02*
X37882Y-13412D01*
X37910Y-13430D01*
X37929Y-13449D01*
X37939Y-13468D01*
X37882Y-13233D02*
X37882Y-13215D01*
X37892Y-13196D01*
X37901Y-13187D01*
X37920Y-13177D01*
X37957Y-13168D01*
X38004Y-13168D01*
X38042Y-13177D01*
X38060Y-13187D01*
X38070Y-13196D01*
X38079Y-13215D01*
X38079Y-13233D01*
X38070Y-13252D01*
X38060Y-13262D01*
X38042Y-13271D01*
X38004Y-13280D01*
X37957Y-13280D01*
X37920Y-13271D01*
X37901Y-13262D01*
X37892Y-13252D01*
X37882Y-13233D01*
X37882Y-13046D02*
X37882Y-13027D01*
X37892Y-13008D01*
X37901Y-12999D01*
X37920Y-12990D01*
X37957Y-12980D01*
X38004Y-12980D01*
X38042Y-12990D01*
X38060Y-12999D01*
X38070Y-13008D01*
X38079Y-13027D01*
X38079Y-13046D01*
X38070Y-13065D01*
X38060Y-13074D01*
X38042Y-13083D01*
X38004Y-13093D01*
X37957Y-13093D01*
X37920Y-13083D01*
X37901Y-13074D01*
X37892Y-13065D01*
X37882Y-13046D01*
G54D10*
X64912Y-41165D02*
X64912Y-41484D01*
X64931Y-41521D01*
X64950Y-41540D01*
X64987Y-41559D01*
X65062Y-41559D01*
X65100Y-41540D01*
X65118Y-41521D01*
X65137Y-41484D01*
X65137Y-41165D01*
X65531Y-41559D02*
X65306Y-41559D01*
X65418Y-41559D02*
X65418Y-41165D01*
X65381Y-41221D01*
X65343Y-41259D01*
X65306Y-41278D01*
X65868Y-41296D02*
X65868Y-41559D01*
X65774Y-41146D02*
X65681Y-41428D01*
X65924Y-41428D01*
X64450Y-43540D02*
X64506Y-43559D01*
X64600Y-43559D01*
X64637Y-43540D01*
X64656Y-43521D01*
X64675Y-43484D01*
X64675Y-43446D01*
X64656Y-43409D01*
X64637Y-43390D01*
X64600Y-43371D01*
X64525Y-43353D01*
X64487Y-43334D01*
X64468Y-43315D01*
X64450Y-43278D01*
X64450Y-43240D01*
X64468Y-43203D01*
X64487Y-43184D01*
X64525Y-43165D01*
X64618Y-43165D01*
X64675Y-43184D01*
X64843Y-43559D02*
X64843Y-43165D01*
X64993Y-43165D01*
X65031Y-43184D01*
X65050Y-43203D01*
X65068Y-43240D01*
X65068Y-43296D01*
X65050Y-43334D01*
X65031Y-43353D01*
X64993Y-43371D01*
X64843Y-43371D01*
X65218Y-43446D02*
X65406Y-43446D01*
X65181Y-43559D02*
X65312Y-43165D01*
X65443Y-43559D01*
X65799Y-43521D02*
X65781Y-43540D01*
X65724Y-43559D01*
X65687Y-43559D01*
X65631Y-43540D01*
X65593Y-43503D01*
X65574Y-43465D01*
X65556Y-43390D01*
X65556Y-43334D01*
X65574Y-43259D01*
X65593Y-43221D01*
X65631Y-43184D01*
X65687Y-43165D01*
X65724Y-43165D01*
X65781Y-43184D01*
X65799Y-43203D01*
X65968Y-43353D02*
X66099Y-43353D01*
X66156Y-43559D02*
X65968Y-43559D01*
X65968Y-43165D01*
X66156Y-43165D01*
X66549Y-43559D02*
X66418Y-43371D01*
X66324Y-43559D02*
X66324Y-43165D01*
X66474Y-43165D01*
X66512Y-43184D01*
X66531Y-43203D01*
X66549Y-43240D01*
X66549Y-43296D01*
X66531Y-43334D01*
X66512Y-43353D01*
X66474Y-43371D01*
X66324Y-43371D01*
X64912Y-9665D02*
X64912Y-9984D01*
X64931Y-10021D01*
X64950Y-10040D01*
X64987Y-10059D01*
X65062Y-10059D01*
X65100Y-10040D01*
X65118Y-10021D01*
X65137Y-9984D01*
X65137Y-9665D01*
X65531Y-10059D02*
X65306Y-10059D01*
X65418Y-10059D02*
X65418Y-9665D01*
X65381Y-9721D01*
X65343Y-9759D01*
X65306Y-9778D01*
X65887Y-9665D02*
X65699Y-9665D01*
X65681Y-9853D01*
X65699Y-9834D01*
X65737Y-9815D01*
X65831Y-9815D01*
X65868Y-9834D01*
X65887Y-9853D01*
X65906Y-9890D01*
X65906Y-9984D01*
X65887Y-10021D01*
X65868Y-10040D01*
X65831Y-10059D01*
X65737Y-10059D01*
X65699Y-10040D01*
X65681Y-10021D01*
X64450Y-12040D02*
X64506Y-12059D01*
X64600Y-12059D01*
X64637Y-12040D01*
X64656Y-12021D01*
X64675Y-11984D01*
X64675Y-11946D01*
X64656Y-11909D01*
X64637Y-11890D01*
X64600Y-11871D01*
X64525Y-11853D01*
X64487Y-11834D01*
X64468Y-11815D01*
X64450Y-11778D01*
X64450Y-11740D01*
X64468Y-11703D01*
X64487Y-11684D01*
X64525Y-11665D01*
X64618Y-11665D01*
X64675Y-11684D01*
X64843Y-12059D02*
X64843Y-11665D01*
X64993Y-11665D01*
X65031Y-11684D01*
X65050Y-11703D01*
X65068Y-11740D01*
X65068Y-11796D01*
X65050Y-11834D01*
X65031Y-11853D01*
X64993Y-11871D01*
X64843Y-11871D01*
X65218Y-11946D02*
X65406Y-11946D01*
X65181Y-12059D02*
X65312Y-11665D01*
X65443Y-12059D01*
X65799Y-12021D02*
X65781Y-12040D01*
X65724Y-12059D01*
X65687Y-12059D01*
X65631Y-12040D01*
X65593Y-12003D01*
X65574Y-11965D01*
X65556Y-11890D01*
X65556Y-11834D01*
X65574Y-11759D01*
X65593Y-11721D01*
X65631Y-11684D01*
X65687Y-11665D01*
X65724Y-11665D01*
X65781Y-11684D01*
X65799Y-11703D01*
X65968Y-11853D02*
X66099Y-11853D01*
X66156Y-12059D02*
X65968Y-12059D01*
X65968Y-11665D01*
X66156Y-11665D01*
X66549Y-12059D02*
X66418Y-11871D01*
X66324Y-12059D02*
X66324Y-11665D01*
X66474Y-11665D01*
X66512Y-11684D01*
X66531Y-11703D01*
X66549Y-11740D01*
X66549Y-11796D01*
X66531Y-11834D01*
X66512Y-11853D01*
X66474Y-11871D01*
X66324Y-11871D01*
X33412Y-41165D02*
X33412Y-41484D01*
X33431Y-41521D01*
X33450Y-41540D01*
X33487Y-41559D01*
X33562Y-41559D01*
X33600Y-41540D01*
X33618Y-41521D01*
X33637Y-41484D01*
X33637Y-41165D01*
X34031Y-41559D02*
X33806Y-41559D01*
X33918Y-41559D02*
X33918Y-41165D01*
X33881Y-41221D01*
X33843Y-41259D01*
X33806Y-41278D01*
X34368Y-41165D02*
X34293Y-41165D01*
X34256Y-41184D01*
X34237Y-41203D01*
X34199Y-41259D01*
X34181Y-41334D01*
X34181Y-41484D01*
X34199Y-41521D01*
X34218Y-41540D01*
X34256Y-41559D01*
X34331Y-41559D01*
X34368Y-41540D01*
X34387Y-41521D01*
X34406Y-41484D01*
X34406Y-41390D01*
X34387Y-41353D01*
X34368Y-41334D01*
X34331Y-41315D01*
X34256Y-41315D01*
X34218Y-41334D01*
X34199Y-41353D01*
X34181Y-41390D01*
X32950Y-43540D02*
X33006Y-43559D01*
X33100Y-43559D01*
X33137Y-43540D01*
X33156Y-43521D01*
X33175Y-43484D01*
X33175Y-43446D01*
X33156Y-43409D01*
X33137Y-43390D01*
X33100Y-43371D01*
X33025Y-43353D01*
X32987Y-43334D01*
X32968Y-43315D01*
X32950Y-43278D01*
X32950Y-43240D01*
X32968Y-43203D01*
X32987Y-43184D01*
X33025Y-43165D01*
X33118Y-43165D01*
X33175Y-43184D01*
X33343Y-43559D02*
X33343Y-43165D01*
X33493Y-43165D01*
X33531Y-43184D01*
X33550Y-43203D01*
X33568Y-43240D01*
X33568Y-43296D01*
X33550Y-43334D01*
X33531Y-43353D01*
X33493Y-43371D01*
X33343Y-43371D01*
X33718Y-43446D02*
X33906Y-43446D01*
X33681Y-43559D02*
X33812Y-43165D01*
X33943Y-43559D01*
X34299Y-43521D02*
X34281Y-43540D01*
X34224Y-43559D01*
X34187Y-43559D01*
X34131Y-43540D01*
X34093Y-43503D01*
X34074Y-43465D01*
X34056Y-43390D01*
X34056Y-43334D01*
X34074Y-43259D01*
X34093Y-43221D01*
X34131Y-43184D01*
X34187Y-43165D01*
X34224Y-43165D01*
X34281Y-43184D01*
X34299Y-43203D01*
X34468Y-43353D02*
X34599Y-43353D01*
X34656Y-43559D02*
X34468Y-43559D01*
X34468Y-43165D01*
X34656Y-43165D01*
X35049Y-43559D02*
X34918Y-43371D01*
X34824Y-43559D02*
X34824Y-43165D01*
X34974Y-43165D01*
X35012Y-43184D01*
X35031Y-43203D01*
X35049Y-43240D01*
X35049Y-43296D01*
X35031Y-43334D01*
X35012Y-43353D01*
X34974Y-43371D01*
X34824Y-43371D01*
X33412Y-9665D02*
X33412Y-9984D01*
X33431Y-10021D01*
X33450Y-10040D01*
X33487Y-10059D01*
X33562Y-10059D01*
X33600Y-10040D01*
X33618Y-10021D01*
X33637Y-9984D01*
X33637Y-9665D01*
X34031Y-10059D02*
X33806Y-10059D01*
X33918Y-10059D02*
X33918Y-9665D01*
X33881Y-9721D01*
X33843Y-9759D01*
X33806Y-9778D01*
X34162Y-9665D02*
X34424Y-9665D01*
X34256Y-10059D01*
X32950Y-12040D02*
X33006Y-12059D01*
X33100Y-12059D01*
X33137Y-12040D01*
X33156Y-12021D01*
X33175Y-11984D01*
X33175Y-11946D01*
X33156Y-11909D01*
X33137Y-11890D01*
X33100Y-11871D01*
X33025Y-11853D01*
X32987Y-11834D01*
X32968Y-11815D01*
X32950Y-11778D01*
X32950Y-11740D01*
X32968Y-11703D01*
X32987Y-11684D01*
X33025Y-11665D01*
X33118Y-11665D01*
X33175Y-11684D01*
X33343Y-12059D02*
X33343Y-11665D01*
X33493Y-11665D01*
X33531Y-11684D01*
X33550Y-11703D01*
X33568Y-11740D01*
X33568Y-11796D01*
X33550Y-11834D01*
X33531Y-11853D01*
X33493Y-11871D01*
X33343Y-11871D01*
X33718Y-11946D02*
X33906Y-11946D01*
X33681Y-12059D02*
X33812Y-11665D01*
X33943Y-12059D01*
X34299Y-12021D02*
X34281Y-12040D01*
X34224Y-12059D01*
X34187Y-12059D01*
X34131Y-12040D01*
X34093Y-12003D01*
X34074Y-11965D01*
X34056Y-11890D01*
X34056Y-11834D01*
X34074Y-11759D01*
X34093Y-11721D01*
X34131Y-11684D01*
X34187Y-11665D01*
X34224Y-11665D01*
X34281Y-11684D01*
X34299Y-11703D01*
X34468Y-11853D02*
X34599Y-11853D01*
X34656Y-12059D02*
X34468Y-12059D01*
X34468Y-11665D01*
X34656Y-11665D01*
X35049Y-12059D02*
X34918Y-11871D01*
X34824Y-12059D02*
X34824Y-11665D01*
X34974Y-11665D01*
X35012Y-11684D01*
X35031Y-11703D01*
X35049Y-11740D01*
X35049Y-11796D01*
X35031Y-11834D01*
X35012Y-11853D01*
X34974Y-11871D01*
X34824Y-11871D01*
M02*
