M48
INCH,TZ
T1C0.020
T2C0.032
T3C0.040
T4C0.041
T5C0.118
%
G90
G05
T1
X036880Y-021120
X038298Y-015378
X038918Y-016400
X039189Y-021172
X040365Y-022683
X041659Y-016649
X042101Y-022036
X042496Y-016382
X042956Y-023815
X043070Y-022998
X044656Y-016415
X061490Y-035421
X062004Y-019371
X062004Y-036588
T2
X061000Y-023000
X061000Y-024000
X061000Y-026000
X061000Y-027000
X061000Y-029000
X061000Y-030000
T3
X030000Y-015500
X030000Y-017000
X030000Y-018500
X031000Y-015500
X031000Y-017000
X031000Y-018500
X034000Y-017500
X035000Y-017500
X044000Y-017500
X045000Y-017500
X057000Y-015500
X057000Y-017000
X057000Y-018500
X058000Y-015500
X058000Y-017000
X058000Y-018500
X063500Y-023500
X063500Y-026500
X063500Y-029500
X064500Y-023500
X064500Y-026500
X064500Y-029500
X065500Y-014500
X065500Y-015500
X065500Y-016500
X065500Y-017500
X065500Y-018500
X065500Y-033500
X065500Y-034500
X065500Y-035500
X065500Y-036500
X065500Y-037500
T4
X022500Y-011000
X022500Y-012000
X022500Y-013000
X022500Y-014000
X022500Y-015000
X022500Y-016000
X022500Y-017000
X022500Y-018000
X022500Y-019000
X022500Y-020000
X022500Y-021000
X022500Y-022000
X022500Y-023000
X022500Y-024000
X022500Y-025000
X022500Y-026000
X022500Y-027000
X022500Y-028000
X022500Y-029000
X022500Y-030000
X022500Y-031000
X022500Y-032000
X022500Y-033000
X022500Y-034000
X022500Y-035000
X022500Y-036000
X022500Y-037000
X022500Y-038000
X022500Y-039000
X022500Y-040000
X022500Y-041000
X022500Y-042000
X023500Y-011000
X023500Y-012000
X023500Y-013000
X023500Y-014000
X023500Y-015000
X023500Y-016000
X023500Y-017000
X023500Y-018000
X023500Y-019000
X023500Y-020000
X023500Y-021000
X023500Y-022000
X023500Y-023000
X023500Y-024000
X023500Y-025000
X023500Y-026000
X023500Y-027000
X023500Y-028000
X023500Y-029000
X023500Y-030000
X023500Y-031000
X023500Y-032000
X023500Y-033000
X023500Y-034000
X023500Y-035000
X023500Y-036000
X023500Y-037000
X023500Y-038000
X023500Y-039000
X023500Y-040000
X023500Y-041000
X023500Y-042000
X024500Y-011000
X024500Y-012000
X024500Y-013000
X024500Y-014000
X024500Y-015000
X024500Y-016000
X024500Y-017000
X024500Y-018000
X024500Y-019000
X024500Y-020000
X024500Y-021000
X024500Y-022000
X024500Y-023000
X024500Y-024000
X024500Y-025000
X024500Y-026000
X024500Y-027000
X024500Y-028000
X024500Y-029000
X024500Y-030000
X024500Y-031000
X024500Y-032000
X024500Y-033000
X024500Y-034000
X024500Y-035000
X024500Y-036000
X024500Y-037000
X024500Y-038000
X024500Y-039000
X024500Y-040000
X024500Y-041000
X024500Y-042000
X026000Y-011000
X026000Y-012000
X026000Y-013000
X026000Y-014000
X026000Y-015000
X026000Y-016000
X026000Y-017000
X026000Y-018000
X026000Y-019000
X026000Y-020000
X026000Y-021000
X026000Y-022000
X026000Y-023000
X026000Y-024000
X026000Y-025000
X026000Y-026000
X026000Y-027000
X026000Y-028000
X026000Y-029000
X026000Y-030000
X026000Y-031000
X026000Y-032000
X026000Y-033000
X026000Y-034000
X026000Y-035000
X026000Y-036000
X026000Y-037000
X026000Y-038000
X026000Y-039000
X026000Y-040000
X026000Y-041000
X026000Y-042000
X027000Y-011000
X027000Y-012000
X027000Y-013000
X027000Y-014000
X027000Y-015000
X027000Y-016000
X027000Y-017000
X027000Y-018000
X027000Y-019000
X027000Y-020000
X027000Y-021000
X027000Y-022000
X027000Y-023000
X027000Y-024000
X027000Y-025000
X027000Y-026000
X027000Y-027000
X027000Y-028000
X027000Y-029000
X027000Y-030000
X027000Y-031000
X027000Y-032000
X027000Y-033000
X027000Y-034000
X027000Y-035000
X027000Y-036000
X027000Y-037000
X027000Y-038000
X027000Y-039000
X027000Y-040000
X027000Y-041000
X027000Y-042000
X028000Y-011000
X028000Y-012000
X028000Y-013000
X028000Y-014000
X028000Y-015000
X028000Y-016000
X028000Y-017000
X028000Y-018000
X028000Y-019000
X028000Y-020000
X028000Y-021000
X028000Y-022000
X028000Y-023000
X028000Y-024000
X028000Y-025000
X028000Y-026000
X028000Y-027000
X028000Y-028000
X028000Y-029000
X028000Y-030000
X028000Y-031000
X028000Y-032000
X028000Y-033000
X028000Y-034000
X028000Y-035000
X028000Y-036000
X028000Y-037000
X028000Y-038000
X028000Y-039000
X028000Y-040000
X028000Y-041000
X028000Y-042000
X030000Y-011500
X031000Y-011500
X032000Y-011500
X036500Y-025500
X036500Y-026500
X036500Y-027500
X036500Y-028500
X036500Y-029500
X036500Y-030500
X036500Y-031500
X036500Y-032500
X036500Y-033500
X036500Y-034500
X036500Y-035500
X036500Y-036500
X036500Y-037500
X036500Y-038500
X036500Y-039500
X038500Y-011000
X039500Y-011000
X040500Y-011000
X041500Y-011000
X042500Y-011000
X043500Y-011000
X044500Y-011000
X045500Y-011000
X046500Y-011000
X051500Y-025500
X051500Y-026500
X051500Y-027500
X051500Y-028500
X051500Y-029500
X051500Y-030500
X051500Y-031500
X051500Y-032500
X051500Y-033500
X051500Y-034500
X051500Y-035500
X051500Y-036500
X051500Y-037500
X051500Y-038500
X051500Y-039500
X053000Y-011000
X053000Y-012000
X054000Y-011000
X054000Y-012000
X055000Y-011000
X055000Y-012000
X056000Y-011000
X056000Y-012000
X057000Y-011000
X057000Y-012000
T5
X034000Y-010900
X034000Y-042400
X065500Y-010900
X065500Y-042400
T0
M30
