G04 (created by PCBNEW (2013-05-31 BZR 4019)-stable) date 8/21/2013 10:35:06 AM*
%MOIN*%
G04 Gerber Fmt 3.4, Leading zero omitted, Abs format*
%FSLAX34Y34*%
G01*
G70*
G90*
G04 APERTURE LIST*
%ADD10C,0.00590551*%
%ADD11C,0.0629921*%
%ADD12R,0.06X0.06*%
%ADD13C,0.06*%
%ADD14C,0.15748*%
G04 APERTURE END LIST*
G54D10*
G54D11*
X22500Y-18000D03*
X22500Y-19000D03*
X22500Y-17000D03*
X22500Y-13000D03*
X22500Y-14000D03*
X22500Y-12000D03*
X23500Y-30000D03*
X23500Y-29000D03*
X23500Y-28000D03*
X23500Y-27000D03*
X23500Y-31000D03*
X23500Y-32000D03*
X23500Y-33000D03*
X23500Y-34000D03*
X23500Y-42000D03*
X23500Y-41000D03*
X23500Y-40000D03*
X23500Y-39000D03*
X23500Y-35000D03*
X23500Y-36000D03*
X23500Y-37000D03*
X23500Y-38000D03*
X23500Y-22000D03*
X23500Y-21000D03*
X23500Y-20000D03*
X23500Y-19000D03*
X23500Y-23000D03*
X23500Y-24000D03*
X23500Y-25000D03*
X23500Y-26000D03*
X23500Y-18000D03*
X23500Y-17000D03*
X23500Y-16000D03*
X23500Y-15000D03*
X24500Y-11000D03*
X24500Y-12000D03*
X24500Y-13000D03*
X24500Y-14000D03*
X24500Y-15000D03*
X24500Y-16000D03*
X24500Y-17000D03*
X24500Y-18000D03*
X24500Y-19000D03*
X24500Y-20000D03*
X24500Y-21000D03*
X24500Y-22000D03*
X24500Y-23000D03*
X24500Y-24000D03*
X24500Y-25000D03*
X24500Y-26000D03*
X24500Y-27000D03*
X24500Y-28000D03*
X24500Y-29000D03*
X24500Y-30000D03*
X24500Y-31000D03*
X24500Y-32000D03*
X24500Y-33000D03*
X24500Y-34000D03*
X24500Y-35000D03*
X24500Y-36000D03*
X24500Y-37000D03*
X24500Y-38000D03*
X24500Y-39000D03*
X24500Y-40000D03*
X24500Y-41000D03*
X24500Y-42000D03*
X23500Y-11000D03*
X23500Y-12000D03*
X23500Y-13000D03*
X23500Y-14000D03*
X22500Y-11000D03*
X22500Y-15000D03*
X22500Y-16000D03*
X22500Y-20000D03*
X22500Y-21000D03*
X22500Y-22000D03*
X22500Y-23000D03*
X22500Y-24000D03*
X22500Y-25000D03*
X22500Y-26000D03*
X22500Y-27000D03*
X22500Y-28000D03*
X22500Y-29000D03*
X22500Y-30000D03*
X22500Y-31000D03*
X22500Y-32000D03*
X22500Y-33000D03*
X22500Y-34000D03*
X22500Y-35000D03*
X22500Y-36000D03*
X22500Y-37000D03*
X22500Y-38000D03*
X22500Y-39000D03*
X22500Y-40000D03*
X22500Y-41000D03*
X22500Y-42000D03*
X26000Y-18000D03*
X26000Y-19000D03*
X26000Y-17000D03*
X26000Y-13000D03*
X26000Y-14000D03*
X26000Y-12000D03*
X27000Y-30000D03*
X27000Y-29000D03*
X27000Y-28000D03*
X27000Y-27000D03*
X27000Y-31000D03*
X27000Y-32000D03*
X27000Y-33000D03*
X27000Y-34000D03*
X27000Y-42000D03*
X27000Y-41000D03*
X27000Y-40000D03*
X27000Y-39000D03*
X27000Y-35000D03*
X27000Y-36000D03*
X27000Y-37000D03*
X27000Y-38000D03*
X27000Y-22000D03*
X27000Y-21000D03*
X27000Y-20000D03*
X27000Y-19000D03*
X27000Y-23000D03*
X27000Y-24000D03*
X27000Y-25000D03*
X27000Y-26000D03*
X27000Y-18000D03*
X27000Y-17000D03*
X27000Y-16000D03*
X27000Y-15000D03*
X28000Y-11000D03*
X28000Y-12000D03*
X28000Y-13000D03*
X28000Y-14000D03*
X28000Y-15000D03*
X28000Y-16000D03*
X28000Y-17000D03*
X28000Y-18000D03*
X28000Y-19000D03*
X28000Y-20000D03*
X28000Y-21000D03*
X28000Y-22000D03*
X28000Y-23000D03*
X28000Y-24000D03*
X28000Y-25000D03*
X28000Y-26000D03*
X28000Y-27000D03*
X28000Y-28000D03*
X28000Y-29000D03*
X28000Y-30000D03*
X28000Y-31000D03*
X28000Y-32000D03*
X28000Y-33000D03*
X28000Y-34000D03*
X28000Y-35000D03*
X28000Y-36000D03*
X28000Y-37000D03*
X28000Y-38000D03*
X28000Y-39000D03*
X28000Y-40000D03*
X28000Y-41000D03*
X28000Y-42000D03*
X27000Y-11000D03*
X27000Y-12000D03*
X27000Y-13000D03*
X27000Y-14000D03*
X26000Y-11000D03*
X26000Y-15000D03*
X26000Y-16000D03*
X26000Y-20000D03*
X26000Y-21000D03*
X26000Y-22000D03*
X26000Y-23000D03*
X26000Y-24000D03*
X26000Y-25000D03*
X26000Y-26000D03*
X26000Y-27000D03*
X26000Y-28000D03*
X26000Y-29000D03*
X26000Y-30000D03*
X26000Y-31000D03*
X26000Y-32000D03*
X26000Y-33000D03*
X26000Y-34000D03*
X26000Y-35000D03*
X26000Y-36000D03*
X26000Y-37000D03*
X26000Y-38000D03*
X26000Y-39000D03*
X26000Y-40000D03*
X26000Y-41000D03*
X26000Y-42000D03*
X30000Y-11500D03*
X31000Y-11500D03*
X32000Y-11500D03*
G54D12*
X65500Y-18500D03*
G54D13*
X65500Y-17500D03*
X65500Y-16500D03*
X65500Y-15500D03*
X65500Y-14500D03*
G54D12*
X65500Y-37500D03*
G54D13*
X65500Y-36500D03*
X65500Y-35500D03*
X65500Y-34500D03*
X65500Y-33500D03*
G54D12*
X64500Y-29500D03*
G54D13*
X63500Y-29500D03*
G54D12*
X30000Y-18500D03*
G54D13*
X31000Y-18500D03*
G54D12*
X30000Y-17000D03*
G54D13*
X31000Y-17000D03*
G54D12*
X30000Y-15500D03*
G54D13*
X31000Y-15500D03*
G54D12*
X45000Y-17500D03*
G54D13*
X44000Y-17500D03*
G54D12*
X34000Y-17500D03*
G54D13*
X35000Y-17500D03*
G54D12*
X64500Y-23500D03*
G54D13*
X63500Y-23500D03*
G54D12*
X64500Y-26500D03*
G54D13*
X63500Y-26500D03*
G54D12*
X57000Y-15500D03*
G54D13*
X58000Y-15500D03*
G54D12*
X57000Y-17000D03*
G54D13*
X58000Y-17000D03*
G54D12*
X57000Y-18500D03*
G54D13*
X58000Y-18500D03*
G54D11*
X53000Y-12000D03*
X53000Y-11000D03*
X54000Y-12000D03*
X54000Y-11000D03*
X55000Y-12000D03*
X55000Y-11000D03*
X56000Y-12000D03*
X56000Y-11000D03*
X57000Y-12000D03*
X57000Y-11000D03*
X36500Y-25500D03*
X36500Y-26500D03*
X36500Y-27500D03*
X36500Y-28500D03*
X36500Y-29500D03*
X36500Y-30500D03*
X36500Y-31500D03*
X36500Y-32500D03*
X36500Y-33500D03*
X36500Y-34500D03*
X36500Y-35500D03*
X36500Y-36500D03*
X36500Y-37500D03*
X36500Y-38500D03*
X36500Y-39500D03*
X51500Y-39500D03*
X51500Y-38500D03*
X51500Y-37500D03*
X51500Y-36500D03*
X51500Y-35500D03*
X51500Y-34500D03*
X51500Y-33500D03*
X51500Y-32500D03*
X51500Y-31500D03*
X51500Y-30500D03*
X51500Y-29500D03*
X51500Y-28500D03*
X51500Y-27500D03*
X51500Y-26500D03*
X51500Y-25500D03*
G54D12*
X61000Y-30000D03*
G54D13*
X61000Y-29000D03*
G54D12*
X61000Y-24000D03*
G54D13*
X61000Y-23000D03*
G54D12*
X61000Y-27000D03*
G54D13*
X61000Y-26000D03*
G54D11*
X38500Y-11000D03*
X39500Y-11000D03*
X40500Y-11000D03*
X41500Y-11000D03*
X42500Y-11000D03*
X43500Y-11000D03*
X44500Y-11000D03*
X45500Y-11000D03*
X46500Y-11000D03*
G54D14*
X65500Y-42400D03*
X65500Y-10900D03*
X34000Y-42400D03*
X34000Y-10900D03*
M02*
