G04 (created by PCBNEW (2013-05-31 BZR 4019)-stable) date 8/21/2013 10:35:06 AM*
%MOIN*%
G04 Gerber Fmt 3.4, Leading zero omitted, Abs format*
%FSLAX34Y34*%
G01*
G70*
G90*
G04 APERTURE LIST*
%ADD10C,0.00590551*%
%ADD11C,0.011811*%
%ADD12C,0.0629921*%
%ADD13R,0.017X0.055*%
%ADD14R,0.02X0.03*%
%ADD15R,0.0315X0.0394*%
%ADD16R,0.025X0.05*%
%ADD17R,0.045X0.025*%
%ADD18R,0.025X0.045*%
%ADD19R,0.06X0.06*%
%ADD20C,0.06*%
%ADD21R,0.0394X0.0276*%
%ADD22C,0.15748*%
G04 APERTURE END LIST*
G54D10*
G54D11*
X65212Y-29148D02*
X65409Y-29739D01*
X65606Y-29148D01*
X65803Y-29739D02*
X65803Y-29148D01*
X66028Y-29148D01*
X66084Y-29176D01*
X66112Y-29204D01*
X66140Y-29260D01*
X66140Y-29345D01*
X66112Y-29401D01*
X66084Y-29429D01*
X66028Y-29457D01*
X65803Y-29457D01*
X66393Y-29739D02*
X66393Y-29148D01*
X66618Y-29148D01*
X66674Y-29176D01*
X66703Y-29204D01*
X66731Y-29260D01*
X66731Y-29345D01*
X66703Y-29401D01*
X66674Y-29429D01*
X66618Y-29457D01*
X66393Y-29457D01*
X65296Y-26148D02*
X65493Y-26739D01*
X65690Y-26148D01*
X65859Y-26570D02*
X66140Y-26570D01*
X65803Y-26739D02*
X66000Y-26148D01*
X66196Y-26739D01*
X66365Y-26570D02*
X66646Y-26570D01*
X66309Y-26739D02*
X66506Y-26148D01*
X66703Y-26739D01*
X65212Y-23148D02*
X65409Y-23739D01*
X65606Y-23148D01*
X65803Y-23739D02*
X65803Y-23148D01*
X65943Y-23148D01*
X66028Y-23176D01*
X66084Y-23232D01*
X66112Y-23289D01*
X66140Y-23401D01*
X66140Y-23485D01*
X66112Y-23598D01*
X66084Y-23654D01*
X66028Y-23710D01*
X65943Y-23739D01*
X65803Y-23739D01*
X66393Y-23739D02*
X66393Y-23148D01*
X66534Y-23148D01*
X66618Y-23176D01*
X66674Y-23232D01*
X66703Y-23289D01*
X66731Y-23401D01*
X66731Y-23485D01*
X66703Y-23598D01*
X66674Y-23654D01*
X66618Y-23710D01*
X66534Y-23739D01*
X66393Y-23739D01*
G54D12*
X22500Y-18000D03*
X22500Y-19000D03*
X22500Y-17000D03*
X22500Y-13000D03*
X22500Y-14000D03*
X22500Y-12000D03*
X23500Y-30000D03*
X23500Y-29000D03*
X23500Y-28000D03*
X23500Y-27000D03*
X23500Y-31000D03*
X23500Y-32000D03*
X23500Y-33000D03*
X23500Y-34000D03*
X23500Y-42000D03*
X23500Y-41000D03*
X23500Y-40000D03*
X23500Y-39000D03*
X23500Y-35000D03*
X23500Y-36000D03*
X23500Y-37000D03*
X23500Y-38000D03*
X23500Y-22000D03*
X23500Y-21000D03*
X23500Y-20000D03*
X23500Y-19000D03*
X23500Y-23000D03*
X23500Y-24000D03*
X23500Y-25000D03*
X23500Y-26000D03*
X23500Y-18000D03*
X23500Y-17000D03*
X23500Y-16000D03*
X23500Y-15000D03*
X24500Y-11000D03*
X24500Y-12000D03*
X24500Y-13000D03*
X24500Y-14000D03*
X24500Y-15000D03*
X24500Y-16000D03*
X24500Y-17000D03*
X24500Y-18000D03*
X24500Y-19000D03*
X24500Y-20000D03*
X24500Y-21000D03*
X24500Y-22000D03*
X24500Y-23000D03*
X24500Y-24000D03*
X24500Y-25000D03*
X24500Y-26000D03*
X24500Y-27000D03*
X24500Y-28000D03*
X24500Y-29000D03*
X24500Y-30000D03*
X24500Y-31000D03*
X24500Y-32000D03*
X24500Y-33000D03*
X24500Y-34000D03*
X24500Y-35000D03*
X24500Y-36000D03*
X24500Y-37000D03*
X24500Y-38000D03*
X24500Y-39000D03*
X24500Y-40000D03*
X24500Y-41000D03*
X24500Y-42000D03*
X23500Y-11000D03*
X23500Y-12000D03*
X23500Y-13000D03*
X23500Y-14000D03*
X22500Y-11000D03*
X22500Y-15000D03*
X22500Y-16000D03*
X22500Y-20000D03*
X22500Y-21000D03*
X22500Y-22000D03*
X22500Y-23000D03*
X22500Y-24000D03*
X22500Y-25000D03*
X22500Y-26000D03*
X22500Y-27000D03*
X22500Y-28000D03*
X22500Y-29000D03*
X22500Y-30000D03*
X22500Y-31000D03*
X22500Y-32000D03*
X22500Y-33000D03*
X22500Y-34000D03*
X22500Y-35000D03*
X22500Y-36000D03*
X22500Y-37000D03*
X22500Y-38000D03*
X22500Y-39000D03*
X22500Y-40000D03*
X22500Y-41000D03*
X22500Y-42000D03*
X26000Y-18000D03*
X26000Y-19000D03*
X26000Y-17000D03*
X26000Y-13000D03*
X26000Y-14000D03*
X26000Y-12000D03*
X27000Y-30000D03*
X27000Y-29000D03*
X27000Y-28000D03*
X27000Y-27000D03*
X27000Y-31000D03*
X27000Y-32000D03*
X27000Y-33000D03*
X27000Y-34000D03*
X27000Y-42000D03*
X27000Y-41000D03*
X27000Y-40000D03*
X27000Y-39000D03*
X27000Y-35000D03*
X27000Y-36000D03*
X27000Y-37000D03*
X27000Y-38000D03*
X27000Y-22000D03*
X27000Y-21000D03*
X27000Y-20000D03*
X27000Y-19000D03*
X27000Y-23000D03*
X27000Y-24000D03*
X27000Y-25000D03*
X27000Y-26000D03*
X27000Y-18000D03*
X27000Y-17000D03*
X27000Y-16000D03*
X27000Y-15000D03*
X28000Y-11000D03*
X28000Y-12000D03*
X28000Y-13000D03*
X28000Y-14000D03*
X28000Y-15000D03*
X28000Y-16000D03*
X28000Y-17000D03*
X28000Y-18000D03*
X28000Y-19000D03*
X28000Y-20000D03*
X28000Y-21000D03*
X28000Y-22000D03*
X28000Y-23000D03*
X28000Y-24000D03*
X28000Y-25000D03*
X28000Y-26000D03*
X28000Y-27000D03*
X28000Y-28000D03*
X28000Y-29000D03*
X28000Y-30000D03*
X28000Y-31000D03*
X28000Y-32000D03*
X28000Y-33000D03*
X28000Y-34000D03*
X28000Y-35000D03*
X28000Y-36000D03*
X28000Y-37000D03*
X28000Y-38000D03*
X28000Y-39000D03*
X28000Y-40000D03*
X28000Y-41000D03*
X28000Y-42000D03*
X27000Y-11000D03*
X27000Y-12000D03*
X27000Y-13000D03*
X27000Y-14000D03*
X26000Y-11000D03*
X26000Y-15000D03*
X26000Y-16000D03*
X26000Y-20000D03*
X26000Y-21000D03*
X26000Y-22000D03*
X26000Y-23000D03*
X26000Y-24000D03*
X26000Y-25000D03*
X26000Y-26000D03*
X26000Y-27000D03*
X26000Y-28000D03*
X26000Y-29000D03*
X26000Y-30000D03*
X26000Y-31000D03*
X26000Y-32000D03*
X26000Y-33000D03*
X26000Y-34000D03*
X26000Y-35000D03*
X26000Y-36000D03*
X26000Y-37000D03*
X26000Y-38000D03*
X26000Y-39000D03*
X26000Y-40000D03*
X26000Y-41000D03*
X26000Y-42000D03*
X30000Y-11500D03*
X31000Y-11500D03*
X32000Y-11500D03*
G54D13*
X61240Y-37100D03*
X61490Y-37100D03*
X61750Y-37100D03*
X62000Y-37100D03*
X62260Y-37100D03*
X62515Y-37100D03*
X62770Y-37100D03*
X62770Y-34900D03*
X62515Y-34900D03*
X62260Y-34900D03*
X62000Y-34900D03*
X61745Y-34900D03*
X61490Y-34900D03*
X61235Y-34900D03*
G54D14*
X38375Y-20000D03*
X37625Y-20000D03*
X38375Y-21000D03*
X38000Y-20000D03*
X37625Y-21000D03*
G54D15*
X62500Y-15067D03*
X62875Y-15933D03*
X62125Y-15933D03*
X62500Y-18067D03*
X62875Y-18933D03*
X62125Y-18933D03*
G54D16*
X37750Y-18100D03*
X38250Y-18100D03*
X38750Y-18100D03*
X39250Y-18100D03*
X39250Y-15900D03*
X38750Y-15900D03*
X38250Y-15900D03*
X37750Y-15900D03*
X48250Y-17600D03*
X48750Y-17600D03*
X49250Y-17600D03*
X49750Y-17600D03*
X49750Y-15400D03*
X49250Y-15400D03*
X48750Y-15400D03*
X48250Y-15400D03*
G54D17*
X64000Y-18800D03*
X64000Y-18200D03*
X37000Y-16700D03*
X37000Y-17300D03*
X36500Y-20800D03*
X36500Y-20200D03*
X40000Y-14300D03*
X40000Y-13700D03*
X47500Y-16200D03*
X47500Y-16800D03*
X61000Y-15800D03*
X61000Y-15200D03*
X61000Y-18800D03*
X61000Y-18200D03*
X64000Y-15800D03*
X64000Y-15200D03*
X60500Y-36300D03*
X60500Y-35700D03*
G54D18*
X41300Y-12500D03*
X40700Y-12500D03*
G54D17*
X40500Y-16700D03*
X40500Y-17300D03*
X34500Y-26300D03*
X34500Y-25700D03*
G54D18*
X51300Y-14500D03*
X50700Y-14500D03*
X51300Y-18500D03*
X50700Y-18500D03*
X49200Y-14500D03*
X49800Y-14500D03*
X48700Y-18500D03*
X49300Y-18500D03*
X38300Y-19000D03*
X37700Y-19000D03*
G54D17*
X40500Y-18800D03*
X40500Y-18200D03*
G54D19*
X65500Y-18500D03*
G54D20*
X65500Y-17500D03*
X65500Y-16500D03*
X65500Y-15500D03*
X65500Y-14500D03*
G54D19*
X65500Y-37500D03*
G54D20*
X65500Y-36500D03*
X65500Y-35500D03*
X65500Y-34500D03*
X65500Y-33500D03*
G54D19*
X64500Y-29500D03*
G54D20*
X63500Y-29500D03*
G54D19*
X30000Y-18500D03*
G54D20*
X31000Y-18500D03*
G54D19*
X30000Y-17000D03*
G54D20*
X31000Y-17000D03*
G54D19*
X30000Y-15500D03*
G54D20*
X31000Y-15500D03*
G54D19*
X45000Y-17500D03*
G54D20*
X44000Y-17500D03*
G54D19*
X34000Y-17500D03*
G54D20*
X35000Y-17500D03*
G54D19*
X64500Y-23500D03*
G54D20*
X63500Y-23500D03*
G54D19*
X64500Y-26500D03*
G54D20*
X63500Y-26500D03*
G54D19*
X57000Y-15500D03*
G54D20*
X58000Y-15500D03*
G54D19*
X57000Y-17000D03*
G54D20*
X58000Y-17000D03*
G54D19*
X57000Y-18500D03*
G54D20*
X58000Y-18500D03*
G54D12*
X53000Y-12000D03*
X53000Y-11000D03*
X54000Y-12000D03*
X54000Y-11000D03*
X55000Y-12000D03*
X55000Y-11000D03*
X56000Y-12000D03*
X56000Y-11000D03*
X57000Y-12000D03*
X57000Y-11000D03*
X36500Y-25500D03*
X36500Y-26500D03*
X36500Y-27500D03*
X36500Y-28500D03*
X36500Y-29500D03*
X36500Y-30500D03*
X36500Y-31500D03*
X36500Y-32500D03*
X36500Y-33500D03*
X36500Y-34500D03*
X36500Y-35500D03*
X36500Y-36500D03*
X36500Y-37500D03*
X36500Y-38500D03*
X36500Y-39500D03*
X51500Y-39500D03*
X51500Y-38500D03*
X51500Y-37500D03*
X51500Y-36500D03*
X51500Y-35500D03*
X51500Y-34500D03*
X51500Y-33500D03*
X51500Y-32500D03*
X51500Y-31500D03*
X51500Y-30500D03*
X51500Y-29500D03*
X51500Y-28500D03*
X51500Y-27500D03*
X51500Y-26500D03*
X51500Y-25500D03*
G54D19*
X61000Y-30000D03*
G54D20*
X61000Y-29000D03*
G54D19*
X61000Y-24000D03*
G54D20*
X61000Y-23000D03*
G54D19*
X61000Y-27000D03*
G54D20*
X61000Y-26000D03*
G54D12*
X38500Y-11000D03*
X39500Y-11000D03*
X40500Y-11000D03*
X41500Y-11000D03*
X42500Y-11000D03*
X43500Y-11000D03*
X44500Y-11000D03*
X45500Y-11000D03*
X46500Y-11000D03*
G54D21*
X37500Y-14375D03*
X37500Y-14000D03*
X37500Y-13625D03*
X38500Y-13625D03*
X38500Y-14000D03*
X38500Y-14375D03*
X37500Y-13250D03*
X38500Y-13250D03*
G54D22*
X65500Y-42400D03*
X65500Y-10900D03*
X34000Y-42400D03*
X34000Y-10900D03*
M02*
