G04 (created by PCBNEW (2013-07-07 BZR 4022)-stable) date Friday 29 November 2013 01:10:28 PM IST*
%MOIN*%
G04 Gerber Fmt 3.4, Leading zero omitted, Abs format*
%FSLAX34Y34*%
G01*
G70*
G90*
G04 APERTURE LIST*
%ADD10C,0.00590551*%
%ADD11R,0.016X0.05*%
%ADD12R,0.017X0.055*%
%ADD13R,0.06X0.08*%
%ADD14R,0.08X0.06*%
%ADD15R,0.0157X0.0236*%
%ADD16R,0.0236X0.0157*%
%ADD17R,0.06X0.06*%
%ADD18C,0.06*%
%ADD19C,0.035*%
%ADD20C,0.006*%
%ADD21C,0.01*%
G04 APERTURE END LIST*
G54D10*
G54D11*
X27385Y-26125D03*
X27130Y-26125D03*
X26870Y-26125D03*
X26615Y-26125D03*
X26615Y-27875D03*
X26870Y-27875D03*
X27130Y-27875D03*
X27385Y-27875D03*
G54D12*
X19740Y-29600D03*
X19990Y-29600D03*
X20250Y-29600D03*
X20500Y-29600D03*
X20760Y-29600D03*
X21015Y-29600D03*
X21270Y-29600D03*
X21270Y-27400D03*
X21015Y-27400D03*
X20760Y-27400D03*
X20500Y-27400D03*
X20245Y-27400D03*
X19990Y-27400D03*
X19735Y-27400D03*
G54D13*
X24150Y-29500D03*
X22850Y-29500D03*
X22850Y-28000D03*
X24150Y-28000D03*
G54D14*
X28000Y-24650D03*
X28000Y-23350D03*
X26000Y-24650D03*
X26000Y-23350D03*
G54D15*
X25823Y-22000D03*
X26177Y-22000D03*
X21073Y-26750D03*
X21427Y-26750D03*
X25677Y-28500D03*
X25323Y-28500D03*
X28073Y-27750D03*
X28427Y-27750D03*
G54D16*
X28250Y-26823D03*
X28250Y-27177D03*
G54D15*
X28177Y-22000D03*
X27823Y-22000D03*
G54D16*
X16500Y-27573D03*
X16500Y-27927D03*
X16500Y-28323D03*
X16500Y-28677D03*
G54D15*
X27073Y-28500D03*
X27427Y-28500D03*
X20573Y-30250D03*
X20927Y-30250D03*
X20323Y-26750D03*
X20677Y-26750D03*
G54D17*
X26000Y-30000D03*
G54D18*
X27000Y-30000D03*
X28000Y-30000D03*
G54D14*
X18000Y-28100D03*
X18000Y-29400D03*
G54D19*
X26385Y-25688D03*
X25340Y-22085D03*
X28659Y-21967D03*
X25016Y-29285D03*
X24848Y-28478D03*
X23285Y-28722D03*
X23500Y-29292D03*
X26069Y-28840D03*
X28025Y-28321D03*
X28653Y-28055D03*
X26299Y-27900D03*
X25580Y-29248D03*
X19417Y-29579D03*
G54D20*
X27427Y-29427D02*
X27427Y-28500D01*
X28000Y-30000D02*
X27427Y-29427D01*
X27427Y-28500D02*
X27258Y-28500D01*
X24150Y-28000D02*
X24540Y-28000D01*
X24744Y-28000D02*
X24540Y-28000D01*
X25036Y-28291D02*
X24744Y-28000D01*
X27218Y-28291D02*
X25036Y-28291D01*
X27258Y-28331D02*
X27218Y-28291D01*
X27258Y-28500D02*
X27258Y-28331D01*
X26615Y-26125D02*
X26615Y-25784D01*
X26519Y-25688D02*
X26615Y-25784D01*
X26385Y-25688D02*
X26519Y-25688D01*
X16500Y-28677D02*
X16500Y-28845D01*
X16847Y-29193D02*
X16500Y-28845D01*
X18000Y-29193D02*
X16847Y-29193D01*
X20500Y-27400D02*
X20500Y-27765D01*
X18000Y-29400D02*
X18000Y-29283D01*
X18000Y-29283D02*
X18000Y-29193D01*
X20760Y-29600D02*
X20760Y-29234D01*
X20500Y-27765D02*
X20245Y-27765D01*
X20500Y-27765D02*
X20500Y-29234D01*
X18049Y-29234D02*
X20500Y-29234D01*
X18000Y-29283D02*
X18049Y-29234D01*
X20500Y-29234D02*
X20760Y-29234D01*
X20245Y-27400D02*
X20245Y-27765D01*
X21235Y-30390D02*
X21095Y-30250D01*
X27609Y-30390D02*
X21235Y-30390D01*
X28000Y-30000D02*
X27609Y-30390D01*
X20927Y-30250D02*
X21018Y-30250D01*
X21018Y-30250D02*
X21095Y-30250D01*
X20760Y-29889D02*
X20760Y-29600D01*
X21018Y-30148D02*
X20760Y-29889D01*
X21018Y-30250D02*
X21018Y-30148D01*
X18000Y-28100D02*
X17509Y-28100D01*
X16500Y-28100D02*
X17509Y-28100D01*
X16500Y-28100D02*
X16500Y-27927D01*
X20250Y-29600D02*
X20250Y-29965D01*
X16500Y-28322D02*
X16500Y-28100D01*
X17435Y-29965D02*
X20250Y-29965D01*
X16276Y-28806D02*
X17435Y-29965D01*
X16276Y-28546D02*
X16276Y-28806D01*
X16331Y-28491D02*
X16276Y-28546D01*
X16500Y-28491D02*
X16331Y-28491D01*
X16500Y-28322D02*
X16500Y-28491D01*
X25569Y-22085D02*
X25654Y-22000D01*
X25340Y-22085D02*
X25569Y-22085D01*
X25822Y-22000D02*
X25654Y-22000D01*
X28378Y-21967D02*
X28345Y-22000D01*
X28659Y-21967D02*
X28378Y-21967D01*
X28177Y-22000D02*
X28345Y-22000D01*
X26177Y-22782D02*
X26000Y-22959D01*
X26177Y-22000D02*
X26177Y-22782D01*
X26000Y-23154D02*
X26000Y-23278D01*
X26000Y-23350D02*
X26000Y-23278D01*
X26000Y-23154D02*
X26000Y-22959D01*
X26870Y-24148D02*
X26870Y-26125D01*
X26000Y-23278D02*
X26870Y-24148D01*
X28000Y-23350D02*
X28000Y-22959D01*
X27130Y-26125D02*
X27130Y-26465D01*
X27822Y-22782D02*
X28000Y-22959D01*
X27822Y-22000D02*
X27822Y-22782D01*
X27822Y-22000D02*
X27654Y-22000D01*
X26464Y-26465D02*
X27130Y-26465D01*
X25075Y-25076D02*
X26464Y-26465D01*
X25075Y-21949D02*
X25075Y-25076D01*
X25365Y-21659D02*
X25075Y-21949D01*
X27314Y-21659D02*
X25365Y-21659D01*
X27654Y-22000D02*
X27314Y-21659D01*
X24755Y-29285D02*
X25016Y-29285D01*
X24540Y-29500D02*
X24755Y-29285D01*
X25133Y-28478D02*
X25154Y-28500D01*
X24848Y-28478D02*
X25133Y-28478D01*
X25322Y-28500D02*
X25154Y-28500D01*
X24150Y-29500D02*
X24540Y-29500D01*
X22850Y-29500D02*
X22459Y-29500D01*
X22745Y-28722D02*
X23285Y-28722D01*
X21898Y-27875D02*
X22745Y-28722D01*
X21898Y-26896D02*
X21898Y-27875D01*
X21416Y-26414D02*
X21898Y-26896D01*
X20658Y-26414D02*
X21416Y-26414D01*
X20491Y-26581D02*
X20658Y-26414D01*
X20491Y-26750D02*
X20491Y-26581D01*
X23448Y-29292D02*
X23240Y-29500D01*
X23500Y-29292D02*
X23448Y-29292D01*
X22850Y-29500D02*
X23240Y-29500D01*
X20322Y-26750D02*
X20491Y-26750D01*
X21015Y-28055D02*
X21015Y-27400D01*
X22459Y-29500D02*
X21015Y-28055D01*
X21015Y-27016D02*
X21072Y-26958D01*
X21015Y-27400D02*
X21015Y-27016D01*
X21072Y-26750D02*
X21072Y-26958D01*
X26870Y-27875D02*
X26870Y-27534D01*
X25677Y-28500D02*
X25508Y-28500D01*
X26870Y-27509D02*
X26870Y-27534D01*
X28085Y-27509D02*
X28250Y-27345D01*
X26870Y-27509D02*
X28085Y-27509D01*
X28250Y-27177D02*
X28250Y-27345D01*
X23808Y-27509D02*
X26870Y-27509D01*
X23759Y-27558D02*
X23808Y-27509D01*
X23759Y-28445D02*
X23759Y-27558D01*
X24058Y-28743D02*
X23759Y-28445D01*
X25370Y-28743D02*
X24058Y-28743D01*
X25371Y-28743D02*
X25370Y-28743D01*
X25433Y-28743D02*
X25371Y-28743D01*
X25508Y-28668D02*
X25433Y-28743D01*
X25508Y-28500D02*
X25508Y-28668D01*
X27742Y-26822D02*
X27385Y-26465D01*
X28041Y-26822D02*
X27742Y-26822D01*
X28250Y-26822D02*
X28041Y-26822D01*
X27385Y-26125D02*
X27385Y-26465D01*
X28418Y-26991D02*
X28250Y-26991D01*
X28458Y-27031D02*
X28418Y-26991D01*
X28458Y-27510D02*
X28458Y-27031D01*
X28427Y-27541D02*
X28458Y-27510D01*
X28427Y-27750D02*
X28427Y-27541D01*
X28250Y-26822D02*
X28250Y-26991D01*
X27072Y-28500D02*
X26904Y-28500D01*
X22850Y-28000D02*
X23240Y-28000D01*
X26000Y-30000D02*
X25609Y-30000D01*
X26564Y-28840D02*
X26069Y-28840D01*
X26904Y-28500D02*
X26564Y-28840D01*
X22850Y-28000D02*
X22850Y-27509D01*
X23240Y-28095D02*
X23240Y-28000D01*
X24008Y-28864D02*
X23240Y-28095D01*
X25420Y-28864D02*
X24008Y-28864D01*
X25420Y-28863D02*
X25420Y-28864D01*
X26046Y-28863D02*
X25420Y-28863D01*
X26069Y-28840D02*
X26046Y-28863D01*
X27919Y-28215D02*
X27385Y-28215D01*
X28025Y-28321D02*
X27919Y-28215D01*
X27385Y-27875D02*
X27385Y-28045D01*
X27385Y-28045D02*
X27385Y-28215D01*
X27300Y-28045D02*
X27130Y-27875D01*
X27385Y-28045D02*
X27300Y-28045D01*
X16871Y-27032D02*
X16500Y-27404D01*
X19990Y-27032D02*
X16871Y-27032D01*
X19990Y-26740D02*
X19990Y-27032D01*
X20436Y-26294D02*
X19990Y-26740D01*
X21634Y-26294D02*
X20436Y-26294D01*
X22850Y-27509D02*
X21634Y-26294D01*
X19990Y-27032D02*
X19990Y-27400D01*
X25489Y-30120D02*
X25609Y-30000D01*
X21170Y-30120D02*
X25489Y-30120D01*
X21015Y-29965D02*
X21170Y-30120D01*
X20572Y-30250D02*
X20741Y-30250D01*
X20500Y-29600D02*
X20500Y-29965D01*
X20741Y-30135D02*
X20741Y-30250D01*
X20722Y-30115D02*
X20741Y-30135D01*
X20722Y-30115D02*
X20722Y-30115D01*
X20679Y-30073D02*
X20722Y-30115D01*
X20679Y-30019D02*
X20679Y-30073D01*
X20625Y-29965D02*
X20679Y-30019D01*
X20500Y-29965D02*
X20625Y-29965D01*
X21015Y-29600D02*
X21015Y-29965D01*
X16500Y-27572D02*
X16500Y-27488D01*
X16500Y-27488D02*
X16500Y-27404D01*
X17538Y-30250D02*
X20572Y-30250D01*
X16144Y-28856D02*
X17538Y-30250D01*
X16144Y-27843D02*
X16144Y-28856D01*
X16500Y-27488D02*
X16144Y-27843D01*
X28072Y-27750D02*
X28241Y-27750D01*
X28000Y-24650D02*
X28000Y-25040D01*
X27090Y-23350D02*
X28000Y-24259D01*
X27090Y-22586D02*
X27090Y-23350D01*
X26295Y-21791D02*
X27090Y-22586D01*
X26060Y-21791D02*
X26295Y-21791D01*
X25991Y-21860D02*
X26060Y-21791D01*
X25991Y-22155D02*
X25991Y-21860D01*
X25509Y-22637D02*
X25991Y-22155D01*
X25509Y-23769D02*
X25509Y-22637D01*
X26000Y-24259D02*
X25509Y-23769D01*
X26000Y-24650D02*
X26000Y-24259D01*
X28000Y-24650D02*
X28000Y-24259D01*
X28281Y-27958D02*
X28556Y-27958D01*
X28241Y-27918D02*
X28281Y-27958D01*
X28241Y-27750D02*
X28241Y-27918D01*
X28630Y-25670D02*
X28000Y-25040D01*
X28630Y-27883D02*
X28630Y-25670D01*
X28556Y-27958D02*
X28630Y-27883D01*
X26589Y-27900D02*
X26615Y-27875D01*
X26299Y-27900D02*
X26589Y-27900D01*
X28556Y-27958D02*
X28653Y-28055D01*
X24829Y-30000D02*
X25580Y-29248D01*
X22519Y-30000D02*
X24829Y-30000D01*
X20760Y-28240D02*
X22519Y-30000D01*
X20760Y-27400D02*
X20760Y-28240D01*
X19990Y-29600D02*
X19740Y-29600D01*
X19719Y-29579D02*
X19740Y-29600D01*
X19417Y-29579D02*
X19719Y-29579D01*
X21270Y-27400D02*
X21270Y-27582D01*
X21270Y-27582D02*
X21270Y-27765D01*
X21427Y-27425D02*
X21427Y-26750D01*
X21270Y-27582D02*
X21427Y-27425D01*
X20845Y-26623D02*
X20845Y-26750D01*
X20932Y-26536D02*
X20845Y-26623D01*
X21213Y-26536D02*
X20932Y-26536D01*
X21258Y-26581D02*
X21213Y-26536D01*
X21258Y-26750D02*
X21258Y-26581D01*
X21427Y-26750D02*
X21258Y-26750D01*
X20677Y-26750D02*
X20845Y-26750D01*
X26169Y-29169D02*
X27000Y-30000D01*
X25876Y-29169D02*
X26169Y-29169D01*
X25690Y-28983D02*
X25876Y-29169D01*
X25470Y-28983D02*
X25690Y-28983D01*
X25466Y-28987D02*
X25470Y-28983D01*
X22492Y-28987D02*
X25466Y-28987D01*
X21270Y-27765D02*
X22492Y-28987D01*
G54D10*
G36*
X21198Y-29074D02*
X21135Y-29074D01*
X21135Y-29075D01*
X21050Y-29074D01*
X20894Y-29074D01*
X20880Y-29074D01*
X20880Y-29074D01*
X20865Y-29075D01*
X20854Y-29085D01*
X20788Y-29112D01*
X20757Y-29143D01*
X20726Y-29113D01*
X20669Y-29089D01*
X20655Y-29075D01*
X20625Y-29074D01*
X20625Y-29075D01*
X20535Y-29074D01*
X20365Y-29074D01*
X20365Y-29075D01*
X20285Y-29074D01*
X20115Y-29074D01*
X20115Y-29075D01*
X20025Y-29074D01*
X19855Y-29074D01*
X19855Y-29075D01*
X19775Y-29074D01*
X19605Y-29074D01*
X19513Y-29112D01*
X19472Y-29154D01*
X19333Y-29154D01*
X19176Y-29218D01*
X19057Y-29338D01*
X18992Y-29494D01*
X18992Y-29663D01*
X19001Y-29685D01*
X18650Y-29685D01*
X18650Y-29050D01*
X18612Y-28958D01*
X18541Y-28888D01*
X18449Y-28850D01*
X18350Y-28849D01*
X18112Y-28850D01*
X18050Y-28912D01*
X18050Y-29350D01*
X18587Y-29350D01*
X18650Y-29287D01*
X18650Y-29050D01*
X18650Y-29685D01*
X18650Y-29685D01*
X18650Y-29512D01*
X18587Y-29450D01*
X18050Y-29450D01*
X18050Y-29457D01*
X17950Y-29457D01*
X17950Y-29450D01*
X17950Y-29350D01*
X17950Y-28912D01*
X17887Y-28850D01*
X17649Y-28849D01*
X17550Y-28850D01*
X17458Y-28888D01*
X17387Y-28958D01*
X17349Y-29050D01*
X17350Y-29287D01*
X17412Y-29350D01*
X17950Y-29350D01*
X17950Y-29450D01*
X17412Y-29450D01*
X17364Y-29498D01*
X16796Y-28930D01*
X16830Y-28896D01*
X16868Y-28805D01*
X16868Y-28778D01*
X16805Y-28716D01*
X16658Y-28716D01*
X16697Y-28689D01*
X16732Y-28637D01*
X16805Y-28637D01*
X16868Y-28575D01*
X16868Y-28548D01*
X16847Y-28499D01*
X16867Y-28451D01*
X16868Y-28380D01*
X17349Y-28380D01*
X17349Y-28449D01*
X17387Y-28541D01*
X17458Y-28611D01*
X17550Y-28649D01*
X17649Y-28650D01*
X18449Y-28650D01*
X18541Y-28612D01*
X18611Y-28541D01*
X18649Y-28449D01*
X18650Y-28350D01*
X18650Y-27750D01*
X18612Y-27658D01*
X18541Y-27588D01*
X18449Y-27550D01*
X18350Y-27549D01*
X17550Y-27549D01*
X17458Y-27587D01*
X17388Y-27658D01*
X17350Y-27750D01*
X17349Y-27820D01*
X16868Y-27820D01*
X16868Y-27798D01*
X16847Y-27749D01*
X16867Y-27701D01*
X16868Y-27601D01*
X16868Y-27444D01*
X16864Y-27436D01*
X16987Y-27312D01*
X19399Y-27312D01*
X19399Y-27724D01*
X19437Y-27816D01*
X19508Y-27886D01*
X19600Y-27924D01*
X19699Y-27925D01*
X19869Y-27925D01*
X19869Y-27924D01*
X19954Y-27925D01*
X20110Y-27925D01*
X20124Y-27925D01*
X20124Y-27925D01*
X20140Y-27925D01*
X20150Y-27914D01*
X20216Y-27887D01*
X20245Y-27858D01*
X20273Y-27887D01*
X20339Y-27914D01*
X20350Y-27925D01*
X20365Y-27925D01*
X20365Y-27925D01*
X20372Y-27925D01*
X20379Y-27925D01*
X20379Y-27925D01*
X20395Y-27925D01*
X20405Y-27914D01*
X20449Y-27895D01*
X20449Y-27925D01*
X20480Y-27925D01*
X20480Y-28240D01*
X20501Y-28347D01*
X20562Y-28438D01*
X21198Y-29074D01*
X21198Y-29074D01*
G37*
G54D21*
X21198Y-29074D02*
X21135Y-29074D01*
X21135Y-29075D01*
X21050Y-29074D01*
X20894Y-29074D01*
X20880Y-29074D01*
X20880Y-29074D01*
X20865Y-29075D01*
X20854Y-29085D01*
X20788Y-29112D01*
X20757Y-29143D01*
X20726Y-29113D01*
X20669Y-29089D01*
X20655Y-29075D01*
X20625Y-29074D01*
X20625Y-29075D01*
X20535Y-29074D01*
X20365Y-29074D01*
X20365Y-29075D01*
X20285Y-29074D01*
X20115Y-29074D01*
X20115Y-29075D01*
X20025Y-29074D01*
X19855Y-29074D01*
X19855Y-29075D01*
X19775Y-29074D01*
X19605Y-29074D01*
X19513Y-29112D01*
X19472Y-29154D01*
X19333Y-29154D01*
X19176Y-29218D01*
X19057Y-29338D01*
X18992Y-29494D01*
X18992Y-29663D01*
X19001Y-29685D01*
X18650Y-29685D01*
X18650Y-29050D01*
X18612Y-28958D01*
X18541Y-28888D01*
X18449Y-28850D01*
X18350Y-28849D01*
X18112Y-28850D01*
X18050Y-28912D01*
X18050Y-29350D01*
X18587Y-29350D01*
X18650Y-29287D01*
X18650Y-29050D01*
X18650Y-29685D01*
X18650Y-29685D01*
X18650Y-29512D01*
X18587Y-29450D01*
X18050Y-29450D01*
X18050Y-29457D01*
X17950Y-29457D01*
X17950Y-29450D01*
X17950Y-29350D01*
X17950Y-28912D01*
X17887Y-28850D01*
X17649Y-28849D01*
X17550Y-28850D01*
X17458Y-28888D01*
X17387Y-28958D01*
X17349Y-29050D01*
X17350Y-29287D01*
X17412Y-29350D01*
X17950Y-29350D01*
X17950Y-29450D01*
X17412Y-29450D01*
X17364Y-29498D01*
X16796Y-28930D01*
X16830Y-28896D01*
X16868Y-28805D01*
X16868Y-28778D01*
X16805Y-28716D01*
X16658Y-28716D01*
X16697Y-28689D01*
X16732Y-28637D01*
X16805Y-28637D01*
X16868Y-28575D01*
X16868Y-28548D01*
X16847Y-28499D01*
X16867Y-28451D01*
X16868Y-28380D01*
X17349Y-28380D01*
X17349Y-28449D01*
X17387Y-28541D01*
X17458Y-28611D01*
X17550Y-28649D01*
X17649Y-28650D01*
X18449Y-28650D01*
X18541Y-28612D01*
X18611Y-28541D01*
X18649Y-28449D01*
X18650Y-28350D01*
X18650Y-27750D01*
X18612Y-27658D01*
X18541Y-27588D01*
X18449Y-27550D01*
X18350Y-27549D01*
X17550Y-27549D01*
X17458Y-27587D01*
X17388Y-27658D01*
X17350Y-27750D01*
X17349Y-27820D01*
X16868Y-27820D01*
X16868Y-27798D01*
X16847Y-27749D01*
X16867Y-27701D01*
X16868Y-27601D01*
X16868Y-27444D01*
X16864Y-27436D01*
X16987Y-27312D01*
X19399Y-27312D01*
X19399Y-27724D01*
X19437Y-27816D01*
X19508Y-27886D01*
X19600Y-27924D01*
X19699Y-27925D01*
X19869Y-27925D01*
X19869Y-27924D01*
X19954Y-27925D01*
X20110Y-27925D01*
X20124Y-27925D01*
X20124Y-27925D01*
X20140Y-27925D01*
X20150Y-27914D01*
X20216Y-27887D01*
X20245Y-27858D01*
X20273Y-27887D01*
X20339Y-27914D01*
X20350Y-27925D01*
X20365Y-27925D01*
X20365Y-27925D01*
X20372Y-27925D01*
X20379Y-27925D01*
X20379Y-27925D01*
X20395Y-27925D01*
X20405Y-27914D01*
X20449Y-27895D01*
X20449Y-27925D01*
X20480Y-27925D01*
X20480Y-28240D01*
X20501Y-28347D01*
X20562Y-28438D01*
X21198Y-29074D01*
G54D10*
G36*
X26633Y-28375D02*
X26448Y-28560D01*
X26390Y-28560D01*
X26310Y-28479D01*
X26154Y-28415D01*
X26005Y-28415D01*
X26005Y-28332D01*
X25967Y-28240D01*
X25897Y-28170D01*
X25805Y-28132D01*
X25705Y-28131D01*
X25548Y-28131D01*
X25499Y-28152D01*
X25451Y-28132D01*
X25351Y-28131D01*
X25194Y-28131D01*
X25129Y-28158D01*
X25089Y-28118D01*
X24933Y-28053D01*
X24764Y-28053D01*
X24677Y-28089D01*
X24637Y-28050D01*
X24200Y-28050D01*
X24200Y-28057D01*
X24100Y-28057D01*
X24100Y-28050D01*
X24092Y-28050D01*
X24092Y-27950D01*
X24100Y-27950D01*
X24100Y-27942D01*
X24200Y-27942D01*
X24200Y-27950D01*
X24637Y-27950D01*
X24700Y-27887D01*
X24700Y-27789D01*
X25885Y-27789D01*
X25874Y-27815D01*
X25874Y-27984D01*
X25938Y-28141D01*
X26058Y-28260D01*
X26214Y-28325D01*
X26382Y-28325D01*
X26393Y-28336D01*
X26485Y-28374D01*
X26584Y-28375D01*
X26633Y-28375D01*
X26633Y-28375D01*
G37*
G54D21*
X26633Y-28375D02*
X26448Y-28560D01*
X26390Y-28560D01*
X26310Y-28479D01*
X26154Y-28415D01*
X26005Y-28415D01*
X26005Y-28332D01*
X25967Y-28240D01*
X25897Y-28170D01*
X25805Y-28132D01*
X25705Y-28131D01*
X25548Y-28131D01*
X25499Y-28152D01*
X25451Y-28132D01*
X25351Y-28131D01*
X25194Y-28131D01*
X25129Y-28158D01*
X25089Y-28118D01*
X24933Y-28053D01*
X24764Y-28053D01*
X24677Y-28089D01*
X24637Y-28050D01*
X24200Y-28050D01*
X24200Y-28057D01*
X24100Y-28057D01*
X24100Y-28050D01*
X24092Y-28050D01*
X24092Y-27950D01*
X24100Y-27950D01*
X24100Y-27942D01*
X24200Y-27942D01*
X24200Y-27950D01*
X24637Y-27950D01*
X24700Y-27887D01*
X24700Y-27789D01*
X25885Y-27789D01*
X25874Y-27815D01*
X25874Y-27984D01*
X25938Y-28141D01*
X26058Y-28260D01*
X26214Y-28325D01*
X26382Y-28325D01*
X26393Y-28336D01*
X26485Y-28374D01*
X26584Y-28375D01*
X26633Y-28375D01*
G54D10*
G36*
X37730Y-30230D02*
X28501Y-30230D01*
X28554Y-30081D01*
X28543Y-29863D01*
X28481Y-29712D01*
X28385Y-29684D01*
X28315Y-29755D01*
X28315Y-29614D01*
X28287Y-29518D01*
X28081Y-29445D01*
X27863Y-29456D01*
X27712Y-29518D01*
X27684Y-29614D01*
X28000Y-29929D01*
X28315Y-29614D01*
X28315Y-29755D01*
X28070Y-30000D01*
X28076Y-30005D01*
X28005Y-30076D01*
X28000Y-30070D01*
X27994Y-30076D01*
X27923Y-30005D01*
X27929Y-30000D01*
X27614Y-29684D01*
X27518Y-29712D01*
X27499Y-29767D01*
X27466Y-29688D01*
X27311Y-29534D01*
X27109Y-29450D01*
X26891Y-29449D01*
X26859Y-29463D01*
X26516Y-29120D01*
X26564Y-29120D01*
X26671Y-29098D01*
X26671Y-29098D01*
X26762Y-29038D01*
X26935Y-28864D01*
X26944Y-28867D01*
X27044Y-28868D01*
X27201Y-28868D01*
X27250Y-28847D01*
X27298Y-28868D01*
X27325Y-28868D01*
X27387Y-28805D01*
X27387Y-28700D01*
X27401Y-28667D01*
X27401Y-28568D01*
X27401Y-28495D01*
X27484Y-28495D01*
X27484Y-28550D01*
X27466Y-28550D01*
X27466Y-28805D01*
X27528Y-28868D01*
X27555Y-28868D01*
X27646Y-28830D01*
X27717Y-28759D01*
X27755Y-28667D01*
X27755Y-28651D01*
X27784Y-28681D01*
X27940Y-28746D01*
X28109Y-28746D01*
X28266Y-28681D01*
X28385Y-28562D01*
X28441Y-28427D01*
X28568Y-28480D01*
X28738Y-28480D01*
X28894Y-28416D01*
X29013Y-28296D01*
X29078Y-28140D01*
X29078Y-27971D01*
X29014Y-27815D01*
X28910Y-27711D01*
X28910Y-25670D01*
X28910Y-25670D01*
X28889Y-25563D01*
X28889Y-25563D01*
X28869Y-25533D01*
X28828Y-25472D01*
X28828Y-25472D01*
X28524Y-25168D01*
X28541Y-25162D01*
X28611Y-25091D01*
X28649Y-24999D01*
X28650Y-24900D01*
X28650Y-24300D01*
X28612Y-24208D01*
X28541Y-24138D01*
X28449Y-24100D01*
X28350Y-24099D01*
X28223Y-24099D01*
X28197Y-24061D01*
X28197Y-24061D01*
X28036Y-23900D01*
X28449Y-23900D01*
X28541Y-23862D01*
X28611Y-23791D01*
X28649Y-23699D01*
X28650Y-23600D01*
X28650Y-23000D01*
X28612Y-22908D01*
X28541Y-22838D01*
X28449Y-22800D01*
X28350Y-22799D01*
X28223Y-22799D01*
X28197Y-22761D01*
X28197Y-22761D01*
X28102Y-22666D01*
X28102Y-22368D01*
X28148Y-22368D01*
X28305Y-22368D01*
X28396Y-22330D01*
X28408Y-22318D01*
X28418Y-22327D01*
X28574Y-22392D01*
X28743Y-22392D01*
X28899Y-22327D01*
X29019Y-22208D01*
X29084Y-22052D01*
X29084Y-21883D01*
X29019Y-21726D01*
X28900Y-21607D01*
X28744Y-21542D01*
X28575Y-21542D01*
X28418Y-21606D01*
X28367Y-21657D01*
X28305Y-21632D01*
X28205Y-21631D01*
X28048Y-21631D01*
X27999Y-21652D01*
X27951Y-21632D01*
X27851Y-21631D01*
X27694Y-21631D01*
X27686Y-21635D01*
X27512Y-21461D01*
X27421Y-21401D01*
X27314Y-21379D01*
X25365Y-21379D01*
X25276Y-21397D01*
X25258Y-21401D01*
X25167Y-21461D01*
X24877Y-21751D01*
X24816Y-21842D01*
X24795Y-21949D01*
X24795Y-25076D01*
X24816Y-25183D01*
X24877Y-25274D01*
X26266Y-26663D01*
X26266Y-26663D01*
X26326Y-26703D01*
X26356Y-26723D01*
X26356Y-26723D01*
X26464Y-26745D01*
X26464Y-26745D01*
X27130Y-26745D01*
X27237Y-26723D01*
X27243Y-26719D01*
X27544Y-27020D01*
X27635Y-27081D01*
X27635Y-27081D01*
X27653Y-27085D01*
X27742Y-27102D01*
X27881Y-27102D01*
X27881Y-27148D01*
X27881Y-27229D01*
X26870Y-27229D01*
X23808Y-27229D01*
X23719Y-27247D01*
X23701Y-27251D01*
X23610Y-27311D01*
X23561Y-27360D01*
X23501Y-27451D01*
X23479Y-27558D01*
X23479Y-27864D01*
X23438Y-27802D01*
X23400Y-27776D01*
X23400Y-27550D01*
X23362Y-27458D01*
X23291Y-27388D01*
X23199Y-27350D01*
X23100Y-27349D01*
X23073Y-27349D01*
X23047Y-27311D01*
X23047Y-27311D01*
X21832Y-26096D01*
X21741Y-26035D01*
X21634Y-26014D01*
X20436Y-26014D01*
X20329Y-26035D01*
X20299Y-26055D01*
X20238Y-26096D01*
X19792Y-26542D01*
X19731Y-26633D01*
X19710Y-26740D01*
X19710Y-26752D01*
X16871Y-26752D01*
X16764Y-26774D01*
X16734Y-26794D01*
X16673Y-26834D01*
X16302Y-27206D01*
X16269Y-27254D01*
X16269Y-17269D01*
X37730Y-17269D01*
X37730Y-30230D01*
X37730Y-30230D01*
G37*
G54D21*
X37730Y-30230D02*
X28501Y-30230D01*
X28554Y-30081D01*
X28543Y-29863D01*
X28481Y-29712D01*
X28385Y-29684D01*
X28315Y-29755D01*
X28315Y-29614D01*
X28287Y-29518D01*
X28081Y-29445D01*
X27863Y-29456D01*
X27712Y-29518D01*
X27684Y-29614D01*
X28000Y-29929D01*
X28315Y-29614D01*
X28315Y-29755D01*
X28070Y-30000D01*
X28076Y-30005D01*
X28005Y-30076D01*
X28000Y-30070D01*
X27994Y-30076D01*
X27923Y-30005D01*
X27929Y-30000D01*
X27614Y-29684D01*
X27518Y-29712D01*
X27499Y-29767D01*
X27466Y-29688D01*
X27311Y-29534D01*
X27109Y-29450D01*
X26891Y-29449D01*
X26859Y-29463D01*
X26516Y-29120D01*
X26564Y-29120D01*
X26671Y-29098D01*
X26671Y-29098D01*
X26762Y-29038D01*
X26935Y-28864D01*
X26944Y-28867D01*
X27044Y-28868D01*
X27201Y-28868D01*
X27250Y-28847D01*
X27298Y-28868D01*
X27325Y-28868D01*
X27387Y-28805D01*
X27387Y-28700D01*
X27401Y-28667D01*
X27401Y-28568D01*
X27401Y-28495D01*
X27484Y-28495D01*
X27484Y-28550D01*
X27466Y-28550D01*
X27466Y-28805D01*
X27528Y-28868D01*
X27555Y-28868D01*
X27646Y-28830D01*
X27717Y-28759D01*
X27755Y-28667D01*
X27755Y-28651D01*
X27784Y-28681D01*
X27940Y-28746D01*
X28109Y-28746D01*
X28266Y-28681D01*
X28385Y-28562D01*
X28441Y-28427D01*
X28568Y-28480D01*
X28738Y-28480D01*
X28894Y-28416D01*
X29013Y-28296D01*
X29078Y-28140D01*
X29078Y-27971D01*
X29014Y-27815D01*
X28910Y-27711D01*
X28910Y-25670D01*
X28910Y-25670D01*
X28889Y-25563D01*
X28889Y-25563D01*
X28869Y-25533D01*
X28828Y-25472D01*
X28828Y-25472D01*
X28524Y-25168D01*
X28541Y-25162D01*
X28611Y-25091D01*
X28649Y-24999D01*
X28650Y-24900D01*
X28650Y-24300D01*
X28612Y-24208D01*
X28541Y-24138D01*
X28449Y-24100D01*
X28350Y-24099D01*
X28223Y-24099D01*
X28197Y-24061D01*
X28197Y-24061D01*
X28036Y-23900D01*
X28449Y-23900D01*
X28541Y-23862D01*
X28611Y-23791D01*
X28649Y-23699D01*
X28650Y-23600D01*
X28650Y-23000D01*
X28612Y-22908D01*
X28541Y-22838D01*
X28449Y-22800D01*
X28350Y-22799D01*
X28223Y-22799D01*
X28197Y-22761D01*
X28197Y-22761D01*
X28102Y-22666D01*
X28102Y-22368D01*
X28148Y-22368D01*
X28305Y-22368D01*
X28396Y-22330D01*
X28408Y-22318D01*
X28418Y-22327D01*
X28574Y-22392D01*
X28743Y-22392D01*
X28899Y-22327D01*
X29019Y-22208D01*
X29084Y-22052D01*
X29084Y-21883D01*
X29019Y-21726D01*
X28900Y-21607D01*
X28744Y-21542D01*
X28575Y-21542D01*
X28418Y-21606D01*
X28367Y-21657D01*
X28305Y-21632D01*
X28205Y-21631D01*
X28048Y-21631D01*
X27999Y-21652D01*
X27951Y-21632D01*
X27851Y-21631D01*
X27694Y-21631D01*
X27686Y-21635D01*
X27512Y-21461D01*
X27421Y-21401D01*
X27314Y-21379D01*
X25365Y-21379D01*
X25276Y-21397D01*
X25258Y-21401D01*
X25167Y-21461D01*
X24877Y-21751D01*
X24816Y-21842D01*
X24795Y-21949D01*
X24795Y-25076D01*
X24816Y-25183D01*
X24877Y-25274D01*
X26266Y-26663D01*
X26266Y-26663D01*
X26326Y-26703D01*
X26356Y-26723D01*
X26356Y-26723D01*
X26464Y-26745D01*
X26464Y-26745D01*
X27130Y-26745D01*
X27237Y-26723D01*
X27243Y-26719D01*
X27544Y-27020D01*
X27635Y-27081D01*
X27635Y-27081D01*
X27653Y-27085D01*
X27742Y-27102D01*
X27881Y-27102D01*
X27881Y-27148D01*
X27881Y-27229D01*
X26870Y-27229D01*
X23808Y-27229D01*
X23719Y-27247D01*
X23701Y-27251D01*
X23610Y-27311D01*
X23561Y-27360D01*
X23501Y-27451D01*
X23479Y-27558D01*
X23479Y-27864D01*
X23438Y-27802D01*
X23400Y-27776D01*
X23400Y-27550D01*
X23362Y-27458D01*
X23291Y-27388D01*
X23199Y-27350D01*
X23100Y-27349D01*
X23073Y-27349D01*
X23047Y-27311D01*
X23047Y-27311D01*
X21832Y-26096D01*
X21741Y-26035D01*
X21634Y-26014D01*
X20436Y-26014D01*
X20329Y-26035D01*
X20299Y-26055D01*
X20238Y-26096D01*
X19792Y-26542D01*
X19731Y-26633D01*
X19710Y-26740D01*
X19710Y-26752D01*
X16871Y-26752D01*
X16764Y-26774D01*
X16734Y-26794D01*
X16673Y-26834D01*
X16302Y-27206D01*
X16269Y-27254D01*
X16269Y-17269D01*
X37730Y-17269D01*
X37730Y-30230D01*
M02*
