G04 (created by PCBNEW (2013-03-31 BZR 4008)-stable) date 6/6/2013 1:10:11 PM*
%MOIN*%
G04 Gerber Fmt 3.4, Leading zero omitted, Abs format*
%FSLAX34Y34*%
G01*
G70*
G90*
G04 APERTURE LIST*
%ADD10C,0.006*%
%ADD11C,0.011811*%
%ADD12C,0.012*%
%ADD13C,0.015*%
%ADD14C,0.005*%
%ADD15C,0.0107*%
%ADD16C,0.01*%
%ADD17C,0.0106*%
%ADD18C,0.008*%
%ADD19C,0.0108*%
%ADD20C,0.01125*%
G04 APERTURE END LIST*
G54D10*
G54D11*
X17648Y-27316D02*
X18126Y-27316D01*
X18182Y-27288D01*
X18210Y-27260D01*
X18239Y-27204D01*
X18239Y-27091D01*
X18210Y-27035D01*
X18182Y-27007D01*
X18126Y-26979D01*
X17648Y-26979D01*
X18239Y-26697D02*
X17648Y-26697D01*
X18070Y-26501D01*
X17648Y-26304D01*
X18239Y-26304D01*
X18182Y-25685D02*
X18210Y-25713D01*
X18239Y-25798D01*
X18239Y-25854D01*
X18210Y-25938D01*
X18154Y-25994D01*
X18098Y-26023D01*
X17985Y-26051D01*
X17901Y-26051D01*
X17789Y-26023D01*
X17732Y-25994D01*
X17676Y-25938D01*
X17648Y-25854D01*
X17648Y-25798D01*
X17676Y-25713D01*
X17704Y-25685D01*
X18239Y-25123D02*
X18239Y-25460D01*
X18239Y-25291D02*
X17648Y-25291D01*
X17732Y-25348D01*
X17789Y-25404D01*
X17817Y-25460D01*
X17648Y-24926D02*
X17648Y-24560D01*
X17873Y-24757D01*
X17873Y-24673D01*
X17901Y-24616D01*
X17929Y-24588D01*
X17985Y-24560D01*
X18126Y-24560D01*
X18182Y-24588D01*
X18210Y-24616D01*
X18239Y-24673D01*
X18239Y-24841D01*
X18210Y-24898D01*
X18182Y-24926D01*
X18014Y-24307D02*
X18014Y-23857D01*
X18239Y-23576D02*
X17648Y-23576D01*
X17648Y-23435D01*
X17676Y-23351D01*
X17732Y-23295D01*
X17789Y-23267D01*
X17901Y-23239D01*
X17985Y-23239D01*
X18098Y-23267D01*
X18154Y-23295D01*
X18210Y-23351D01*
X18239Y-23435D01*
X18239Y-23576D01*
X18239Y-22985D02*
X17648Y-22985D01*
X17676Y-22395D02*
X17648Y-22451D01*
X17648Y-22535D01*
X17676Y-22620D01*
X17732Y-22676D01*
X17789Y-22704D01*
X17901Y-22732D01*
X17985Y-22732D01*
X18098Y-22704D01*
X18154Y-22676D01*
X18210Y-22620D01*
X18239Y-22535D01*
X18239Y-22479D01*
X18210Y-22395D01*
X18182Y-22367D01*
X17985Y-22367D01*
X17985Y-22479D01*
X18239Y-22114D02*
X17648Y-22114D01*
X18014Y-21832D02*
X18014Y-21383D01*
X17648Y-20933D02*
X18070Y-20933D01*
X18154Y-20961D01*
X18210Y-21017D01*
X18239Y-21101D01*
X18239Y-21158D01*
X18070Y-20679D02*
X18070Y-20398D01*
X18239Y-20736D02*
X17648Y-20539D01*
X18239Y-20342D01*
X18239Y-20145D02*
X17648Y-20145D01*
X18239Y-19808D01*
X17648Y-19808D01*
X18239Y-19217D02*
X18239Y-19555D01*
X18239Y-19386D02*
X17648Y-19386D01*
X17732Y-19442D01*
X17789Y-19498D01*
X17817Y-19555D01*
X17648Y-19020D02*
X17648Y-18655D01*
X17873Y-18852D01*
X17873Y-18767D01*
X17901Y-18711D01*
X17929Y-18683D01*
X17985Y-18655D01*
X18126Y-18655D01*
X18182Y-18683D01*
X18210Y-18711D01*
X18239Y-18767D01*
X18239Y-18936D01*
X18210Y-18992D01*
X18182Y-19020D01*
G54D12*
X15500Y-28500D02*
X23500Y-28500D01*
X23500Y-28500D02*
X23500Y-29500D01*
X23500Y-29500D02*
X15500Y-29500D01*
X15500Y-29500D02*
X15500Y-28500D01*
X16500Y-29500D02*
X16500Y-28500D01*
X15500Y-12000D02*
X15500Y-11000D01*
X15500Y-11000D02*
X20500Y-11000D01*
X20500Y-11000D02*
X20500Y-12000D01*
X20500Y-12000D02*
X15500Y-12000D01*
X16500Y-12000D02*
X16500Y-11000D01*
X33500Y-29500D02*
X32500Y-29500D01*
X32500Y-29500D02*
X32500Y-26500D01*
X32500Y-26500D02*
X33500Y-26500D01*
X33500Y-26500D02*
X33500Y-29500D01*
X32500Y-28500D02*
X33500Y-28500D01*
X22165Y-15196D02*
X22165Y-14196D01*
X22165Y-14196D02*
X24165Y-14196D01*
X24165Y-14196D02*
X24165Y-15196D01*
X24165Y-15196D02*
X22165Y-15196D01*
X19685Y-15129D02*
X19685Y-14129D01*
X19685Y-14129D02*
X21685Y-14129D01*
X21685Y-14129D02*
X21685Y-15129D01*
X21685Y-15129D02*
X19685Y-15129D01*
X33500Y-26000D02*
X33500Y-26000D01*
X33500Y-26000D02*
X32500Y-26000D01*
X32500Y-26000D02*
X32500Y-16000D01*
X33500Y-16000D02*
X33500Y-26000D01*
X33500Y-25000D02*
X32500Y-25000D01*
X32500Y-16000D02*
X32500Y-14250D01*
X32500Y-14250D02*
X32500Y-14000D01*
X32500Y-14000D02*
X33500Y-14000D01*
X33500Y-14000D02*
X33500Y-16000D01*
X24100Y-29900D02*
X24100Y-28100D01*
X24100Y-28100D02*
X31900Y-28100D01*
X31900Y-28100D02*
X31900Y-29900D01*
X31900Y-29900D02*
X24100Y-29900D01*
G54D13*
X33500Y-13000D02*
X33500Y-11000D01*
X33500Y-11000D02*
X21500Y-11000D01*
X21500Y-11000D02*
X21500Y-13000D01*
X21500Y-13000D02*
X33500Y-13000D01*
X17500Y-14500D02*
X15500Y-14500D01*
X15500Y-14500D02*
X15500Y-26500D01*
X15500Y-26500D02*
X17500Y-26500D01*
X17500Y-26500D02*
X17500Y-14500D01*
G54D14*
X31750Y-26000D02*
G75*
G03X31750Y-26000I-1250J0D01*
G74*
G01*
X21750Y-17000D02*
G75*
G03X21750Y-17000I-1250J0D01*
G74*
G01*
X28750Y-26500D02*
G75*
G03X28750Y-26500I-1250J0D01*
G74*
G01*
X31750Y-15000D02*
G75*
G03X31750Y-15000I-1250J0D01*
G74*
G01*
X25679Y-25838D02*
G75*
G03X25679Y-25838I-1250J0D01*
G74*
G01*
X22250Y-26000D02*
G75*
G03X22250Y-26000I-1250J0D01*
G74*
G01*
X31750Y-22000D02*
G75*
G03X31750Y-22000I-1250J0D01*
G74*
G01*
X31750Y-18500D02*
G75*
G03X31750Y-18500I-1250J0D01*
G74*
G01*
G54D12*
X23020Y-16000D02*
X25000Y-16000D01*
X25000Y-16000D02*
X25000Y-17000D01*
X25000Y-17000D02*
X23000Y-17000D01*
X23000Y-17000D02*
X23000Y-16000D01*
X23000Y-16250D02*
X23250Y-16000D01*
X27020Y-14500D02*
X29000Y-14500D01*
X29000Y-14500D02*
X29000Y-15500D01*
X29000Y-15500D02*
X27000Y-15500D01*
X27000Y-15500D02*
X27000Y-14500D01*
X27000Y-14750D02*
X27250Y-14500D01*
X19500Y-22980D02*
X19500Y-21000D01*
X19500Y-21000D02*
X20500Y-21000D01*
X20500Y-21000D02*
X20500Y-23000D01*
X20500Y-23000D02*
X19500Y-23000D01*
X19750Y-23000D02*
X19500Y-22750D01*
X28000Y-17980D02*
X28000Y-16000D01*
X28000Y-16000D02*
X29000Y-16000D01*
X29000Y-16000D02*
X29000Y-18000D01*
X29000Y-18000D02*
X28000Y-18000D01*
X28250Y-18000D02*
X28000Y-17750D01*
X27020Y-20000D02*
X29000Y-20000D01*
X29000Y-20000D02*
X29000Y-21000D01*
X29000Y-21000D02*
X27000Y-21000D01*
X27000Y-21000D02*
X27000Y-20000D01*
X27000Y-20250D02*
X27250Y-20000D01*
X18500Y-25980D02*
X18500Y-24000D01*
X18500Y-24000D02*
X19500Y-24000D01*
X19500Y-24000D02*
X19500Y-26000D01*
X19500Y-26000D02*
X18500Y-26000D01*
X18750Y-26000D02*
X18500Y-25750D01*
X19500Y-20480D02*
X19500Y-18500D01*
X19500Y-18500D02*
X20500Y-18500D01*
X20500Y-18500D02*
X20500Y-20500D01*
X20500Y-20500D02*
X19500Y-20500D01*
X19750Y-20500D02*
X19500Y-20250D01*
X26520Y-24000D02*
X28500Y-24000D01*
X28500Y-24000D02*
X28500Y-25000D01*
X28500Y-25000D02*
X26500Y-25000D01*
X26500Y-25000D02*
X26500Y-24000D01*
X26500Y-24250D02*
X26750Y-24000D01*
G54D14*
X26251Y-19570D02*
X26251Y-19470D01*
X26251Y-19470D02*
X26051Y-19220D01*
X26051Y-19220D02*
X25901Y-19220D01*
X26251Y-19570D02*
X26251Y-22220D01*
X26251Y-22220D02*
X23251Y-22220D01*
X23251Y-22220D02*
X23251Y-19220D01*
X23251Y-19220D02*
X25901Y-19220D01*
X26160Y-19409D02*
G75*
G03X26160Y-19409I-125J0D01*
G74*
G01*
G54D10*
X15755Y-28755D02*
X15755Y-29245D01*
X16245Y-29245D01*
X16245Y-28755D01*
X15755Y-28755D01*
X17245Y-29000D02*
G75*
G03X17245Y-29000I-245J0D01*
G74*
G01*
X18245Y-29000D02*
G75*
G03X18245Y-29000I-245J0D01*
G74*
G01*
X19245Y-29000D02*
G75*
G03X19245Y-29000I-245J0D01*
G74*
G01*
X20245Y-29000D02*
G75*
G03X20245Y-29000I-245J0D01*
G74*
G01*
X21245Y-29000D02*
G75*
G03X21245Y-29000I-245J0D01*
G74*
G01*
X22245Y-29000D02*
G75*
G03X22245Y-29000I-245J0D01*
G74*
G01*
X23245Y-29000D02*
G75*
G03X23245Y-29000I-245J0D01*
G74*
G01*
X15755Y-11255D02*
X15755Y-11745D01*
X16245Y-11745D01*
X16245Y-11255D01*
X15755Y-11255D01*
X17245Y-11500D02*
G75*
G03X17245Y-11500I-245J0D01*
G74*
G01*
X18245Y-11500D02*
G75*
G03X18245Y-11500I-245J0D01*
G74*
G01*
X19245Y-11500D02*
G75*
G03X19245Y-11500I-245J0D01*
G74*
G01*
X20245Y-11500D02*
G75*
G03X20245Y-11500I-245J0D01*
G74*
G01*
X32755Y-28755D02*
X32755Y-29245D01*
X33245Y-29245D01*
X33245Y-28755D01*
X32755Y-28755D01*
X33245Y-28000D02*
G75*
G03X33245Y-28000I-245J0D01*
G74*
G01*
X33245Y-27000D02*
G75*
G03X33245Y-27000I-245J0D01*
G74*
G01*
X22420Y-14451D02*
X22420Y-14941D01*
X22910Y-14941D01*
X22910Y-14451D01*
X22420Y-14451D01*
X23910Y-14696D02*
G75*
G03X23910Y-14696I-245J0D01*
G74*
G01*
X19940Y-14384D02*
X19940Y-14874D01*
X20430Y-14874D01*
X20430Y-14384D01*
X19940Y-14384D01*
X21430Y-14629D02*
G75*
G03X21430Y-14629I-245J0D01*
G74*
G01*
X32755Y-25255D02*
X32755Y-25745D01*
X33245Y-25745D01*
X33245Y-25255D01*
X32755Y-25255D01*
X33245Y-24500D02*
G75*
G03X33245Y-24500I-245J0D01*
G74*
G01*
X33245Y-23500D02*
G75*
G03X33245Y-23500I-245J0D01*
G74*
G01*
X33245Y-22500D02*
G75*
G03X33245Y-22500I-245J0D01*
G74*
G01*
X33245Y-21500D02*
G75*
G03X33245Y-21500I-245J0D01*
G74*
G01*
X33245Y-20500D02*
G75*
G03X33245Y-20500I-245J0D01*
G74*
G01*
X33245Y-19500D02*
G75*
G03X33245Y-19500I-245J0D01*
G74*
G01*
X33245Y-18500D02*
G75*
G03X33245Y-18500I-245J0D01*
G74*
G01*
X33245Y-17500D02*
G75*
G03X33245Y-17500I-245J0D01*
G74*
G01*
X33245Y-16500D02*
G75*
G03X33245Y-16500I-245J0D01*
G74*
G01*
X33245Y-15500D02*
G75*
G03X33245Y-15500I-245J0D01*
G74*
G01*
X33245Y-14500D02*
G75*
G03X33245Y-14500I-245J0D01*
G74*
G01*
X24230Y-29230D02*
X24230Y-29770D01*
X24770Y-29770D01*
X24770Y-29230D01*
X24230Y-29230D01*
X24770Y-28500D02*
G75*
G03X24770Y-28500I-270J0D01*
G74*
G01*
X25770Y-29500D02*
G75*
G03X25770Y-29500I-270J0D01*
G74*
G01*
X25770Y-28500D02*
G75*
G03X25770Y-28500I-270J0D01*
G74*
G01*
X26770Y-29500D02*
G75*
G03X26770Y-29500I-270J0D01*
G74*
G01*
X26770Y-28500D02*
G75*
G03X26770Y-28500I-270J0D01*
G74*
G01*
X27770Y-29500D02*
G75*
G03X27770Y-29500I-270J0D01*
G74*
G01*
X27770Y-28500D02*
G75*
G03X27770Y-28500I-270J0D01*
G74*
G01*
X28770Y-29500D02*
G75*
G03X28770Y-29500I-270J0D01*
G74*
G01*
X28770Y-28500D02*
G75*
G03X28770Y-28500I-270J0D01*
G74*
G01*
X29770Y-29500D02*
G75*
G03X29770Y-29500I-270J0D01*
G74*
G01*
X29770Y-28500D02*
G75*
G03X29770Y-28500I-270J0D01*
G74*
G01*
X30770Y-29500D02*
G75*
G03X30770Y-29500I-270J0D01*
G74*
G01*
X30770Y-28500D02*
G75*
G03X30770Y-28500I-270J0D01*
G74*
G01*
X31770Y-29500D02*
G75*
G03X31770Y-29500I-270J0D01*
G74*
G01*
X31770Y-28500D02*
G75*
G03X31770Y-28500I-270J0D01*
G74*
G01*
X32730Y-11230D02*
X32730Y-11770D01*
X33270Y-11770D01*
X33270Y-11230D01*
X32730Y-11230D01*
X33270Y-12500D02*
G75*
G03X33270Y-12500I-270J0D01*
G74*
G01*
X32270Y-11500D02*
G75*
G03X32270Y-11500I-270J0D01*
G74*
G01*
X32270Y-12500D02*
G75*
G03X32270Y-12500I-270J0D01*
G74*
G01*
X31270Y-11500D02*
G75*
G03X31270Y-11500I-270J0D01*
G74*
G01*
X31270Y-12500D02*
G75*
G03X31270Y-12500I-270J0D01*
G74*
G01*
X30270Y-11500D02*
G75*
G03X30270Y-11500I-270J0D01*
G74*
G01*
X30270Y-12500D02*
G75*
G03X30270Y-12500I-270J0D01*
G74*
G01*
X29270Y-11500D02*
G75*
G03X29270Y-11500I-270J0D01*
G74*
G01*
X29270Y-12500D02*
G75*
G03X29270Y-12500I-270J0D01*
G74*
G01*
X28270Y-11500D02*
G75*
G03X28270Y-11500I-270J0D01*
G74*
G01*
X28270Y-12500D02*
G75*
G03X28270Y-12500I-270J0D01*
G74*
G01*
X27270Y-11500D02*
G75*
G03X27270Y-11500I-270J0D01*
G74*
G01*
X27270Y-12500D02*
G75*
G03X27270Y-12500I-270J0D01*
G74*
G01*
X26270Y-11500D02*
G75*
G03X26270Y-11500I-270J0D01*
G74*
G01*
X26270Y-12500D02*
G75*
G03X26270Y-12500I-270J0D01*
G74*
G01*
X25270Y-11500D02*
G75*
G03X25270Y-11500I-270J0D01*
G74*
G01*
X25270Y-12500D02*
G75*
G03X25270Y-12500I-270J0D01*
G74*
G01*
X24270Y-11500D02*
G75*
G03X24270Y-11500I-270J0D01*
G74*
G01*
X24270Y-12500D02*
G75*
G03X24270Y-12500I-270J0D01*
G74*
G01*
X23270Y-11500D02*
G75*
G03X23270Y-11500I-270J0D01*
G74*
G01*
X23270Y-12500D02*
G75*
G03X23270Y-12500I-270J0D01*
G74*
G01*
X22270Y-11500D02*
G75*
G03X22270Y-11500I-270J0D01*
G74*
G01*
X22270Y-12500D02*
G75*
G03X22270Y-12500I-270J0D01*
G74*
G01*
X15730Y-14730D02*
X15730Y-15270D01*
X16270Y-15270D01*
X16270Y-14730D01*
X15730Y-14730D01*
X17270Y-15000D02*
G75*
G03X17270Y-15000I-270J0D01*
G74*
G01*
X16270Y-16000D02*
G75*
G03X16270Y-16000I-270J0D01*
G74*
G01*
X17270Y-16000D02*
G75*
G03X17270Y-16000I-270J0D01*
G74*
G01*
X16270Y-17000D02*
G75*
G03X16270Y-17000I-270J0D01*
G74*
G01*
X17270Y-17000D02*
G75*
G03X17270Y-17000I-270J0D01*
G74*
G01*
X16270Y-18000D02*
G75*
G03X16270Y-18000I-270J0D01*
G74*
G01*
X17270Y-18000D02*
G75*
G03X17270Y-18000I-270J0D01*
G74*
G01*
X16270Y-19000D02*
G75*
G03X16270Y-19000I-270J0D01*
G74*
G01*
X17270Y-19000D02*
G75*
G03X17270Y-19000I-270J0D01*
G74*
G01*
X16270Y-20000D02*
G75*
G03X16270Y-20000I-270J0D01*
G74*
G01*
X17270Y-20000D02*
G75*
G03X17270Y-20000I-270J0D01*
G74*
G01*
X16270Y-21000D02*
G75*
G03X16270Y-21000I-270J0D01*
G74*
G01*
X17270Y-21000D02*
G75*
G03X17270Y-21000I-270J0D01*
G74*
G01*
X16270Y-22000D02*
G75*
G03X16270Y-22000I-270J0D01*
G74*
G01*
X17270Y-22000D02*
G75*
G03X17270Y-22000I-270J0D01*
G74*
G01*
X16270Y-23000D02*
G75*
G03X16270Y-23000I-270J0D01*
G74*
G01*
X17270Y-23000D02*
G75*
G03X17270Y-23000I-270J0D01*
G74*
G01*
X16270Y-24000D02*
G75*
G03X16270Y-24000I-270J0D01*
G74*
G01*
X17270Y-24000D02*
G75*
G03X17270Y-24000I-270J0D01*
G74*
G01*
X16270Y-25000D02*
G75*
G03X16270Y-25000I-270J0D01*
G74*
G01*
X17270Y-25000D02*
G75*
G03X17270Y-25000I-270J0D01*
G74*
G01*
X16270Y-26000D02*
G75*
G03X16270Y-26000I-270J0D01*
G74*
G01*
X17270Y-26000D02*
G75*
G03X17270Y-26000I-270J0D01*
G74*
G01*
X29730Y-25730D02*
X29730Y-26270D01*
X30270Y-26270D01*
X30270Y-25730D01*
X29730Y-25730D01*
X31270Y-26000D02*
G75*
G03X31270Y-26000I-270J0D01*
G74*
G01*
X19730Y-16730D02*
X19730Y-17270D01*
X20270Y-17270D01*
X20270Y-16730D01*
X19730Y-16730D01*
X21270Y-17000D02*
G75*
G03X21270Y-17000I-270J0D01*
G74*
G01*
X26730Y-26230D02*
X26730Y-26770D01*
X27270Y-26770D01*
X27270Y-26230D01*
X26730Y-26230D01*
X28270Y-26500D02*
G75*
G03X28270Y-26500I-270J0D01*
G74*
G01*
X29730Y-14730D02*
X29730Y-15270D01*
X30270Y-15270D01*
X30270Y-14730D01*
X29730Y-14730D01*
X31270Y-15000D02*
G75*
G03X31270Y-15000I-270J0D01*
G74*
G01*
X23659Y-25568D02*
X23659Y-26108D01*
X24199Y-26108D01*
X24199Y-25568D01*
X23659Y-25568D01*
X25199Y-25838D02*
G75*
G03X25199Y-25838I-270J0D01*
G74*
G01*
X20230Y-25730D02*
X20230Y-26270D01*
X20770Y-26270D01*
X20770Y-25730D01*
X20230Y-25730D01*
X21770Y-26000D02*
G75*
G03X21770Y-26000I-270J0D01*
G74*
G01*
X29730Y-21730D02*
X29730Y-22270D01*
X30270Y-22270D01*
X30270Y-21730D01*
X29730Y-21730D01*
X31270Y-22000D02*
G75*
G03X31270Y-22000I-270J0D01*
G74*
G01*
X29730Y-18230D02*
X29730Y-18770D01*
X30270Y-18770D01*
X30270Y-18230D01*
X29730Y-18230D01*
X31270Y-18500D02*
G75*
G03X31270Y-18500I-270J0D01*
G74*
G01*
X23745Y-16500D02*
G75*
G03X23745Y-16500I-245J0D01*
G74*
G01*
X24745Y-16500D02*
G75*
G03X24745Y-16500I-245J0D01*
G74*
G01*
X27745Y-15000D02*
G75*
G03X27745Y-15000I-245J0D01*
G74*
G01*
X28745Y-15000D02*
G75*
G03X28745Y-15000I-245J0D01*
G74*
G01*
X20245Y-22500D02*
G75*
G03X20245Y-22500I-245J0D01*
G74*
G01*
X20245Y-21500D02*
G75*
G03X20245Y-21500I-245J0D01*
G74*
G01*
X28745Y-17500D02*
G75*
G03X28745Y-17500I-245J0D01*
G74*
G01*
X28745Y-16500D02*
G75*
G03X28745Y-16500I-245J0D01*
G74*
G01*
X27745Y-20500D02*
G75*
G03X27745Y-20500I-245J0D01*
G74*
G01*
X28745Y-20500D02*
G75*
G03X28745Y-20500I-245J0D01*
G74*
G01*
X19245Y-25500D02*
G75*
G03X19245Y-25500I-245J0D01*
G74*
G01*
X19245Y-24500D02*
G75*
G03X19245Y-24500I-245J0D01*
G74*
G01*
X20245Y-20000D02*
G75*
G03X20245Y-20000I-245J0D01*
G74*
G01*
X20245Y-19000D02*
G75*
G03X20245Y-19000I-245J0D01*
G74*
G01*
X27245Y-24500D02*
G75*
G03X27245Y-24500I-245J0D01*
G74*
G01*
X28245Y-24500D02*
G75*
G03X28245Y-24500I-245J0D01*
G74*
G01*
G54D15*
X16684Y-28275D02*
X16684Y-27594D01*
X16847Y-27594D01*
X16887Y-27627D01*
X16908Y-27659D01*
X16928Y-27724D01*
X16928Y-27821D01*
X16908Y-27886D01*
X16887Y-27918D01*
X16847Y-27951D01*
X16684Y-27951D01*
X17071Y-27594D02*
X17336Y-27594D01*
X17193Y-27854D01*
X17254Y-27854D01*
X17295Y-27886D01*
X17315Y-27918D01*
X17336Y-27983D01*
X17336Y-28145D01*
X17315Y-28210D01*
X17295Y-28243D01*
X17254Y-28275D01*
X17132Y-28275D01*
X17091Y-28243D01*
X17071Y-28210D01*
G54D12*
G54D16*
X20652Y-28185D02*
X20633Y-28214D01*
X20576Y-28242D01*
X20538Y-28242D01*
X20480Y-28214D01*
X20442Y-28157D01*
X20423Y-28100D01*
X20404Y-27985D01*
X20404Y-27900D01*
X20423Y-27785D01*
X20442Y-27728D01*
X20480Y-27671D01*
X20538Y-27642D01*
X20576Y-27642D01*
X20633Y-27671D01*
X20652Y-27700D01*
X20900Y-27642D02*
X20976Y-27642D01*
X21014Y-27671D01*
X21052Y-27728D01*
X21071Y-27842D01*
X21071Y-28042D01*
X21052Y-28157D01*
X21014Y-28214D01*
X20976Y-28242D01*
X20900Y-28242D01*
X20861Y-28214D01*
X20823Y-28157D01*
X20804Y-28042D01*
X20804Y-27842D01*
X20823Y-27728D01*
X20861Y-27671D01*
X20900Y-27642D01*
X21242Y-28242D02*
X21242Y-27642D01*
X21471Y-28242D01*
X21471Y-27642D01*
X21661Y-28242D02*
X21661Y-27642D01*
X21890Y-28242D01*
X21890Y-27642D01*
X21985Y-28300D02*
X22290Y-28300D01*
X22442Y-27900D02*
X22404Y-27871D01*
X22385Y-27842D01*
X22366Y-27785D01*
X22366Y-27757D01*
X22385Y-27700D01*
X22404Y-27671D01*
X22442Y-27642D01*
X22519Y-27642D01*
X22557Y-27671D01*
X22576Y-27700D01*
X22595Y-27757D01*
X22595Y-27785D01*
X22576Y-27842D01*
X22557Y-27871D01*
X22519Y-27900D01*
X22442Y-27900D01*
X22404Y-27928D01*
X22385Y-27957D01*
X22366Y-28014D01*
X22366Y-28128D01*
X22385Y-28185D01*
X22404Y-28214D01*
X22442Y-28242D01*
X22519Y-28242D01*
X22557Y-28214D01*
X22576Y-28185D01*
X22595Y-28128D01*
X22595Y-28014D01*
X22576Y-27957D01*
X22557Y-27928D01*
X22519Y-27900D01*
G54D12*
G54D15*
X17934Y-10775D02*
X17934Y-10094D01*
X18097Y-10094D01*
X18137Y-10127D01*
X18158Y-10159D01*
X18178Y-10224D01*
X18178Y-10321D01*
X18158Y-10386D01*
X18137Y-10418D01*
X18097Y-10451D01*
X17934Y-10451D01*
X18545Y-10094D02*
X18464Y-10094D01*
X18423Y-10127D01*
X18402Y-10159D01*
X18362Y-10256D01*
X18341Y-10386D01*
X18341Y-10645D01*
X18362Y-10710D01*
X18382Y-10743D01*
X18423Y-10775D01*
X18504Y-10775D01*
X18545Y-10743D01*
X18565Y-10710D01*
X18586Y-10645D01*
X18586Y-10483D01*
X18565Y-10418D01*
X18545Y-10386D01*
X18504Y-10354D01*
X18423Y-10354D01*
X18382Y-10386D01*
X18362Y-10418D01*
X18341Y-10483D01*
G54D12*
G54D17*
X32285Y-28312D02*
X31580Y-28312D01*
X32285Y-28070D02*
X31882Y-28252D01*
X31580Y-28070D02*
X31983Y-28312D01*
X32285Y-27666D02*
X32285Y-27909D01*
X32285Y-27788D02*
X31580Y-27788D01*
X31681Y-27828D01*
X31748Y-27868D01*
X31781Y-27909D01*
G54D12*
G54D15*
X22808Y-13291D02*
X22808Y-13777D01*
X22788Y-13875D01*
X22747Y-13940D01*
X22686Y-13972D01*
X22645Y-13972D01*
X23012Y-13972D02*
X23012Y-13291D01*
X23175Y-13291D01*
X23216Y-13323D01*
X23236Y-13356D01*
X23257Y-13421D01*
X23257Y-13518D01*
X23236Y-13583D01*
X23216Y-13615D01*
X23175Y-13648D01*
X23012Y-13648D01*
X23664Y-13972D02*
X23420Y-13972D01*
X23542Y-13972D02*
X23542Y-13291D01*
X23501Y-13388D01*
X23460Y-13453D01*
X23420Y-13486D01*
G54D12*
G54D15*
X20328Y-13224D02*
X20328Y-13710D01*
X20307Y-13808D01*
X20267Y-13873D01*
X20206Y-13905D01*
X20165Y-13905D01*
X20532Y-13905D02*
X20532Y-13224D01*
X20695Y-13224D01*
X20735Y-13256D01*
X20756Y-13289D01*
X20776Y-13354D01*
X20776Y-13451D01*
X20756Y-13516D01*
X20735Y-13548D01*
X20695Y-13581D01*
X20532Y-13581D01*
X20939Y-13289D02*
X20960Y-13256D01*
X21000Y-13224D01*
X21102Y-13224D01*
X21143Y-13256D01*
X21163Y-13289D01*
X21184Y-13354D01*
X21184Y-13419D01*
X21163Y-13516D01*
X20919Y-13905D01*
X21184Y-13905D01*
G54D12*
G54D15*
X32275Y-23315D02*
X31594Y-23315D01*
X31594Y-23152D01*
X31627Y-23112D01*
X31659Y-23091D01*
X31724Y-23071D01*
X31821Y-23071D01*
X31886Y-23091D01*
X31918Y-23112D01*
X31951Y-23152D01*
X31951Y-23315D01*
X31821Y-22704D02*
X32275Y-22704D01*
X31562Y-22806D02*
X32048Y-22908D01*
X32048Y-22643D01*
G54D12*
G54D16*
X32185Y-18038D02*
X32214Y-18057D01*
X32242Y-18114D01*
X32242Y-18152D01*
X32214Y-18209D01*
X32157Y-18247D01*
X32100Y-18266D01*
X31985Y-18285D01*
X31900Y-18285D01*
X31785Y-18266D01*
X31728Y-18247D01*
X31671Y-18209D01*
X31642Y-18152D01*
X31642Y-18114D01*
X31671Y-18057D01*
X31700Y-18038D01*
X31642Y-17790D02*
X31642Y-17714D01*
X31671Y-17676D01*
X31728Y-17638D01*
X31842Y-17619D01*
X32042Y-17619D01*
X32157Y-17638D01*
X32214Y-17676D01*
X32242Y-17714D01*
X32242Y-17790D01*
X32214Y-17828D01*
X32157Y-17866D01*
X32042Y-17885D01*
X31842Y-17885D01*
X31728Y-17866D01*
X31671Y-17828D01*
X31642Y-17790D01*
X32242Y-17447D02*
X31642Y-17447D01*
X32242Y-17219D01*
X31642Y-17219D01*
X32242Y-17028D02*
X31642Y-17028D01*
X32242Y-16800D01*
X31642Y-16800D01*
X32300Y-16704D02*
X32300Y-16400D01*
X32242Y-16095D02*
X32242Y-16323D01*
X32242Y-16209D02*
X31642Y-16209D01*
X31728Y-16247D01*
X31785Y-16285D01*
X31814Y-16323D01*
X31700Y-15942D02*
X31671Y-15923D01*
X31642Y-15885D01*
X31642Y-15790D01*
X31671Y-15752D01*
X31700Y-15733D01*
X31757Y-15714D01*
X31814Y-15714D01*
X31900Y-15733D01*
X32242Y-15961D01*
X32242Y-15714D01*
G54D12*
G54D18*
X27704Y-27861D02*
X27704Y-27461D01*
X27857Y-27461D01*
X27895Y-27480D01*
X27914Y-27500D01*
X27933Y-27538D01*
X27933Y-27595D01*
X27914Y-27633D01*
X27895Y-27652D01*
X27857Y-27671D01*
X27704Y-27671D01*
X28085Y-27500D02*
X28104Y-27480D01*
X28142Y-27461D01*
X28238Y-27461D01*
X28276Y-27480D01*
X28295Y-27500D01*
X28314Y-27538D01*
X28314Y-27576D01*
X28295Y-27633D01*
X28066Y-27861D01*
X28314Y-27861D01*
X26771Y-30423D02*
X26752Y-30442D01*
X26695Y-30461D01*
X26657Y-30461D01*
X26600Y-30442D01*
X26561Y-30404D01*
X26542Y-30366D01*
X26523Y-30290D01*
X26523Y-30233D01*
X26542Y-30157D01*
X26561Y-30119D01*
X26600Y-30080D01*
X26657Y-30061D01*
X26695Y-30061D01*
X26752Y-30080D01*
X26771Y-30100D01*
X27019Y-30061D02*
X27095Y-30061D01*
X27133Y-30080D01*
X27171Y-30119D01*
X27190Y-30195D01*
X27190Y-30328D01*
X27171Y-30404D01*
X27133Y-30442D01*
X27095Y-30461D01*
X27019Y-30461D01*
X26980Y-30442D01*
X26942Y-30404D01*
X26923Y-30328D01*
X26923Y-30195D01*
X26942Y-30119D01*
X26980Y-30080D01*
X27019Y-30061D01*
X27361Y-30461D02*
X27361Y-30061D01*
X27590Y-30461D01*
X27590Y-30061D01*
X27780Y-30461D02*
X27780Y-30061D01*
X28009Y-30461D01*
X28009Y-30061D01*
X28104Y-30500D02*
X28409Y-30500D01*
X28561Y-30233D02*
X28523Y-30214D01*
X28504Y-30195D01*
X28485Y-30157D01*
X28485Y-30138D01*
X28504Y-30100D01*
X28523Y-30080D01*
X28561Y-30061D01*
X28638Y-30061D01*
X28676Y-30080D01*
X28695Y-30100D01*
X28714Y-30138D01*
X28714Y-30157D01*
X28695Y-30195D01*
X28676Y-30214D01*
X28638Y-30233D01*
X28561Y-30233D01*
X28523Y-30252D01*
X28504Y-30271D01*
X28485Y-30309D01*
X28485Y-30385D01*
X28504Y-30423D01*
X28523Y-30442D01*
X28561Y-30461D01*
X28638Y-30461D01*
X28676Y-30442D01*
X28695Y-30423D01*
X28714Y-30385D01*
X28714Y-30309D01*
X28695Y-30271D01*
X28676Y-30252D01*
X28638Y-30233D01*
X28847Y-30061D02*
X29114Y-30461D01*
X29114Y-30061D02*
X28847Y-30461D01*
X29247Y-30100D02*
X29266Y-30080D01*
X29304Y-30061D01*
X29400Y-30061D01*
X29438Y-30080D01*
X29457Y-30100D01*
X29476Y-30138D01*
X29476Y-30176D01*
X29457Y-30233D01*
X29228Y-30461D01*
X29476Y-30461D01*
G54D16*
X27204Y-13661D02*
X27204Y-13261D01*
X27357Y-13261D01*
X27395Y-13280D01*
X27414Y-13300D01*
X27433Y-13338D01*
X27433Y-13395D01*
X27414Y-13433D01*
X27395Y-13452D01*
X27357Y-13471D01*
X27204Y-13471D01*
X27814Y-13661D02*
X27585Y-13661D01*
X27700Y-13661D02*
X27700Y-13261D01*
X27661Y-13319D01*
X27623Y-13357D01*
X27585Y-13376D01*
G54D19*
G54D18*
X26080Y-10623D02*
X26061Y-10642D01*
X26004Y-10661D01*
X25966Y-10661D01*
X25909Y-10642D01*
X25871Y-10604D01*
X25852Y-10566D01*
X25833Y-10490D01*
X25833Y-10433D01*
X25852Y-10357D01*
X25871Y-10319D01*
X25909Y-10280D01*
X25966Y-10261D01*
X26004Y-10261D01*
X26061Y-10280D01*
X26080Y-10300D01*
X26328Y-10261D02*
X26404Y-10261D01*
X26442Y-10280D01*
X26480Y-10319D01*
X26500Y-10395D01*
X26500Y-10528D01*
X26480Y-10604D01*
X26442Y-10642D01*
X26404Y-10661D01*
X26328Y-10661D01*
X26290Y-10642D01*
X26252Y-10604D01*
X26233Y-10528D01*
X26233Y-10395D01*
X26252Y-10319D01*
X26290Y-10280D01*
X26328Y-10261D01*
X26671Y-10661D02*
X26671Y-10261D01*
X26900Y-10661D01*
X26900Y-10261D01*
X27090Y-10661D02*
X27090Y-10261D01*
X27319Y-10661D01*
X27319Y-10261D01*
X27414Y-10700D02*
X27719Y-10700D01*
X28023Y-10661D02*
X27795Y-10661D01*
X27909Y-10661D02*
X27909Y-10261D01*
X27871Y-10319D01*
X27833Y-10357D01*
X27795Y-10376D01*
X28176Y-10300D02*
X28195Y-10280D01*
X28233Y-10261D01*
X28328Y-10261D01*
X28366Y-10280D01*
X28385Y-10300D01*
X28404Y-10338D01*
X28404Y-10376D01*
X28385Y-10433D01*
X28157Y-10661D01*
X28404Y-10661D01*
X28538Y-10261D02*
X28804Y-10661D01*
X28804Y-10261D02*
X28538Y-10661D01*
X28938Y-10300D02*
X28957Y-10280D01*
X28995Y-10261D01*
X29090Y-10261D01*
X29128Y-10280D01*
X29147Y-10300D01*
X29166Y-10338D01*
X29166Y-10376D01*
X29147Y-10433D01*
X28919Y-10661D01*
X29166Y-10661D01*
G54D16*
X18161Y-20795D02*
X17761Y-20795D01*
X17761Y-20642D01*
X17780Y-20604D01*
X17800Y-20585D01*
X17838Y-20566D01*
X17895Y-20566D01*
X17933Y-20585D01*
X17952Y-20604D01*
X17971Y-20642D01*
X17971Y-20795D01*
X17761Y-20204D02*
X17761Y-20395D01*
X17952Y-20414D01*
X17933Y-20395D01*
X17914Y-20357D01*
X17914Y-20261D01*
X17933Y-20223D01*
X17952Y-20204D01*
X17990Y-20185D01*
X18085Y-20185D01*
X18123Y-20204D01*
X18142Y-20223D01*
X18161Y-20261D01*
X18161Y-20357D01*
X18142Y-20395D01*
X18123Y-20414D01*
G54D19*
G54D18*
X15123Y-21919D02*
X15142Y-21938D01*
X15161Y-21995D01*
X15161Y-22033D01*
X15142Y-22090D01*
X15104Y-22128D01*
X15066Y-22147D01*
X14990Y-22166D01*
X14933Y-22166D01*
X14857Y-22147D01*
X14819Y-22128D01*
X14780Y-22090D01*
X14761Y-22033D01*
X14761Y-21995D01*
X14780Y-21938D01*
X14800Y-21919D01*
X14761Y-21671D02*
X14761Y-21595D01*
X14780Y-21557D01*
X14819Y-21519D01*
X14895Y-21500D01*
X15028Y-21500D01*
X15104Y-21519D01*
X15142Y-21557D01*
X15161Y-21595D01*
X15161Y-21671D01*
X15142Y-21709D01*
X15104Y-21747D01*
X15028Y-21766D01*
X14895Y-21766D01*
X14819Y-21747D01*
X14780Y-21709D01*
X14761Y-21671D01*
X15161Y-21328D02*
X14761Y-21328D01*
X15161Y-21100D01*
X14761Y-21100D01*
X15161Y-20909D02*
X14761Y-20909D01*
X15161Y-20680D01*
X14761Y-20680D01*
X15200Y-20585D02*
X15200Y-20280D01*
X15161Y-19976D02*
X15161Y-20204D01*
X15161Y-20090D02*
X14761Y-20090D01*
X14819Y-20128D01*
X14857Y-20166D01*
X14876Y-20204D01*
X14800Y-19823D02*
X14780Y-19804D01*
X14761Y-19766D01*
X14761Y-19671D01*
X14780Y-19633D01*
X14800Y-19614D01*
X14838Y-19595D01*
X14876Y-19595D01*
X14933Y-19614D01*
X15161Y-19842D01*
X15161Y-19595D01*
X14761Y-19461D02*
X15161Y-19195D01*
X14761Y-19195D02*
X15161Y-19461D01*
X14800Y-19061D02*
X14780Y-19042D01*
X14761Y-19004D01*
X14761Y-18909D01*
X14780Y-18871D01*
X14800Y-18852D01*
X14838Y-18833D01*
X14876Y-18833D01*
X14933Y-18852D01*
X15161Y-19080D01*
X15161Y-18833D01*
X30275Y-26739D02*
X30258Y-26760D01*
X30208Y-26782D01*
X30175Y-26782D01*
X30125Y-26760D01*
X30091Y-26717D01*
X30075Y-26675D01*
X30058Y-26589D01*
X30058Y-26525D01*
X30075Y-26439D01*
X30091Y-26396D01*
X30125Y-26353D01*
X30175Y-26332D01*
X30208Y-26332D01*
X30258Y-26353D01*
X30275Y-26375D01*
X30608Y-26782D02*
X30408Y-26782D01*
X30508Y-26782D02*
X30508Y-26332D01*
X30475Y-26396D01*
X30441Y-26439D01*
X30408Y-26460D01*
X30825Y-26332D02*
X30858Y-26332D01*
X30891Y-26353D01*
X30908Y-26375D01*
X30925Y-26417D01*
X30941Y-26503D01*
X30941Y-26610D01*
X30925Y-26696D01*
X30908Y-26739D01*
X30891Y-26760D01*
X30858Y-26782D01*
X30825Y-26782D01*
X30791Y-26760D01*
X30775Y-26739D01*
X30758Y-26696D01*
X30741Y-26610D01*
X30741Y-26503D01*
X30758Y-26417D01*
X30775Y-26375D01*
X30791Y-26353D01*
X30825Y-26332D01*
X30125Y-25582D02*
X29925Y-25582D01*
X30025Y-25582D02*
X30025Y-25132D01*
X29991Y-25196D01*
X29958Y-25239D01*
X29925Y-25260D01*
X30341Y-25132D02*
X30375Y-25132D01*
X30408Y-25153D01*
X30425Y-25175D01*
X30441Y-25217D01*
X30458Y-25303D01*
X30458Y-25410D01*
X30441Y-25496D01*
X30425Y-25539D01*
X30408Y-25560D01*
X30375Y-25582D01*
X30341Y-25582D01*
X30308Y-25560D01*
X30291Y-25539D01*
X30275Y-25496D01*
X30258Y-25410D01*
X30258Y-25303D01*
X30275Y-25217D01*
X30291Y-25175D01*
X30308Y-25153D01*
X30341Y-25132D01*
X30758Y-25282D02*
X30758Y-25582D01*
X30608Y-25282D02*
X30608Y-25517D01*
X30625Y-25560D01*
X30658Y-25582D01*
X30708Y-25582D01*
X30741Y-25560D01*
X30758Y-25539D01*
X31041Y-25346D02*
X30925Y-25346D01*
X30925Y-25582D02*
X30925Y-25132D01*
X31091Y-25132D01*
G54D20*
X29328Y-26010D02*
X29671Y-26010D01*
X29500Y-26182D02*
X29500Y-25839D01*
G54D12*
G54D18*
X20441Y-17739D02*
X20425Y-17760D01*
X20375Y-17782D01*
X20341Y-17782D01*
X20291Y-17760D01*
X20258Y-17717D01*
X20241Y-17675D01*
X20225Y-17589D01*
X20225Y-17525D01*
X20241Y-17439D01*
X20258Y-17396D01*
X20291Y-17353D01*
X20341Y-17332D01*
X20375Y-17332D01*
X20425Y-17353D01*
X20441Y-17375D01*
X20775Y-17782D02*
X20575Y-17782D01*
X20675Y-17782D02*
X20675Y-17332D01*
X20641Y-17396D01*
X20608Y-17439D01*
X20575Y-17460D01*
X20125Y-16582D02*
X19925Y-16582D01*
X20025Y-16582D02*
X20025Y-16132D01*
X19991Y-16196D01*
X19958Y-16239D01*
X19925Y-16260D01*
X20341Y-16132D02*
X20375Y-16132D01*
X20408Y-16153D01*
X20425Y-16175D01*
X20441Y-16217D01*
X20458Y-16303D01*
X20458Y-16410D01*
X20441Y-16496D01*
X20425Y-16539D01*
X20408Y-16560D01*
X20375Y-16582D01*
X20341Y-16582D01*
X20308Y-16560D01*
X20291Y-16539D01*
X20275Y-16496D01*
X20258Y-16410D01*
X20258Y-16303D01*
X20275Y-16217D01*
X20291Y-16175D01*
X20308Y-16153D01*
X20341Y-16132D01*
X20758Y-16282D02*
X20758Y-16582D01*
X20608Y-16282D02*
X20608Y-16517D01*
X20625Y-16560D01*
X20658Y-16582D01*
X20708Y-16582D01*
X20741Y-16560D01*
X20758Y-16539D01*
X21041Y-16346D02*
X20925Y-16346D01*
X20925Y-16582D02*
X20925Y-16132D01*
X21091Y-16132D01*
G54D20*
X19328Y-17010D02*
X19671Y-17010D01*
X19500Y-17182D02*
X19500Y-16839D01*
G54D12*
G54D18*
X27275Y-27239D02*
X27258Y-27260D01*
X27208Y-27282D01*
X27175Y-27282D01*
X27125Y-27260D01*
X27091Y-27217D01*
X27075Y-27175D01*
X27058Y-27089D01*
X27058Y-27025D01*
X27075Y-26939D01*
X27091Y-26896D01*
X27125Y-26853D01*
X27175Y-26832D01*
X27208Y-26832D01*
X27258Y-26853D01*
X27275Y-26875D01*
X27608Y-27282D02*
X27408Y-27282D01*
X27508Y-27282D02*
X27508Y-26832D01*
X27475Y-26896D01*
X27441Y-26939D01*
X27408Y-26960D01*
X27941Y-27282D02*
X27741Y-27282D01*
X27841Y-27282D02*
X27841Y-26832D01*
X27808Y-26896D01*
X27775Y-26939D01*
X27741Y-26960D01*
X27125Y-26082D02*
X26925Y-26082D01*
X27025Y-26082D02*
X27025Y-25632D01*
X26991Y-25696D01*
X26958Y-25739D01*
X26925Y-25760D01*
X27341Y-25632D02*
X27375Y-25632D01*
X27408Y-25653D01*
X27425Y-25675D01*
X27441Y-25717D01*
X27458Y-25803D01*
X27458Y-25910D01*
X27441Y-25996D01*
X27425Y-26039D01*
X27408Y-26060D01*
X27375Y-26082D01*
X27341Y-26082D01*
X27308Y-26060D01*
X27291Y-26039D01*
X27275Y-25996D01*
X27258Y-25910D01*
X27258Y-25803D01*
X27275Y-25717D01*
X27291Y-25675D01*
X27308Y-25653D01*
X27341Y-25632D01*
X27758Y-25782D02*
X27758Y-26082D01*
X27608Y-25782D02*
X27608Y-26017D01*
X27625Y-26060D01*
X27658Y-26082D01*
X27708Y-26082D01*
X27741Y-26060D01*
X27758Y-26039D01*
X28041Y-25846D02*
X27925Y-25846D01*
X27925Y-26082D02*
X27925Y-25632D01*
X28091Y-25632D01*
G54D20*
X26328Y-26510D02*
X26671Y-26510D01*
X26500Y-26682D02*
X26500Y-26339D01*
G54D12*
G54D18*
X30441Y-15739D02*
X30425Y-15760D01*
X30375Y-15782D01*
X30341Y-15782D01*
X30291Y-15760D01*
X30258Y-15717D01*
X30241Y-15675D01*
X30225Y-15589D01*
X30225Y-15525D01*
X30241Y-15439D01*
X30258Y-15396D01*
X30291Y-15353D01*
X30341Y-15332D01*
X30375Y-15332D01*
X30425Y-15353D01*
X30441Y-15375D01*
X30575Y-15375D02*
X30591Y-15353D01*
X30625Y-15332D01*
X30708Y-15332D01*
X30741Y-15353D01*
X30758Y-15375D01*
X30775Y-15417D01*
X30775Y-15460D01*
X30758Y-15525D01*
X30558Y-15782D01*
X30775Y-15782D01*
X30125Y-14582D02*
X29925Y-14582D01*
X30025Y-14582D02*
X30025Y-14132D01*
X29991Y-14196D01*
X29958Y-14239D01*
X29925Y-14260D01*
X30341Y-14132D02*
X30375Y-14132D01*
X30408Y-14153D01*
X30425Y-14175D01*
X30441Y-14217D01*
X30458Y-14303D01*
X30458Y-14410D01*
X30441Y-14496D01*
X30425Y-14539D01*
X30408Y-14560D01*
X30375Y-14582D01*
X30341Y-14582D01*
X30308Y-14560D01*
X30291Y-14539D01*
X30275Y-14496D01*
X30258Y-14410D01*
X30258Y-14303D01*
X30275Y-14217D01*
X30291Y-14175D01*
X30308Y-14153D01*
X30341Y-14132D01*
X30758Y-14282D02*
X30758Y-14582D01*
X30608Y-14282D02*
X30608Y-14517D01*
X30625Y-14560D01*
X30658Y-14582D01*
X30708Y-14582D01*
X30741Y-14560D01*
X30758Y-14539D01*
X31041Y-14346D02*
X30925Y-14346D01*
X30925Y-14582D02*
X30925Y-14132D01*
X31091Y-14132D01*
G54D20*
X29328Y-15010D02*
X29671Y-15010D01*
X29500Y-15182D02*
X29500Y-14839D01*
G54D12*
G54D18*
X24204Y-26577D02*
X24187Y-26599D01*
X24137Y-26620D01*
X24104Y-26620D01*
X24054Y-26599D01*
X24020Y-26556D01*
X24004Y-26513D01*
X23987Y-26427D01*
X23987Y-26363D01*
X24004Y-26277D01*
X24020Y-26235D01*
X24054Y-26192D01*
X24104Y-26170D01*
X24137Y-26170D01*
X24187Y-26192D01*
X24204Y-26213D01*
X24537Y-26620D02*
X24337Y-26620D01*
X24437Y-26620D02*
X24437Y-26170D01*
X24404Y-26235D01*
X24370Y-26277D01*
X24337Y-26299D01*
X24670Y-26213D02*
X24687Y-26192D01*
X24720Y-26170D01*
X24804Y-26170D01*
X24837Y-26192D01*
X24854Y-26213D01*
X24870Y-26256D01*
X24870Y-26299D01*
X24854Y-26363D01*
X24654Y-26620D01*
X24870Y-26620D01*
X24054Y-25420D02*
X23854Y-25420D01*
X23954Y-25420D02*
X23954Y-24970D01*
X23920Y-25035D01*
X23887Y-25077D01*
X23854Y-25099D01*
X24270Y-24970D02*
X24304Y-24970D01*
X24337Y-24992D01*
X24354Y-25013D01*
X24370Y-25056D01*
X24387Y-25142D01*
X24387Y-25249D01*
X24370Y-25335D01*
X24354Y-25377D01*
X24337Y-25399D01*
X24304Y-25420D01*
X24270Y-25420D01*
X24237Y-25399D01*
X24220Y-25377D01*
X24204Y-25335D01*
X24187Y-25249D01*
X24187Y-25142D01*
X24204Y-25056D01*
X24220Y-25013D01*
X24237Y-24992D01*
X24270Y-24970D01*
X24687Y-25120D02*
X24687Y-25420D01*
X24537Y-25120D02*
X24537Y-25356D01*
X24554Y-25399D01*
X24587Y-25420D01*
X24637Y-25420D01*
X24670Y-25399D01*
X24687Y-25377D01*
X24970Y-25185D02*
X24854Y-25185D01*
X24854Y-25420D02*
X24854Y-24970D01*
X25020Y-24970D01*
G54D20*
X23257Y-25849D02*
X23600Y-25849D01*
X23429Y-26020D02*
X23429Y-25677D01*
G54D12*
G54D18*
X20941Y-26739D02*
X20925Y-26760D01*
X20875Y-26782D01*
X20841Y-26782D01*
X20791Y-26760D01*
X20758Y-26717D01*
X20741Y-26675D01*
X20725Y-26589D01*
X20725Y-26525D01*
X20741Y-26439D01*
X20758Y-26396D01*
X20791Y-26353D01*
X20841Y-26332D01*
X20875Y-26332D01*
X20925Y-26353D01*
X20941Y-26375D01*
X21241Y-26482D02*
X21241Y-26782D01*
X21158Y-26310D02*
X21075Y-26632D01*
X21291Y-26632D01*
X20625Y-25582D02*
X20425Y-25582D01*
X20525Y-25582D02*
X20525Y-25132D01*
X20491Y-25196D01*
X20458Y-25239D01*
X20425Y-25260D01*
X20841Y-25132D02*
X20875Y-25132D01*
X20908Y-25153D01*
X20925Y-25175D01*
X20941Y-25217D01*
X20958Y-25303D01*
X20958Y-25410D01*
X20941Y-25496D01*
X20925Y-25539D01*
X20908Y-25560D01*
X20875Y-25582D01*
X20841Y-25582D01*
X20808Y-25560D01*
X20791Y-25539D01*
X20775Y-25496D01*
X20758Y-25410D01*
X20758Y-25303D01*
X20775Y-25217D01*
X20791Y-25175D01*
X20808Y-25153D01*
X20841Y-25132D01*
X21258Y-25282D02*
X21258Y-25582D01*
X21108Y-25282D02*
X21108Y-25517D01*
X21125Y-25560D01*
X21158Y-25582D01*
X21208Y-25582D01*
X21241Y-25560D01*
X21258Y-25539D01*
X21541Y-25346D02*
X21425Y-25346D01*
X21425Y-25582D02*
X21425Y-25132D01*
X21591Y-25132D01*
G54D20*
X19828Y-26010D02*
X20171Y-26010D01*
X20000Y-26182D02*
X20000Y-25839D01*
G54D12*
G54D18*
X30441Y-22739D02*
X30425Y-22760D01*
X30375Y-22782D01*
X30341Y-22782D01*
X30291Y-22760D01*
X30258Y-22717D01*
X30241Y-22675D01*
X30225Y-22589D01*
X30225Y-22525D01*
X30241Y-22439D01*
X30258Y-22396D01*
X30291Y-22353D01*
X30341Y-22332D01*
X30375Y-22332D01*
X30425Y-22353D01*
X30441Y-22375D01*
X30608Y-22782D02*
X30675Y-22782D01*
X30708Y-22760D01*
X30725Y-22739D01*
X30758Y-22675D01*
X30775Y-22589D01*
X30775Y-22417D01*
X30758Y-22375D01*
X30741Y-22353D01*
X30708Y-22332D01*
X30641Y-22332D01*
X30608Y-22353D01*
X30591Y-22375D01*
X30575Y-22417D01*
X30575Y-22525D01*
X30591Y-22567D01*
X30608Y-22589D01*
X30641Y-22610D01*
X30708Y-22610D01*
X30741Y-22589D01*
X30758Y-22567D01*
X30775Y-22525D01*
X30125Y-21582D02*
X29925Y-21582D01*
X30025Y-21582D02*
X30025Y-21132D01*
X29991Y-21196D01*
X29958Y-21239D01*
X29925Y-21260D01*
X30341Y-21132D02*
X30375Y-21132D01*
X30408Y-21153D01*
X30425Y-21175D01*
X30441Y-21217D01*
X30458Y-21303D01*
X30458Y-21410D01*
X30441Y-21496D01*
X30425Y-21539D01*
X30408Y-21560D01*
X30375Y-21582D01*
X30341Y-21582D01*
X30308Y-21560D01*
X30291Y-21539D01*
X30275Y-21496D01*
X30258Y-21410D01*
X30258Y-21303D01*
X30275Y-21217D01*
X30291Y-21175D01*
X30308Y-21153D01*
X30341Y-21132D01*
X30758Y-21282D02*
X30758Y-21582D01*
X30608Y-21282D02*
X30608Y-21517D01*
X30625Y-21560D01*
X30658Y-21582D01*
X30708Y-21582D01*
X30741Y-21560D01*
X30758Y-21539D01*
X31041Y-21346D02*
X30925Y-21346D01*
X30925Y-21582D02*
X30925Y-21132D01*
X31091Y-21132D01*
G54D20*
X29328Y-22010D02*
X29671Y-22010D01*
X29500Y-22182D02*
X29500Y-21839D01*
G54D12*
G54D18*
X30441Y-19239D02*
X30425Y-19260D01*
X30375Y-19282D01*
X30341Y-19282D01*
X30291Y-19260D01*
X30258Y-19217D01*
X30241Y-19175D01*
X30225Y-19089D01*
X30225Y-19025D01*
X30241Y-18939D01*
X30258Y-18896D01*
X30291Y-18853D01*
X30341Y-18832D01*
X30375Y-18832D01*
X30425Y-18853D01*
X30441Y-18875D01*
X30558Y-18832D02*
X30775Y-18832D01*
X30658Y-19003D01*
X30708Y-19003D01*
X30741Y-19025D01*
X30758Y-19046D01*
X30775Y-19089D01*
X30775Y-19196D01*
X30758Y-19239D01*
X30741Y-19260D01*
X30708Y-19282D01*
X30608Y-19282D01*
X30575Y-19260D01*
X30558Y-19239D01*
X30125Y-18082D02*
X29925Y-18082D01*
X30025Y-18082D02*
X30025Y-17632D01*
X29991Y-17696D01*
X29958Y-17739D01*
X29925Y-17760D01*
X30341Y-17632D02*
X30375Y-17632D01*
X30408Y-17653D01*
X30425Y-17675D01*
X30441Y-17717D01*
X30458Y-17803D01*
X30458Y-17910D01*
X30441Y-17996D01*
X30425Y-18039D01*
X30408Y-18060D01*
X30375Y-18082D01*
X30341Y-18082D01*
X30308Y-18060D01*
X30291Y-18039D01*
X30275Y-17996D01*
X30258Y-17910D01*
X30258Y-17803D01*
X30275Y-17717D01*
X30291Y-17675D01*
X30308Y-17653D01*
X30341Y-17632D01*
X30758Y-17782D02*
X30758Y-18082D01*
X30608Y-17782D02*
X30608Y-18017D01*
X30625Y-18060D01*
X30658Y-18082D01*
X30708Y-18082D01*
X30741Y-18060D01*
X30758Y-18039D01*
X31041Y-17846D02*
X30925Y-17846D01*
X30925Y-18082D02*
X30925Y-17632D01*
X31091Y-17632D01*
G54D20*
X29328Y-18510D02*
X29671Y-18510D01*
X29500Y-18682D02*
X29500Y-18339D01*
G54D12*
G54D18*
X24033Y-15723D02*
X24014Y-15742D01*
X23957Y-15761D01*
X23919Y-15761D01*
X23861Y-15742D01*
X23823Y-15704D01*
X23804Y-15666D01*
X23785Y-15590D01*
X23785Y-15533D01*
X23804Y-15457D01*
X23823Y-15419D01*
X23861Y-15380D01*
X23919Y-15361D01*
X23957Y-15361D01*
X24014Y-15380D01*
X24033Y-15400D01*
X24166Y-15361D02*
X24433Y-15361D01*
X24261Y-15761D01*
X27842Y-14223D02*
X27823Y-14242D01*
X27766Y-14261D01*
X27728Y-14261D01*
X27671Y-14242D01*
X27633Y-14204D01*
X27614Y-14166D01*
X27595Y-14090D01*
X27595Y-14033D01*
X27614Y-13957D01*
X27633Y-13919D01*
X27671Y-13880D01*
X27728Y-13861D01*
X27766Y-13861D01*
X27823Y-13880D01*
X27842Y-13900D01*
X28223Y-14261D02*
X27995Y-14261D01*
X28109Y-14261D02*
X28109Y-13861D01*
X28071Y-13919D01*
X28033Y-13957D01*
X27995Y-13976D01*
X28357Y-13861D02*
X28604Y-13861D01*
X28471Y-14014D01*
X28528Y-14014D01*
X28566Y-14033D01*
X28585Y-14052D01*
X28604Y-14090D01*
X28604Y-14185D01*
X28585Y-14223D01*
X28566Y-14242D01*
X28528Y-14261D01*
X28414Y-14261D01*
X28376Y-14242D01*
X28357Y-14223D01*
X19223Y-22157D02*
X19242Y-22176D01*
X19261Y-22233D01*
X19261Y-22271D01*
X19242Y-22328D01*
X19204Y-22366D01*
X19166Y-22385D01*
X19090Y-22404D01*
X19033Y-22404D01*
X18957Y-22385D01*
X18919Y-22366D01*
X18880Y-22328D01*
X18861Y-22271D01*
X18861Y-22233D01*
X18880Y-22176D01*
X18900Y-22157D01*
X19261Y-21776D02*
X19261Y-22004D01*
X19261Y-21890D02*
X18861Y-21890D01*
X18919Y-21928D01*
X18957Y-21966D01*
X18976Y-22004D01*
X18995Y-21433D02*
X19261Y-21433D01*
X18842Y-21528D02*
X19128Y-21623D01*
X19128Y-21376D01*
X27723Y-16966D02*
X27742Y-16985D01*
X27761Y-17042D01*
X27761Y-17080D01*
X27742Y-17138D01*
X27704Y-17176D01*
X27666Y-17195D01*
X27590Y-17214D01*
X27533Y-17214D01*
X27457Y-17195D01*
X27419Y-17176D01*
X27380Y-17138D01*
X27361Y-17080D01*
X27361Y-17042D01*
X27380Y-16985D01*
X27400Y-16966D01*
X27361Y-16623D02*
X27361Y-16699D01*
X27380Y-16738D01*
X27400Y-16757D01*
X27457Y-16795D01*
X27533Y-16814D01*
X27685Y-16814D01*
X27723Y-16795D01*
X27742Y-16776D01*
X27761Y-16738D01*
X27761Y-16661D01*
X27742Y-16623D01*
X27723Y-16604D01*
X27685Y-16585D01*
X27590Y-16585D01*
X27552Y-16604D01*
X27533Y-16623D01*
X27514Y-16661D01*
X27514Y-16738D01*
X27533Y-16776D01*
X27552Y-16795D01*
X27590Y-16814D01*
X28033Y-19723D02*
X28014Y-19742D01*
X27957Y-19761D01*
X27919Y-19761D01*
X27861Y-19742D01*
X27823Y-19704D01*
X27804Y-19666D01*
X27785Y-19590D01*
X27785Y-19533D01*
X27804Y-19457D01*
X27823Y-19419D01*
X27861Y-19380D01*
X27919Y-19361D01*
X27957Y-19361D01*
X28014Y-19380D01*
X28033Y-19400D01*
X28395Y-19361D02*
X28204Y-19361D01*
X28185Y-19552D01*
X28204Y-19533D01*
X28242Y-19514D01*
X28338Y-19514D01*
X28376Y-19533D01*
X28395Y-19552D01*
X28414Y-19590D01*
X28414Y-19685D01*
X28395Y-19723D01*
X28376Y-19742D01*
X28338Y-19761D01*
X28242Y-19761D01*
X28204Y-19742D01*
X28185Y-19723D01*
X18223Y-25157D02*
X18242Y-25176D01*
X18261Y-25233D01*
X18261Y-25271D01*
X18242Y-25328D01*
X18204Y-25366D01*
X18166Y-25385D01*
X18090Y-25404D01*
X18033Y-25404D01*
X17957Y-25385D01*
X17919Y-25366D01*
X17880Y-25328D01*
X17861Y-25271D01*
X17861Y-25233D01*
X17880Y-25176D01*
X17900Y-25157D01*
X18261Y-24776D02*
X18261Y-25004D01*
X18261Y-24890D02*
X17861Y-24890D01*
X17919Y-24928D01*
X17957Y-24966D01*
X17976Y-25004D01*
X17861Y-24414D02*
X17861Y-24604D01*
X18052Y-24623D01*
X18033Y-24604D01*
X18014Y-24566D01*
X18014Y-24471D01*
X18033Y-24433D01*
X18052Y-24414D01*
X18090Y-24395D01*
X18185Y-24395D01*
X18223Y-24414D01*
X18242Y-24433D01*
X18261Y-24471D01*
X18261Y-24566D01*
X18242Y-24604D01*
X18223Y-24623D01*
X19223Y-19466D02*
X19242Y-19485D01*
X19261Y-19542D01*
X19261Y-19580D01*
X19242Y-19638D01*
X19204Y-19676D01*
X19166Y-19695D01*
X19090Y-19714D01*
X19033Y-19714D01*
X18957Y-19695D01*
X18919Y-19676D01*
X18880Y-19638D01*
X18861Y-19580D01*
X18861Y-19542D01*
X18880Y-19485D01*
X18900Y-19466D01*
X19033Y-19238D02*
X19014Y-19276D01*
X18995Y-19295D01*
X18957Y-19314D01*
X18938Y-19314D01*
X18900Y-19295D01*
X18880Y-19276D01*
X18861Y-19238D01*
X18861Y-19161D01*
X18880Y-19123D01*
X18900Y-19104D01*
X18938Y-19085D01*
X18957Y-19085D01*
X18995Y-19104D01*
X19014Y-19123D01*
X19033Y-19161D01*
X19033Y-19238D01*
X19052Y-19276D01*
X19071Y-19295D01*
X19109Y-19314D01*
X19185Y-19314D01*
X19223Y-19295D01*
X19242Y-19276D01*
X19261Y-19238D01*
X19261Y-19161D01*
X19242Y-19123D01*
X19223Y-19104D01*
X19185Y-19085D01*
X19109Y-19085D01*
X19071Y-19104D01*
X19052Y-19123D01*
X19033Y-19161D01*
X27342Y-23723D02*
X27323Y-23742D01*
X27266Y-23761D01*
X27228Y-23761D01*
X27171Y-23742D01*
X27133Y-23704D01*
X27114Y-23666D01*
X27095Y-23590D01*
X27095Y-23533D01*
X27114Y-23457D01*
X27133Y-23419D01*
X27171Y-23380D01*
X27228Y-23361D01*
X27266Y-23361D01*
X27323Y-23380D01*
X27342Y-23400D01*
X27723Y-23761D02*
X27495Y-23761D01*
X27609Y-23761D02*
X27609Y-23361D01*
X27571Y-23419D01*
X27533Y-23457D01*
X27495Y-23476D01*
X28066Y-23361D02*
X27990Y-23361D01*
X27952Y-23380D01*
X27933Y-23400D01*
X27895Y-23457D01*
X27876Y-23533D01*
X27876Y-23685D01*
X27895Y-23723D01*
X27914Y-23742D01*
X27952Y-23761D01*
X28028Y-23761D01*
X28066Y-23742D01*
X28085Y-23723D01*
X28104Y-23685D01*
X28104Y-23590D01*
X28085Y-23552D01*
X28066Y-23533D01*
X28028Y-23514D01*
X27952Y-23514D01*
X27914Y-23533D01*
X27895Y-23552D01*
X27876Y-23590D01*
G54D14*
X23073Y-22549D02*
X23316Y-22549D01*
X23344Y-22534D01*
X23359Y-22520D01*
X23373Y-22491D01*
X23373Y-22434D01*
X23359Y-22406D01*
X23344Y-22391D01*
X23316Y-22377D01*
X23073Y-22377D01*
X23373Y-22077D02*
X23373Y-22249D01*
X23373Y-22163D02*
X23073Y-22163D01*
X23116Y-22191D01*
X23144Y-22220D01*
X23159Y-22249D01*
M02*
