M48
;DRILL file {Pcbnew (2013-03-31 BZR 4008)-stable} date 6/6/2013 1:10:09 PM
;FORMAT={2:4/ absolute / inch / keep zeros}
FMAT,2
INCH,TZ
T1C0.025
T2C0.032
T3C0.040
%
G90
G05
M72
T1
X016451Y-025508
X017953Y-021944
X022027Y-025732
X022181Y-025039
X023272Y-024755
X023305Y-022136
X023867Y-027118
X024096Y-023737
X024318Y-017550
X024491Y-027425
X024590Y-023356
X024619Y-024992
X024827Y-023744
X024984Y-022683
X024992Y-027642
X025355Y-026795
X025419Y-023560
X025581Y-022612
X025801Y-019006
X025932Y-023418
X026496Y-019076
X026610Y-020425
X026775Y-022951
X026830Y-025273
X026898Y-021021
X027294Y-019933
X027301Y-022966
X027376Y-023666
X027768Y-016747
X027769Y-022191
X029322Y-022639
X029418Y-020594
X030000Y-029000
X031987Y-029066
T2
X016000Y-011500
X016000Y-029000
X017000Y-011500
X017000Y-029000
X018000Y-011500
X018000Y-029000
X019000Y-011500
X019000Y-024500
X019000Y-025500
X019000Y-029000
X020000Y-011500
X020000Y-017000
X020000Y-019000
X020000Y-020000
X020000Y-021500
X020000Y-022500
X020000Y-029000
X020185Y-014630
X020500Y-026000
X021000Y-017000
X021000Y-029000
X021185Y-014630
X021500Y-026000
X022000Y-029000
X022665Y-014697
X023000Y-029000
X023500Y-016500
X023665Y-014697
X023929Y-025839
X024500Y-016500
X024929Y-025839
X027000Y-024500
X027000Y-026500
X027500Y-015000
X027500Y-020500
X028000Y-024500
X028000Y-026500
X028500Y-015000
X028500Y-016500
X028500Y-017500
X028500Y-020500
X030000Y-015000
X030000Y-018500
X030000Y-022000
X030000Y-026000
X031000Y-015000
X031000Y-018500
X031000Y-022000
X031000Y-026000
X033000Y-014500
X033000Y-015500
X033000Y-016500
X033000Y-017500
X033000Y-018500
X033000Y-019500
X033000Y-020500
X033000Y-021500
X033000Y-022500
X033000Y-023500
X033000Y-024500
X033000Y-025500
X033000Y-027000
X033000Y-028000
X033000Y-029000
T3
X016000Y-015000
X016000Y-016000
X016000Y-017000
X016000Y-018000
X016000Y-019000
X016000Y-020000
X016000Y-021000
X016000Y-022000
X016000Y-023000
X016000Y-024000
X016000Y-025000
X016000Y-026000
X017000Y-015000
X017000Y-016000
X017000Y-017000
X017000Y-018000
X017000Y-019000
X017000Y-020000
X017000Y-021000
X017000Y-022000
X017000Y-023000
X017000Y-024000
X017000Y-025000
X017000Y-026000
X022000Y-011500
X022000Y-012500
X023000Y-011500
X023000Y-012500
X024000Y-011500
X024000Y-012500
X024500Y-028500
X024500Y-029500
X025000Y-011500
X025000Y-012500
X025500Y-028500
X025500Y-029500
X026000Y-011500
X026000Y-012500
X026500Y-028500
X026500Y-029500
X027000Y-011500
X027000Y-012500
X027500Y-028500
X027500Y-029500
X028000Y-011500
X028000Y-012500
X028500Y-028500
X028500Y-029500
X029000Y-011500
X029000Y-012500
X029500Y-028500
X029500Y-029500
X030000Y-011500
X030000Y-012500
X030500Y-028500
X030500Y-029500
X031000Y-011500
X031000Y-012500
X031500Y-028500
X031500Y-029500
X032000Y-011500
X032000Y-012500
X033000Y-011500
X033000Y-012500
T0
M30
