G04 (created by PCBNEW (2013-03-31 BZR 4008)-stable) date 6/6/2013 1:10:11 PM*
%MOIN*%
G04 Gerber Fmt 3.4, Leading zero omitted, Abs format*
%FSLAX34Y34*%
G01*
G70*
G90*
G04 APERTURE LIST*
%ADD10C,0.006*%
%ADD11R,0.055X0.055*%
%ADD12C,0.055*%
%ADD13R,0.06X0.06*%
%ADD14C,0.06*%
%ADD15C,0.035*%
%ADD16C,0.008*%
%ADD17C,0.01*%
G04 APERTURE END LIST*
G54D10*
G54D11*
X16000Y-29000D03*
G54D12*
X17000Y-29000D03*
X18000Y-29000D03*
X19000Y-29000D03*
X20000Y-29000D03*
X21000Y-29000D03*
X22000Y-29000D03*
X23000Y-29000D03*
G54D11*
X16000Y-11500D03*
G54D12*
X17000Y-11500D03*
X18000Y-11500D03*
X19000Y-11500D03*
X20000Y-11500D03*
G54D11*
X33000Y-29000D03*
G54D12*
X33000Y-28000D03*
X33000Y-27000D03*
G54D11*
X22665Y-14696D03*
G54D12*
X23665Y-14696D03*
G54D11*
X20185Y-14629D03*
G54D12*
X21185Y-14629D03*
G54D11*
X33000Y-25500D03*
G54D12*
X33000Y-24500D03*
X33000Y-23500D03*
X33000Y-22500D03*
X33000Y-21500D03*
X33000Y-20500D03*
X33000Y-19500D03*
X33000Y-18500D03*
X33000Y-17500D03*
X33000Y-16500D03*
X33000Y-15500D03*
X33000Y-14500D03*
G54D13*
X24500Y-29500D03*
G54D14*
X24500Y-28500D03*
X25500Y-29500D03*
X25500Y-28500D03*
X26500Y-29500D03*
X26500Y-28500D03*
X27500Y-29500D03*
X27500Y-28500D03*
X28500Y-29500D03*
X28500Y-28500D03*
X29500Y-29500D03*
X29500Y-28500D03*
X30500Y-29500D03*
X30500Y-28500D03*
X31500Y-29500D03*
X31500Y-28500D03*
G54D13*
X33000Y-11500D03*
G54D14*
X33000Y-12500D03*
X32000Y-11500D03*
X32000Y-12500D03*
X31000Y-11500D03*
X31000Y-12500D03*
X30000Y-11500D03*
X30000Y-12500D03*
X29000Y-11500D03*
X29000Y-12500D03*
X28000Y-11500D03*
X28000Y-12500D03*
X27000Y-11500D03*
X27000Y-12500D03*
X26000Y-11500D03*
X26000Y-12500D03*
X25000Y-11500D03*
X25000Y-12500D03*
X24000Y-11500D03*
X24000Y-12500D03*
X23000Y-11500D03*
X23000Y-12500D03*
X22000Y-11500D03*
X22000Y-12500D03*
G54D13*
X16000Y-15000D03*
G54D14*
X17000Y-15000D03*
X16000Y-16000D03*
X17000Y-16000D03*
X16000Y-17000D03*
X17000Y-17000D03*
X16000Y-18000D03*
X17000Y-18000D03*
X16000Y-19000D03*
X17000Y-19000D03*
X16000Y-20000D03*
X17000Y-20000D03*
X16000Y-21000D03*
X17000Y-21000D03*
X16000Y-22000D03*
X17000Y-22000D03*
X16000Y-23000D03*
X17000Y-23000D03*
X16000Y-24000D03*
X17000Y-24000D03*
X16000Y-25000D03*
X17000Y-25000D03*
X16000Y-26000D03*
X17000Y-26000D03*
G54D13*
X30000Y-26000D03*
G54D14*
X31000Y-26000D03*
G54D13*
X20000Y-17000D03*
G54D14*
X21000Y-17000D03*
G54D13*
X27000Y-26500D03*
G54D14*
X28000Y-26500D03*
G54D13*
X30000Y-15000D03*
G54D14*
X31000Y-15000D03*
G54D13*
X23929Y-25838D03*
G54D14*
X24929Y-25838D03*
G54D13*
X20500Y-26000D03*
G54D14*
X21500Y-26000D03*
G54D13*
X30000Y-22000D03*
G54D14*
X31000Y-22000D03*
G54D13*
X30000Y-18500D03*
G54D14*
X31000Y-18500D03*
G54D12*
X23500Y-16500D03*
X24500Y-16500D03*
X27500Y-15000D03*
X28500Y-15000D03*
X20000Y-22500D03*
X20000Y-21500D03*
X28500Y-17500D03*
X28500Y-16500D03*
X27500Y-20500D03*
X28500Y-20500D03*
X19000Y-25500D03*
X19000Y-24500D03*
X20000Y-20000D03*
X20000Y-19000D03*
X27000Y-24500D03*
X28000Y-24500D03*
G54D15*
X23305Y-22135D03*
X26609Y-20425D03*
X24984Y-22683D03*
X17952Y-21944D03*
X24991Y-27641D03*
X24491Y-27425D03*
X23866Y-27118D03*
X26897Y-21020D03*
X26496Y-19076D03*
X25801Y-19006D03*
X30000Y-29000D03*
X27293Y-19932D03*
X24318Y-17550D03*
X25419Y-23560D03*
X25354Y-26795D03*
X31986Y-29065D03*
X22181Y-25038D03*
X27300Y-22965D03*
X27375Y-23665D03*
X22026Y-25732D03*
X27769Y-22190D03*
X26775Y-22951D03*
X24826Y-23744D03*
X26830Y-25272D03*
X24095Y-23737D03*
X25581Y-22612D03*
X25932Y-23418D03*
X16451Y-25507D03*
X24618Y-24991D03*
X27767Y-16746D03*
X23271Y-24755D03*
X29417Y-20593D03*
X29322Y-22639D03*
X24589Y-23356D03*
G54D16*
X23305Y-22135D02*
X23305Y-22135D01*
X20364Y-22135D02*
X23305Y-22135D01*
X20000Y-22500D02*
X20364Y-22135D01*
X30420Y-25947D02*
X30420Y-26000D01*
X31452Y-24915D02*
X30420Y-25947D01*
X33165Y-24915D02*
X31452Y-24915D01*
X33399Y-24681D02*
X33165Y-24915D01*
X33399Y-22899D02*
X33399Y-24681D01*
X33000Y-22500D02*
X33399Y-22899D01*
X30000Y-26000D02*
X30420Y-26000D01*
X31918Y-21418D02*
X33000Y-22500D01*
X27237Y-21418D02*
X31918Y-21418D01*
X27133Y-21522D02*
X27237Y-21418D01*
X23918Y-21522D02*
X27133Y-21522D01*
X23305Y-22135D02*
X23918Y-21522D01*
X30000Y-18500D02*
X29579Y-18500D01*
X23685Y-16500D02*
X23500Y-16500D01*
X25511Y-18326D02*
X23685Y-16500D01*
X29406Y-18326D02*
X25511Y-18326D01*
X29579Y-18500D02*
X29406Y-18326D01*
X17000Y-23000D02*
X17000Y-22000D01*
X17000Y-21000D02*
X17000Y-20000D01*
X17000Y-19000D02*
X17000Y-18000D01*
X17000Y-18000D02*
X17000Y-17000D01*
X22000Y-12500D02*
X23000Y-12500D01*
X23000Y-12500D02*
X24000Y-12500D01*
X24000Y-12500D02*
X25000Y-12500D01*
X25000Y-12500D02*
X26000Y-12500D01*
X26000Y-12500D02*
X27000Y-12500D01*
X27000Y-12500D02*
X28000Y-12500D01*
X28000Y-12500D02*
X29000Y-12500D01*
X29000Y-12500D02*
X30000Y-12500D01*
X30000Y-12500D02*
X31000Y-12500D01*
X31000Y-12500D02*
X32000Y-12500D01*
X32000Y-12500D02*
X33000Y-12500D01*
X21185Y-14629D02*
X21185Y-15025D01*
X26527Y-20425D02*
X26609Y-20425D01*
X21185Y-15082D02*
X26527Y-20425D01*
X21185Y-15025D02*
X21185Y-15082D01*
X17025Y-15025D02*
X17000Y-15000D01*
X21185Y-15025D02*
X17025Y-15025D01*
X31500Y-28500D02*
X30500Y-28500D01*
X30500Y-28500D02*
X29500Y-28500D01*
X29500Y-28500D02*
X28500Y-28500D01*
X28500Y-28500D02*
X27500Y-28500D01*
X27500Y-28500D02*
X26500Y-28500D01*
X23000Y-29000D02*
X22000Y-29000D01*
X25500Y-28500D02*
X26500Y-28500D01*
X33000Y-16500D02*
X28500Y-16500D01*
X26010Y-17041D02*
X23665Y-14696D01*
X27958Y-17041D02*
X26010Y-17041D01*
X28500Y-16500D02*
X27958Y-17041D01*
X24500Y-28500D02*
X25500Y-28500D01*
X24000Y-29000D02*
X23000Y-29000D01*
X24500Y-28500D02*
X24000Y-29000D01*
X33415Y-17084D02*
X33000Y-17500D01*
X33415Y-16350D02*
X33415Y-17084D01*
X33134Y-16069D02*
X33415Y-16350D01*
X32069Y-16069D02*
X33134Y-16069D01*
X31000Y-15000D02*
X32069Y-16069D01*
X18000Y-29000D02*
X17000Y-29000D01*
X17000Y-29000D02*
X16000Y-29000D01*
X19602Y-21102D02*
X20000Y-21500D01*
X19602Y-19397D02*
X19602Y-21102D01*
X20000Y-19000D02*
X19602Y-19397D01*
X28933Y-14566D02*
X28500Y-15000D01*
X30566Y-14566D02*
X28933Y-14566D01*
X31000Y-15000D02*
X30566Y-14566D01*
X22665Y-14696D02*
X23060Y-14696D01*
X23455Y-14301D02*
X23060Y-14696D01*
X27801Y-14301D02*
X23455Y-14301D01*
X28500Y-15000D02*
X27801Y-14301D01*
X32624Y-17500D02*
X33000Y-17500D01*
X30411Y-19713D02*
X32624Y-17500D01*
X29286Y-19713D02*
X30411Y-19713D01*
X28500Y-20500D02*
X29286Y-19713D01*
X25792Y-24975D02*
X27524Y-24975D01*
X24929Y-25838D02*
X25792Y-24975D01*
X27524Y-24975D02*
X28000Y-24500D01*
X28000Y-25450D02*
X28000Y-26420D01*
X27524Y-24975D02*
X28000Y-25450D01*
X28000Y-26500D02*
X28000Y-26420D01*
X30579Y-26420D02*
X31000Y-26000D01*
X28000Y-26420D02*
X30579Y-26420D01*
X15419Y-19419D02*
X16000Y-20000D01*
X15419Y-14800D02*
X15419Y-19419D01*
X17939Y-12281D02*
X15419Y-14800D01*
X18218Y-12281D02*
X17939Y-12281D01*
X19000Y-11500D02*
X18218Y-12281D01*
X19400Y-23392D02*
X17952Y-21944D01*
X23797Y-23392D02*
X19400Y-23392D01*
X23907Y-23282D02*
X23797Y-23392D01*
X24236Y-23282D02*
X23907Y-23282D01*
X24835Y-22683D02*
X24236Y-23282D01*
X24984Y-22683D02*
X24835Y-22683D01*
X33000Y-29000D02*
X33000Y-28604D01*
X32036Y-27641D02*
X24991Y-27641D01*
X33000Y-28604D02*
X32036Y-27641D01*
X24571Y-27344D02*
X24491Y-27425D01*
X32344Y-27344D02*
X24571Y-27344D01*
X33000Y-28000D02*
X32344Y-27344D01*
X32881Y-27118D02*
X33000Y-27000D01*
X23866Y-27118D02*
X32881Y-27118D01*
X16000Y-15000D02*
X16420Y-15000D01*
X23235Y-21020D02*
X26897Y-21020D01*
X17634Y-15420D02*
X23235Y-21020D01*
X16787Y-15420D02*
X17634Y-15420D01*
X16420Y-15052D02*
X16787Y-15420D01*
X16420Y-15000D02*
X16420Y-15052D01*
X26854Y-19076D02*
X26496Y-19076D01*
X28000Y-20221D02*
X26854Y-19076D01*
X28000Y-20577D02*
X28000Y-20221D01*
X28318Y-20895D02*
X28000Y-20577D01*
X28698Y-20895D02*
X28318Y-20895D01*
X29295Y-20298D02*
X28698Y-20895D01*
X30314Y-20298D02*
X29295Y-20298D01*
X32613Y-18000D02*
X30314Y-20298D01*
X33061Y-18000D02*
X32613Y-18000D01*
X33593Y-17468D02*
X33061Y-18000D01*
X33593Y-11310D02*
X33593Y-17468D01*
X33363Y-11079D02*
X33593Y-11310D01*
X32420Y-11079D02*
X33363Y-11079D01*
X32000Y-11500D02*
X32420Y-11079D01*
X33000Y-11500D02*
X33000Y-11920D01*
X25357Y-19006D02*
X25801Y-19006D01*
X22267Y-15916D02*
X25357Y-19006D01*
X22267Y-14368D02*
X22267Y-15916D01*
X23395Y-13240D02*
X22267Y-14368D01*
X32864Y-13240D02*
X23395Y-13240D01*
X33420Y-12684D02*
X32864Y-13240D01*
X33420Y-12287D02*
X33420Y-12684D01*
X33052Y-11920D02*
X33420Y-12287D01*
X33000Y-11920D02*
X33052Y-11920D01*
X29000Y-29000D02*
X28500Y-29500D01*
X30000Y-29000D02*
X29000Y-29000D01*
X26930Y-19932D02*
X27293Y-19932D01*
X26120Y-19122D02*
X26930Y-19932D01*
X26120Y-18887D02*
X26120Y-19122D01*
X25812Y-18580D02*
X26120Y-18887D01*
X25348Y-18580D02*
X25812Y-18580D01*
X24318Y-17550D02*
X25348Y-18580D01*
X16434Y-21434D02*
X16000Y-21000D01*
X17065Y-21434D02*
X16434Y-21434D01*
X17657Y-22026D02*
X17065Y-21434D01*
X17657Y-22066D02*
X17657Y-22026D01*
X19159Y-23568D02*
X17657Y-22066D01*
X23847Y-23568D02*
X19159Y-23568D01*
X23973Y-23442D02*
X23847Y-23568D01*
X24218Y-23442D02*
X23973Y-23442D01*
X24391Y-23615D02*
X24218Y-23442D01*
X24391Y-23726D02*
X24391Y-23615D01*
X24706Y-24042D02*
X24391Y-23726D01*
X24946Y-24042D02*
X24706Y-24042D01*
X25419Y-23569D02*
X24946Y-24042D01*
X25419Y-23560D02*
X25419Y-23569D01*
X15969Y-26795D02*
X25354Y-26795D01*
X15255Y-26080D02*
X15969Y-26795D01*
X15255Y-14727D02*
X15255Y-26080D01*
X17918Y-12064D02*
X15255Y-14727D01*
X18011Y-12064D02*
X17918Y-12064D01*
X18580Y-11495D02*
X18011Y-12064D01*
X18580Y-11334D02*
X18580Y-11495D01*
X18851Y-11063D02*
X18580Y-11334D01*
X23563Y-11063D02*
X18851Y-11063D01*
X24000Y-11500D02*
X23563Y-11063D01*
X30934Y-29065D02*
X30500Y-29500D01*
X31986Y-29065D02*
X30934Y-29065D01*
X22849Y-24370D02*
X22181Y-25038D01*
X25071Y-24370D02*
X22849Y-24370D01*
X25425Y-24015D02*
X25071Y-24370D01*
X26185Y-24015D02*
X25425Y-24015D01*
X27234Y-22965D02*
X26185Y-24015D01*
X27300Y-22965D02*
X27234Y-22965D01*
X23231Y-25732D02*
X22026Y-25732D01*
X24273Y-24690D02*
X23231Y-25732D01*
X25283Y-24690D02*
X24273Y-24690D01*
X25605Y-24368D02*
X25283Y-24690D01*
X26284Y-24368D02*
X25605Y-24368D01*
X26988Y-23665D02*
X26284Y-24368D01*
X27375Y-23665D02*
X26988Y-23665D01*
X16556Y-16556D02*
X16000Y-16000D01*
X17150Y-16556D02*
X16556Y-16556D01*
X19238Y-18644D02*
X17150Y-16556D01*
X19238Y-22530D02*
X19238Y-18644D01*
X19774Y-23067D02*
X19238Y-22530D01*
X23443Y-23067D02*
X19774Y-23067D01*
X23708Y-22801D02*
X23443Y-23067D01*
X23991Y-22801D02*
X23708Y-22801D01*
X24602Y-22190D02*
X23991Y-22801D01*
X27769Y-22190D02*
X24602Y-22190D01*
X24826Y-23735D02*
X24826Y-23744D01*
X25297Y-23265D02*
X24826Y-23735D01*
X25453Y-23265D02*
X25297Y-23265D01*
X25594Y-23123D02*
X25453Y-23265D01*
X26603Y-23123D02*
X25594Y-23123D01*
X26775Y-22951D02*
X26603Y-23123D01*
X26089Y-25272D02*
X26830Y-25272D01*
X24924Y-26437D02*
X26089Y-25272D01*
X20134Y-26437D02*
X24924Y-26437D01*
X20042Y-26344D02*
X20134Y-26437D01*
X20042Y-25964D02*
X20042Y-26344D01*
X19182Y-25104D02*
X20042Y-25964D01*
X18827Y-25104D02*
X19182Y-25104D01*
X17508Y-26423D02*
X18827Y-25104D01*
X15829Y-26423D02*
X17508Y-26423D01*
X15556Y-26150D02*
X15829Y-26423D01*
X15556Y-20845D02*
X15556Y-26150D01*
X15901Y-20500D02*
X15556Y-20845D01*
X16094Y-20500D02*
X15901Y-20500D01*
X16420Y-20174D02*
X16094Y-20500D01*
X16420Y-19792D02*
X16420Y-20174D01*
X16198Y-19570D02*
X16420Y-19792D01*
X15976Y-19570D02*
X16198Y-19570D01*
X15579Y-19174D02*
X15976Y-19570D01*
X15579Y-17420D02*
X15579Y-19174D01*
X16000Y-17000D02*
X15579Y-17420D01*
X16448Y-22448D02*
X16000Y-22000D01*
X16448Y-23065D02*
X16448Y-22448D01*
X16910Y-23528D02*
X16448Y-23065D01*
X17188Y-23528D02*
X16910Y-23528D01*
X17397Y-23737D02*
X17188Y-23528D01*
X24095Y-23737D02*
X17397Y-23737D01*
X16579Y-18579D02*
X16000Y-18000D01*
X16579Y-19199D02*
X16579Y-18579D01*
X16880Y-19500D02*
X16579Y-19199D01*
X17114Y-19500D02*
X16880Y-19500D01*
X17760Y-20145D02*
X17114Y-19500D01*
X17760Y-21301D02*
X17760Y-20145D01*
X19691Y-23232D02*
X17760Y-21301D01*
X23617Y-23232D02*
X19691Y-23232D01*
X23735Y-23114D02*
X23617Y-23232D01*
X23905Y-23114D02*
X23735Y-23114D01*
X24649Y-22370D02*
X23905Y-23114D01*
X25339Y-22370D02*
X24649Y-22370D01*
X25581Y-22612D02*
X25339Y-22370D01*
X17172Y-25507D02*
X16451Y-25507D01*
X18591Y-24088D02*
X17172Y-25507D01*
X19654Y-24088D02*
X18591Y-24088D01*
X19775Y-24210D02*
X19654Y-24088D01*
X25004Y-24210D02*
X19775Y-24210D01*
X25359Y-23855D02*
X25004Y-24210D01*
X25580Y-23855D02*
X25359Y-23855D01*
X25932Y-23503D02*
X25580Y-23855D01*
X25932Y-23418D02*
X25932Y-23503D01*
X30210Y-22000D02*
X30420Y-22000D01*
X30210Y-22000D02*
X30000Y-22000D01*
X30420Y-22052D02*
X30420Y-22000D01*
X32867Y-24500D02*
X30420Y-22052D01*
X33000Y-24500D02*
X32867Y-24500D01*
X30000Y-22000D02*
X29579Y-22000D01*
X27500Y-16479D02*
X27767Y-16746D01*
X27500Y-15000D02*
X27500Y-16479D01*
X25208Y-24991D02*
X24618Y-24991D01*
X25624Y-24575D02*
X25208Y-24991D01*
X26304Y-24575D02*
X25624Y-24575D01*
X26919Y-23960D02*
X26304Y-24575D01*
X27497Y-23960D02*
X26919Y-23960D01*
X29458Y-22000D02*
X27497Y-23960D01*
X29579Y-22000D02*
X29458Y-22000D01*
X20500Y-26000D02*
X20920Y-26000D01*
X20920Y-25947D02*
X20920Y-26000D01*
X21490Y-25376D02*
X20920Y-25947D01*
X22649Y-25376D02*
X21490Y-25376D01*
X23271Y-24755D02*
X22649Y-25376D01*
X23496Y-24530D02*
X23271Y-24755D01*
X25137Y-24530D02*
X23496Y-24530D01*
X25492Y-24175D02*
X25137Y-24530D01*
X26251Y-24175D02*
X25492Y-24175D01*
X27056Y-23370D02*
X26251Y-24175D01*
X27751Y-23370D02*
X27056Y-23370D01*
X29543Y-21578D02*
X27751Y-23370D01*
X31174Y-21578D02*
X29543Y-21578D01*
X33000Y-23403D02*
X31174Y-21578D01*
X33000Y-23500D02*
X33000Y-23403D01*
X20000Y-17000D02*
X20420Y-17000D01*
X33405Y-21094D02*
X33000Y-21500D01*
X33405Y-19329D02*
X33405Y-21094D01*
X33175Y-19099D02*
X33405Y-19329D01*
X32367Y-19099D02*
X33175Y-19099D01*
X30571Y-20895D02*
X32367Y-19099D01*
X29041Y-20895D02*
X30571Y-20895D01*
X28881Y-21055D02*
X29041Y-20895D01*
X28055Y-21055D02*
X28881Y-21055D01*
X27500Y-20500D02*
X28055Y-21055D01*
X27279Y-20720D02*
X27500Y-20500D01*
X24115Y-20720D02*
X27279Y-20720D01*
X20420Y-17025D02*
X24115Y-20720D01*
X20420Y-17000D02*
X20420Y-17025D01*
X32460Y-18500D02*
X33000Y-18500D01*
X30366Y-20593D02*
X32460Y-18500D01*
X29417Y-20593D02*
X30366Y-20593D01*
X27393Y-24500D02*
X27000Y-24500D01*
X29254Y-22639D02*
X27393Y-24500D01*
X29322Y-22639D02*
X29254Y-22639D01*
X24349Y-25786D02*
X24349Y-25838D01*
X24716Y-25418D02*
X24349Y-25786D01*
X25008Y-25418D02*
X24716Y-25418D01*
X25691Y-24736D02*
X25008Y-25418D01*
X26763Y-24736D02*
X25691Y-24736D01*
X27000Y-24500D02*
X26763Y-24736D01*
X23929Y-25838D02*
X24349Y-25838D01*
X25157Y-26500D02*
X27000Y-26500D01*
X25028Y-26628D02*
X25157Y-26500D01*
X20099Y-26628D02*
X25028Y-26628D01*
X19000Y-25529D02*
X20099Y-26628D01*
X19000Y-25500D02*
X19000Y-25529D01*
X32589Y-20910D02*
X33000Y-20500D01*
X32589Y-21676D02*
X32589Y-20910D01*
X32913Y-22000D02*
X32589Y-21676D01*
X33076Y-22000D02*
X32913Y-22000D01*
X33573Y-22497D02*
X33076Y-22000D01*
X33573Y-24758D02*
X33573Y-22497D01*
X33226Y-25104D02*
X33573Y-24758D01*
X32494Y-25104D02*
X33226Y-25104D01*
X30664Y-26934D02*
X32494Y-25104D01*
X27802Y-26934D02*
X30664Y-26934D01*
X27420Y-26552D02*
X27802Y-26934D01*
X27420Y-26500D02*
X27420Y-26552D01*
X27000Y-26500D02*
X27420Y-26500D01*
X21038Y-21038D02*
X20000Y-20000D01*
X31317Y-21182D02*
X33000Y-19500D01*
X29527Y-21182D02*
X31317Y-21182D01*
X29456Y-21253D02*
X29527Y-21182D01*
X27176Y-21253D02*
X29456Y-21253D01*
X27094Y-21335D02*
X27176Y-21253D01*
X26795Y-21335D02*
X27094Y-21335D01*
X26712Y-21253D02*
X26795Y-21335D01*
X21253Y-21253D02*
X26712Y-21253D01*
X21038Y-21038D02*
X21253Y-21253D01*
X24630Y-23356D02*
X24589Y-23356D01*
X24735Y-23250D02*
X24630Y-23356D01*
X25084Y-23250D02*
X24735Y-23250D01*
X25230Y-23105D02*
X25084Y-23250D01*
X25380Y-23105D02*
X25230Y-23105D01*
X25554Y-22930D02*
X25380Y-23105D01*
X25890Y-22930D02*
X25554Y-22930D01*
X25928Y-22892D02*
X25890Y-22930D01*
X26155Y-22892D02*
X25928Y-22892D01*
X26175Y-22872D02*
X26155Y-22892D01*
X26211Y-22872D02*
X26175Y-22872D01*
X26249Y-22834D02*
X26211Y-22872D01*
X26404Y-22834D02*
X26249Y-22834D01*
X26423Y-22815D02*
X26404Y-22834D01*
X26480Y-22815D02*
X26423Y-22815D01*
X26672Y-22623D02*
X26480Y-22815D01*
X27774Y-22623D02*
X26672Y-22623D01*
X28064Y-22333D02*
X27774Y-22623D01*
X28064Y-22068D02*
X28064Y-22333D01*
X27891Y-21895D02*
X28064Y-22068D01*
X25648Y-21895D02*
X27891Y-21895D01*
X25638Y-21905D02*
X25648Y-21895D01*
X24889Y-21905D02*
X25638Y-21905D01*
X24837Y-21957D02*
X24889Y-21905D01*
X24608Y-21957D02*
X24837Y-21957D01*
X24461Y-22105D02*
X24608Y-21957D01*
X24088Y-22105D02*
X24461Y-22105D01*
X23547Y-22646D02*
X24088Y-22105D01*
X23413Y-22646D02*
X23547Y-22646D01*
X23387Y-22672D02*
X23413Y-22646D01*
X23161Y-22672D02*
X23387Y-22672D01*
X23089Y-22744D02*
X23161Y-22672D01*
X23071Y-22744D02*
X23089Y-22744D01*
X23058Y-22757D02*
X23071Y-22744D01*
X21673Y-22757D02*
X23058Y-22757D01*
X21607Y-22824D02*
X21673Y-22757D01*
X21495Y-22824D02*
X21607Y-22824D01*
X21415Y-22904D02*
X21495Y-22824D01*
X19842Y-22904D02*
X21415Y-22904D01*
X19583Y-22646D02*
X19842Y-22904D01*
X19583Y-22324D02*
X19583Y-22646D01*
X19877Y-22031D02*
X19583Y-22324D01*
X20045Y-22031D02*
X19877Y-22031D01*
X21038Y-21038D02*
X20045Y-22031D01*
G54D10*
G36*
X20628Y-21038D02*
X20443Y-21222D01*
X20367Y-21202D01*
X20297Y-21273D01*
X20297Y-21132D01*
X20272Y-21039D01*
X20075Y-20970D01*
X19867Y-20981D01*
X19727Y-21039D01*
X19702Y-21132D01*
X20000Y-21429D01*
X20297Y-21132D01*
X20297Y-21273D01*
X20070Y-21500D01*
X20076Y-21505D01*
X20005Y-21576D01*
X20000Y-21570D01*
X19994Y-21576D01*
X19923Y-21505D01*
X19929Y-21500D01*
X19632Y-21202D01*
X19539Y-21227D01*
X19528Y-21258D01*
X19528Y-20233D01*
X19554Y-20297D01*
X19702Y-20444D01*
X19895Y-20524D01*
X20103Y-20525D01*
X20111Y-20521D01*
X20628Y-21038D01*
X20628Y-21038D01*
G37*
G54D17*
X20628Y-21038D02*
X20443Y-21222D01*
X20367Y-21202D01*
X20297Y-21273D01*
X20297Y-21132D01*
X20272Y-21039D01*
X20075Y-20970D01*
X19867Y-20981D01*
X19727Y-21039D01*
X19702Y-21132D01*
X20000Y-21429D01*
X20297Y-21132D01*
X20297Y-21273D01*
X20070Y-21500D01*
X20076Y-21505D01*
X20005Y-21576D01*
X20000Y-21570D01*
X19994Y-21576D01*
X19923Y-21505D01*
X19929Y-21500D01*
X19632Y-21202D01*
X19539Y-21227D01*
X19528Y-21258D01*
X19528Y-20233D01*
X19554Y-20297D01*
X19702Y-20444D01*
X19895Y-20524D01*
X20103Y-20525D01*
X20111Y-20521D01*
X20628Y-21038D01*
G54D10*
G36*
X22309Y-24500D02*
X22196Y-24613D01*
X22097Y-24613D01*
X21940Y-24678D01*
X21821Y-24797D01*
X21756Y-24953D01*
X21756Y-25086D01*
X21490Y-25086D01*
X21490Y-25086D01*
X21472Y-25090D01*
X21379Y-25108D01*
X21285Y-25171D01*
X21285Y-25171D01*
X21285Y-25171D01*
X20955Y-25501D01*
X20941Y-25488D01*
X20849Y-25450D01*
X20750Y-25449D01*
X20150Y-25449D01*
X20058Y-25487D01*
X20016Y-25529D01*
X19387Y-24899D01*
X19293Y-24836D01*
X19259Y-24830D01*
X19000Y-24570D01*
X18738Y-24832D01*
X18716Y-24836D01*
X18621Y-24899D01*
X18621Y-24899D01*
X17550Y-25971D01*
X17550Y-25891D01*
X17466Y-25688D01*
X17433Y-25656D01*
X18480Y-24609D01*
X18481Y-24632D01*
X18539Y-24772D01*
X18632Y-24797D01*
X18929Y-24500D01*
X18923Y-24494D01*
X18994Y-24423D01*
X19000Y-24429D01*
X19005Y-24423D01*
X19076Y-24494D01*
X19070Y-24500D01*
X19367Y-24797D01*
X19460Y-24772D01*
X19529Y-24575D01*
X19519Y-24378D01*
X19534Y-24378D01*
X19570Y-24415D01*
X19570Y-24415D01*
X19664Y-24477D01*
X19775Y-24500D01*
X19775Y-24499D01*
X19775Y-24500D01*
X22309Y-24500D01*
X22309Y-24500D01*
G37*
G54D17*
X22309Y-24500D02*
X22196Y-24613D01*
X22097Y-24613D01*
X21940Y-24678D01*
X21821Y-24797D01*
X21756Y-24953D01*
X21756Y-25086D01*
X21490Y-25086D01*
X21490Y-25086D01*
X21472Y-25090D01*
X21379Y-25108D01*
X21285Y-25171D01*
X21285Y-25171D01*
X21285Y-25171D01*
X20955Y-25501D01*
X20941Y-25488D01*
X20849Y-25450D01*
X20750Y-25449D01*
X20150Y-25449D01*
X20058Y-25487D01*
X20016Y-25529D01*
X19387Y-24899D01*
X19293Y-24836D01*
X19259Y-24830D01*
X19000Y-24570D01*
X18738Y-24832D01*
X18716Y-24836D01*
X18621Y-24899D01*
X18621Y-24899D01*
X17550Y-25971D01*
X17550Y-25891D01*
X17466Y-25688D01*
X17433Y-25656D01*
X18480Y-24609D01*
X18481Y-24632D01*
X18539Y-24772D01*
X18632Y-24797D01*
X18929Y-24500D01*
X18923Y-24494D01*
X18994Y-24423D01*
X19000Y-24429D01*
X19005Y-24423D01*
X19076Y-24494D01*
X19070Y-24500D01*
X19367Y-24797D01*
X19460Y-24772D01*
X19529Y-24575D01*
X19519Y-24378D01*
X19534Y-24378D01*
X19570Y-24415D01*
X19570Y-24415D01*
X19664Y-24477D01*
X19775Y-24500D01*
X19775Y-24499D01*
X19775Y-24500D01*
X22309Y-24500D01*
G54D10*
G36*
X22767Y-20963D02*
X21373Y-20963D01*
X21243Y-20833D01*
X21243Y-20833D01*
X20529Y-20119D01*
X20529Y-19075D01*
X20518Y-18867D01*
X20460Y-18727D01*
X20367Y-18702D01*
X20297Y-18773D01*
X20297Y-18632D01*
X20272Y-18539D01*
X20075Y-18470D01*
X19867Y-18481D01*
X19727Y-18539D01*
X19702Y-18632D01*
X20000Y-18929D01*
X20297Y-18632D01*
X20297Y-18773D01*
X20070Y-19000D01*
X20367Y-19297D01*
X20460Y-19272D01*
X20529Y-19075D01*
X20529Y-20119D01*
X20522Y-20111D01*
X20524Y-20104D01*
X20525Y-19896D01*
X20445Y-19703D01*
X20297Y-19555D01*
X20171Y-19502D01*
X20272Y-19460D01*
X20297Y-19367D01*
X20000Y-19070D01*
X19702Y-19367D01*
X19727Y-19460D01*
X19837Y-19499D01*
X19703Y-19554D01*
X19555Y-19702D01*
X19528Y-19766D01*
X19528Y-19246D01*
X19539Y-19272D01*
X19632Y-19297D01*
X19929Y-19000D01*
X19632Y-18702D01*
X19539Y-18727D01*
X19528Y-18758D01*
X19528Y-18644D01*
X19506Y-18533D01*
X19443Y-18439D01*
X17391Y-16386D01*
X17465Y-16311D01*
X17549Y-16109D01*
X17550Y-15891D01*
X17475Y-15710D01*
X17514Y-15710D01*
X22767Y-20963D01*
X22767Y-20963D01*
G37*
G54D17*
X22767Y-20963D02*
X21373Y-20963D01*
X21243Y-20833D01*
X21243Y-20833D01*
X20529Y-20119D01*
X20529Y-19075D01*
X20518Y-18867D01*
X20460Y-18727D01*
X20367Y-18702D01*
X20297Y-18773D01*
X20297Y-18632D01*
X20272Y-18539D01*
X20075Y-18470D01*
X19867Y-18481D01*
X19727Y-18539D01*
X19702Y-18632D01*
X20000Y-18929D01*
X20297Y-18632D01*
X20297Y-18773D01*
X20070Y-19000D01*
X20367Y-19297D01*
X20460Y-19272D01*
X20529Y-19075D01*
X20529Y-20119D01*
X20522Y-20111D01*
X20524Y-20104D01*
X20525Y-19896D01*
X20445Y-19703D01*
X20297Y-19555D01*
X20171Y-19502D01*
X20272Y-19460D01*
X20297Y-19367D01*
X20000Y-19070D01*
X19702Y-19367D01*
X19727Y-19460D01*
X19837Y-19499D01*
X19703Y-19554D01*
X19555Y-19702D01*
X19528Y-19766D01*
X19528Y-19246D01*
X19539Y-19272D01*
X19632Y-19297D01*
X19929Y-19000D01*
X19632Y-18702D01*
X19539Y-18727D01*
X19528Y-18758D01*
X19528Y-18644D01*
X19506Y-18533D01*
X19443Y-18439D01*
X17391Y-16386D01*
X17465Y-16311D01*
X17549Y-16109D01*
X17550Y-15891D01*
X17475Y-15710D01*
X17514Y-15710D01*
X22767Y-20963D01*
G54D10*
G36*
X23266Y-12985D02*
X23190Y-13035D01*
X23190Y-13035D01*
X22062Y-14163D01*
X21999Y-14257D01*
X21977Y-14368D01*
X21977Y-15465D01*
X21534Y-15022D01*
X21629Y-14927D01*
X21709Y-14734D01*
X21710Y-14525D01*
X21630Y-14332D01*
X21482Y-14185D01*
X21289Y-14105D01*
X21081Y-14104D01*
X20888Y-14184D01*
X20740Y-14332D01*
X20710Y-14404D01*
X20710Y-14404D01*
X20709Y-14304D01*
X20671Y-14213D01*
X20601Y-14142D01*
X20509Y-14104D01*
X20297Y-14104D01*
X20235Y-14167D01*
X20235Y-14579D01*
X20242Y-14579D01*
X20242Y-14679D01*
X20235Y-14679D01*
X20235Y-14687D01*
X20135Y-14687D01*
X20135Y-14679D01*
X20135Y-14579D01*
X20135Y-14167D01*
X20072Y-14104D01*
X19860Y-14104D01*
X19768Y-14142D01*
X19698Y-14213D01*
X19660Y-14304D01*
X19659Y-14404D01*
X19660Y-14517D01*
X19722Y-14579D01*
X20135Y-14579D01*
X20135Y-14679D01*
X19722Y-14679D01*
X19667Y-14735D01*
X17485Y-14735D01*
X17466Y-14688D01*
X17311Y-14534D01*
X17109Y-14450D01*
X16891Y-14449D01*
X16688Y-14533D01*
X16550Y-14672D01*
X16550Y-14650D01*
X16512Y-14558D01*
X16441Y-14488D01*
X16349Y-14450D01*
X16250Y-14449D01*
X16180Y-14449D01*
X18059Y-12571D01*
X18218Y-12571D01*
X18329Y-12549D01*
X18423Y-12486D01*
X18888Y-12022D01*
X18895Y-12024D01*
X19103Y-12025D01*
X19297Y-11945D01*
X19444Y-11797D01*
X19500Y-11664D01*
X19554Y-11797D01*
X19702Y-11944D01*
X19895Y-12024D01*
X20103Y-12025D01*
X20297Y-11945D01*
X20444Y-11797D01*
X20524Y-11604D01*
X20525Y-11396D01*
X20507Y-11353D01*
X21465Y-11353D01*
X21450Y-11390D01*
X21449Y-11608D01*
X21533Y-11811D01*
X21688Y-11965D01*
X21769Y-11999D01*
X21688Y-12033D01*
X21534Y-12188D01*
X21450Y-12390D01*
X21449Y-12608D01*
X21533Y-12811D01*
X21688Y-12965D01*
X21890Y-13049D01*
X22108Y-13050D01*
X22311Y-12966D01*
X22465Y-12811D01*
X22475Y-12790D01*
X22524Y-12790D01*
X22533Y-12811D01*
X22688Y-12965D01*
X22890Y-13049D01*
X23108Y-13050D01*
X23266Y-12985D01*
X23266Y-12985D01*
G37*
G54D17*
X23266Y-12985D02*
X23190Y-13035D01*
X23190Y-13035D01*
X22062Y-14163D01*
X21999Y-14257D01*
X21977Y-14368D01*
X21977Y-15465D01*
X21534Y-15022D01*
X21629Y-14927D01*
X21709Y-14734D01*
X21710Y-14525D01*
X21630Y-14332D01*
X21482Y-14185D01*
X21289Y-14105D01*
X21081Y-14104D01*
X20888Y-14184D01*
X20740Y-14332D01*
X20710Y-14404D01*
X20710Y-14404D01*
X20709Y-14304D01*
X20671Y-14213D01*
X20601Y-14142D01*
X20509Y-14104D01*
X20297Y-14104D01*
X20235Y-14167D01*
X20235Y-14579D01*
X20242Y-14579D01*
X20242Y-14679D01*
X20235Y-14679D01*
X20235Y-14687D01*
X20135Y-14687D01*
X20135Y-14679D01*
X20135Y-14579D01*
X20135Y-14167D01*
X20072Y-14104D01*
X19860Y-14104D01*
X19768Y-14142D01*
X19698Y-14213D01*
X19660Y-14304D01*
X19659Y-14404D01*
X19660Y-14517D01*
X19722Y-14579D01*
X20135Y-14579D01*
X20135Y-14679D01*
X19722Y-14679D01*
X19667Y-14735D01*
X17485Y-14735D01*
X17466Y-14688D01*
X17311Y-14534D01*
X17109Y-14450D01*
X16891Y-14449D01*
X16688Y-14533D01*
X16550Y-14672D01*
X16550Y-14650D01*
X16512Y-14558D01*
X16441Y-14488D01*
X16349Y-14450D01*
X16250Y-14449D01*
X16180Y-14449D01*
X18059Y-12571D01*
X18218Y-12571D01*
X18329Y-12549D01*
X18423Y-12486D01*
X18888Y-12022D01*
X18895Y-12024D01*
X19103Y-12025D01*
X19297Y-11945D01*
X19444Y-11797D01*
X19500Y-11664D01*
X19554Y-11797D01*
X19702Y-11944D01*
X19895Y-12024D01*
X20103Y-12025D01*
X20297Y-11945D01*
X20444Y-11797D01*
X20524Y-11604D01*
X20525Y-11396D01*
X20507Y-11353D01*
X21465Y-11353D01*
X21450Y-11390D01*
X21449Y-11608D01*
X21533Y-11811D01*
X21688Y-11965D01*
X21769Y-11999D01*
X21688Y-12033D01*
X21534Y-12188D01*
X21450Y-12390D01*
X21449Y-12608D01*
X21533Y-12811D01*
X21688Y-12965D01*
X21890Y-13049D01*
X22108Y-13050D01*
X22311Y-12966D01*
X22465Y-12811D01*
X22475Y-12790D01*
X22524Y-12790D01*
X22533Y-12811D01*
X22688Y-12965D01*
X22890Y-13049D01*
X23108Y-13050D01*
X23266Y-12985D01*
G54D10*
G36*
X24533Y-15975D02*
X24396Y-15974D01*
X24203Y-16054D01*
X24055Y-16202D01*
X23999Y-16335D01*
X23945Y-16203D01*
X23797Y-16055D01*
X23604Y-15975D01*
X23396Y-15974D01*
X23203Y-16054D01*
X23055Y-16202D01*
X23028Y-16267D01*
X22557Y-15796D01*
X22557Y-15217D01*
X22615Y-15159D01*
X22615Y-14746D01*
X22607Y-14746D01*
X22607Y-14646D01*
X22615Y-14646D01*
X22615Y-14638D01*
X22715Y-14638D01*
X22715Y-14646D01*
X22723Y-14646D01*
X22723Y-14746D01*
X22715Y-14746D01*
X22715Y-15159D01*
X22777Y-15221D01*
X22989Y-15221D01*
X23081Y-15183D01*
X23152Y-15113D01*
X23190Y-15021D01*
X23190Y-14922D01*
X23190Y-14922D01*
X23220Y-14993D01*
X23367Y-15141D01*
X23560Y-15221D01*
X23769Y-15221D01*
X23777Y-15218D01*
X24533Y-15975D01*
X24533Y-15975D01*
G37*
G54D17*
X24533Y-15975D02*
X24396Y-15974D01*
X24203Y-16054D01*
X24055Y-16202D01*
X23999Y-16335D01*
X23945Y-16203D01*
X23797Y-16055D01*
X23604Y-15975D01*
X23396Y-15974D01*
X23203Y-16054D01*
X23055Y-16202D01*
X23028Y-16267D01*
X22557Y-15796D01*
X22557Y-15217D01*
X22615Y-15159D01*
X22615Y-14746D01*
X22607Y-14746D01*
X22607Y-14646D01*
X22615Y-14646D01*
X22615Y-14638D01*
X22715Y-14638D01*
X22715Y-14646D01*
X22723Y-14646D01*
X22723Y-14746D01*
X22715Y-14746D01*
X22715Y-15159D01*
X22777Y-15221D01*
X22989Y-15221D01*
X23081Y-15183D01*
X23152Y-15113D01*
X23190Y-15021D01*
X23190Y-14922D01*
X23190Y-14922D01*
X23220Y-14993D01*
X23367Y-15141D01*
X23560Y-15221D01*
X23769Y-15221D01*
X23777Y-15218D01*
X24533Y-15975D01*
G54D10*
G36*
X25005Y-25844D02*
X24934Y-25914D01*
X24929Y-25909D01*
X24923Y-25914D01*
X24852Y-25844D01*
X24858Y-25838D01*
X24852Y-25833D01*
X24923Y-25762D01*
X24929Y-25767D01*
X24934Y-25762D01*
X25005Y-25833D01*
X24999Y-25838D01*
X25005Y-25844D01*
X25005Y-25844D01*
G37*
G54D17*
X25005Y-25844D02*
X24934Y-25914D01*
X24929Y-25909D01*
X24923Y-25914D01*
X24852Y-25844D01*
X24858Y-25838D01*
X24852Y-25833D01*
X24923Y-25762D01*
X24929Y-25767D01*
X24934Y-25762D01*
X25005Y-25833D01*
X24999Y-25838D01*
X25005Y-25844D01*
G54D10*
G36*
X26122Y-20430D02*
X24235Y-20430D01*
X21554Y-17749D01*
X21554Y-17081D01*
X21543Y-16863D01*
X21481Y-16712D01*
X21385Y-16684D01*
X21315Y-16755D01*
X21315Y-16614D01*
X21287Y-16518D01*
X21081Y-16445D01*
X20863Y-16456D01*
X20712Y-16518D01*
X20684Y-16614D01*
X21000Y-16929D01*
X21315Y-16614D01*
X21315Y-16755D01*
X21070Y-17000D01*
X21385Y-17315D01*
X21481Y-17287D01*
X21554Y-17081D01*
X21554Y-17749D01*
X21286Y-17481D01*
X21287Y-17481D01*
X21315Y-17385D01*
X21000Y-17070D01*
X20994Y-17076D01*
X20923Y-17005D01*
X20929Y-17000D01*
X20614Y-16684D01*
X20550Y-16703D01*
X20550Y-16650D01*
X20512Y-16558D01*
X20441Y-16488D01*
X20349Y-16450D01*
X20250Y-16449D01*
X19650Y-16449D01*
X19558Y-16487D01*
X19488Y-16558D01*
X19450Y-16650D01*
X19449Y-16749D01*
X19449Y-16825D01*
X17939Y-15315D01*
X21007Y-15315D01*
X26122Y-20430D01*
X26122Y-20430D01*
G37*
G54D17*
X26122Y-20430D02*
X24235Y-20430D01*
X21554Y-17749D01*
X21554Y-17081D01*
X21543Y-16863D01*
X21481Y-16712D01*
X21385Y-16684D01*
X21315Y-16755D01*
X21315Y-16614D01*
X21287Y-16518D01*
X21081Y-16445D01*
X20863Y-16456D01*
X20712Y-16518D01*
X20684Y-16614D01*
X21000Y-16929D01*
X21315Y-16614D01*
X21315Y-16755D01*
X21070Y-17000D01*
X21385Y-17315D01*
X21481Y-17287D01*
X21554Y-17081D01*
X21554Y-17749D01*
X21286Y-17481D01*
X21287Y-17481D01*
X21315Y-17385D01*
X21000Y-17070D01*
X20994Y-17076D01*
X20923Y-17005D01*
X20929Y-17000D01*
X20614Y-16684D01*
X20550Y-16703D01*
X20550Y-16650D01*
X20512Y-16558D01*
X20441Y-16488D01*
X20349Y-16450D01*
X20250Y-16449D01*
X19650Y-16449D01*
X19558Y-16487D01*
X19488Y-16558D01*
X19450Y-16650D01*
X19449Y-16749D01*
X19449Y-16825D01*
X17939Y-15315D01*
X21007Y-15315D01*
X26122Y-20430D01*
G54D10*
G36*
X31183Y-19019D02*
X30194Y-20008D01*
X29295Y-20008D01*
X29295Y-20008D01*
X29184Y-20030D01*
X29090Y-20093D01*
X29090Y-20093D01*
X29090Y-20093D01*
X28957Y-20226D01*
X28867Y-20202D01*
X28570Y-20500D01*
X28576Y-20505D01*
X28505Y-20576D01*
X28500Y-20570D01*
X28494Y-20576D01*
X28423Y-20505D01*
X28429Y-20500D01*
X28423Y-20494D01*
X28494Y-20423D01*
X28500Y-20429D01*
X28797Y-20132D01*
X28772Y-20039D01*
X28575Y-19970D01*
X28367Y-19981D01*
X28227Y-20039D01*
X28225Y-20046D01*
X28205Y-20016D01*
X28205Y-20016D01*
X27059Y-18871D01*
X26965Y-18808D01*
X26854Y-18786D01*
X26807Y-18786D01*
X26737Y-18716D01*
X26581Y-18651D01*
X26412Y-18651D01*
X26328Y-18686D01*
X26328Y-18686D01*
X26325Y-18682D01*
X26325Y-18682D01*
X26259Y-18616D01*
X29286Y-18616D01*
X29374Y-18705D01*
X29374Y-18705D01*
X29449Y-18755D01*
X29449Y-18849D01*
X29487Y-18941D01*
X29558Y-19011D01*
X29650Y-19049D01*
X29749Y-19050D01*
X30349Y-19050D01*
X30441Y-19012D01*
X30511Y-18941D01*
X30549Y-18849D01*
X30549Y-18827D01*
X30688Y-18965D01*
X30890Y-19049D01*
X31108Y-19050D01*
X31183Y-19019D01*
X31183Y-19019D01*
G37*
G54D17*
X31183Y-19019D02*
X30194Y-20008D01*
X29295Y-20008D01*
X29295Y-20008D01*
X29184Y-20030D01*
X29090Y-20093D01*
X29090Y-20093D01*
X29090Y-20093D01*
X28957Y-20226D01*
X28867Y-20202D01*
X28570Y-20500D01*
X28576Y-20505D01*
X28505Y-20576D01*
X28500Y-20570D01*
X28494Y-20576D01*
X28423Y-20505D01*
X28429Y-20500D01*
X28423Y-20494D01*
X28494Y-20423D01*
X28500Y-20429D01*
X28797Y-20132D01*
X28772Y-20039D01*
X28575Y-19970D01*
X28367Y-19981D01*
X28227Y-20039D01*
X28225Y-20046D01*
X28205Y-20016D01*
X28205Y-20016D01*
X27059Y-18871D01*
X26965Y-18808D01*
X26854Y-18786D01*
X26807Y-18786D01*
X26737Y-18716D01*
X26581Y-18651D01*
X26412Y-18651D01*
X26328Y-18686D01*
X26328Y-18686D01*
X26325Y-18682D01*
X26325Y-18682D01*
X26259Y-18616D01*
X29286Y-18616D01*
X29374Y-18705D01*
X29374Y-18705D01*
X29449Y-18755D01*
X29449Y-18849D01*
X29487Y-18941D01*
X29558Y-19011D01*
X29650Y-19049D01*
X29749Y-19050D01*
X30349Y-19050D01*
X30441Y-19012D01*
X30511Y-18941D01*
X30549Y-18849D01*
X30549Y-18827D01*
X30688Y-18965D01*
X30890Y-19049D01*
X31108Y-19050D01*
X31183Y-19019D01*
G54D10*
G36*
X32483Y-24625D02*
X31452Y-24625D01*
X31452Y-24625D01*
X31341Y-24647D01*
X31247Y-24710D01*
X31247Y-24710D01*
X30455Y-25501D01*
X30441Y-25488D01*
X30349Y-25450D01*
X30250Y-25449D01*
X29650Y-25449D01*
X29558Y-25487D01*
X29488Y-25558D01*
X29450Y-25650D01*
X29449Y-25749D01*
X29449Y-26349D01*
X29487Y-26441D01*
X29558Y-26511D01*
X29650Y-26549D01*
X29749Y-26550D01*
X30349Y-26550D01*
X30441Y-26512D01*
X30511Y-26441D01*
X30549Y-26349D01*
X30550Y-26296D01*
X30614Y-26315D01*
X30929Y-26000D01*
X30923Y-25994D01*
X30994Y-25923D01*
X31000Y-25929D01*
X31315Y-25614D01*
X31287Y-25518D01*
X31266Y-25511D01*
X31572Y-25205D01*
X31983Y-25205D01*
X31477Y-25711D01*
X31385Y-25684D01*
X31070Y-26000D01*
X31076Y-26005D01*
X31005Y-26076D01*
X31000Y-26070D01*
X30684Y-26385D01*
X30711Y-26477D01*
X30544Y-26644D01*
X28532Y-26644D01*
X28554Y-26581D01*
X28543Y-26363D01*
X28529Y-26329D01*
X28529Y-24575D01*
X28518Y-24367D01*
X28460Y-24227D01*
X28367Y-24202D01*
X28070Y-24500D01*
X28367Y-24797D01*
X28460Y-24772D01*
X28529Y-24575D01*
X28529Y-26329D01*
X28481Y-26212D01*
X28385Y-26184D01*
X28315Y-26255D01*
X28315Y-26114D01*
X28297Y-26050D01*
X28297Y-24867D01*
X28000Y-24570D01*
X27702Y-24867D01*
X27727Y-24960D01*
X27924Y-25029D01*
X28132Y-25018D01*
X28272Y-24960D01*
X28297Y-24867D01*
X28297Y-26050D01*
X28287Y-26018D01*
X28081Y-25945D01*
X27863Y-25956D01*
X27712Y-26018D01*
X27684Y-26114D01*
X28000Y-26429D01*
X28315Y-26114D01*
X28315Y-26255D01*
X28070Y-26500D01*
X28076Y-26505D01*
X28005Y-26576D01*
X28000Y-26570D01*
X27994Y-26576D01*
X27923Y-26505D01*
X27929Y-26500D01*
X27614Y-26184D01*
X27550Y-26203D01*
X27550Y-26150D01*
X27512Y-26058D01*
X27441Y-25988D01*
X27349Y-25950D01*
X27250Y-25949D01*
X26650Y-25949D01*
X26558Y-25987D01*
X26488Y-26058D01*
X26450Y-26150D01*
X26449Y-26210D01*
X25562Y-26210D01*
X26209Y-25562D01*
X26519Y-25562D01*
X26589Y-25632D01*
X26745Y-25697D01*
X26914Y-25697D01*
X27070Y-25633D01*
X27190Y-25513D01*
X27255Y-25357D01*
X27255Y-25188D01*
X27190Y-25032D01*
X27160Y-25001D01*
X27297Y-24945D01*
X27444Y-24797D01*
X27452Y-24778D01*
X27504Y-24767D01*
X27530Y-24750D01*
X27539Y-24772D01*
X27632Y-24797D01*
X27929Y-24500D01*
X27923Y-24494D01*
X27994Y-24423D01*
X28000Y-24429D01*
X28297Y-24132D01*
X28272Y-24039D01*
X28266Y-24037D01*
X29239Y-23064D01*
X29406Y-23064D01*
X29562Y-22999D01*
X29682Y-22880D01*
X29747Y-22724D01*
X29747Y-22555D01*
X29745Y-22550D01*
X29749Y-22550D01*
X30349Y-22550D01*
X30441Y-22512D01*
X30455Y-22498D01*
X32474Y-24517D01*
X32474Y-24603D01*
X32483Y-24625D01*
X32483Y-24625D01*
G37*
G54D17*
X32483Y-24625D02*
X31452Y-24625D01*
X31452Y-24625D01*
X31341Y-24647D01*
X31247Y-24710D01*
X31247Y-24710D01*
X30455Y-25501D01*
X30441Y-25488D01*
X30349Y-25450D01*
X30250Y-25449D01*
X29650Y-25449D01*
X29558Y-25487D01*
X29488Y-25558D01*
X29450Y-25650D01*
X29449Y-25749D01*
X29449Y-26349D01*
X29487Y-26441D01*
X29558Y-26511D01*
X29650Y-26549D01*
X29749Y-26550D01*
X30349Y-26550D01*
X30441Y-26512D01*
X30511Y-26441D01*
X30549Y-26349D01*
X30550Y-26296D01*
X30614Y-26315D01*
X30929Y-26000D01*
X30923Y-25994D01*
X30994Y-25923D01*
X31000Y-25929D01*
X31315Y-25614D01*
X31287Y-25518D01*
X31266Y-25511D01*
X31572Y-25205D01*
X31983Y-25205D01*
X31477Y-25711D01*
X31385Y-25684D01*
X31070Y-26000D01*
X31076Y-26005D01*
X31005Y-26076D01*
X31000Y-26070D01*
X30684Y-26385D01*
X30711Y-26477D01*
X30544Y-26644D01*
X28532Y-26644D01*
X28554Y-26581D01*
X28543Y-26363D01*
X28529Y-26329D01*
X28529Y-24575D01*
X28518Y-24367D01*
X28460Y-24227D01*
X28367Y-24202D01*
X28070Y-24500D01*
X28367Y-24797D01*
X28460Y-24772D01*
X28529Y-24575D01*
X28529Y-26329D01*
X28481Y-26212D01*
X28385Y-26184D01*
X28315Y-26255D01*
X28315Y-26114D01*
X28297Y-26050D01*
X28297Y-24867D01*
X28000Y-24570D01*
X27702Y-24867D01*
X27727Y-24960D01*
X27924Y-25029D01*
X28132Y-25018D01*
X28272Y-24960D01*
X28297Y-24867D01*
X28297Y-26050D01*
X28287Y-26018D01*
X28081Y-25945D01*
X27863Y-25956D01*
X27712Y-26018D01*
X27684Y-26114D01*
X28000Y-26429D01*
X28315Y-26114D01*
X28315Y-26255D01*
X28070Y-26500D01*
X28076Y-26505D01*
X28005Y-26576D01*
X28000Y-26570D01*
X27994Y-26576D01*
X27923Y-26505D01*
X27929Y-26500D01*
X27614Y-26184D01*
X27550Y-26203D01*
X27550Y-26150D01*
X27512Y-26058D01*
X27441Y-25988D01*
X27349Y-25950D01*
X27250Y-25949D01*
X26650Y-25949D01*
X26558Y-25987D01*
X26488Y-26058D01*
X26450Y-26150D01*
X26449Y-26210D01*
X25562Y-26210D01*
X26209Y-25562D01*
X26519Y-25562D01*
X26589Y-25632D01*
X26745Y-25697D01*
X26914Y-25697D01*
X27070Y-25633D01*
X27190Y-25513D01*
X27255Y-25357D01*
X27255Y-25188D01*
X27190Y-25032D01*
X27160Y-25001D01*
X27297Y-24945D01*
X27444Y-24797D01*
X27452Y-24778D01*
X27504Y-24767D01*
X27530Y-24750D01*
X27539Y-24772D01*
X27632Y-24797D01*
X27929Y-24500D01*
X27923Y-24494D01*
X27994Y-24423D01*
X28000Y-24429D01*
X28297Y-24132D01*
X28272Y-24039D01*
X28266Y-24037D01*
X29239Y-23064D01*
X29406Y-23064D01*
X29562Y-22999D01*
X29682Y-22880D01*
X29747Y-22724D01*
X29747Y-22555D01*
X29745Y-22550D01*
X29749Y-22550D01*
X30349Y-22550D01*
X30441Y-22512D01*
X30455Y-22498D01*
X32474Y-24517D01*
X32474Y-24603D01*
X32483Y-24625D01*
G54D10*
G36*
X32540Y-23762D02*
X31267Y-22489D01*
X31287Y-22481D01*
X31315Y-22385D01*
X31000Y-22070D01*
X30994Y-22076D01*
X30923Y-22005D01*
X30929Y-22000D01*
X30923Y-21994D01*
X30994Y-21923D01*
X31000Y-21929D01*
X31005Y-21923D01*
X31076Y-21994D01*
X31070Y-22000D01*
X31385Y-22315D01*
X31475Y-22289D01*
X32506Y-23319D01*
X32475Y-23395D01*
X32474Y-23603D01*
X32540Y-23762D01*
X32540Y-23762D01*
G37*
G54D17*
X32540Y-23762D02*
X31267Y-22489D01*
X31287Y-22481D01*
X31315Y-22385D01*
X31000Y-22070D01*
X30994Y-22076D01*
X30923Y-22005D01*
X30929Y-22000D01*
X30923Y-21994D01*
X30994Y-21923D01*
X31000Y-21929D01*
X31005Y-21923D01*
X31076Y-21994D01*
X31070Y-22000D01*
X31385Y-22315D01*
X31475Y-22289D01*
X32506Y-23319D01*
X32475Y-23395D01*
X32474Y-23603D01*
X32540Y-23762D01*
G54D10*
G36*
X33076Y-17505D02*
X33005Y-17576D01*
X33000Y-17570D01*
X32994Y-17576D01*
X32923Y-17505D01*
X32929Y-17500D01*
X32632Y-17202D01*
X32539Y-17227D01*
X32470Y-17424D01*
X32481Y-17632D01*
X32521Y-17728D01*
X32502Y-17732D01*
X32408Y-17794D01*
X31519Y-18683D01*
X31549Y-18609D01*
X31550Y-18391D01*
X31466Y-18188D01*
X31311Y-18034D01*
X31109Y-17950D01*
X30891Y-17949D01*
X30688Y-18033D01*
X30550Y-18172D01*
X30550Y-18150D01*
X30512Y-18058D01*
X30441Y-17988D01*
X30349Y-17950D01*
X30250Y-17949D01*
X29650Y-17949D01*
X29558Y-17987D01*
X29492Y-18053D01*
X29406Y-18036D01*
X25631Y-18036D01*
X24615Y-17020D01*
X24797Y-16945D01*
X24944Y-16797D01*
X25024Y-16604D01*
X25025Y-16466D01*
X25805Y-17246D01*
X25899Y-17309D01*
X26010Y-17331D01*
X27958Y-17331D01*
X28005Y-17322D01*
X27975Y-17395D01*
X27974Y-17603D01*
X28054Y-17797D01*
X28202Y-17944D01*
X28395Y-18024D01*
X28603Y-18025D01*
X28797Y-17945D01*
X28944Y-17797D01*
X29024Y-17604D01*
X29025Y-17396D01*
X28945Y-17203D01*
X28797Y-17055D01*
X28664Y-16999D01*
X28797Y-16945D01*
X28944Y-16797D01*
X28948Y-16790D01*
X32551Y-16790D01*
X32554Y-16797D01*
X32702Y-16944D01*
X32828Y-16997D01*
X32727Y-17039D01*
X32702Y-17132D01*
X33000Y-17429D01*
X33005Y-17423D01*
X33076Y-17494D01*
X33070Y-17500D01*
X33076Y-17505D01*
X33076Y-17505D01*
G37*
G54D17*
X33076Y-17505D02*
X33005Y-17576D01*
X33000Y-17570D01*
X32994Y-17576D01*
X32923Y-17505D01*
X32929Y-17500D01*
X32632Y-17202D01*
X32539Y-17227D01*
X32470Y-17424D01*
X32481Y-17632D01*
X32521Y-17728D01*
X32502Y-17732D01*
X32408Y-17794D01*
X31519Y-18683D01*
X31549Y-18609D01*
X31550Y-18391D01*
X31466Y-18188D01*
X31311Y-18034D01*
X31109Y-17950D01*
X30891Y-17949D01*
X30688Y-18033D01*
X30550Y-18172D01*
X30550Y-18150D01*
X30512Y-18058D01*
X30441Y-17988D01*
X30349Y-17950D01*
X30250Y-17949D01*
X29650Y-17949D01*
X29558Y-17987D01*
X29492Y-18053D01*
X29406Y-18036D01*
X25631Y-18036D01*
X24615Y-17020D01*
X24797Y-16945D01*
X24944Y-16797D01*
X25024Y-16604D01*
X25025Y-16466D01*
X25805Y-17246D01*
X25899Y-17309D01*
X26010Y-17331D01*
X27958Y-17331D01*
X28005Y-17322D01*
X27975Y-17395D01*
X27974Y-17603D01*
X28054Y-17797D01*
X28202Y-17944D01*
X28395Y-18024D01*
X28603Y-18025D01*
X28797Y-17945D01*
X28944Y-17797D01*
X29024Y-17604D01*
X29025Y-17396D01*
X28945Y-17203D01*
X28797Y-17055D01*
X28664Y-16999D01*
X28797Y-16945D01*
X28944Y-16797D01*
X28948Y-16790D01*
X32551Y-16790D01*
X32554Y-16797D01*
X32702Y-16944D01*
X32828Y-16997D01*
X32727Y-17039D01*
X32702Y-17132D01*
X33000Y-17429D01*
X33005Y-17423D01*
X33076Y-17494D01*
X33070Y-17500D01*
X33076Y-17505D01*
G54D10*
G36*
X33303Y-14061D02*
X33297Y-14055D01*
X33104Y-13975D01*
X32896Y-13974D01*
X32703Y-14054D01*
X32555Y-14202D01*
X32475Y-14395D01*
X32474Y-14603D01*
X32554Y-14797D01*
X32702Y-14944D01*
X32835Y-15000D01*
X32703Y-15054D01*
X32555Y-15202D01*
X32475Y-15395D01*
X32474Y-15603D01*
X32554Y-15797D01*
X32702Y-15944D01*
X32835Y-16000D01*
X32703Y-16054D01*
X32555Y-16202D01*
X32551Y-16210D01*
X31554Y-16210D01*
X31554Y-15081D01*
X31543Y-14863D01*
X31481Y-14712D01*
X31385Y-14684D01*
X31315Y-14755D01*
X31315Y-14614D01*
X31287Y-14518D01*
X31081Y-14445D01*
X30863Y-14456D01*
X30712Y-14518D01*
X30684Y-14614D01*
X31000Y-14929D01*
X31315Y-14614D01*
X31315Y-14755D01*
X31070Y-15000D01*
X31385Y-15315D01*
X31481Y-15287D01*
X31554Y-15081D01*
X31554Y-16210D01*
X31315Y-16210D01*
X31315Y-15385D01*
X31000Y-15070D01*
X30929Y-15141D01*
X30929Y-15000D01*
X30614Y-14684D01*
X30550Y-14703D01*
X30550Y-14650D01*
X30512Y-14558D01*
X30441Y-14488D01*
X30349Y-14450D01*
X30250Y-14449D01*
X29650Y-14449D01*
X29558Y-14487D01*
X29488Y-14558D01*
X29450Y-14650D01*
X29449Y-14749D01*
X29449Y-15349D01*
X29487Y-15441D01*
X29558Y-15511D01*
X29650Y-15549D01*
X29749Y-15550D01*
X30349Y-15550D01*
X30441Y-15512D01*
X30511Y-15441D01*
X30549Y-15349D01*
X30550Y-15296D01*
X30614Y-15315D01*
X30929Y-15000D01*
X30929Y-15141D01*
X30684Y-15385D01*
X30712Y-15481D01*
X30918Y-15554D01*
X31136Y-15543D01*
X31287Y-15481D01*
X31315Y-15385D01*
X31315Y-16210D01*
X29029Y-16210D01*
X29029Y-15075D01*
X29018Y-14867D01*
X28960Y-14727D01*
X28867Y-14702D01*
X28797Y-14773D01*
X28797Y-14632D01*
X28772Y-14539D01*
X28575Y-14470D01*
X28367Y-14481D01*
X28227Y-14539D01*
X28202Y-14632D01*
X28500Y-14929D01*
X28797Y-14632D01*
X28797Y-14773D01*
X28570Y-15000D01*
X28867Y-15297D01*
X28960Y-15272D01*
X29029Y-15075D01*
X29029Y-16210D01*
X28948Y-16210D01*
X28945Y-16203D01*
X28797Y-16055D01*
X28797Y-16054D01*
X28797Y-15367D01*
X28500Y-15070D01*
X28202Y-15367D01*
X28227Y-15460D01*
X28424Y-15529D01*
X28632Y-15518D01*
X28772Y-15460D01*
X28797Y-15367D01*
X28797Y-16054D01*
X28604Y-15975D01*
X28396Y-15974D01*
X28203Y-16054D01*
X28055Y-16202D01*
X27983Y-16375D01*
X27852Y-16321D01*
X27790Y-16321D01*
X27790Y-15448D01*
X27797Y-15445D01*
X27944Y-15297D01*
X27997Y-15171D01*
X28039Y-15272D01*
X28132Y-15297D01*
X28429Y-15000D01*
X28132Y-14702D01*
X28039Y-14727D01*
X28000Y-14837D01*
X27945Y-14703D01*
X27797Y-14555D01*
X27604Y-14475D01*
X27396Y-14474D01*
X27203Y-14554D01*
X27055Y-14702D01*
X26975Y-14895D01*
X26974Y-15103D01*
X27054Y-15297D01*
X27202Y-15444D01*
X27210Y-15448D01*
X27210Y-16479D01*
X27232Y-16590D01*
X27294Y-16684D01*
X27342Y-16731D01*
X27342Y-16751D01*
X26130Y-16751D01*
X24187Y-14808D01*
X24190Y-14801D01*
X24190Y-14592D01*
X24110Y-14399D01*
X23963Y-14252D01*
X23770Y-14171D01*
X23561Y-14171D01*
X23368Y-14251D01*
X23220Y-14399D01*
X23190Y-14471D01*
X23190Y-14471D01*
X23190Y-14371D01*
X23152Y-14280D01*
X23081Y-14209D01*
X22989Y-14171D01*
X22874Y-14171D01*
X23515Y-13530D01*
X32864Y-13530D01*
X32975Y-13508D01*
X33069Y-13445D01*
X33303Y-13211D01*
X33303Y-14061D01*
X33303Y-14061D01*
G37*
G54D17*
X33303Y-14061D02*
X33297Y-14055D01*
X33104Y-13975D01*
X32896Y-13974D01*
X32703Y-14054D01*
X32555Y-14202D01*
X32475Y-14395D01*
X32474Y-14603D01*
X32554Y-14797D01*
X32702Y-14944D01*
X32835Y-15000D01*
X32703Y-15054D01*
X32555Y-15202D01*
X32475Y-15395D01*
X32474Y-15603D01*
X32554Y-15797D01*
X32702Y-15944D01*
X32835Y-16000D01*
X32703Y-16054D01*
X32555Y-16202D01*
X32551Y-16210D01*
X31554Y-16210D01*
X31554Y-15081D01*
X31543Y-14863D01*
X31481Y-14712D01*
X31385Y-14684D01*
X31315Y-14755D01*
X31315Y-14614D01*
X31287Y-14518D01*
X31081Y-14445D01*
X30863Y-14456D01*
X30712Y-14518D01*
X30684Y-14614D01*
X31000Y-14929D01*
X31315Y-14614D01*
X31315Y-14755D01*
X31070Y-15000D01*
X31385Y-15315D01*
X31481Y-15287D01*
X31554Y-15081D01*
X31554Y-16210D01*
X31315Y-16210D01*
X31315Y-15385D01*
X31000Y-15070D01*
X30929Y-15141D01*
X30929Y-15000D01*
X30614Y-14684D01*
X30550Y-14703D01*
X30550Y-14650D01*
X30512Y-14558D01*
X30441Y-14488D01*
X30349Y-14450D01*
X30250Y-14449D01*
X29650Y-14449D01*
X29558Y-14487D01*
X29488Y-14558D01*
X29450Y-14650D01*
X29449Y-14749D01*
X29449Y-15349D01*
X29487Y-15441D01*
X29558Y-15511D01*
X29650Y-15549D01*
X29749Y-15550D01*
X30349Y-15550D01*
X30441Y-15512D01*
X30511Y-15441D01*
X30549Y-15349D01*
X30550Y-15296D01*
X30614Y-15315D01*
X30929Y-15000D01*
X30929Y-15141D01*
X30684Y-15385D01*
X30712Y-15481D01*
X30918Y-15554D01*
X31136Y-15543D01*
X31287Y-15481D01*
X31315Y-15385D01*
X31315Y-16210D01*
X29029Y-16210D01*
X29029Y-15075D01*
X29018Y-14867D01*
X28960Y-14727D01*
X28867Y-14702D01*
X28797Y-14773D01*
X28797Y-14632D01*
X28772Y-14539D01*
X28575Y-14470D01*
X28367Y-14481D01*
X28227Y-14539D01*
X28202Y-14632D01*
X28500Y-14929D01*
X28797Y-14632D01*
X28797Y-14773D01*
X28570Y-15000D01*
X28867Y-15297D01*
X28960Y-15272D01*
X29029Y-15075D01*
X29029Y-16210D01*
X28948Y-16210D01*
X28945Y-16203D01*
X28797Y-16055D01*
X28797Y-16054D01*
X28797Y-15367D01*
X28500Y-15070D01*
X28202Y-15367D01*
X28227Y-15460D01*
X28424Y-15529D01*
X28632Y-15518D01*
X28772Y-15460D01*
X28797Y-15367D01*
X28797Y-16054D01*
X28604Y-15975D01*
X28396Y-15974D01*
X28203Y-16054D01*
X28055Y-16202D01*
X27983Y-16375D01*
X27852Y-16321D01*
X27790Y-16321D01*
X27790Y-15448D01*
X27797Y-15445D01*
X27944Y-15297D01*
X27997Y-15171D01*
X28039Y-15272D01*
X28132Y-15297D01*
X28429Y-15000D01*
X28132Y-14702D01*
X28039Y-14727D01*
X28000Y-14837D01*
X27945Y-14703D01*
X27797Y-14555D01*
X27604Y-14475D01*
X27396Y-14474D01*
X27203Y-14554D01*
X27055Y-14702D01*
X26975Y-14895D01*
X26974Y-15103D01*
X27054Y-15297D01*
X27202Y-15444D01*
X27210Y-15448D01*
X27210Y-16479D01*
X27232Y-16590D01*
X27294Y-16684D01*
X27342Y-16731D01*
X27342Y-16751D01*
X26130Y-16751D01*
X24187Y-14808D01*
X24190Y-14801D01*
X24190Y-14592D01*
X24110Y-14399D01*
X23963Y-14252D01*
X23770Y-14171D01*
X23561Y-14171D01*
X23368Y-14251D01*
X23220Y-14399D01*
X23190Y-14471D01*
X23190Y-14471D01*
X23190Y-14371D01*
X23152Y-14280D01*
X23081Y-14209D01*
X22989Y-14171D01*
X22874Y-14171D01*
X23515Y-13530D01*
X32864Y-13530D01*
X32975Y-13508D01*
X33069Y-13445D01*
X33303Y-13211D01*
X33303Y-14061D01*
G54D10*
G36*
X33730Y-29730D02*
X31999Y-29730D01*
X32049Y-29609D01*
X32050Y-29490D01*
X32070Y-29490D01*
X32227Y-29426D01*
X32346Y-29306D01*
X32411Y-29150D01*
X32411Y-28981D01*
X32347Y-28825D01*
X32227Y-28705D01*
X32071Y-28640D01*
X32037Y-28640D01*
X32049Y-28609D01*
X32050Y-28391D01*
X31966Y-28188D01*
X31811Y-28034D01*
X31609Y-27950D01*
X31391Y-27949D01*
X31188Y-28033D01*
X31034Y-28188D01*
X31024Y-28210D01*
X30975Y-28210D01*
X30966Y-28188D01*
X30811Y-28034D01*
X30609Y-27950D01*
X30391Y-27949D01*
X30188Y-28033D01*
X30034Y-28188D01*
X30024Y-28210D01*
X29975Y-28210D01*
X29966Y-28188D01*
X29811Y-28034D01*
X29609Y-27950D01*
X29391Y-27949D01*
X29188Y-28033D01*
X29034Y-28188D01*
X29024Y-28210D01*
X28975Y-28210D01*
X28966Y-28188D01*
X28811Y-28034D01*
X28609Y-27950D01*
X28391Y-27949D01*
X28188Y-28033D01*
X28034Y-28188D01*
X28024Y-28210D01*
X27975Y-28210D01*
X27966Y-28188D01*
X27811Y-28034D01*
X27609Y-27950D01*
X27391Y-27949D01*
X27188Y-28033D01*
X27034Y-28188D01*
X27024Y-28210D01*
X26975Y-28210D01*
X26966Y-28188D01*
X26811Y-28034D01*
X26609Y-27950D01*
X26391Y-27949D01*
X26188Y-28033D01*
X26034Y-28188D01*
X26024Y-28210D01*
X25975Y-28210D01*
X25966Y-28188D01*
X25811Y-28034D01*
X25609Y-27950D01*
X25391Y-27949D01*
X25188Y-28033D01*
X25034Y-28188D01*
X25024Y-28210D01*
X24975Y-28210D01*
X24966Y-28188D01*
X24811Y-28034D01*
X24609Y-27950D01*
X24391Y-27949D01*
X24188Y-28033D01*
X24034Y-28188D01*
X23950Y-28390D01*
X23949Y-28608D01*
X23958Y-28630D01*
X23879Y-28710D01*
X23448Y-28710D01*
X23445Y-28703D01*
X23297Y-28555D01*
X23104Y-28475D01*
X22896Y-28474D01*
X22703Y-28554D01*
X22555Y-28702D01*
X22551Y-28710D01*
X22448Y-28710D01*
X22445Y-28703D01*
X22297Y-28555D01*
X22104Y-28475D01*
X21896Y-28474D01*
X21703Y-28554D01*
X21555Y-28702D01*
X21499Y-28835D01*
X21445Y-28703D01*
X21297Y-28555D01*
X21104Y-28475D01*
X20896Y-28474D01*
X20703Y-28554D01*
X20555Y-28702D01*
X20499Y-28835D01*
X20445Y-28703D01*
X20297Y-28555D01*
X20104Y-28475D01*
X19896Y-28474D01*
X19703Y-28554D01*
X19555Y-28702D01*
X19502Y-28828D01*
X19460Y-28727D01*
X19367Y-28702D01*
X19297Y-28773D01*
X19297Y-28632D01*
X19272Y-28539D01*
X19075Y-28470D01*
X18867Y-28481D01*
X18727Y-28539D01*
X18702Y-28632D01*
X19000Y-28929D01*
X19297Y-28632D01*
X19297Y-28773D01*
X19070Y-29000D01*
X19367Y-29297D01*
X19460Y-29272D01*
X19499Y-29162D01*
X19554Y-29297D01*
X19702Y-29444D01*
X19895Y-29524D01*
X20103Y-29525D01*
X20297Y-29445D01*
X20444Y-29297D01*
X20500Y-29164D01*
X20554Y-29297D01*
X20702Y-29444D01*
X20895Y-29524D01*
X21103Y-29525D01*
X21297Y-29445D01*
X21444Y-29297D01*
X21500Y-29164D01*
X21554Y-29297D01*
X21702Y-29444D01*
X21895Y-29524D01*
X22103Y-29525D01*
X22297Y-29445D01*
X22444Y-29297D01*
X22448Y-29290D01*
X22551Y-29290D01*
X22554Y-29297D01*
X22702Y-29444D01*
X22895Y-29524D01*
X23103Y-29525D01*
X23297Y-29445D01*
X23444Y-29297D01*
X23448Y-29290D01*
X23949Y-29290D01*
X23949Y-29730D01*
X19297Y-29730D01*
X19297Y-29367D01*
X19000Y-29070D01*
X18929Y-29141D01*
X18929Y-29000D01*
X18632Y-28702D01*
X18539Y-28727D01*
X18503Y-28830D01*
X18460Y-28727D01*
X18367Y-28702D01*
X18297Y-28773D01*
X18297Y-28632D01*
X18272Y-28539D01*
X18075Y-28470D01*
X17867Y-28481D01*
X17727Y-28539D01*
X17702Y-28632D01*
X18000Y-28929D01*
X18297Y-28632D01*
X18297Y-28773D01*
X18070Y-29000D01*
X18367Y-29297D01*
X18460Y-29272D01*
X18496Y-29169D01*
X18539Y-29272D01*
X18632Y-29297D01*
X18929Y-29000D01*
X18929Y-29141D01*
X18702Y-29367D01*
X18727Y-29460D01*
X18924Y-29529D01*
X19132Y-29518D01*
X19272Y-29460D01*
X19297Y-29367D01*
X19297Y-29730D01*
X18297Y-29730D01*
X18297Y-29367D01*
X18000Y-29070D01*
X17929Y-29141D01*
X17929Y-29000D01*
X17632Y-28702D01*
X17539Y-28727D01*
X17503Y-28830D01*
X17460Y-28727D01*
X17367Y-28702D01*
X17297Y-28773D01*
X17297Y-28632D01*
X17272Y-28539D01*
X17075Y-28470D01*
X16867Y-28481D01*
X16727Y-28539D01*
X16702Y-28632D01*
X17000Y-28929D01*
X17297Y-28632D01*
X17297Y-28773D01*
X17070Y-29000D01*
X17367Y-29297D01*
X17460Y-29272D01*
X17496Y-29169D01*
X17539Y-29272D01*
X17632Y-29297D01*
X17929Y-29000D01*
X17929Y-29141D01*
X17702Y-29367D01*
X17727Y-29460D01*
X17924Y-29529D01*
X18132Y-29518D01*
X18272Y-29460D01*
X18297Y-29367D01*
X18297Y-29730D01*
X17297Y-29730D01*
X17297Y-29367D01*
X17000Y-29070D01*
X16929Y-29141D01*
X16929Y-29000D01*
X16632Y-28702D01*
X16539Y-28727D01*
X16525Y-28768D01*
X16524Y-28675D01*
X16486Y-28583D01*
X16416Y-28512D01*
X16324Y-28474D01*
X16112Y-28475D01*
X16050Y-28537D01*
X16050Y-28950D01*
X16057Y-28950D01*
X16057Y-29050D01*
X16050Y-29050D01*
X16050Y-29462D01*
X16112Y-29525D01*
X16324Y-29525D01*
X16416Y-29487D01*
X16486Y-29416D01*
X16524Y-29324D01*
X16525Y-29237D01*
X16539Y-29272D01*
X16632Y-29297D01*
X16929Y-29000D01*
X16929Y-29141D01*
X16702Y-29367D01*
X16727Y-29460D01*
X16924Y-29529D01*
X17132Y-29518D01*
X17272Y-29460D01*
X17297Y-29367D01*
X17297Y-29730D01*
X15950Y-29730D01*
X15950Y-29462D01*
X15950Y-29050D01*
X15950Y-28950D01*
X15950Y-28537D01*
X15887Y-28475D01*
X15675Y-28474D01*
X15583Y-28512D01*
X15513Y-28583D01*
X15475Y-28675D01*
X15474Y-28774D01*
X15475Y-28887D01*
X15537Y-28950D01*
X15950Y-28950D01*
X15950Y-29050D01*
X15537Y-29050D01*
X15475Y-29112D01*
X15474Y-29225D01*
X15475Y-29324D01*
X15513Y-29416D01*
X15583Y-29487D01*
X15675Y-29525D01*
X15887Y-29525D01*
X15950Y-29462D01*
X15950Y-29730D01*
X15269Y-29730D01*
X15269Y-26505D01*
X15764Y-27000D01*
X15858Y-27063D01*
X15969Y-27085D01*
X23441Y-27085D01*
X23441Y-27202D01*
X23506Y-27358D01*
X23625Y-27478D01*
X23781Y-27543D01*
X23950Y-27543D01*
X24066Y-27495D01*
X24065Y-27509D01*
X24130Y-27665D01*
X24250Y-27785D01*
X24406Y-27849D01*
X24575Y-27850D01*
X24611Y-27834D01*
X24631Y-27882D01*
X24750Y-28001D01*
X24906Y-28066D01*
X25075Y-28066D01*
X25232Y-28002D01*
X25302Y-27931D01*
X31916Y-27931D01*
X32540Y-28555D01*
X32513Y-28583D01*
X32475Y-28675D01*
X32474Y-28774D01*
X32474Y-29324D01*
X32512Y-29416D01*
X32583Y-29486D01*
X32675Y-29524D01*
X32774Y-29525D01*
X33324Y-29525D01*
X33416Y-29487D01*
X33486Y-29416D01*
X33524Y-29324D01*
X33525Y-29225D01*
X33525Y-28675D01*
X33487Y-28583D01*
X33416Y-28513D01*
X33324Y-28475D01*
X33255Y-28474D01*
X33248Y-28465D01*
X33297Y-28445D01*
X33444Y-28297D01*
X33524Y-28104D01*
X33525Y-27896D01*
X33445Y-27703D01*
X33297Y-27555D01*
X33164Y-27499D01*
X33297Y-27445D01*
X33444Y-27297D01*
X33524Y-27104D01*
X33525Y-26896D01*
X33445Y-26703D01*
X33297Y-26555D01*
X33104Y-26475D01*
X32896Y-26474D01*
X32703Y-26554D01*
X32555Y-26702D01*
X32502Y-26828D01*
X31181Y-26828D01*
X32474Y-25534D01*
X32474Y-25824D01*
X32512Y-25916D01*
X32583Y-25986D01*
X32675Y-26024D01*
X32774Y-26025D01*
X33324Y-26025D01*
X33416Y-25987D01*
X33486Y-25916D01*
X33524Y-25824D01*
X33525Y-25725D01*
X33525Y-25216D01*
X33730Y-25011D01*
X33730Y-29730D01*
X33730Y-29730D01*
G37*
G54D17*
X33730Y-29730D02*
X31999Y-29730D01*
X32049Y-29609D01*
X32050Y-29490D01*
X32070Y-29490D01*
X32227Y-29426D01*
X32346Y-29306D01*
X32411Y-29150D01*
X32411Y-28981D01*
X32347Y-28825D01*
X32227Y-28705D01*
X32071Y-28640D01*
X32037Y-28640D01*
X32049Y-28609D01*
X32050Y-28391D01*
X31966Y-28188D01*
X31811Y-28034D01*
X31609Y-27950D01*
X31391Y-27949D01*
X31188Y-28033D01*
X31034Y-28188D01*
X31024Y-28210D01*
X30975Y-28210D01*
X30966Y-28188D01*
X30811Y-28034D01*
X30609Y-27950D01*
X30391Y-27949D01*
X30188Y-28033D01*
X30034Y-28188D01*
X30024Y-28210D01*
X29975Y-28210D01*
X29966Y-28188D01*
X29811Y-28034D01*
X29609Y-27950D01*
X29391Y-27949D01*
X29188Y-28033D01*
X29034Y-28188D01*
X29024Y-28210D01*
X28975Y-28210D01*
X28966Y-28188D01*
X28811Y-28034D01*
X28609Y-27950D01*
X28391Y-27949D01*
X28188Y-28033D01*
X28034Y-28188D01*
X28024Y-28210D01*
X27975Y-28210D01*
X27966Y-28188D01*
X27811Y-28034D01*
X27609Y-27950D01*
X27391Y-27949D01*
X27188Y-28033D01*
X27034Y-28188D01*
X27024Y-28210D01*
X26975Y-28210D01*
X26966Y-28188D01*
X26811Y-28034D01*
X26609Y-27950D01*
X26391Y-27949D01*
X26188Y-28033D01*
X26034Y-28188D01*
X26024Y-28210D01*
X25975Y-28210D01*
X25966Y-28188D01*
X25811Y-28034D01*
X25609Y-27950D01*
X25391Y-27949D01*
X25188Y-28033D01*
X25034Y-28188D01*
X25024Y-28210D01*
X24975Y-28210D01*
X24966Y-28188D01*
X24811Y-28034D01*
X24609Y-27950D01*
X24391Y-27949D01*
X24188Y-28033D01*
X24034Y-28188D01*
X23950Y-28390D01*
X23949Y-28608D01*
X23958Y-28630D01*
X23879Y-28710D01*
X23448Y-28710D01*
X23445Y-28703D01*
X23297Y-28555D01*
X23104Y-28475D01*
X22896Y-28474D01*
X22703Y-28554D01*
X22555Y-28702D01*
X22551Y-28710D01*
X22448Y-28710D01*
X22445Y-28703D01*
X22297Y-28555D01*
X22104Y-28475D01*
X21896Y-28474D01*
X21703Y-28554D01*
X21555Y-28702D01*
X21499Y-28835D01*
X21445Y-28703D01*
X21297Y-28555D01*
X21104Y-28475D01*
X20896Y-28474D01*
X20703Y-28554D01*
X20555Y-28702D01*
X20499Y-28835D01*
X20445Y-28703D01*
X20297Y-28555D01*
X20104Y-28475D01*
X19896Y-28474D01*
X19703Y-28554D01*
X19555Y-28702D01*
X19502Y-28828D01*
X19460Y-28727D01*
X19367Y-28702D01*
X19297Y-28773D01*
X19297Y-28632D01*
X19272Y-28539D01*
X19075Y-28470D01*
X18867Y-28481D01*
X18727Y-28539D01*
X18702Y-28632D01*
X19000Y-28929D01*
X19297Y-28632D01*
X19297Y-28773D01*
X19070Y-29000D01*
X19367Y-29297D01*
X19460Y-29272D01*
X19499Y-29162D01*
X19554Y-29297D01*
X19702Y-29444D01*
X19895Y-29524D01*
X20103Y-29525D01*
X20297Y-29445D01*
X20444Y-29297D01*
X20500Y-29164D01*
X20554Y-29297D01*
X20702Y-29444D01*
X20895Y-29524D01*
X21103Y-29525D01*
X21297Y-29445D01*
X21444Y-29297D01*
X21500Y-29164D01*
X21554Y-29297D01*
X21702Y-29444D01*
X21895Y-29524D01*
X22103Y-29525D01*
X22297Y-29445D01*
X22444Y-29297D01*
X22448Y-29290D01*
X22551Y-29290D01*
X22554Y-29297D01*
X22702Y-29444D01*
X22895Y-29524D01*
X23103Y-29525D01*
X23297Y-29445D01*
X23444Y-29297D01*
X23448Y-29290D01*
X23949Y-29290D01*
X23949Y-29730D01*
X19297Y-29730D01*
X19297Y-29367D01*
X19000Y-29070D01*
X18929Y-29141D01*
X18929Y-29000D01*
X18632Y-28702D01*
X18539Y-28727D01*
X18503Y-28830D01*
X18460Y-28727D01*
X18367Y-28702D01*
X18297Y-28773D01*
X18297Y-28632D01*
X18272Y-28539D01*
X18075Y-28470D01*
X17867Y-28481D01*
X17727Y-28539D01*
X17702Y-28632D01*
X18000Y-28929D01*
X18297Y-28632D01*
X18297Y-28773D01*
X18070Y-29000D01*
X18367Y-29297D01*
X18460Y-29272D01*
X18496Y-29169D01*
X18539Y-29272D01*
X18632Y-29297D01*
X18929Y-29000D01*
X18929Y-29141D01*
X18702Y-29367D01*
X18727Y-29460D01*
X18924Y-29529D01*
X19132Y-29518D01*
X19272Y-29460D01*
X19297Y-29367D01*
X19297Y-29730D01*
X18297Y-29730D01*
X18297Y-29367D01*
X18000Y-29070D01*
X17929Y-29141D01*
X17929Y-29000D01*
X17632Y-28702D01*
X17539Y-28727D01*
X17503Y-28830D01*
X17460Y-28727D01*
X17367Y-28702D01*
X17297Y-28773D01*
X17297Y-28632D01*
X17272Y-28539D01*
X17075Y-28470D01*
X16867Y-28481D01*
X16727Y-28539D01*
X16702Y-28632D01*
X17000Y-28929D01*
X17297Y-28632D01*
X17297Y-28773D01*
X17070Y-29000D01*
X17367Y-29297D01*
X17460Y-29272D01*
X17496Y-29169D01*
X17539Y-29272D01*
X17632Y-29297D01*
X17929Y-29000D01*
X17929Y-29141D01*
X17702Y-29367D01*
X17727Y-29460D01*
X17924Y-29529D01*
X18132Y-29518D01*
X18272Y-29460D01*
X18297Y-29367D01*
X18297Y-29730D01*
X17297Y-29730D01*
X17297Y-29367D01*
X17000Y-29070D01*
X16929Y-29141D01*
X16929Y-29000D01*
X16632Y-28702D01*
X16539Y-28727D01*
X16525Y-28768D01*
X16524Y-28675D01*
X16486Y-28583D01*
X16416Y-28512D01*
X16324Y-28474D01*
X16112Y-28475D01*
X16050Y-28537D01*
X16050Y-28950D01*
X16057Y-28950D01*
X16057Y-29050D01*
X16050Y-29050D01*
X16050Y-29462D01*
X16112Y-29525D01*
X16324Y-29525D01*
X16416Y-29487D01*
X16486Y-29416D01*
X16524Y-29324D01*
X16525Y-29237D01*
X16539Y-29272D01*
X16632Y-29297D01*
X16929Y-29000D01*
X16929Y-29141D01*
X16702Y-29367D01*
X16727Y-29460D01*
X16924Y-29529D01*
X17132Y-29518D01*
X17272Y-29460D01*
X17297Y-29367D01*
X17297Y-29730D01*
X15950Y-29730D01*
X15950Y-29462D01*
X15950Y-29050D01*
X15950Y-28950D01*
X15950Y-28537D01*
X15887Y-28475D01*
X15675Y-28474D01*
X15583Y-28512D01*
X15513Y-28583D01*
X15475Y-28675D01*
X15474Y-28774D01*
X15475Y-28887D01*
X15537Y-28950D01*
X15950Y-28950D01*
X15950Y-29050D01*
X15537Y-29050D01*
X15475Y-29112D01*
X15474Y-29225D01*
X15475Y-29324D01*
X15513Y-29416D01*
X15583Y-29487D01*
X15675Y-29525D01*
X15887Y-29525D01*
X15950Y-29462D01*
X15950Y-29730D01*
X15269Y-29730D01*
X15269Y-26505D01*
X15764Y-27000D01*
X15858Y-27063D01*
X15969Y-27085D01*
X23441Y-27085D01*
X23441Y-27202D01*
X23506Y-27358D01*
X23625Y-27478D01*
X23781Y-27543D01*
X23950Y-27543D01*
X24066Y-27495D01*
X24065Y-27509D01*
X24130Y-27665D01*
X24250Y-27785D01*
X24406Y-27849D01*
X24575Y-27850D01*
X24611Y-27834D01*
X24631Y-27882D01*
X24750Y-28001D01*
X24906Y-28066D01*
X25075Y-28066D01*
X25232Y-28002D01*
X25302Y-27931D01*
X31916Y-27931D01*
X32540Y-28555D01*
X32513Y-28583D01*
X32475Y-28675D01*
X32474Y-28774D01*
X32474Y-29324D01*
X32512Y-29416D01*
X32583Y-29486D01*
X32675Y-29524D01*
X32774Y-29525D01*
X33324Y-29525D01*
X33416Y-29487D01*
X33486Y-29416D01*
X33524Y-29324D01*
X33525Y-29225D01*
X33525Y-28675D01*
X33487Y-28583D01*
X33416Y-28513D01*
X33324Y-28475D01*
X33255Y-28474D01*
X33248Y-28465D01*
X33297Y-28445D01*
X33444Y-28297D01*
X33524Y-28104D01*
X33525Y-27896D01*
X33445Y-27703D01*
X33297Y-27555D01*
X33164Y-27499D01*
X33297Y-27445D01*
X33444Y-27297D01*
X33524Y-27104D01*
X33525Y-26896D01*
X33445Y-26703D01*
X33297Y-26555D01*
X33104Y-26475D01*
X32896Y-26474D01*
X32703Y-26554D01*
X32555Y-26702D01*
X32502Y-26828D01*
X31181Y-26828D01*
X32474Y-25534D01*
X32474Y-25824D01*
X32512Y-25916D01*
X32583Y-25986D01*
X32675Y-26024D01*
X32774Y-26025D01*
X33324Y-26025D01*
X33416Y-25987D01*
X33486Y-25916D01*
X33524Y-25824D01*
X33525Y-25725D01*
X33525Y-25216D01*
X33730Y-25011D01*
X33730Y-29730D01*
M02*
