G04 (created by PCBNEW (2013-03-31 BZR 4008)-stable) date 6/6/2013 1:10:11 PM*
%MOIN*%
G04 Gerber Fmt 3.4, Leading zero omitted, Abs format*
%FSLAX34Y34*%
G01*
G70*
G90*
G04 APERTURE LIST*
%ADD10C,0.006*%
%ADD11R,0.055X0.055*%
%ADD12C,0.055*%
%ADD13R,0.06X0.06*%
%ADD14C,0.06*%
G04 APERTURE END LIST*
G54D10*
G54D11*
X16000Y-29000D03*
G54D12*
X17000Y-29000D03*
X18000Y-29000D03*
X19000Y-29000D03*
X20000Y-29000D03*
X21000Y-29000D03*
X22000Y-29000D03*
X23000Y-29000D03*
G54D11*
X16000Y-11500D03*
G54D12*
X17000Y-11500D03*
X18000Y-11500D03*
X19000Y-11500D03*
X20000Y-11500D03*
G54D11*
X33000Y-29000D03*
G54D12*
X33000Y-28000D03*
X33000Y-27000D03*
G54D11*
X22665Y-14696D03*
G54D12*
X23665Y-14696D03*
G54D11*
X20185Y-14629D03*
G54D12*
X21185Y-14629D03*
G54D11*
X33000Y-25500D03*
G54D12*
X33000Y-24500D03*
X33000Y-23500D03*
X33000Y-22500D03*
X33000Y-21500D03*
X33000Y-20500D03*
X33000Y-19500D03*
X33000Y-18500D03*
X33000Y-17500D03*
X33000Y-16500D03*
X33000Y-15500D03*
X33000Y-14500D03*
G54D13*
X24500Y-29500D03*
G54D14*
X24500Y-28500D03*
X25500Y-29500D03*
X25500Y-28500D03*
X26500Y-29500D03*
X26500Y-28500D03*
X27500Y-29500D03*
X27500Y-28500D03*
X28500Y-29500D03*
X28500Y-28500D03*
X29500Y-29500D03*
X29500Y-28500D03*
X30500Y-29500D03*
X30500Y-28500D03*
X31500Y-29500D03*
X31500Y-28500D03*
G54D13*
X33000Y-11500D03*
G54D14*
X33000Y-12500D03*
X32000Y-11500D03*
X32000Y-12500D03*
X31000Y-11500D03*
X31000Y-12500D03*
X30000Y-11500D03*
X30000Y-12500D03*
X29000Y-11500D03*
X29000Y-12500D03*
X28000Y-11500D03*
X28000Y-12500D03*
X27000Y-11500D03*
X27000Y-12500D03*
X26000Y-11500D03*
X26000Y-12500D03*
X25000Y-11500D03*
X25000Y-12500D03*
X24000Y-11500D03*
X24000Y-12500D03*
X23000Y-11500D03*
X23000Y-12500D03*
X22000Y-11500D03*
X22000Y-12500D03*
G54D13*
X16000Y-15000D03*
G54D14*
X17000Y-15000D03*
X16000Y-16000D03*
X17000Y-16000D03*
X16000Y-17000D03*
X17000Y-17000D03*
X16000Y-18000D03*
X17000Y-18000D03*
X16000Y-19000D03*
X17000Y-19000D03*
X16000Y-20000D03*
X17000Y-20000D03*
X16000Y-21000D03*
X17000Y-21000D03*
X16000Y-22000D03*
X17000Y-22000D03*
X16000Y-23000D03*
X17000Y-23000D03*
X16000Y-24000D03*
X17000Y-24000D03*
X16000Y-25000D03*
X17000Y-25000D03*
X16000Y-26000D03*
X17000Y-26000D03*
G54D13*
X30000Y-26000D03*
G54D14*
X31000Y-26000D03*
G54D13*
X20000Y-17000D03*
G54D14*
X21000Y-17000D03*
G54D13*
X27000Y-26500D03*
G54D14*
X28000Y-26500D03*
G54D13*
X30000Y-15000D03*
G54D14*
X31000Y-15000D03*
G54D13*
X23929Y-25838D03*
G54D14*
X24929Y-25838D03*
G54D13*
X20500Y-26000D03*
G54D14*
X21500Y-26000D03*
G54D13*
X30000Y-22000D03*
G54D14*
X31000Y-22000D03*
G54D13*
X30000Y-18500D03*
G54D14*
X31000Y-18500D03*
G54D12*
X23500Y-16500D03*
X24500Y-16500D03*
X27500Y-15000D03*
X28500Y-15000D03*
X20000Y-22500D03*
X20000Y-21500D03*
X28500Y-17500D03*
X28500Y-16500D03*
X27500Y-20500D03*
X28500Y-20500D03*
X19000Y-25500D03*
X19000Y-24500D03*
X20000Y-20000D03*
X20000Y-19000D03*
X27000Y-24500D03*
X28000Y-24500D03*
M02*
